<svg id="Capa_1" data-name="Capa 1" xmlns="http://www.w3.org/2000/svg" viewBox="0 0 470.47 339.04"><defs><style>.cls-1{fill:#fff;}.cls-2{fill:#ebf2fb;}.cls-3{fill:#2c2513;}.cls-4{fill:#131508;}.cls-5{fill:#594d35;}.cls-6{fill:#f6d4bb;}.cls-10,.cls-12,.cls-6,.cls-7{stroke:#1d1d1b;stroke-miterlimit:10;}.cls-10,.cls-6,.cls-7{stroke-width:0.42px;}.cls-7{fill:#b67756;}.cls-8{fill:#7bab00;}.cls-9{fill:#abd450;}.cls-10{fill:#3e4c9c;}.cls-11{fill:#7cba3e;isolation:isolate;opacity:0.2;}.cls-12{fill:#343e7e;stroke-width:0.47px;}</style></defs><rect class="cls-1" width="470.47" height="339.04"/><rect class="cls-1" x="2.74" y="2.89" width="465" height="333.63"/><rect class="cls-1" x="4.45" y="3.24" width="459.85" height="329.31"/><g id="Capa_2" data-name="Capa 2"><g id="Capa_1-2" data-name="Capa 1-2"><path class="cls-2" d="M463.66,281S419,358.6,217.35,323.34c0,0-129.94,25.85-175.93-35.8C23,262.82,25.69,227.78,25.69,227.78c-.13-3.88-.07-7.18,0-9.43,0,0-68.41-127.33,40.53-159.42,0,0-12.19-50.46,57.45-56.41H464.31Z"/><path class="cls-3" d="M176.62,165.45a275.53,275.53,0,0,1,62.27-14.58c77.86-8.74,124.38,19.82,133.2,26.29,3.83,2.81,10.4,7.64,11.16,14.76.74,6.88-4.77,9.64-3.95,17.48s7.14,13.29,8.17,14.12c8.58,7.16,16.11,3.1,22.41,9.55,5.56,5.69,6,15.33,1.87,21.14a15.18,15.18,0,0,1-6.1,4.86c-23.08,10-163.82,28.63-163.82,28.63l-79.48-94Z"/><path class="cls-4" d="M133.2,285.7c.52-.17,90.5-22.33,90.5-22.33l-3.19-69.76c-8.4-8.74-13.46-9.71-16.47-9-6,1.28-6.21,9.24-13.59,11-5.19,1.23-7.46-2.1-14.29-1.76-7.07.39-11.86,4.44-14.56,6.4-21.48,16.12-59.74,15-55.09,27.84a138.71,138.71,0,0,1,6.1,22.47c.71,3.93,1.18,7.23,1.48,9.37"/><path class="cls-5" d="M134.69,286.7s34.95-29,54.36-15.38l17.11-7.87s103.16-1.88,105.56,11.65c0,0,35.48-27,54-11.71l40.86-4.69S309.28,352.78,134.69,286.7Z"/><path class="cls-6" d="M354.68,43.24s-49.84,55.67-74.36,70.57l-24.26,24.11s-19,10-38.11,38.16c0,0-4.24,23.08-10.25,32.48a112.63,112.63,0,0,1-5.93,14.18,120.05,120.05,0,0,1-9.16,15.49s-11.58,10,6.67,13.91A17.91,17.91,0,0,0,215.15,245a31.41,31.41,0,0,0,3.43-4.92c2.22-4,2.27-6.42,3.95-10.39a37.62,37.62,0,0,1,4.62-7.51c2.78-4,6.4-10.56,9.71-21.7,2-1.16,3.13-1.57,3.57-1.2.71.53-.16,2.69-2.58,6.52a35.48,35.48,0,0,0-6.34,8,32.51,32.51,0,0,0-4.21,13.6q-2.7,3.42-5.34,7.25a128.72,128.72,0,0,0-11.31,20.21c-.76,1.15-7.62,11.66-6.31,17.71a6.11,6.11,0,0,0,2,3.62,8.88,8.88,0,0,0,5.87,1.72l6.18-1.72,27.5-33.78,2.25-2.77L269.86,213s-19.6,27.85-20.24,28a235.38,235.38,0,0,1-14.82,19.75c-5.21,6.22-10.43,11.81-15.47,16.73-1.22,3.93,1.41,7.94,5.86,9a9.29,9.29,0,0,0,6.84-1,27.07,27.07,0,0,0,8.7-2.95c2.47-1.34,5.37-4.2,11.12-9.84,2.09-2.11,3.17-3.15,4.45-4.52,2.71-2.95,4.76-5.51,6.24-7.45a110.31,110.31,0,0,0,12.92-17.26c.49-.85,2.11-3.66,4.67-8,2-3.28,3.57-6,4.61-7.76-7.43,20.55-20.69,39.1-38.55,53.91a19.43,19.43,0,0,0,4.94,1c3.26.11,8.11-.48,14.45-3.31,0,0,9.78-15.1,13.1-11.53l.9-1c3.49-3.88,16.09-18.27,17.86-27.06,0,0-15.15,28-16.92,28s9.12,2.55,9.54,8c0,0,7.12-1.46,8-.64l-.89-.82s15.49-41.52,15.38-42.08a37.44,37.44,0,0,0,.45-22.75l-.6-33.28s26.95-30.24,34.73-31.07L406.66,88S375,45.74,354.68,43.24Z"/><path class="cls-7" d="M122.52,249.57l-.44-23.3,10.23-11.38,6.69-2.74,8-3.14-14.29-7.46-22.49,10.82q-1.09,4.13-2.22,8.23l-1.11,14.53Z"/><path class="cls-6" d="M129.63,67.19S135.18,57,143.08,56.6c0,0,55.78-13.91,68.42-4.86l-17.74,52.15-15.35,42.17a58.12,58.12,0,0,0-.16,26,24.35,24.35,0,0,1-1.71,8.55A27.59,27.59,0,0,1,169,191.1q1.78,7.47,3.57,14.92c8.22,9.15,11.43,21.06,8.79,32.47-1.29,4.86-3.8,5.9-4.47,6.12-4.48,1.6-12.36-2.83-17.87-12.32L139.9,203.64s-15.14-17.06-23.37.78c0,0-1.35,10.83-4,9.84,0,0,2.45,8.25,0,14.51a12.09,12.09,0,0,1,3,7.34,11.38,11.38,0,0,1-1.33,5.71c12.3,8.14,18.2,17,15.48,21.65-.58,1-1.88,2.38-5.3,3.29A44.14,44.14,0,0,1,119.2,265C100.93,257.53,93,240.7,89.74,232c6.13,16.25,19.3,29.73,36.65,37.61,11.13,3.25,17.25,9.11,16.26,13.11-.18.69-.91,2.75-5.35,4.52l-17.86-6.89-18.21-11.84a29,29,0,0,1-12.3-14.32,23.4,23.4,0,0,1-1.36-7.77,137.15,137.15,0,0,1-1.32-44.1,10.5,10.5,0,0,1-1.88-3.38c-1.87-5.82,3-11.1,3.64-11.81l30.06-28.28s8.89-7.06,7.36-23.52C125.41,135.23,133,73.08,129.63,67.19Z"/><path class="cls-8" d="M134.8,206.51c-.63,5.24-8.19,10.93-15.63,9.43a12.57,12.57,0,0,1-10-12.74,28.81,28.81,0,0,1,5.35-17.37,21.52,21.52,0,0,1,11.63,2.68A18,18,0,0,1,134.8,206.51Z"/><path class="cls-8" d="M140.63,204.81a32.26,32.26,0,0,1,3.33-23.7c2.71-5.19,9.7-7.48,15.64-5.09a12.1,12.1,0,0,1,3.73,2.38,24.52,24.52,0,0,0-13.1,4.4c-9,6.57-8,17.06-7.82,18"/><path class="cls-8" d="M167.68,221.14s13.69,16,23.32,18.79l10.8-17.09s0-9.71-22.31-14.24c0,0-20-2.1-25.42,2.46s14.29,7.41,14.29,7.41Z"/><path class="cls-9" d="M155.25,216.14a37.74,37.74,0,0,1,4,1.48c3.22,1.4,4.21,2.38,5.93,2.14s2.78-1.61,3.21-1.29-.6,1.35-.67,2.67c-.1,2.27,2.59,3.72,6.58,6.94a73.09,73.09,0,0,1,5.61,5.1c2.49-12.51-.22-16.73-2.83-18.31-3.77-2.31-9.12,1.18-18.93-3.14-8.28-3.65-11.74,8.49-12.63,12.71-.19.86-.28,1.4-.28,1.4Z"/><path class="cls-9" d="M145.21,225.84l-4.94,1s-3.79,8-11.36,4.3c0,0-6.84-2-1.56-5.29,0,0,5.8-5.91,10.47-1.17l5.79.19s1.09-2.74-8.32-19.42c0,0-11.46-20.2-20.76-19.59,0,0,12.91-1.39,16.49-7.47,0,0,7.81,22,8.67,24.28s1.11,1,1.11,1a40.85,40.85,0,0,1,6.53-20.4,22.41,22.41,0,0,1,7.91-3.89c3.27-.89,7.82-1.29,8.47-.07a2.22,2.22,0,0,1-.08,1.44,3.13,3.13,0,0,1-1,1.46,36.83,36.83,0,0,0-3.64,3.31,21.36,21.36,0,0,0-1.71,2l-2.67,4.11c-.57,1.06-1.41,2.52-2.45,4.31a39.44,39.44,0,0,1-3.58,5.69c-2.37,2.76-4.47,3.38-5.79,4.52C140.38,208.11,139.34,213.08,145.21,225.84Z"/><path class="cls-8" d="M140.32,226.89c-11.73,1-14.54,2-14.53,2.49s1,1.05,1.61,1.32a5.69,5.69,0,0,0,1.56.5,7.06,7.06,0,0,0,4.15,1.11,6.71,6.71,0,0,0,2.73-.82A10.22,10.22,0,0,0,140.32,226.89Z"/><path class="cls-8" d="M143.44,226.21c.77,3.14,1.54,6.28,2.3,9.44a1.69,1.69,0,0,1,1-.07c.75.23.78,1,1.63,1.31.36.11.42,0,.75.12a2,2,0,0,1,1,1q-3.27-12.8-5.64-12.63a.9.9,0,0,0-.42.13A2.11,2.11,0,0,0,143.44,226.21Z"/><path class="cls-9" d="M144,226.63l2.3,8.4,1.49.58-2.54-8Z"/><path class="cls-10" d="M130.3,68.69a7.93,7.93,0,0,1,.23-2.17C134.66,51.05,192.8,51,209.35,51.23c-.43,3-.86,5.83-1.31,8.66-.66,4.34,15.55,5.38,13.69-12.91V14.56L122,26.37l-3,40.58a6.08,6.08,0,0,0,6.11,6h.32A5.72,5.72,0,0,0,130.3,68.69Z"/><path class="cls-11" d="M221.74,24.76l-99.41,1.75a13.88,13.88,0,0,1,0,1.58h99.4Z"/><path class="cls-11" d="M221.44,34.74l-99.91-.18v-.67h99.91Z"/><path class="cls-11" d="M221.74,44.37l-100.68-.21.34-2.83,100.39.3Z"/><path class="cls-11" d="M193.89,50.88l2.57.1L196,17.89l-2.12.21Z"/><path class="cls-11" d="M183.86,51.33h2.51L186,19.08l-2,.25Z"/><path class="cls-11" d="M167.05,52.45l3.57-.24V20.85l-3.11.53Z"/><path class="cls-11" d="M150.09,55.05l3.28-.7q0-15.75-.08-31.49l-2.64.15Q150.32,39.08,150.09,55.05Z"/><path class="cls-11" d="M137.39,59.26l3.22-1.42.29-33.54-3.57.44Z"/><path class="cls-11" d="M203.62,50.9l2.62.08V16.72l-1.78.25Q204.06,33.94,203.62,50.9Z"/><path class="cls-11" d="M214.32,60.29l2-.53L216,15.48l-2.55.34Q213.9,38.08,214.32,60.29Z"/><path class="cls-11" d="M126.75,72.2a4.74,4.74,0,0,0,1.28-.62,4.45,4.45,0,0,0,1.11-1.14l1-44.68-3,.2Z"/><path class="cls-11" d="M144.78,56.55l-24.53-.17.34-2.85,27.67.51,8.7-.16q-3.22.51-6.73,1.3C148.34,55.62,146.52,56.07,144.78,56.55Z"/><path class="cls-11" d="M130.13,67.64l-10.77-.29.19-2.73,11.21.3a5,5,0,0,0-.7,2A3.18,3.18,0,0,0,130.13,67.64Z"/><path class="cls-11" d="M221,54.62l-11.91-.45c.14-1,.28-1.86.41-2.79l11.91.51C221.31,52.86,221.17,53.75,221,54.62Z"/><path class="cls-12" d="M324.07,62.49l8.57,4.19,9.31-9S325.42,56.29,324.07,62.49Z"/><path class="cls-10" d="M330.06,61.51A8.4,8.4,0,0,1,331.78,60c14.29-9.71,59.44,22.63,72.11,31.94l-7.24,6s8.18,12.79,19.89-2.42l23.24-25.15L354.05,24.09,322.7,53.91c-2.72,3-1.88,6.8.66,8.24A6.71,6.71,0,0,0,330.06,61.51Z"/><path class="cls-11" d="M432.47,78.23l-78.4-53.82-1.19,1.17L430,80.85Z"/><path class="cls-11" d="M425.09,85.8,347.68,30.14l.48-.51,77.6,55.5Z"/><path class="cls-11" d="M418.42,93.42l-78-56.08,2.33-2.05,77.66,56Z"/><path class="cls-11" d="M392.15,83l2,1.56,23.45-25.88-1.85-1Z"/><path class="cls-11" d="M384,77.8l2,1.35,22.81-25.26-1.72-1Q395.56,65.4,384,77.8Z"/><path class="cls-11" d="M370.19,69.29l3,1.79,22.48-24.29-2.79-1.32Z"/><path class="cls-11" d="M355.16,61.94l3,1.29Q369.42,51,380.69,38.78l-2.17-1.37Q366.84,49.72,355.16,61.94Z"/><path class="cls-11" d="M342.28,58.11l3.57.69q12.09-12.93,24.21-25.86l-3-1.61Z"/><path class="cls-11" d="M399.66,88.44l2,1.51,24.55-26.57-1.56-.79Q412.17,75.51,399.66,88.44Z"/><path class="cls-11" d="M401.23,101.66l2,.71,31.45-34.53-2.23-1.16Z"/><path class="cls-11" d="M324.76,62.29a5.19,5.19,0,0,0,3.12,0l32.75-34.15-2.35-1.48Z"/><path class="cls-11" d="M350,60.13l-18.9-13.78,2.3-2,21.14,15.87,6.85,4.71q-2.87-1.38-6.15-2.73C353.41,61.41,351.67,60.73,350,60.13Z"/><path class="cls-11" d="M330.71,60.55l-8-6.16,2.1-2,8.48,6.46a6,6,0,0,0-1.91,1A5.09,5.09,0,0,0,330.71,60.55Z"/><path class="cls-11" d="M410.49,101l-8.9-7,2.39-2,8.89,7Z"/><path class="cls-8" d="M347.24,204.36c-.64,5.24-8.21,10.95-15.64,9.43a12.57,12.57,0,0,1-10.05-12.73,27.55,27.55,0,0,1,.75-7.24,30,30,0,0,1,4.62-10.15,21.64,21.64,0,0,1,11.66,2.68A18.11,18.11,0,0,1,347.24,204.36Z"/><path class="cls-8" d="M353,202.65A32.3,32.3,0,0,1,356.37,179c2.71-5.2,9.68-7.48,15.59-5.11a11.6,11.6,0,0,1,3.74,2.39,24.51,24.51,0,0,0-13.1,4.39c-9,6.59-8,17.09-7.88,18.08"/><path class="cls-8" d="M380.15,219s13.68,16,23.3,18.78c.66.21,6.05,1.88,10.12-.64,4.42-2.72,5.8-9.42,1.57-15.23a19.86,19.86,0,0,0-3.69-6.65c-6.51-7.69-17.18-8.64-19.5-8.81,0,0-20-2.1-25.41,2.46s14.29,7.34,14.29,7.34Z"/><path class="cls-9" d="M367.62,214a33.86,33.86,0,0,1,4,1.46c3.26,1.45,4.24,2.43,5.93,2.16s2.77-1.61,3.22-1.32-.61,1.37-.67,2.7c-.12,2.25,2.58,3.72,6.56,6.89A71.15,71.15,0,0,1,392.3,231c2.5-12.49-.22-16.73-2.83-18.3-3.77-2.31-9.13,1.18-18.94-3.15-8.33-3.63-11.72,8.49-12.63,12.72-.19.87-.28,1.4-.28,1.4Z"/><path class="cls-9" d="M357.66,223.72l-4.94,1s-3.79,8-11.36,4.32c0,0-6.92-2-1.55-5.29,0,0,5.78-5.9,10.47-1.17l5.79.18s1.08-2.75-8.34-19.43c0,0-11.46-20.19-20.76-19.6,0,0,12.92-1.38,16.48-7.46,0,0,7.82,22,8.67,24.29s1.13,1,1.13,1a39.32,39.32,0,0,1,1.64-9.69,41.7,41.7,0,0,1,4.94-10.69,22.75,22.75,0,0,1,7.91-3.89c3.28-.87,7.83-1.28,8.47-.06a2.33,2.33,0,0,1-.07,1.43,3.37,3.37,0,0,1-1,1.48,39.15,39.15,0,0,0-3.64,3.29,20.65,20.65,0,0,0-1.7,2l-2.66,4.15c-.58,1-1.41,2.5-2.45,4.3a39.89,39.89,0,0,1-3.58,5.68c-2.3,2.77-4.47,3.39-5.78,4.52C352.8,206,351.74,211,357.66,223.72Z"/><path class="cls-8" d="M352.75,224.69c-11.72,1.05-14.54,1.89-14.54,2.5,0,.37,1.06,1.06,1.62,1.3a5.89,5.89,0,0,0,1.59.5,7.17,7.17,0,0,0,4.18,1.11,6.75,6.75,0,0,0,2.7-.83A10.12,10.12,0,0,0,352.75,224.69Z"/></g></g></svg>