<svg id="Capa_1" data-name="Capa 1" xmlns="http://www.w3.org/2000/svg" viewBox="0 0 470.47 339.04"><defs><style>.cls-1{fill:#fff;}.cls-2{fill:#ebf2fb;}.cls-18,.cls-3{fill:#0d6c7c;}.cls-4,.cls-7{fill:#ffa512;}.cls-5,.cls-9{fill:#99cf16;}.cls-6{fill:#cce0fb;}.cls-16,.cls-18,.cls-19,.cls-7,.cls-8,.cls-9{isolation:isolate;}.cls-7,.cls-8,.cls-9{font-size:17.2px;}.cls-19,.cls-7,.cls-8,.cls-9{font-family:Arial-ItalicMT, Arial;font-style:italic;}.cls-17,.cls-8{fill:#19abb2;}.cls-10{fill:#000f9f;}.cls-11{fill:#0b7f7f;}.cls-12,.cls-16{fill:#a7c05d;}.cls-13{fill:#809632;}.cls-14{fill:#6e7f25;}.cls-15{fill:#4e7735;}.cls-16{font-size:28.89px;font-family:ArialMT, Arial;}.cls-18{font-size:61.22px;font-family:BookmanOldStyle, Bookman Old Style;}.cls-19{font-size:126.03px;fill:#1e3e8e;}.cls-20{fill:#caa074;}.cls-21,.cls-24,.cls-25,.cls-27,.cls-30,.cls-32,.cls-34,.cls-35,.cls-39{fill:none;}.cls-21,.cls-24,.cls-25,.cls-27,.cls-30,.cls-32,.cls-34,.cls-35{stroke:#1d1d1b;}.cls-21,.cls-25,.cls-30,.cls-32,.cls-34,.cls-35{stroke-miterlimit:10;}.cls-21{stroke-width:0.14px;}.cls-22{fill:#040000;}.cls-23{fill:#2d2377;}.cls-24,.cls-32{stroke-width:0.61px;}.cls-25,.cls-27{stroke-width:0.64px;}.cls-26{fill:#00983f;}.cls-28{fill:#80ba27;}.cls-29{fill:#1d1d1b;}.cls-30{stroke-width:0.21px;}.cls-31{fill:#b1ca0f;}.cls-33{fill:#191613;}.cls-34{stroke-width:0.04px;}.cls-35{stroke-width:0.01px;}.cls-36{fill:#8d3329;}.cls-37{fill:#e15510;}.cls-38{fill:#ffcb00;}.cls-39{stroke:#fff;stroke-width:0.34px;}.cls-40{fill:#f6a500;}</style></defs><rect class="cls-1" width="470.47" height="339.04"/><rect class="cls-1" x="2.74" y="3.78" width="465" height="334"/><g id="Capa_2" data-name="Capa 2"><g id="Capa_1-2" data-name="Capa 1-2"><path class="cls-2" d="M4,83.94S130.7-81.83,274.6,63.39c0,0,225.59-4.57,168.66,126.59,0,0,100.39,163.68-105.48,130.76L2.74,299Q3.37,191.47,4,83.94Z"/><rect class="cls-3" x="116.81" y="144.38" width="79.01" height="4.72"/><rect class="cls-3" x="111.99" y="155.59" width="79.01" height="4.72"/><path class="cls-4" d="M377.26,201.64V188.18c0-4.48,0-8.76.21-13.12.1-2.36.77-5,3.68-4.93s3.43,2.57,3.47,4.93v9.45c3.77-1.25,5.49-3.94,7.53-6,3.22-3.15,6.68-5.66,11.23-6.35,7.91-1.18,14.68,1.91,18.66,8.6a17.59,17.59,0,0,1-1.72,21c-4.48,5.09-9.57,9.85-14.43,14.67-9.58,9.59-19.12,19.23-28.78,28.74-7.33,7.22-13.84,7.31-21.17,0q-20.94-20.69-41.59-41.6c-5.4-5.44-7.68-11.82-5-19.41,4.37-12.17,18.51-16.27,28.66-8.26,3.2,2.55,6,5.56,10.25,9.5v-8q0-33.15.06-66.29a19,19,0,0,1,.38-5.58c.38-1.18,2-2.74,2.91-2.62a6.09,6.09,0,0,1,3.55,2.72c.6.89.34,2.35.34,3.65v88.22c0,1.37-.25,2.74-.52,5.2-4.53-4.45-8.32-8.26-12.16-11.93-3.14-3.06-6-6.42-9.51-9-6.86-5.18-16-1.75-17.59,6.32-.79,4.09.92,7.36,3.65,10.17q7,7.19,14,14.26Q346.67,225.74,360,239c5.24,5.23,7.4,5.37,12.49.35,13.34-13.2,26.58-26.5,39.87-39.77a24.86,24.86,0,0,0,2.11-2.36c3.68-4.79,3.59-11.11-.19-14.84a10.77,10.77,0,0,0-14.53-1c-.24.2-.48.42-.7.64-5.59,5-10.73,10.5-16.1,15.77-1.43,1.41-3,2.73-4.41,4.08Z"/><path class="cls-5" d="M416.47,163.44a16.21,16.21,0,0,1-16.33-15.63,16.85,16.85,0,0,1,16.1-16.75c8.84-.2,16.8,7.68,16.63,16.19a16,16,0,0,1-15.74,16.2Zm-8.8-16.82a8.7,8.7,0,0,0,7.91,9.43h.11c5.11.42,9.07-2.72,9.67-7.68a9,9,0,0,0-8.11-9.83l-.16,0h0a8.82,8.82,0,0,0-9.38,8.05Z"/><path class="cls-5" d="M397.17,105.45a16.15,16.15,0,0,1-16,16.25h-.27a16.52,16.52,0,0,1-16.2-16c-.13-8.52,7.71-16.66,16.22-16.68a16.31,16.31,0,0,1,16.29,16.34Zm-16,8.59a8.39,8.39,0,0,0,8.72-8v-.52a8.94,8.94,0,0,0-8.73-9.14h-.27a9.26,9.26,0,0,0-8.79,8.79c-.08,5.23,3.72,8.94,9.07,8.87Z"/><path class="cls-5" d="M425.42,110.25c-1,1.18-2.36,3.06-3.95,4.66q-17.18,17.27-34.4,34.48c-1.48,1.47-2.87,3-4.43,4.4-3,2.72-5.69,3.24-7,1.31-1.88-2.73,0-4.62,1.81-6.45,9.12-9.11,18.2-18.28,27.34-27.37q6.41-6.41,13-12.64a11.09,11.09,0,0,1,3.51-2.48C423.3,105.39,425.62,107.35,425.42,110.25Z"/><path class="cls-6" d="M258.34,256.62l-1-6.78a50.33,50.33,0,0,1,20.2-26,83.78,83.78,0,0,0-3,10.63c-.79,3.67-2.15,9.95-.69,10.62.54.26,1.35-.34,2-.91.53-2,1.35-5.28,2.32-9.28,1.92-7.88,2.1-9.17,3.16-10.52,1.25-1.57,4.94-5.06,17.29-3.06Q295.82,230,293,238.65l11.16-16.53a17.56,17.56,0,0,1,15.93,8,14.63,14.63,0,0,1-1.92,18.42l-20.82-2.36,17.72,7a20.32,20.32,0,0,1-15.71,10.28c-10.52,1-18.09-6-18.94-6.77a1.79,1.79,0,0,0-.88,1.45q.12,3.33,18.43,7.71a23.25,23.25,0,0,1-15.73,6.24,28.26,28.26,0,0,1-17.16-5.91Q261.75,261.42,258.34,256.62Z"/><path class="cls-6" d="M144.35,178.74l-14.25,6.53a126.71,126.71,0,0,1-31.32-3.84,116.64,116.64,0,0,1-39.44-18.29A225,225,0,0,0,84.77,162c8.61-.9,23.35-2.37,23.86-5.71.22-1.25-1.65-2.42-3.33-3.24-4.84.34-12.55.88-22,1.64-18.78,1.49-21.6,2-25.3.84-4.23-1.32-14.4-6.31-18.21-31.69l41.92-.67L37.89,112.3c-5.21-12-2.36-26.36,7.15-36.38,10.73-11.37,28.08-15,41.83-8.5l8.69,42.1Q97.38,90,99.21,70.36c2.36.34,23.72,3.74,33,23.83,9.19,19.84-1.14,39.19-2.37,41.38a4.44,4.44,0,0,0,3.77.72q7.26-2.43,4.78-41a47.1,47.1,0,0,1,24.22,26.5c6.28,17.63,0,33.5-1.57,37.33Z"/><text class="cls-7" transform="translate(121.52 58.49) scale(1.35 1)">%</text><text class="cls-8" transform="translate(386.08 305.55) scale(1.35 1)">%</text><text class="cls-9" transform="translate(266.25 19.55) scale(1.35 1)">%</text><path class="cls-10" d="M32.5,106.81c-.18-.5-.38-1-.58-1.51s-.39-1-.55-1.46c-.11-.27-.14-.59.19-.69s.48.15.6.41.26.65.41,1a1.9,1.9,0,0,0,.58-1,2.36,2.36,0,0,1,1-1.17,2.24,2.24,0,0,1,3,1,2.28,2.28,0,0,1,.17,1.64c-.29.74-.64,1.46-1,2.19-.64,1.45-1.26,2.89-2,4.34a1.49,1.49,0,0,1-1.78,1.06,1.62,1.62,0,0,1-.56-.23l-6.46-3a2.21,2.21,0,0,1-1.43-2,2,2,0,0,1,1.69-2.22l.3,0a2.14,2.14,0,0,1,.94.12c.47.16.92.38,1.55.65-.15-.4-.25-.64-.35-.88q-1.5-3.61-3-7.3a2.46,2.46,0,0,1-.21-.63c0-.15.12-.39.22-.41a.72.72,0,0,1,.51.17c.1.07.14.25.2.38,1.31,3.27,2.6,6.54,3.95,9.85a4.08,4.08,0,0,0,.16.6l-1.87-.85c-.49-.22-1-.47-1.47-.64a1.29,1.29,0,0,0-1.65.62,1.21,1.21,0,0,0-.07.73,1.35,1.35,0,0,0,.86,1l2.2,1.05,4.13,1.91c.81.37,1.06.3,1.4-.45l2.68-6a3.45,3.45,0,0,0,.14-.34,1.39,1.39,0,0,0-.68-1.64,1.3,1.3,0,0,0-1.69.53h0c-.4.77-.75,1.58-1.11,2.36-.08.21-.2.42-.3.64Z"/><path class="cls-11" d="M434.45,240.81l-.38-1.56c-.12-.5-.24-1-.34-1.52,0-.27,0-.59.29-.67s.48.22.53.5.17.67.27,1.09a2.24,2.24,0,0,0,.72-.89,2.28,2.28,0,0,1,1.12-1,2.21,2.21,0,0,1,2.79,3c-.4.71-.85,1.38-1.26,2.06q-1.28,2-2.52,4a1.53,1.53,0,0,1-1.91.88,1.61,1.61,0,0,1-.6-.36c-2-1.25-4-2.53-5.93-3.8a2.13,2.13,0,0,1,1.19-4,2.15,2.15,0,0,1,.78.24c.44.2.86.49,1.46.84l-.23-.93c-.61-2.56-1.25-5.12-1.84-7.69a2.84,2.84,0,0,1-.1-.65c0-.13.15-.36.26-.37a.61.61,0,0,1,.63.6v0q1.26,5.12,2.51,10.22a2,2,0,0,0,.08.63l-1.73-1.09a11.81,11.81,0,0,0-1.37-.82,1.32,1.32,0,0,0-1.71.46,1.15,1.15,0,0,0-.15.73,1.34,1.34,0,0,0,.71,1.09l2,1.26,3.77,2.43c.75.48,1,.44,1.46-.27,1.18-1.85,2.35-3.72,3.51-5.59a1.92,1.92,0,0,0,.18-.31,1.35,1.35,0,0,0-.43-1.73,1.33,1.33,0,0,0-1.75.31h0c-.51.72-1,1.49-1.43,2.22-.13.2-.27.39-.41.59Z"/><rect class="cls-12" x="14.54" y="228.22" width="155.96" height="73.42"/><path class="cls-13" d="M170.29,219.29l.2,8.93H5.25L5,219.79Z"/><path class="cls-14" d="M14.54,228.22,5,220.66l.25,74.71,9.35,6.33Z"/><rect class="cls-15" x="26.72" y="236.29" width="143.79" height="7.56"/><rect class="cls-15" x="26.72" y="290.07" width="143.79" height="7.56"/><rect class="cls-15" x="26.73" y="236.87" width="8.04" height="21.56"/><rect class="cls-15" x="26.73" y="272.28" width="8.04" height="21.56"/><ellipse class="cls-15" cx="30.49" cy="265.37" rx="3.77" ry="3.54"/><ellipse class="cls-15" cx="124.37" cy="266.59" rx="21.51" ry="19.65"/><text class="cls-16" transform="translate(117 276.84) scale(1.06 1)">$</text><path class="cls-17" d="M97,219.52V129.79l6.43-9.44,11.67,9.44,9.8-9.44,11.68,10,6.19-10L154,129.27l7.81-8.92,9.48,8.92,12.76-11,5.66,9.44,11.16-9.44v48.27l55.81,2.36s12-1.87,12.72,16v92.34l-8.28,7.32-11.72-14.17-5,11.55-10.05-14.69-6.14,17.31-7.41-15.77L217,284.54l-8.42-14.69s-14.92,13.15-9.47,31.64c.33,1.11.71,2.2,1.14,3.26,8.38,20.2-28.44,39.62-34.59,0l1.6-84.38Z"/><path class="cls-11" d="M130.43,220.39c.56-3.22,0-29.3,0-29.3s0-21.68,20.1-21.68a19,19,0,0,1,13.38,15.22l3.32,35.75Z"/><path class="cls-11" d="M188.83,327.76h94.88s16.19.14,17.31-22.17V277l-10.67,12.29L282,277l-7.25,12.32-5.44-12.09-8.21,7.32-11.72-14.17-5,11.55-10.05-14.69-6.14,17.31-7.41-15.77L217,284.54l-8.42-14.69a33.51,33.51,0,0,0-6.58,8.53,35,35,0,0,0-3.76,19.11c.59,9.17,3.87,10.62,2.89,16.08C200.24,318.39,196.62,323.2,188.83,327.76Z"/><text class="cls-18" transform="translate(193.3 249.89) scale(1.06 1)">%</text><text class="cls-19" transform="translate(151.35 162.44) scale(1.06 1)">4.5</text><path class="cls-20" d="M60.16,329.68a20.14,20.14,0,0,0,.57-6.65h0c1.63-1.39,1.63-1.39,7.53.92h0A4.44,4.44,0,0,1,74,325.78c.07.13.12.26.18.4,1.1,1.7,1.1,1.7,5.51,4.09h0l-1,1.67c-.52.91-3.11,1.61-5.74,1.57l-9.89-.18a2,2,0,0,1-1.25-.47l-2.19-2.1h0l.56-1.12Z"/><path class="cls-21" d="M60.16,329.68a20.14,20.14,0,0,0,.57-6.65h0c1.63-1.39,1.63-1.39,7.53.92h0A4.44,4.44,0,0,1,74,325.78c.07.13.12.26.18.4,1.1,1.7,1.1,1.7,5.51,4.09h0l-1,1.67c-.52.91-3.11,1.61-5.74,1.57l-9.89-.18a2,2,0,0,1-1.25-.47l-2.19-2.1h0l.56-1.12Z"/><path class="cls-22" d="M74.7,325.91l1.72,1.58s-3.51,2.45-3.51,4.47c0,.54.21.53.39.52,5.5-.2,5.86-2.27,5.86-2.27s0-.4,1.16-.21a9.49,9.49,0,0,1,4.36,2.24,6.32,6.32,0,0,1,.43,2.95s.29,2-6.74,2.2a17,17,0,0,1-4.08-.51H68.73a9.47,9.47,0,0,1-9.08-.64,46.21,46.21,0,0,1-.28-6.11s.32-1,.81.22,3.58,1.6,3.58,1.6a24.15,24.15,0,0,0,4.41.62c1.25-.09,1.38-.82,1.38-.82a14,14,0,0,0,1-2.36c.85-2.36,4.19-3.45,4.19-3.45Z"/><path class="cls-20" d="M55.12,329.68a19.62,19.62,0,0,1-.57-6.65h0c-1.65-1.39-1.65-1.39-7.54.92h0a4.44,4.44,0,0,0-5.73,1.84,3.39,3.39,0,0,0-.18.39c-1.1,1.7-1.1,1.7-5.51,4.09h0l1.08,1.67c.54.91,3.11,1.61,5.75,1.57l9.88-.18a2,2,0,0,0,1.26-.47l2.13-2.1h0l-.57-1.12Z"/><path class="cls-21" d="M55.12,329.68a19.62,19.62,0,0,1-.57-6.65h0c-1.65-1.39-1.65-1.39-7.54.92h0a4.44,4.44,0,0,0-5.73,1.84,3.39,3.39,0,0,0-.18.39c-1.1,1.7-1.1,1.7-5.51,4.09h0l1.08,1.67c.54.91,3.11,1.61,5.75,1.57l9.88-.18a2,2,0,0,0,1.26-.47l2.13-2.1h0l-.57-1.12Z"/><path class="cls-22" d="M40.59,325.91l-1.72,1.58s3.48,2.44,3.56,4.46c0,.54-.2.53-.4.52-5.49-.2-5.83-2.27-5.83-2.27s0-.4-1.18-.21a9.58,9.58,0,0,0-4.36,2.24,6.2,6.2,0,0,0-.43,2.95s-.3,2,6.74,2.2a16.39,16.39,0,0,0,4.07-.51h5.52a8.74,8.74,0,0,0,3,.8,8.45,8.45,0,0,0,6.17-1.44,49.89,49.89,0,0,0,.28-6.11s-.33-1-.82.22S51.57,332,51.57,332a24.16,24.16,0,0,1-4.4.62c-1.25-.09-1.39-.83-1.39-.83a12.73,12.73,0,0,1-1-2.35c-.86-2.37-4.2-3.45-4.2-3.45Z"/><path class="cls-23" d="M41.22,242.89s-7.28,8.34-7.28,26.84v54.18s5.72-1.27,7.28,0,4-1.58,6.05,0,5.65-2.78,8.45-1.18,2.79-3.27,7.41-.85,4.27-1.52,6.69.91,1.63-2.71,5-.6,5-3,5.93-1.18,4.1-70.08-7.74-78.1-31.76,0-31.76,0Z"/><path class="cls-24" d="M41.22,242.89s-7.28,8.34-7.28,26.84v54.18s5.72-1.27,7.28,0,4-1.58,6.05,0,5.65-2.78,8.45-1.18,2.79-3.27,7.41-.85,4.27-1.52,6.69.91,1.63-2.71,5-.6,5-3,5.93-1.18,4.1-70.08-7.74-78.1-31.76,0-31.76,0Z"/><path class="cls-20" d="M74.06,212.14a5,5,0,0,0,2.6,6.63l.26.11,25.54,10.36a5.57,5.57,0,0,0,7.16-2.68h0v-.06a5,5,0,0,0-2.56-6.63l-.29-.12h0L81.23,209.42a5.62,5.62,0,0,0-7.18,2.69h0Z"/><path class="cls-25" d="M74.06,212.14a5,5,0,0,0,2.6,6.63l.26.11,25.54,10.36a5.57,5.57,0,0,0,7.16-2.68h0v-.06a5,5,0,0,0-2.56-6.63l-.29-.12h0L81.23,209.42a5.62,5.62,0,0,0-7.18,2.69h0Z"/><path class="cls-26" d="M50.25,204s-10.32,0-10.32,9.71c0,0-4.76-.59-4.76,4.92s4.76,14.54,4.76,14.54.37,9.85,3.76,9.45H71s3.49.48,3.49-9.22c0,0,5.65-9.45,5.65-14.17s-7.21-5.57-7.21-5.57,0-9.71-10.32-9.71Z"/><path class="cls-27" d="M50.25,204s-10.32,0-10.32,9.71c0,0-4.76-.59-4.76,4.92s4.76,14.54,4.76,14.54.37,9.85,3.76,9.45H71s3.49.48,3.49-9.22c0,0,5.65-9.45,5.65-14.17s-7.21-5.57-7.21-5.57,0-9.71-10.32-9.71Z"/><polygon class="cls-20" points="52.61 195.68 52.57 199.85 39.97 202.59 57.02 204.77 73.57 202.05 61.55 199.9 61.55 195.72 52.61 195.68 52.61 195.68"/><polygon class="cls-25" points="52.61 195.68 52.57 199.85 39.97 202.59 57.02 204.77 73.57 202.05 61.55 199.9 61.55 195.72 52.61 195.68 52.61 195.68"/><path class="cls-28" d="M45.31,201.26s-20-1.9-11.18,16.18c1.42,3,1.63,7.24,24.07,7.5,19.24.19,30.3-11.21,28.58-14.67-5-10.07-19.29-9.47-19.29-9.47L73.62,202,57,204.86l-17-2.27,5.22-1.33Z"/><path class="cls-27" d="M45.31,201.26s-20-1.9-11.18,16.18c1.42,3,1.63,7.24,24.07,7.5,19.24.19,30.3-11.21,28.58-14.67-5-10.07-19.29-9.47-19.29-9.47L73.62,202,57,204.86l-17-2.27,5.22-1.33Z"/><path class="cls-20" d="M103.69,229.55s5.2,1.75,7-2.67l10.41-25.15s-8.44-8.15-10.25-3.76l-8.95,21.38"/><path class="cls-25" d="M103.69,229.55s5.2,1.75,7-2.67l10.41-25.15s-8.44-8.15-10.25-3.76l-8.95,21.38"/><path class="cls-29" d="M76.28,183.21s2.69,1.62,3.33.37a4.47,4.47,0,0,0,0-3s2.07-2.53,2.19-3.4c.34-4.41-4-2.67-4-2.06A38,38,0,0,1,76.28,183.21Z"/><path class="cls-20" d="M81,177.55c.54-1.75-.16-2.62-1.32-2.62a2.65,2.65,0,0,0-2,2.12c.7.85,0,2.22,0,2.22a4.58,4.58,0,0,0-.84,2.48c.87.72,1.16,1.54,1.54,1.54s.35-2.85.68-3A8.11,8.11,0,0,0,81,177.55Z"/><path class="cls-30" d="M81,177.43c.54-1.75-.16-2.63-1.32-2.63a2.67,2.67,0,0,0-2,2.13c.7.85,0,2.22,0,2.22a4.61,4.61,0,0,0-.84,2.48c.87.72,1.16,1.54,1.54,1.54s.35-2.86.68-3A8.11,8.11,0,0,0,81,177.43Z"/><path class="cls-31" d="M78.08,183.07l-1.42,1.28s-.1.72.6.43a4.57,4.57,0,0,0,.69-.7l.57-.77L78,183Z"/><path class="cls-29" d="M37.22,183.21s-2.69,1.62-3.34.37a4.36,4.36,0,0,1,0-3s-2.08-2.53-2.16-3.42c-.33-4.41,4-2.67,4-2.06A37.53,37.53,0,0,0,37.22,183.21Z"/><path class="cls-20" d="M31.9,177.55c-.53-1.75.18-2.62,1.34-2.62a2.66,2.66,0,0,1,1.91,2.12c-.7.85,0,2.22,0,2.22a4.35,4.35,0,0,1,.84,2.48c-.88.72-1.16,1.54-1.54,1.54s-.33-2.85-.67-3A7.87,7.87,0,0,1,31.9,177.55Z"/><path class="cls-30" d="M31.9,177.43c-.53-1.75.18-2.63,1.34-2.63a2.68,2.68,0,0,1,1.91,2.13c-.7.85,0,2.22,0,2.22a4.35,4.35,0,0,1,.84,2.48c-.88.72-1.16,1.54-1.54,1.54s-.33-2.86-.67-3A7.87,7.87,0,0,1,31.9,177.43Z"/><path class="cls-31" d="M35.28,183.07l1.36,1.28s.09.72-.62.43a6.52,6.52,0,0,1-.69-.7l-.56-.77.48-.29Z"/><path class="cls-20" d="M77.22,161.61V165S76,188.16,74.53,189.9,60.69,199,56.54,199s-13-5-17.35-9.09C37.85,188.63,36.9,165,36.9,165v-3.43s.51-15.85,19.64-14.92S77.22,161.61,77.22,161.61Z"/><path class="cls-32" d="M77.22,161.33v3.43S76,187.88,74.5,189.61s-14,9.09-18.26,9.09-13.26-5-17.58-9.09c-1.33-1.26-2.32-24.85-2.32-24.85v-3.43s.53-15.85,19.95-14.92,21,14.92,21,14.92Z"/><path class="cls-22" d="M61.05,174a6,6,0,0,1,4-2.44,10.39,10.39,0,0,1,3.77-.16,9.78,9.78,0,0,0,2.51.54.78.78,0,0,0,.91-.59.76.76,0,0,0,0-.3,1.73,1.73,0,0,1,.07,1.34c.3.33.92-.9.92-.9s.13,1.26-.61,1.45c.5.31,1.26-.68,1.26-.68s0,1-.55,1.17c.45.32.88-.07,1.06-.35.18.74-.87,1.1-.87,1.1a14.13,14.13,0,0,1-1.46.11,4.58,4.58,0,0,1-2.58,2,16.25,16.25,0,0,1-4.35.1,10,10,0,0,1-4-1.4s-.21-.2.12-.9Z"/><path class="cls-1" d="M61.75,174.52c-.27-.7,1.73-1.9,2.51-2.27a10.07,10.07,0,0,1,4.16-.22c.77.18,3.18.67,3.2,1.67s-2.2,2-2.77,2.22a13.05,13.05,0,0,1-4.09.1c-.69-.22-2.81-.8-3.06-1.5Z"/><path class="cls-22" d="M64.34,174.12a2.33,2.33,0,0,0,2.51,2.15,2.31,2.31,0,0,0,2.28-2.35h0a2.36,2.36,0,0,0-2.5-2.14,2.29,2.29,0,0,0-2.29,2.3v0Z"/><path class="cls-33" d="M64.78,174.1a2,2,0,1,0,2.07-1.87h-.17A1.89,1.89,0,0,0,64.78,174.1Z"/><path class="cls-34" d="M64.78,174.1a2,2,0,1,0,2.07-1.87h-.17A1.89,1.89,0,0,0,64.78,174.1Z"/><path class="cls-1" d="M66.48,173.11a.59.59,0,0,0,.62.52.56.56,0,0,0,.56-.56v0a.6.6,0,0,0-1.18,0Z"/><path class="cls-35" d="M66.48,173.11a.59.59,0,0,0,.62.52.56.56,0,0,0,.56-.56v0a.6.6,0,0,0-1.18,0Z"/><path class="cls-22" d="M51.77,174a6,6,0,0,0-4-2.44,10.45,10.45,0,0,0-3.78-.16,9.78,9.78,0,0,1-2.51.54.77.77,0,0,1-.9-.57.86.86,0,0,1,0-.32,1.69,1.69,0,0,0-.08,1.34c-.31.33-.93-.9-.93-.9s-.14,1.26.62,1.45c-.49.31-1.25-.68-1.25-.68s.06,1,.52,1.17a.67.67,0,0,1-1-.35c-.17.74.85,1.1.85,1.1a14.52,14.52,0,0,0,1.48.11,4.53,4.53,0,0,0,2.57,2,16.39,16.39,0,0,0,4.37.1A10.21,10.21,0,0,0,51.8,175s.2-.2-.12-.9Z"/><path class="cls-1" d="M51,174.52c.25-.7-1.74-1.9-2.57-2.27A10.08,10.08,0,0,0,44.3,172c-.77.18-3.18.67-3.2,1.67s2.2,2,2.77,2.22A13.05,13.05,0,0,0,48,176C48.65,175.8,50.76,175.19,51,174.52Z"/><path class="cls-22" d="M48.47,174.12A2.36,2.36,0,0,1,46,176.29,2.31,2.31,0,0,1,43.65,174v0a2.42,2.42,0,0,1,4.82.18Z"/><path class="cls-33" d="M48,174.1a2,2,0,0,1-1.87,2.07,2,2,0,1,1-.2-3.94h.16A1.87,1.87,0,0,1,48,174.09h0Z"/><path class="cls-34" d="M48,174.1a2,2,0,0,1-1.87,2.07,2,2,0,1,1-.2-3.94h.16A1.87,1.87,0,0,1,48,174.09h0Z"/><path class="cls-1" d="M46.3,173.11a.59.59,0,0,1-.66.51.58.58,0,0,1-.51-.51.59.59,0,0,1,1.17,0h0Z"/><path class="cls-35" d="M46.3,173.11a.59.59,0,0,1-.66.51.58.58,0,0,1-.51-.51.59.59,0,0,1,1.17,0h0Z"/><path class="cls-22" d="M58.46,175.08l.15,3.94s.12,1.27.67,1.09,0-1,0-1l-.1-4.09h-.69Z"/><path class="cls-22" d="M54.13,182.34a7.75,7.75,0,0,0,.94,1.12c.51.54,1.66.61,3.2.5.55,0,1.26-1.06,1.42-1.68s.83-.42.5.28c-.5,1.18-1.26,1.86-1.88,1.84a24.53,24.53,0,0,1-3.09-.07s-1.49-1.18-1.68-1.77C53.36,182.23,53.79,182.08,54.13,182.34Z"/><path class="cls-29" d="M61.75,170.55s8.07-1.18,9.8-.37a37.53,37.53,0,0,1,3.6,2s.72,0,.29-1S70.93,168,70.93,168s-8.89,1.07-9.08,1.43S60.73,170.18,61.75,170.55Z"/><path class="cls-29" d="M50.6,170.55s-8.13-1.18-9.88-.37a39.11,39.11,0,0,0-3.62,2s-.72,0-.3-1S41.28,168,41.28,168s9,1.07,9.15,1.43S51.62,170.18,50.6,170.55Z"/><path class="cls-36" d="M47,188.09s7.18.64,7.91.15,1.89.49,3.59-.15c.27-.11,5.26.68,7.18.07,1-.31-5.21,3-6.41,3.06a45.27,45.27,0,0,1-5.21-.15s-5.81-2.37-7-3Z"/><path class="cls-30" d="M47,188.09s7.18.64,7.91.15,1.89.49,3.59-.15c.27-.11,5.26.68,7.18.07,1-.31-5.21,3-6.41,3.06a45.27,45.27,0,0,1-5.21-.15s-5.81-2.37-7-3Z"/><path class="cls-29" d="M64,159.15l3.54-10.09s-10.87-12.44-28.41,2.06c-8.26,6.84-6.08,15.2-4.57,16.19s21.84,2.36,29.46-8.2Z"/><path class="cls-29" d="M64,157.78l3-9.16s12-2.8,13.91,10.92c1.26,9.1-.73,12.54-1.58,12.54S70.23,166.63,64,157.78Z"/><path class="cls-20" d="M111.06,199a11.71,11.71,0,0,1-1.91-7.18c.53-3.62.78-6,1-7.45s3.07,2.88,2.09,4.76,2.24-7.09,3.31-7.09,2.31.79,2,1.78,2.24.17,3,1.17,1.56,0,3.06,1.45c.83.81,1.07.21,2,1.44a4.77,4.77,0,0,1,.36,3.26s2.12,5.75-5.49,11"/><path class="cls-25" d="M111.06,199a11.71,11.71,0,0,1-1.91-7.18c.53-3.62.78-6,1-7.45s3.07,2.88,2.09,4.76,2.24-7.09,3.31-7.09,2.31.79,2,1.78,2.24.17,3,1.17,1.56,0,3.06,1.45c.83.81,1.07.21,2,1.44a4.77,4.77,0,0,1,.36,3.26s2.12,5.75-5.49,11"/><path class="cls-37" d="M114.49,198.29C131.9,198.29,146,185,146,168.68S131.93,139,114.51,139,83,152.28,83,168.65h0C83,185,97.08,198.28,114.49,198.29Z"/><path class="cls-38" d="M117,198.29c17.41,0,31.52-13.25,31.53-29.61S134.44,139,117,139,85.5,152.28,85.49,168.65h0C85.49,185,99.6,198.28,117,198.29Z"/><path class="cls-39" d="M116.77,193.83c14.83,0,26.8-11.28,26.8-25.19s-12-25.19-26.8-25.19S90,154.73,90,168.64s12,25.19,26.77,25.19Z"/><path class="cls-40" d="M116.89,189.4c12.18,0,22.06-9.29,22.06-20.74s-9.88-20.74-22.06-20.74-22.07,9.29-22.07,20.74S104.71,189.4,116.89,189.4Z"/><path class="cls-37" d="M111,184.77h3.13l.77-3.35c6-.22,9.38-2,10.87-8.45,2.12-9.45-10.43-6.76-9.26-11.95a2.45,2.45,0,0,1,2.32-2.08c1.36,0,1.64,1,1.36,2.19l-.24,1.09h7.53c1-4.22.53-7.76-6.46-8l.69-2.89h-3.12l-.68,2.89c-5,.28-8.31,3-9.56,8.39-1.11,5.05,2,6.29,4.13,7.39,1.26.6,2.62,1.18,3.58,1.69s1.52.91,1.13,2.6a2.58,2.58,0,0,1-2.52,2.37c-1.5,0-1.77-1-1.44-2.26l.27-1.36H105.7l-.16.8c-1.26,5.27,1.25,7.3,6.17,7.57l-.76,3.35Z"/><path class="cls-20" d="M37.89,213.32A5.17,5.17,0,0,0,42,219.38l.14,0,27.17,5.43a5.5,5.5,0,0,0,6.49-3.94h0a5.16,5.16,0,0,0-4-6.07l-.16,0h0l-27.17-5.5a5.47,5.47,0,0,0-6.49,3.94v.08Z"/><path class="cls-25" d="M37,213.32A5.15,5.15,0,0,0,41,219.38l.15,0h0l27.19,5.43a5.49,5.49,0,0,0,6.48-3.94h0a5.16,5.16,0,0,0-4-6.07l-.15,0h0l-27.18-5.5A5.49,5.49,0,0,0,37,213.24h0v.08Z"/><path class="cls-20" d="M65.69,221.74s8.32,2.09,9.65.89L97,204.9s-3.43-10.9-7.21-7.8l-18.49,15"/><path class="cls-25" d="M63.37,223.63s8.31,2.07,9.68.89l21.67-17.73S91.28,196,87.51,199L69,214"/><path class="cls-20" d="M87.73,199.82a11.64,11.64,0,0,1,1.86-7.21c2.27-3,3.68-5,4.59-6.14s1.25,3.88-.52,5.17,5.49-5.28,6.45-4.84,1.65,1.71.84,2.36,1.88,1.18,2.07,2.36,1.39.65,2,2.61c.35,1.09.83.67,1,2.12a4.74,4.74,0,0,1-1.25,3s-1,6.14-10.39,7.5"/><path class="cls-25" d="M87.73,199.82a11.64,11.64,0,0,1,1.86-7.21c2.27-3,3.68-5,4.59-6.14s1.25,3.88-.52,5.17,5.49-5.28,6.45-4.84,1.65,1.71.84,2.36,1.88,1.18,2.07,2.36,1.39.65,2,2.61c.35,1.09.83.67,1,2.12a4.74,4.74,0,0,1-1.25,3s-1,6.14-10.39,7.5"/><path class="cls-29" d="M38,165.49s-.93,21.59,2,23.13-3,13.54,4.4,15.14-9.1,2.2-6.76-6.48-5.5-31.35-2.45-32.3"/><path class="cls-29" d="M76.33,165s.92,21.59-2,23.13,3,13.54-4.45,15.19,9.11,2.2,6.78-6.48,5.5-31.36,2.51-32.31"/></g></g></svg>