<svg xmlns="http://www.w3.org/2000/svg" viewBox="0 0 236.53 105.43"><defs><style>.cls-1{fill:#fff;}.cls-2{fill:#000f9f;}</style></defs><g id="Capa_2" data-name="Capa 2"><g id="Capa_1-2" data-name="Capa 1"><ellipse class="cls-1" cx="118.27" cy="52.71" rx="118.27" ry="52.71"/><path class="cls-2" d="M29.07,53.94a14.46,14.46,0,0,1-4.69-.74,9.71,9.71,0,0,1-6.08-5.92,14.11,14.11,0,0,1-.85-5.11,14.05,14.05,0,0,1,.81-4.89,10.39,10.39,0,0,1,2.35-3.76,10,10,0,0,1,3.68-2.34,13.51,13.51,0,0,1,4.8-.82,18.54,18.54,0,0,1,2.59.16,19.13,19.13,0,0,1,2.13.42,14.91,14.91,0,0,1,1.86.65c.55.24,1,.46,1.46.66v5.5h-.67c-.29-.24-.65-.53-1.08-.86a15.21,15.21,0,0,0-1.48-1,10.81,10.81,0,0,0-1.82-.82A6.49,6.49,0,0,0,30,34.75a7.12,7.12,0,0,0-2.36.39,5.85,5.85,0,0,0-2.06,1.28,6.36,6.36,0,0,0-1.46,2.3,9.59,9.59,0,0,0-.56,3.47,9.22,9.22,0,0,0,.6,3.56A6.25,6.25,0,0,0,25.68,48a5.56,5.56,0,0,0,2.07,1.2,7.88,7.88,0,0,0,2.27.35,7,7,0,0,0,2.12-.32,8.41,8.41,0,0,0,1.93-.86,13,13,0,0,0,1.39-.94c.43-.34.78-.62,1.06-.87h.61V52l-1.64.72a15.63,15.63,0,0,1-1.63.58,20.55,20.55,0,0,1-2.1.48A15.81,15.81,0,0,1,29.07,53.94Z"/><path class="cls-2" d="M63.58,42.16a11.8,11.8,0,0,1-3.12,8.62c-2.07,2.13-5,3.19-8.62,3.19s-6.53-1.06-8.61-3.19a11.8,11.8,0,0,1-3.12-8.62q0-5.47,3.12-8.65t8.61-3.18q5.47,0,8.61,3.18T63.58,42.16ZM55.8,47.91a7,7,0,0,0,1.27-2.45,11.73,11.73,0,0,0,.41-3.32A11.28,11.28,0,0,0,57,38.67a6.78,6.78,0,0,0-1.24-2.32A4.7,4.7,0,0,0,54,35a5.66,5.66,0,0,0-2.11-.41,5.5,5.5,0,0,0-2.11.4,4.84,4.84,0,0,0-1.81,1.31,6.62,6.62,0,0,0-1.25,2.36,11.43,11.43,0,0,0-.48,3.48,11.19,11.19,0,0,0,.47,3.45,6.84,6.84,0,0,0,1.23,2.33,4.67,4.67,0,0,0,1.79,1.32,5.56,5.56,0,0,0,4.31,0A4.72,4.72,0,0,0,55.8,47.91Z"/><path class="cls-2" d="M88.77,53.5H83.11L73.45,37.92V53.5H68.06V30.8h7l8.31,13v-13h5.38Z"/><path class="cls-2" d="M112.81,46.37A6.48,6.48,0,0,1,110,51.82a12.88,12.88,0,0,1-7.75,2.09,21.74,21.74,0,0,1-4.93-.49,25.58,25.58,0,0,1-3.94-1.26V46.72H94a13.92,13.92,0,0,0,4.08,2.22,13.23,13.23,0,0,0,4.33.78q.54,0,1.41-.09a5.19,5.19,0,0,0,1.42-.31,3.54,3.54,0,0,0,1.11-.68,1.61,1.61,0,0,0,.44-1.22,1.63,1.63,0,0,0-.64-1.29,4.37,4.37,0,0,0-1.85-.83c-.86-.2-1.77-.39-2.72-.57a21.83,21.83,0,0,1-2.68-.68,8.44,8.44,0,0,1-4.14-2.52,6.2,6.2,0,0,1-1.26-4,6.07,6.07,0,0,1,2.85-5.17,12.45,12.45,0,0,1,7.33-2,23.71,23.71,0,0,1,4.45.43,20.62,20.62,0,0,1,3.8,1.1v5.22h-.63a12.11,12.11,0,0,0-3.37-1.83,11.5,11.5,0,0,0-4.08-.74,10.24,10.24,0,0,0-1.46.1A5.67,5.67,0,0,0,101,35a2.64,2.64,0,0,0-1,.69,1.52,1.52,0,0,0-.43,1.06,1.58,1.58,0,0,0,.69,1.38,7.58,7.58,0,0,0,2.6.88l2.41.5c.77.16,1.59.39,2.48.67a8.33,8.33,0,0,1,3.86,2.33A5.7,5.7,0,0,1,112.81,46.37Z"/><path class="cls-2" d="M133.3,53.5H116.83V30.8H133.3v4.39H122.67v3.92h9.87V43.5h-9.87v5.61H133.3Z"/><path class="cls-2" d="M160.15,53.5H153l-6.19-8.32h-2.72V53.5h-5.85V30.8h9.85a23,23,0,0,1,3.47.23,7.37,7.37,0,0,1,2.72,1,6,6,0,0,1,2.05,2,5.66,5.66,0,0,1,.75,3,6.75,6.75,0,0,1-1.17,4.1,8.84,8.84,0,0,1-3.34,2.63ZM151,37.75a2.92,2.92,0,0,0-.35-1.46,2.31,2.31,0,0,0-1.21-1A4.67,4.67,0,0,0,148,35c-.53,0-1.15-.05-1.85-.05h-2.12v6.11h1.8a15.5,15.5,0,0,0,2.35-.14,3.25,3.25,0,0,0,1.59-.62,3.1,3.1,0,0,0,.9-1A3.53,3.53,0,0,0,151,37.75Z"/><path class="cls-2" d="M183.37,30.8l-8.31,22.7h-6.57l-8.31-22.7h6.17l5.51,15.94,5.5-15.94Z"/><path class="cls-2" d="M206,53.5h-6.07l-1.58-4.59h-8.43l-1.58,4.59h-5.92l8.41-22.7h6.76Zm-9.06-8.75-2.81-8.13-2.8,8.13Z"/><path class="cls-2" d="M217.13,35.37a5.82,5.82,0,1,1-9.94-4.1,5.83,5.83,0,0,1,8.23,0A5.57,5.57,0,0,1,217.13,35.37Zm-1.29,0a4.41,4.41,0,0,0-1.33-3.22,4.5,4.5,0,0,0-6.41,0,4.56,4.56,0,0,0,0,6.44,4.5,4.5,0,0,0,6.41,0A4.41,4.41,0,0,0,215.84,35.37Zm-1.26,2.75h-1.83L211,36h-.58v2.12H209V32.35h2.2a8.55,8.55,0,0,1,1,0,2.14,2.14,0,0,1,.74.24,1.52,1.52,0,0,1,.58.54,1.57,1.57,0,0,1,.18.79,1.53,1.53,0,0,1-.35,1,2.31,2.31,0,0,1-.93.64Zm-2.49-4.06a.73.73,0,0,0-.08-.33.63.63,0,0,0-.26-.25.94.94,0,0,0-.39-.11,3.7,3.7,0,0,0-.49,0h-.45V35h.34a3.49,3.49,0,0,0,.61,0,.91.91,0,0,0,.41-.17.68.68,0,0,0,.23-.28A1,1,0,0,0,212.09,34.06Z"/><path class="cls-2" d="M26.27,60.31a19,19,0,0,1,3-.23,5,5,0,0,1,3.4,1,3.28,3.28,0,0,1,1.06,2.53,3.53,3.53,0,0,1-.94,2.59,5,5,0,0,1-3.7,1.32,5.41,5.41,0,0,1-1.26-.1v4.84H26.27Zm1.57,5.83a5.18,5.18,0,0,0,1.29.13c1.89,0,3-.92,3-2.58S31,61.32,29.31,61.32a6.76,6.76,0,0,0-1.47.12Z"/><path class="cls-2" d="M45.89,66.09c0,4.16-2.54,6.37-5.63,6.37S34.8,70,34.8,66.32c0-3.84,2.4-6.35,5.64-6.35S45.89,62.5,45.89,66.09Zm-9.41.2c0,2.58,1.4,4.89,3.87,4.89s3.88-2.28,3.88-5c0-2.4-1.26-4.91-3.87-4.91S36.48,63.63,36.48,66.29Z"/><path class="cls-2" d="M47.6,60.17h1.57V71h5.18v1.31H47.6Z"/><path class="cls-2" d="M57.34,60.17V72.26H55.77V60.17Z"/><path class="cls-2" d="M62.05,61.5H58.36V60.17h9V61.5h-3.7V72.26H62.05Z"/><path class="cls-2" d="M69.94,60.17V72.26H68.37V60.17Z"/><path class="cls-2" d="M80.82,71.87a7.87,7.87,0,0,1-3.2.57c-3.42,0-6-2.15-6-6.12A6,6,0,0,1,78,60a6.59,6.59,0,0,1,2.88.54l-.38,1.27a5.8,5.8,0,0,0-2.44-.5c-2.85,0-4.74,1.81-4.74,5,0,3,1.71,4.86,4.66,4.86a6.37,6.37,0,0,0,2.56-.5Z"/><path class="cls-2" d="M84.5,68.46l-1.26,3.8H81.62l4.12-12.09h1.89l4.14,12.09H90.09l-1.29-3.8Zm4-1.22-1.19-3.48c-.26-.79-.44-1.51-.62-2.21h0c-.18.72-.38,1.45-.61,2.19l-1.19,3.5Z"/><path class="cls-2" d="M96.72,60.33a22.87,22.87,0,0,1,3.33-.25A7,7,0,0,1,105,61.59a5.54,5.54,0,0,1,1.71,4.34,6.38,6.38,0,0,1-1.75,4.7,7.47,7.47,0,0,1-5.36,1.74,25,25,0,0,1-2.84-.15ZM98.28,71a10.18,10.18,0,0,0,1.59.09c3.34,0,5.16-1.86,5.16-5.13,0-2.85-1.6-4.66-4.91-4.66a9,9,0,0,0-1.84.16Z"/><path class="cls-2" d="M114.66,66.59h-4.72V71h5.26v1.31h-6.82V60.17h6.55v1.31h-5V65.3h4.72Z"/><path class="cls-2" d="M120.4,60.31a19,19,0,0,1,3-.23,5,5,0,0,1,3.4,1,3.28,3.28,0,0,1,1.06,2.53,3.57,3.57,0,0,1-.94,2.59,5,5,0,0,1-3.7,1.32,5.41,5.41,0,0,1-1.26-.1v4.84H120.4ZM122,66.14a5.18,5.18,0,0,0,1.29.13c1.89,0,3-.92,3-2.58s-1.13-2.37-2.86-2.37a6.76,6.76,0,0,0-1.47.12Z"/><path class="cls-2" d="M129.65,60.33a16.53,16.53,0,0,1,3-.25,5,5,0,0,1,3.51,1,3,3,0,0,1,1,2.29,3.18,3.18,0,0,1-2.29,3.09v0a3,3,0,0,1,1.79,2.44,19,19,0,0,0,.93,3.32h-1.62a15.23,15.23,0,0,1-.81-2.89c-.36-1.67-1-2.29-2.43-2.35h-1.47v5.24h-1.57Zm1.57,5.51h1.6c1.67,0,2.73-.92,2.73-2.3,0-1.56-1.13-2.24-2.78-2.26a6.6,6.6,0,0,0-1.55.14Z"/><path class="cls-2" d="M140.58,60.17V72.26H139V60.17Z"/><path class="cls-2" d="M145.65,72.26l-4-12.09h1.69l1.89,6c.53,1.63,1,3.1,1.3,4.52h0c.34-1.4.84-2.93,1.38-4.51l2-6h1.68l-4.34,12.09Z"/><path class="cls-2" d="M153.64,68.46l-1.26,3.8h-1.62l4.12-12.09h1.89l4.14,12.09h-1.67l-1.3-3.8Zm4-1.22-1.19-3.48c-.27-.79-.45-1.51-.63-2.21h0c-.18.72-.38,1.45-.62,2.19L154,67.24Z"/><path class="cls-2" d="M170.58,71.87a8,8,0,0,1-3.2.57c-3.42,0-6-2.15-6-6.12A6,6,0,0,1,167.72,60a6.62,6.62,0,0,1,2.88.54l-.38,1.27a5.85,5.85,0,0,0-2.45-.5c-2.84,0-4.73,1.81-4.73,5,0,3,1.71,4.86,4.66,4.86a6.36,6.36,0,0,0,2.55-.5Z"/><path class="cls-2" d="M173.78,60.17V72.26h-1.56V60.17Z"/><path class="cls-2" d="M176.2,60.33a22.84,22.84,0,0,1,3.32-.25,7,7,0,0,1,4.92,1.51,5.54,5.54,0,0,1,1.71,4.34,6.42,6.42,0,0,1-1.75,4.7A7.47,7.47,0,0,1,179,72.37a25,25,0,0,1-2.84-.15ZM177.76,71a10.12,10.12,0,0,0,1.58.09c3.35,0,5.17-1.86,5.17-5.13,0-2.85-1.6-4.66-4.91-4.66a8.94,8.94,0,0,0-1.84.16Z"/><path class="cls-2" d="M189.57,68.46l-1.26,3.8h-1.62l4.12-12.09h1.89l4.14,12.09h-1.68l-1.29-3.8Zm4-1.22-1.18-3.48c-.27-.79-.45-1.51-.63-2.21h0c-.18.72-.38,1.45-.61,2.19l-1.19,3.5Z"/><path class="cls-2" d="M198.3,60.33a22.87,22.87,0,0,1,3.33-.25,6.93,6.93,0,0,1,4.91,1.51,5.54,5.54,0,0,1,1.71,4.34,6.38,6.38,0,0,1-1.75,4.7,7.47,7.47,0,0,1-5.36,1.74,25,25,0,0,1-2.84-.15ZM199.86,71a10.18,10.18,0,0,0,1.59.09c3.34,0,5.16-1.86,5.16-5.13,0-2.85-1.6-4.66-4.91-4.66a9,9,0,0,0-1.84.16Z"/></g></g></svg>