<svg xmlns="http://www.w3.org/2000/svg" viewBox="0 0 50.27 48.51"><defs><style>.cls-1,.cls-2{fill:#000f9f;}.cls-2{fill-rule:evenodd;}</style></defs><g id="Capa_2" data-name="Capa 2"><g id="Capa_1-2" data-name="Capa 1"><path class="cls-1" d="M25.14,48.51C11.28,48.51,0,37.63,0,24.25S11.28,0,25.14,0,50.27,10.88,50.27,24.25,39,48.51,25.14,48.51Zm0-45.9C12.77,2.61,2.7,12.32,2.7,24.25S12.77,45.9,25.14,45.9s22.43-9.71,22.43-21.65S37.51,2.61,25.14,2.61Z"/><path class="cls-2" d="M21.19,24.37V38.42a.37.37,0,0,0,.38.37H27a.37.37,0,0,0,.38-.37V24.14h3.93a.37.37,0,0,0,.37-.34L32,19.5a.37.37,0,0,0-.38-.4h-4.3V16.05a1.32,1.32,0,0,1,1.35-1.3h3a.37.37,0,0,0,.38-.36V10.08a.37.37,0,0,0-.38-.36H26.62A5.33,5.33,0,0,0,21.19,15V19.1h-2.7a.38.38,0,0,0-.38.37v4.3a.38.38,0,0,0,.38.37h2.7Z"/></g></g></svg>