<svg xmlns="http://www.w3.org/2000/svg" viewBox="0 0 236.53 105.43"><defs><style>.cls-1{fill:#fff;}.cls-2{fill:#000f9f;}</style></defs><g id="Capa_2" data-name="Capa 2"><g id="Capa_1-2" data-name="Capa 1"><ellipse class="cls-1" cx="118.27" cy="52.71" rx="118.27" ry="52.71"/><path class="cls-2" d="M82.35,31.74q0,4.86-3,7.46t-8.76,2.59q-5.78,0-8.75-2.59t-3-7.44V15h6.83V31.37a6.1,6.1,0,0,0,1.15,4.07,4.65,4.65,0,0,0,3.73,1.34,4.87,4.87,0,0,0,3.73-1.28,6,6,0,0,0,1.17-4.13V15h6.83Z"/><path class="cls-2" d="M95.2,41.24H88.58V34.31H95.2Z"/><path class="cls-2" d="M125.75,41.24h-6.54L108,23.22v18H101.8V15h8.12L119.53,30V15h6.22Z"/><path class="cls-2" d="M139,41.24h-6.62V34.31H139Z"/><path class="cls-2" d="M164.62,41.24H145.57V15h19.05v5.08H152.33V24.6h11.41v5.07H152.33v6.5h12.29Z"/><path class="cls-2" d="M176.81,41.24H170.2V34.31h6.61Z"/><path class="cls-2" d="M16,49v8.28c0,3.13,1.39,4.46,3.27,4.46,2.08,0,3.41-1.37,3.41-4.46V49h1.83v8.15c0,4.3-2.27,6.07-5.31,6.07-2.87,0-5-1.64-5-6V49Z"/><path class="cls-2" d="M27.32,63V49h2L33.8,56a40.49,40.49,0,0,1,2.52,4.54l0,0c-.17-1.87-.21-3.57-.21-5.75V49h1.71V63H36l-4.46-7.1A45.31,45.31,0,0,1,29,51.18l-.07,0C29,53,29,54.65,29,57v6Z"/><path class="cls-2" d="M42.46,49V63H40.65V49Z"/><path class="cls-2" d="M45.25,49.14a27,27,0,0,1,3.85-.29c2.61,0,4.46.61,5.69,1.75a6.43,6.43,0,0,1,2,5,7.41,7.41,0,0,1-2,5.44c-1.32,1.31-3.48,2-6.21,2a30.5,30.5,0,0,1-3.29-.16Zm1.81,12.38a12,12,0,0,0,1.84.1c3.87,0,6-2.16,6-5.94,0-3.3-1.85-5.39-5.68-5.39a10.76,10.76,0,0,0-2.13.18Z"/><path class="cls-2" d="M60.72,58.55,59.27,63H57.39l4.77-14h2.19l4.78,14H67.2l-1.5-4.4Zm4.6-1.41-1.37-4c-.31-.91-.52-1.75-.73-2.55h0c-.21.83-.44,1.68-.71,2.53l-1.37,4Z"/><path class="cls-2" d="M70.82,49.14a27,27,0,0,1,3.85-.29c2.61,0,4.46.61,5.69,1.75a6.43,6.43,0,0,1,2,5,7.41,7.41,0,0,1-2,5.44c-1.31,1.31-3.48,2-6.21,2a30.5,30.5,0,0,1-3.29-.16Zm1.81,12.38a12,12,0,0,0,1.84.1c3.87,0,6-2.16,6-5.94,0-3.3-1.85-5.39-5.68-5.39a10.76,10.76,0,0,0-2.13.18Z"/><path class="cls-2" d="M95.62,56.39H90.17v5h6.08V63h-7.9V49h7.58v1.51H90.17v4.42h5.45Z"/><path class="cls-2" d="M98,60.75a6.38,6.38,0,0,0,3.24.91c1.86,0,2.94-1,2.94-2.39s-.75-2.05-2.65-2.78c-2.29-.81-3.7-2-3.7-4,0-2.18,1.81-3.8,4.54-3.8a6.43,6.43,0,0,1,3.1.68l-.5,1.48a5.56,5.56,0,0,0-2.66-.67c-1.92,0-2.65,1.14-2.65,2.1,0,1.31.85,2,2.79,2.7,2.38.91,3.58,2,3.58,4.11s-1.6,4-4.91,4a7.26,7.26,0,0,1-3.58-.89Z"/><path class="cls-2" d="M108.12,49.12a21.59,21.59,0,0,1,3.47-.27A5.77,5.77,0,0,1,115.53,50a3.75,3.75,0,0,1,1.23,2.92,4.13,4.13,0,0,1-1.08,3,7,7,0,0,1-5.75,1.41V63h-1.81Zm1.81,6.75a6.26,6.26,0,0,0,1.5.14c2.18,0,3.52-1,3.52-3s-1.32-2.74-3.32-2.74a7.82,7.82,0,0,0-1.7.14Z"/><path class="cls-2" d="M126.09,56.39h-5.46v5h6.08V63h-7.89V49h7.58v1.51h-5.77v4.42h5.46Z"/><path class="cls-2" d="M138.5,62.49a9.09,9.09,0,0,1-3.71.66c-4,0-6.93-2.49-6.93-7.07a7,7,0,0,1,7.32-7.35,7.55,7.55,0,0,1,3.34.62l-.44,1.48a6.51,6.51,0,0,0-2.83-.59c-3.29,0-5.48,2.1-5.48,5.77,0,3.43,2,5.63,5.39,5.63a7.32,7.32,0,0,0,3-.58Z"/><path class="cls-2" d="M142.2,49V63h-1.81V49Z"/><path class="cls-2" d="M147.26,58.55,145.8,63h-1.87l4.77-14h2.19l4.78,14h-1.93l-1.5-4.4Zm4.6-1.41-1.37-4c-.31-.91-.52-1.75-.73-2.55h0c-.21.83-.44,1.68-.71,2.53l-1.37,4Z"/><path class="cls-2" d="M157.36,49h1.81V61.43h6V63h-7.81Z"/><path class="cls-2" d="M168.63,49V63h-1.82V49Z"/><path class="cls-2" d="M170.46,61.89l7.79-11.36v-.06h-7.13V49h9.48v1.1l-7.75,11.31v.06h7.85V63H170.46Z"/><path class="cls-2" d="M184.83,58.55,183.37,63H181.5l4.76-14h2.19l4.79,14H191.3l-1.5-4.4Zm4.6-1.41-1.38-4c-.31-.91-.52-1.75-.72-2.55h-.05c-.2.83-.43,1.68-.7,2.53l-1.38,4Z"/><path class="cls-2" d="M194.93,49.14a26.77,26.77,0,0,1,3.85-.29c2.6,0,4.45.61,5.68,1.75a6.43,6.43,0,0,1,2,5,7.41,7.41,0,0,1-2,5.44c-1.31,1.31-3.48,2-6.2,2a30.22,30.22,0,0,1-3.29-.16Zm1.81,12.38a11.79,11.79,0,0,0,1.83.1c3.87,0,6-2.16,6-5.94,0-3.3-1.86-5.39-5.69-5.39a10.64,10.64,0,0,0-2.12.18Z"/><path class="cls-2" d="M210.4,58.55,208.94,63h-1.87l4.76-14H214l4.79,14h-1.94l-1.5-4.4Zm4.6-1.41-1.38-4c-.31-.91-.52-1.75-.72-2.55h-.05c-.2.83-.43,1.68-.7,2.53l-1.38,4Z"/><path class="cls-2" d="M61.91,70.85a25.51,25.51,0,0,1,3.85-.29c2.61,0,4.46.6,5.69,1.74a6.42,6.42,0,0,1,2,5,7.34,7.34,0,0,1-2,5.44c-1.31,1.31-3.47,2-6.2,2a30.22,30.22,0,0,1-3.29-.17Zm1.81,12.37a12,12,0,0,0,1.83.1c3.88,0,6-2.16,6-5.93,0-3.3-1.85-5.4-5.68-5.4a9.91,9.91,0,0,0-2.13.19Z"/><path class="cls-2" d="M82.67,78.09H77.22v5H83.3v1.51H75.4v-14H83v1.52H77.22V76.6h5.45Z"/><path class="cls-2" d="M91.58,80.25l-1.45,4.4H88.25l4.77-14h2.19l4.78,14H98.06l-1.5-4.4Zm4.6-1.41-1.37-4c-.31-.91-.52-1.74-.73-2.55h0c-.21.83-.44,1.68-.71,2.53l-1.37,4Z"/><path class="cls-2" d="M102.74,72.2H98.48V70.66h10.39V72.2h-4.29V84.65h-1.84Z"/><path class="cls-2" d="M117.32,78.09h-5.46v5h6.08v1.51h-7.89v-14h7.58v1.52h-5.77V76.6h5.46Z"/><path class="cls-2" d="M119.92,84.65v-14h2l4.5,7.08a40.49,40.49,0,0,1,2.52,4.54l0,0c-.17-1.86-.21-3.57-.21-5.75V70.66h1.71v14h-1.83l-4.46-7.1a41.66,41.66,0,0,1-2.62-4.67l-.07,0c.11,1.77.15,3.45.15,5.77v6Z"/><path class="cls-2" d="M143.06,84.19a8.89,8.89,0,0,1-3.71.67c-4,0-6.93-2.49-6.93-7.08a7,7,0,0,1,7.33-7.35,7.53,7.53,0,0,1,3.33.63l-.44,1.47a6.67,6.67,0,0,0-2.83-.58c-3.29,0-5.48,2.1-5.48,5.77,0,3.42,2,5.62,5.39,5.62a7.15,7.15,0,0,0,3-.58Z"/><path class="cls-2" d="M146.76,70.66v14H145v-14Z"/><path class="cls-2" d="M161.55,77.51c0,4.82-2.94,7.37-6.52,7.37s-6.31-2.86-6.31-7.1c0-4.44,2.77-7.35,6.52-7.35S161.55,73.36,161.55,77.51Zm-10.89.23c0,3,1.62,5.67,4.47,5.67s4.5-2.64,4.5-5.82c0-2.78-1.46-5.68-4.48-5.68S150.66,74.67,150.66,77.74Zm7.51-10.3-2.64,2.41H154L156,67.44Z"/><path class="cls-2" d="M163.53,84.65v-14h2l4.5,7.08a40.49,40.49,0,0,1,2.52,4.54l0,0c-.16-1.86-.21-3.57-.21-5.75V70.66h1.71v14h-1.83l-4.46-7.1a43.31,43.31,0,0,1-2.62-4.67l-.06,0c.1,1.77.14,3.45.14,5.77v6Z"/></g></g></svg>