<svg xmlns="http://www.w3.org/2000/svg" xmlns:xlink="http://www.w3.org/1999/xlink" viewBox="0 0 181.45 68.73"><defs><style>.cls-1{opacity:0.55;}.cls-2{fill:url(#White_Black_Radial);}.cls-3{fill:url(#White_Black_Radial-2);}.cls-4{fill:url(#White_Black_Radial-3);}.cls-5{fill:#fff;}</style><radialGradient id="White_Black_Radial" cx="88.3" cy="-149.35" r="49.23" gradientTransform="translate(43.85 148.08) scale(0.93 0.93)" gradientUnits="userSpaceOnUse"><stop offset="0" stop-color="#fff"/><stop offset="1"/></radialGradient><radialGradient id="White_Black_Radial-2" cx="35.78" cy="-149.35" r="49.23" xlink:href="#White_Black_Radial"/><radialGradient id="White_Black_Radial-3" cx="59.17" cy="-141.35" r="36.55" xlink:href="#White_Black_Radial"/></defs><g id="Capa_2" data-name="Capa 2"><g id="Capa_1-2" data-name="Capa 1"><g class="cls-1"><path class="cls-2" d="M148.56,34.37A34.48,34.48,0,1,1,114.08,0,34.42,34.42,0,0,1,148.56,34.37Z"/><path class="cls-3" d="M99.71,34.37A34.48,34.48,0,1,1,65.24,0,34.41,34.41,0,0,1,99.71,34.37Z"/><path class="cls-4" d="M115.65,35.41A25.6,25.6,0,1,1,90.05,9.9,25.55,25.55,0,0,1,115.65,35.41Z"/></g><polygon class="cls-5" points="160.06 43.1 160.06 40.05 148.44 40.05 148.44 36.39 156.7 36.39 156.7 33.34 148.44 33.34 148.44 31.21 160.06 31.21 160.06 27.71 141.41 27.71 141.41 43.1 160.06 43.1"/><polygon class="cls-5" points="169.82 43.1 169.82 36.39 178.08 36.39 178.08 33.34 169.82 33.34 169.82 31.21 181.44 31.21 181.44 27.71 162.79 27.71 162.79 43.1 169.82 43.1"/><path class="cls-5" d="M118.64,37.92h6.5a2,2,0,0,0,.87,1.35,4.53,4.53,0,0,0,3,.9,4.69,4.69,0,0,0,2.27-.46,1.32,1.32,0,0,0,.79-1.07,1.26,1.26,0,0,0-.75-1,11.55,11.55,0,0,0-3.51-.86,19.41,19.41,0,0,1-6.43-1.81,3.29,3.29,0,0,1-1.94-2.87,3.08,3.08,0,0,1,1-2.17,6.76,6.76,0,0,1,3-1.6,20.22,20.22,0,0,1,5.46-.58,15.6,15.6,0,0,1,6.49,1.06A4.46,4.46,0,0,1,138,32.14h-6.45a1.77,1.77,0,0,0-1.08-1.21,4.85,4.85,0,0,0-2.29-.45,3.84,3.84,0,0,0-1.8.33,1,1,0,0,0-.61.83c0,.24.17.45.5.64a7.36,7.36,0,0,0,2.3.55,39.87,39.87,0,0,1,6.44,1.31,6.66,6.66,0,0,1,2.83,1.66,3.21,3.21,0,0,1,.89,2.2,3.72,3.72,0,0,1-1.18,2.64,7.49,7.49,0,0,1-3.3,1.84,19.55,19.55,0,0,1-5.35.62q-5.66,0-7.84-1.46A5.18,5.18,0,0,1,118.64,37.92Z"/><path class="cls-5" d="M15.47,37.48H22.4a7.83,7.83,0,0,1-2,3.15,9.05,9.05,0,0,1-3.35,1.7,19.08,19.08,0,0,1-5.1.57,22.08,22.08,0,0,1-6.13-.7,9.29,9.29,0,0,1-4.11-2.45A6.13,6.13,0,0,1,0,35.26a6.29,6.29,0,0,1,3-5.61c2-1.3,4.89-1.95,8.6-1.95a17,17,0,0,1,6.84,1.12c1.66.75,3,2.68,3.82,4.23l-6.41.12a3,3,0,0,0-.69-1,4,4,0,0,0-1.46-.8,6.18,6.18,0,0,0-1.94-.28,5.11,5.11,0,0,0-3.7,1.24,3.79,3.79,0,0,0-1,2.89c0,1.62.39,2.74,1.17,3.34a5.15,5.15,0,0,0,3.27.91c1.36,0,2.49-.13,3.09-.73C15.42,38,15.16,38.41,15.47,37.48Z"/><path class="cls-5" d="M24.16,35.37a6.51,6.51,0,0,1,3-5.68c2-1.36,4.71-2,8.22-2s6.39.66,8.34,2a6.43,6.43,0,0,1,2.92,5.6,7,7,0,0,1-1.27,4.29,8.32,8.32,0,0,1-3.7,2.6,16.88,16.88,0,0,1-6,.93,19.55,19.55,0,0,1-6.06-.8,8.59,8.59,0,0,1-3.89-2.54A6.43,6.43,0,0,1,24.16,35.37Zm6.7,0a3.92,3.92,0,0,0,1.22,3.24,5.08,5.08,0,0,0,3.31,1,5.12,5.12,0,0,0,3.33-1c.79-.64,1.19-1.8,1.19-3.46a3.64,3.64,0,0,0-1.24-3.07,5.23,5.23,0,0,0-3.34-1,5.08,5.08,0,0,0-3.25,1A4,4,0,0,0,30.86,35.39Z"/><path class="cls-5" d="M50,27.9h5.9l7.7,8.4V27.9h5.94V43.07H63.55l-7.66-8.36v8.36H50Z"/><path class="cls-5" d="M73.08,27.82H83.26a17,17,0,0,1,4.86.57A8.17,8.17,0,0,1,91.18,30a6.26,6.26,0,0,1,1.76,2.45,8.14,8.14,0,0,1,.54,3,7.43,7.43,0,0,1-.81,3.8,6.9,6.9,0,0,1-2.24,2.26,8.56,8.56,0,0,1-3.09,1.21,22.42,22.42,0,0,1-4.08.42H73.08Zm6.85,3.47v8.34h1.68a9.86,9.86,0,0,0,3-.33,2.78,2.78,0,0,0,1.43-1.14,5.22,5.22,0,0,0,.51-2.65c0-1.62-.38-2.73-1.15-3.32a6.26,6.26,0,0,0-3.81-.9Z"/><path class="cls-5" d="M109.44,27.82h6.33v8.94a5.7,5.7,0,0,1-.57,2.51,5.43,5.43,0,0,1-1.78,2.07,7.68,7.68,0,0,1-2.54,1.24,17.44,17.44,0,0,1-4.45.5q-1.5,0-3.27-.15a11.64,11.64,0,0,1-3-.61A7.64,7.64,0,0,1,98,41a4.67,4.67,0,0,1-1.36-1.72,6.84,6.84,0,0,1-.58-2.54V27.82h6.32V37a2.24,2.24,0,0,0,.94,1.92,5.22,5.22,0,0,0,5.17,0,2.24,2.24,0,0,0,.93-1.93Z"/></g></g></svg>