<svg xmlns="http://www.w3.org/2000/svg" viewBox="0 0 124.49 59.46"><defs><style>.cls-1{fill:#000f9f;}</style></defs><g id="Capa_2" data-name="Capa 2"><g id="Capa_1-2" data-name="Capa 1"><path class="cls-1" d="M41.85,0a1.37,1.37,0,0,1,1.29.55,1.24,1.24,0,0,1,.16.51v.17L43,3.62l-.08,1.94a100.73,100.73,0,0,0,1,10.5A19.26,19.26,0,0,0,48,14.54,31.39,31.39,0,0,1,56.19,13a5.07,5.07,0,0,1,1.89.29l0,1.48a5.69,5.69,0,0,1-1.64.28c-2,.45-3.42.77-4.37,1a39,39,0,0,0-4.86,1.52,27.5,27.5,0,0,1-3.69,1.21c-1.37-.11-2.06-.29-2.06-.53A82.64,82.64,0,0,1,40.33,4.76V2.52l0-1.62A1.12,1.12,0,0,0,40.8.27,1.35,1.35,0,0,1,41.5,0Z"/><path class="cls-1" d="M65.32,6.62q.78,0,1.05,1.32a36,36,0,0,0,.84,4.48A10.23,10.23,0,0,0,68.93,16a3.19,3.19,0,0,1,.67,1.56v.25c0,.31-.2.47-.59.47a1.89,1.89,0,0,1-.78.37,4.17,4.17,0,0,1-2-1.77c-.3-.57-.84-1.83-1.63-3.76l-.25-.32a31.73,31.73,0,0,1-2.51,3.47,4.08,4.08,0,0,1-3,1.37A2.06,2.06,0,0,1,56.73,16l0-.67c0-1.51,1-3.38,2.93-5.62a17.87,17.87,0,0,1,4.19-2.52,2.09,2.09,0,0,1,1.31-.52Zm-5.74,8.29h0c.64,0,1.28-.56,1.94-1.68,1.2-1.49,1.8-2.65,1.8-3.49l0,0h-.09a9.11,9.11,0,0,0-2.55,2.13,4.86,4.86,0,0,0-1.14,3Z"/><path class="cls-1" d="M74.35,7.67c1,0,1.51.24,1.61.72a3.22,3.22,0,0,1,.27.88A1.87,1.87,0,0,1,75,9.94q-2.88.45-2.88.78a3.59,3.59,0,0,0,2.15,1.19,21.14,21.14,0,0,1,4.35,1.36,2.27,2.27,0,0,1,1.25,2q0,2.05-3.66,2.76a11.13,11.13,0,0,1-2,.19c-2.48-.17-3.71-.45-3.71-.86a1.31,1.31,0,0,1-.39-1v-.2a1.76,1.76,0,0,1,.82-1.39,8.48,8.48,0,0,0,3.5,1,2.68,2.68,0,0,0,1.88-.68v0a18.58,18.58,0,0,0-4.13-1.33q-3-.88-3-2.22v-.12c0-1.36.85-2.42,2.54-3.16A5.71,5.71,0,0,1,74,7.67Z"/><path class="cls-1" d="M2.12,21.85q5.55,0,8,2.14a4.83,4.83,0,0,1,1.13,2.81q0,2.06-2.8,4.41A7.4,7.4,0,0,1,4.1,32.83H3.94c0,5.91.17,9.67.51,11.26l0,0H3.64a.42.42,0,0,0-.23.27C2,44.06,1.28,43.65,1.28,43.2a40.9,40.9,0,0,1-.8-9.38l.36-6.19A7.71,7.71,0,0,0,.48,25.3q-.09,0-.15.36H.25c-.09,0-.17-.14-.25-.43v-.15a1.6,1.6,0,0,1,.53-1H.43c-.12,0-.2.09-.23.27H.1v0c0-.58.47-1.13,1.42-1.67ZM4,30a5.29,5.29,0,0,0,2.71-.94,4.18,4.18,0,0,0,1.23-3.22,5.22,5.22,0,0,0-3-1.4c-.49,0-.73.14-.73.41l-.2,4.89Z"/><path class="cls-1" d="M23.05,24.46a6.57,6.57,0,0,1,.3,1.66q0,2.47-3.84,4v.05a3.05,3.05,0,0,0,2.65,1.72q2.25,0,4.78-3.59c1-1.17,1.84-1.76,2.39-1.76h.1l.09.11v.51l-.05.2a.25.25,0,0,0,.2.17c.23,0,.37-.18.44-.53h.09v.05a5.94,5.94,0,0,1-1.45,2.77,2.75,2.75,0,0,0-.36,1c-.46.1-.68.29-.68.55a7.48,7.48,0,0,1-4.1,3.23,6.57,6.57,0,0,1-1.45.2h-.51q-3.63,0-7.16-5.27l-.25-4v-.37c0-1.64.53-2.67,1.6-3.07a6.28,6.28,0,0,1,3-1Q21.43,21.09,23.05,24.46ZM18.16,28a3.64,3.64,0,0,0,1.73-.88,3.5,3.5,0,0,0,.2-1,2.09,2.09,0,0,0-1.34-2.08L18.37,24c-.51,0-.77.16-.77.48A3.07,3.07,0,0,0,17.33,26,2.43,2.43,0,0,0,18.16,28Z"/><path class="cls-1" d="M39.1,21.14c1,0,1.55.24,1.55.71a2.22,2.22,0,0,0,.53,1.1v.1a13.15,13.15,0,0,0-6.38,7.21,14,14,0,0,0-.94,4.32,6.14,6.14,0,0,1-2,.69c0-.39-.42-.77-1.25-1.14a59.53,59.53,0,0,0-1.36-6.72A10.36,10.36,0,0,1,29,24.92v-.68c.15-.55.65-.87,1.5-1h.12q1.51,0,1.86,2.13l-.07.82a37.53,37.53,0,0,0,3.28-3.43A5,5,0,0,1,39,21.14Z"/><path class="cls-1" d="M48.69,22.08c1.21,0,1.87.3,2,.89A4.09,4.09,0,0,1,51,24.06a2.29,2.29,0,0,1-1.52.83c-2.38.37-3.57.7-3.57,1a4.5,4.5,0,0,0,2.66,1.47A27.46,27.46,0,0,1,54,29a2.84,2.84,0,0,1,1.55,2.49q0,2.54-4.53,3.42a14.77,14.77,0,0,1-2.48.23c-3.05-.2-4.58-.56-4.58-1.06a1.63,1.63,0,0,1-.48-1.2v-.25a2.17,2.17,0,0,1,1-1.72,10.45,10.45,0,0,0,4.32,1.24,3.29,3.29,0,0,0,2.34-.85v0A23.46,23.46,0,0,0,46,29.61q-3.73-1.09-3.74-2.74v-.15q0-2.53,3.14-3.91a7.11,7.11,0,0,1,2.88-.73Z"/><path class="cls-1" d="M63.5,23.58q2.53,0,3.51,3.1a5.5,5.5,0,0,1,.28,1.81V29a6.91,6.91,0,0,1-2.68,5.68,5.21,5.21,0,0,1-2.61.88h-.17c-1.75,0-3-1.12-3.73-3.36a6.36,6.36,0,0,1-.25-1.8v-.26a13.39,13.39,0,0,1,.66-4.26,3.89,3.89,0,0,1,1.22-.63,7.56,7.56,0,0,0,.9-1.11,5.65,5.65,0,0,1,2.82-.51ZM61.11,28,61,30.4c.07,1.33.36,2,.89,2a3.52,3.52,0,0,0,1.69-1.62,4.29,4.29,0,0,0,.51-1.94v-.19A3.18,3.18,0,0,0,63,26.17a1.85,1.85,0,0,0-1.49,1,1.5,1.5,0,0,1-.46.42Z"/><path class="cls-1" d="M78.9,20.58a23.31,23.31,0,0,1,1.19,3.78c.67,4.63,1.2,7.66,1.57,9.09.1,0,.19.32.26.94v.1c0,.56-.37.84-1.09.84h-.1c-1,0-1.57-.19-1.57-.58A16.36,16.36,0,0,1,78,31l-1.08-6.54h0q-1.74,2.13-4.1,8.24a13.89,13.89,0,0,1-1.09,2q0-.15-.51-.21H70.4a.4.4,0,0,1-.45-.45L69.36,33A37.11,37.11,0,0,0,70,24.36a4.53,4.53,0,0,0,1.09-.77c0-.15.07-.22.21-.22,1.21.16,1.82.34,1.82.53l-.15.46,0,.05h0A9.72,9.72,0,0,0,74.91,22q1.31-1.92,2.4-1.92C78.37,20.31,78.9,20.49,78.9,20.58Z"/><path class="cls-1" d="M93.64,20.78c.64,0,1.07.55,1.29,1.64A44.79,44.79,0,0,0,96,28a12.76,12.76,0,0,0,2.13,4.41,4,4,0,0,1,.82,1.93v.31c0,.39-.24.58-.72.58a2.37,2.37,0,0,1-1,.46,5.24,5.24,0,0,1-2.46-2.19q-.55-1.07-2-4.66l-.31-.38a38.82,38.82,0,0,1-3.11,4.28,5,5,0,0,1-3.72,1.7A2.55,2.55,0,0,1,83,32.32L83,31.49c0-1.86,1.21-4.18,3.62-6.94a22.49,22.49,0,0,1,5.19-3.12,2.61,2.61,0,0,1,1.62-.65ZM86.53,31h0c.79,0,1.59-.69,2.4-2.08q2.23-2.76,2.24-4.3l0,0h-.12a11.27,11.27,0,0,0-3.16,2.63A6,6,0,0,0,86.48,31Z"/><path class="cls-1" d="M105.28,22.08c1.21,0,1.87.3,2,.89a4.09,4.09,0,0,1,.33,1.09,2.29,2.29,0,0,1-1.52.83c-2.38.37-3.57.7-3.57,1a4.5,4.5,0,0,0,2.66,1.47A27.46,27.46,0,0,1,110.57,29a2.84,2.84,0,0,1,1.55,2.49q0,2.54-4.53,3.42a14.77,14.77,0,0,1-2.48.23c-3-.2-4.58-.56-4.58-1.06a1.63,1.63,0,0,1-.48-1.2v-.25a2.17,2.17,0,0,1,1-1.72,10.42,10.42,0,0,0,4.32,1.24,3.29,3.29,0,0,0,2.34-.85v0a23.46,23.46,0,0,0-5.12-1.65q-3.73-1.09-3.74-2.74v-.15q0-2.53,3.14-3.91a7.11,7.11,0,0,1,2.88-.73Z"/><path class="cls-1" d="M7.61,42.15,10,50.33l2.47-8.18h1.63l-3.34,10H9.14l-3.26-10Z"/><path class="cls-1" d="M20.08,46.11a.79.79,0,0,0,.68-.49,1.61,1.61,0,0,0,.1-.65,1.44,1.44,0,0,0-.54-1.25,2.63,2.63,0,0,0-1.55-.39,1.88,1.88,0,0,0-1.65.71,2.58,2.58,0,0,0-.35,1.18H15.38a3.08,3.08,0,0,1,1.06-2.59,4,4,0,0,1,2.37-.72,4.37,4.37,0,0,1,2.53.67,2.4,2.4,0,0,1,1,2.1v5.79a.87.87,0,0,0,.09.42c.06.11.2.16.4.16H23l.27,0v1.25a3.26,3.26,0,0,1-.53.14,3.19,3.19,0,0,1-.49,0,1.19,1.19,0,0,1-1.12-.62,2.67,2.67,0,0,1-.26-.93A3.82,3.82,0,0,1,19.59,52a3.58,3.58,0,0,1-1.88.5,2.59,2.59,0,0,1-2-.85,3,3,0,0,1-.78-2.12,3,3,0,0,1,.77-2.17,3.41,3.41,0,0,1,2-.94Zm-2,5a3,3,0,0,0,1.52-.42,2.35,2.35,0,0,0,1.24-2.24V47.08a2.53,2.53,0,0,1-.7.33,5.58,5.58,0,0,1-.84.19l-.9.13a3.25,3.25,0,0,0-1.22.38,1.56,1.56,0,0,0-.68,1.41A1.47,1.47,0,0,0,17,50.68,1.6,1.6,0,0,0,18.06,51.1Z"/><path class="cls-1" d="M24.74,42.15h1.41v1.43a4.26,4.26,0,0,1,1.33-1.27A3.17,3.17,0,0,1,29,41.92a2.52,2.52,0,0,1,2.55,1.5A6,6,0,0,1,32,45.75v6.44H30.44V45.86a3.85,3.85,0,0,0-.24-1.48,1.44,1.44,0,0,0-1.44-.94,2.32,2.32,0,0,0-.86.13,2.21,2.21,0,0,0-1.08.82,2.61,2.61,0,0,0-.48,1,8.18,8.18,0,0,0-.11,1.51v5.26H24.74Z"/><path class="cls-1" d="M36.76,40.44H39v1.8a5.63,5.63,0,0,1,1.5-1.44A4.82,4.82,0,0,1,43.2,40a5.08,5.08,0,0,1,3.93,1.78,7.25,7.25,0,0,1,1.62,5.07c0,3-.78,5.1-2.34,6.38A5.28,5.28,0,0,1,43,54.48a4.68,4.68,0,0,1-2.58-.68,6.05,6.05,0,0,1-1.35-1.32v7H36.76Zm9.65,6.67a7.56,7.56,0,0,0-.47-2.8,3.44,3.44,0,0,0-6.51.13A9.23,9.23,0,0,0,39,47.67a6.75,6.75,0,0,0,.47,2.69,3.45,3.45,0,0,0,5.92.77A6.43,6.43,0,0,0,46.41,47.11Z"/><path class="cls-1" d="M50.18,40.37h2.18v2.36a5.18,5.18,0,0,1,1.31-1.68,3.36,3.36,0,0,1,2.4-1h.22l.52.05v2.42a2.84,2.84,0,0,0-.38,0h-.37A3.28,3.28,0,0,0,53.4,43.6a3.89,3.89,0,0,0-.93,2.57V54H50.18Z"/><path class="cls-1" d="M67.19,40.37h2.26v1.94a7.76,7.76,0,0,1,1.47-1.47,4.42,4.42,0,0,1,2.57-.77,4,4,0,0,1,2.62.8,4,4,0,0,1,1,1.35,5.1,5.1,0,0,1,1.79-1.63,5,5,0,0,1,2.32-.52,3.79,3.79,0,0,1,3.74,2,6.64,6.64,0,0,1,.53,2.88V54H83.13V44.54a2.21,2.21,0,0,0-.68-1.88,2.73,2.73,0,0,0-1.66-.5,3.3,3.3,0,0,0-2.32.9,4,4,0,0,0-1,3V54H75.17V45.11a4.7,4.7,0,0,0-.33-2,2,2,0,0,0-1.94-.95,3.3,3.3,0,0,0-2.36,1c-.71.67-1.07,1.88-1.07,3.64V54H67.19Z"/><path class="cls-1" d="M98.28,42.51a6.18,6.18,0,0,1,.92,2.41,16.37,16.37,0,0,1,.2,3h-10a5.84,5.84,0,0,0,1,3.33,3.25,3.25,0,0,0,2.83,1.25,3.65,3.65,0,0,0,2.86-1.18A4,4,0,0,0,97,49.74h2.25a4.81,4.81,0,0,1-.59,1.67,5.89,5.89,0,0,1-1.13,1.51,5.3,5.3,0,0,1-2.58,1.38,8.12,8.12,0,0,1-1.87.2,5.74,5.74,0,0,1-4.31-1.85A7.23,7.23,0,0,1,87,47.46a7.86,7.86,0,0,1,1.78-5.34,5.87,5.87,0,0,1,4.66-2,6.16,6.16,0,0,1,2.81.68A5.1,5.1,0,0,1,98.28,42.51ZM97.05,46.1a6.08,6.08,0,0,0-.65-2.38,3.33,3.33,0,0,0-3.14-1.65,3.49,3.49,0,0,0-2.65,1.14,4.29,4.29,0,0,0-1.13,2.89Z"/><path class="cls-1" d="M101.39,40.37h2.18v2.36a5.18,5.18,0,0,1,1.31-1.68,3.37,3.37,0,0,1,2.4-1h.22l.52.05v2.42a2.84,2.84,0,0,0-.38,0h-.37a3.28,3.28,0,0,0-2.66,1.11,3.89,3.89,0,0,0-.93,2.57V54h-2.29Z"/><path class="cls-1" d="M120.61,46.91a8.85,8.85,0,0,1-1.6,5.45,5.79,5.79,0,0,1-5,2.16,5.63,5.63,0,0,1-4.47-1.91,7.56,7.56,0,0,1-1.65-5.12A8.12,8.12,0,0,1,109.66,42a5.84,5.84,0,0,1,4.68-2,6.15,6.15,0,0,1,4.45,1.75A6.87,6.87,0,0,1,120.61,46.91Zm-2.39.06a6.83,6.83,0,0,0-.61-3.11A3.43,3.43,0,0,0,114.28,42a3.27,3.27,0,0,0-3,1.6,7.42,7.42,0,0,0-1,3.88,6.46,6.46,0,0,0,1,3.63,3.34,3.34,0,0,0,3,1.45,3.15,3.15,0,0,0,3.12-1.73A8.52,8.52,0,0,0,118.22,47Z"/><path class="cls-1" d="M66.92,54.41s-2.78-6.47-3.07-8.47-.81-4.78,1.59-7.66a13,13,0,0,1,6.09-3.8,1.84,1.84,0,0,0-3-1.86,65.9,65.9,0,0,1-5.8,4.82,3.92,3.92,0,0,1-4.29-.78c-.83-.85-2.24-3.79-3-4.22-.61-.34-2.09.21-2.06,1.19a4.1,4.1,0,0,0,1.25,2.76c.67.64,4,3.33,4.44,3.94.91,1.14.15,7.11-.27,9.27a21.6,21.6,0,0,0-.62,5.89,1.82,1.82,0,0,0,1.75,1.14c1.15,0,1.7-.68,1.61-2.35a12.28,12.28,0,0,1,.65-4.59,20.1,20.1,0,0,1,1,2.81c.15.57,0,2.5.54,3.19C64,56.16,66.1,56.14,66.92,54.41Z"/><path class="cls-1" d="M124.49,52.31A1.68,1.68,0,0,1,122.81,54h0a1.68,1.68,0,0,1-1.68-1.68h0a1.68,1.68,0,0,1,1.68-1.68h0a1.68,1.68,0,0,1,1.68,1.68Z"/></g></g></svg>