<svg xmlns="http://www.w3.org/2000/svg" viewBox="0 0 207.09 37.96"><defs><style>.cls-1{fill:#fff;}.cls-2{fill:#b6c931;fill-rule:evenodd;}</style></defs><g id="Capa_2" data-name="Capa 2"><g id="Capa_1-2" data-name="Capa 1"><path class="cls-1" d="M8.74,32.6a14.35,14.35,0,0,1-2.62-7.49A12.05,12.05,0,0,1,7.6,18.57a11.69,11.69,0,0,1,3.32-3.76c-2.78-5-5.67-8.91-2-14.57C-3.44,7.49-2.78,27,9.85,34A12.41,12.41,0,0,1,8.74,32.6Z"/><path class="cls-1" d="M13.32,0a5,5,0,0,1,4.93,5A4.92,4.92,0,1,1,8.42,5a4.94,4.94,0,0,1,4.9-5Z"/><path class="cls-1" d="M195.21,8.19h-3.62L181.32,32.44h3.4l2.86-6.73h10.95l2.82,6.73h4L195.21,8.19Zm-2.17,15h-4.43L193,12.72l4.42,10.44Z"/><polygon class="cls-1" points="172.41 32.44 162.68 8.19 166.34 8.19 174.32 28.03 182.03 8.19 185.27 8.19 175.88 32.44 172.41 32.44 172.41 32.44"/><path class="cls-1" d="M154.55,21.07a8.48,8.48,0,0,0,3.85-2.75,6.49,6.49,0,0,0,1.37-4.09,5.4,5.4,0,0,0-2-4.49,9.32,9.32,0,0,0-5.72-1.55h-7.82V32.44h3.62V22.19h3.43l.61.89,6.76,9.36h4.5l-8.62-11.37Zm-2.64-1.74a12.57,12.57,0,0,1-2.86.27h-1.18V10.78h2.33c.61,0,1.22,0,1.71.08,2.71.35,4.09,1.59,4.09,3.67a4.37,4.37,0,0,1-1.8,3.79,6.1,6.1,0,0,1-2.29,1Z"/><polygon class="cls-1" points="124.82 32.44 124.82 8.19 139.28 8.19 139.28 10.78 128.52 10.78 128.52 18.56 137.57 18.56 137.57 21.07 128.52 21.07 128.52 29.85 140.05 29.85 140.05 32.44 124.82 32.44 124.82 32.44"/><path class="cls-1" d="M104.39,32v-3.4a18.69,18.69,0,0,0,7.17,1.9A5.17,5.17,0,0,0,115,29.38a3.37,3.37,0,0,0,1.34-2.78,3.69,3.69,0,0,0-.88-2.44,11.67,11.67,0,0,0-3.17-2.2l-1.79-1a16.5,16.5,0,0,1-4.65-3.32A5.33,5.33,0,0,1,104.5,14a5.73,5.73,0,0,1,2.18-4.6,8.16,8.16,0,0,1,5.53-1.82,23.45,23.45,0,0,1,6.3.93v3.13a19.88,19.88,0,0,0-6.11-1.5,4.87,4.87,0,0,0-3.13,1A2.85,2.85,0,0,0,108,13.49a3,3,0,0,0,.92,2.17,15.85,15.85,0,0,0,3.32,2.24l1.87,1a16.62,16.62,0,0,1,4.65,3.37,5.55,5.55,0,0,1,1.34,3.83,6,6,0,0,1-2.48,5.06,10.45,10.45,0,0,1-6.57,1.9A27.46,27.46,0,0,1,104.39,32Z"/><path class="cls-1" d="M204,8.5H204a2.82,2.82,0,0,1,.73.08.63.63,0,0,1,.38.31.74.74,0,0,1,.15.5.79.79,0,0,1-.23.62.9.9,0,0,1-.61.31,2.06,2.06,0,0,1,.35.27c.07.12.19.27.34.54l.42.62h-.8l-.46-.7a2.82,2.82,0,0,0-.34-.5V9.86a1,1,0,0,0,.42,0,.22.22,0,0,0,.19-.12.47.47,0,0,0,0-.23c0-.12,0-.23-.08-.27a.34.34,0,0,0-.23-.16H204V8.5Zm-1.3,3.25V8.5H204V9h-.65v.82H204v.69h0a.33.33,0,0,0-.19-.11.73.73,0,0,0-.31,0h-.15v1.35Z"/><path class="cls-1" d="M203.72,13.69a3.43,3.43,0,0,1,0-6.86,3.43,3.43,0,0,1,0,6.86Zm0-6.07a2.64,2.64,0,1,0,2.58,2.62,2.62,2.62,0,0,0-2.58-2.62Z"/><polygon class="cls-1" points="78.79 32.44 78.79 8.19 82.69 8.19 96.69 26.91 96.69 8.19 100.08 8.19 100.08 32.44 96.23 32.44 82.19 13.72 82.19 32.44 78.79 32.44 78.79 32.44"/><path class="cls-1" d="M71.7,11.05a13.09,13.09,0,0,0-9.46-3.44h0a13.08,13.08,0,0,0-9.46,3.44,12.4,12.4,0,0,0-3.55,9.28,12.38,12.38,0,0,0,3.55,9.25A13.08,13.08,0,0,0,62.2,33h0a13.09,13.09,0,0,0,9.46-3.44,12.38,12.38,0,0,0,3.55-9.25,12.4,12.4,0,0,0-3.55-9.28Zm-3,16.71a8.09,8.09,0,0,1-6.48,2.71h0a8.11,8.11,0,0,1-6.49-2.71c-1.56-1.78-2.33-4.29-2.33-7.46s.77-5.69,2.33-7.47a8.21,8.21,0,0,1,6.49-2.66h0a8.19,8.19,0,0,1,6.48,2.66c1.57,1.78,2.33,4.3,2.33,7.47s-.76,5.68-2.33,7.46Z"/><path class="cls-1" d="M47.09,31.16A16.44,16.44,0,0,1,39.35,33c-3.71,0-6.61-1.08-8.63-3.29s-3-5.33-3-9.4,1-7.19,3.09-9.39,5-3.33,8.74-3.33a32.55,32.55,0,0,1,7.51,1v3.25a24.81,24.81,0,0,0-7.59-1.74,7.26,7.26,0,0,0-6,2.66c-1.41,1.78-2.14,4.3-2.14,7.54a10.89,10.89,0,0,0,2.29,7.31,7.76,7.76,0,0,0,6.22,2.67,15.22,15.22,0,0,0,7.29-2.13v2.94Z"/><path class="cls-2" d="M18.93,12.69a4.37,4.37,0,1,1-4.29,4.38A4.36,4.36,0,0,1,18.93,12.69Z"/><path class="cls-2" d="M13.53,14.13a11.88,11.88,0,0,0-5.8,11.06A14.75,14.75,0,0,0,16.84,38c4-7.26,1.23-11.49-1.22-15.23C13.83,20,12.13,17.39,13.53,14.13Z"/></g></g></svg>