<svg xmlns="http://www.w3.org/2000/svg" viewBox="0 0 254.48 183.11"><defs><style>.cls-1{fill:#000f9f;}.cls-2{fill:#99cf16;stroke:#99cf16;stroke-miterlimit:10;stroke-width:1.86px;}</style></defs><g id="Capa_2" data-name="Capa 2"><g id="Capa_1-2" data-name="Capa 1"><path class="cls-1" d="M11.23,173.67q40.58-43.93,52.87-61.18Q83,86.42,83,66.32A38.11,38.11,0,0,0,75.7,44Q68.44,33.68,53.17,33.68A30.47,30.47,0,0,0,30.59,43a46.71,46.71,0,0,0-8.81,13.65h-7q8.43-26.43,23.33-39.16T71.67,4.76q17.63,0,32,12.23t14.39,35.93q0,12.4-6.76,25.44t-22.79,28.3l-38.73,37v2.11H85.93q18.87,0,24.65-3.1T122.18,126h6.08l-11.42,53.49H11.23Z"/><path class="cls-1" d="M160.16,24.63q16.13-19.87,37-19.87,24.08,0,40.58,24.47,16.75,25.1,16.76,63.09,0,44.84-19,69.79-16,21-38.23,21-15.63,0-26.68-9.2a79.11,79.11,0,0,1-18.86-23.71,90.51,90.51,0,0,1-9.44-28.2,238.55,238.55,0,0,1-2.48-26.82Q139.8,49.6,160.16,24.63Zm24.2,140.52Q188.7,176,197.51,176q11.06,0,14.9-20.13,2.1-11.07,2.11-32.7V64.91q0-30.94-4.41-41.82T197.26,12.21q-8.56,0-13,11t-4.46,41.7V123.2Q180,154.28,184.36,165.15Z"/><path class="cls-2" d="M.93,169.84q40.58-43.93,52.87-61.19Q72.67,82.6,72.66,62.49A38.09,38.09,0,0,0,65.4,40.21Q58.14,29.84,42.88,29.85a30.5,30.5,0,0,0-22.59,9.3,46.91,46.91,0,0,0-8.81,13.66H4.53Q13,26.37,27.86,13.65T61.37.93q17.63,0,32,12.22t14.4,35.93q0,12.42-6.77,25.44t-22.78,28.3l-38.73,37v2.11H75.63q18.87,0,24.65-3.11t11.6-16.63H118l-11.41,53.49H.93Z"/><path class="cls-2" d="M149.86,20.8Q166,.93,186.84.93q24.07,0,40.59,24.47,16.75,25.08,16.75,63.09,0,44.83-19,69.79-16,21-38.22,21-15.65,0-26.69-9.19a79.15,79.15,0,0,1-18.86-23.72A90.45,90.45,0,0,1,132,118.17a234.09,234.09,0,0,1-2.48-26.83Q129.51,45.77,149.86,20.8Zm24.2,140.52q4.35,10.89,13.16,10.88,11,0,14.89-20.14,2.12-11.06,2.11-32.69V61.08q0-30.94-4.41-41.82T187,8.38q-8.57,0-13,11t-4.47,41.7v58.29Q169.71,150.44,174.06,161.32Z"/></g></g></svg>