<svg id="Capa_1" data-name="Capa 1" xmlns="http://www.w3.org/2000/svg" viewBox="0 0 90 90"><defs><style>.cls-1{fill:#fff;}.cls-2{fill:#010101;opacity:0.05;}.cls-3{font-size:10.15px;fill:#283480;stroke:#283480;stroke-miterlimit:10;stroke-width:0.25px;font-family:MyriadPro-Regular, Myriad Pro;}</style></defs><rect class="cls-1" width="90" height="90"/><path class="cls-2" d="M74.9,43.47A29.52,29.52,0,1,1,45.38,14.36,29.31,29.31,0,0,1,74.9,43.47m-27.49-.59a5.87,5.87,0,1,0,5.85-5.8,5.83,5.83,0,0,0-5.85,5.8M45.9,39A15.68,15.68,0,0,0,38,53.66a19.65,19.65,0,0,0,12.42,17c5.46-9.65,1.67-15.27-1.67-20.24C46.31,46.76,44,43.31,45.9,39M39.24,24.36a7.24,7.24,0,1,0,7.23-7.12,7.21,7.21,0,0,0-7.23,7.12m.48,39.57a20.3,20.3,0,0,1-3.86-10.72A17.14,17.14,0,0,1,38,43.82a16.88,16.88,0,0,1,4.89-5.36c-4.1-7.1-8.33-12.77-3-20.88C21.79,28,22.75,55.94,41.34,65.91a21.85,21.85,0,0,1-1.62-2M78,24.63c-3.4-5-5.49-7.62-12.5-12.47C58.64,7.42,50.53,5.94,41.08,6.83c-8.3.79-16.46,5.33-21,9.27C13.34,22,9.9,31,9.9,31a22.73,22.73,0,0,0-6,4.26C.94,38.19-1.22,45.8,2.33,51.58s11.77,7,11.77,7L13.86,31a34.19,34.19,0,0,1,7.81-11.57C27.51,14.05,35.91,11.4,43,10.64s14.73,1.78,20.56,5.17C72.24,20.88,75.67,31,75.67,31V56.75A24.31,24.31,0,0,1,73,63.3c-1.86,2.88-4.59,6.48-12.14,10.5-7,3.71-10.56,3.66-10.56,3.66A5.6,5.6,0,0,0,47.37,75c-2.32-1.06-7.23-.15-7.23-.15-3,1.5-4.34,4.18-3.54,6.09,1.28,3,5.25,3.65,8.65,3.5s5.4-3.5,5.4-3.5a4.64,4.64,0,0,0,1.71-.15c4.87-1.26,8.87-2,16.86-7.61A27.47,27.47,0,0,0,80.15,57.33a19.16,19.16,0,0,0,5.26-3c3.94-3,4.82-11,3.58-15.1s-7.34-8-7.34-8A42.25,42.25,0,0,0,78,24.63"/><text class="cls-3" transform="translate(25.21 40.05) scale(0.96 1)">o llámanos<tspan x="-6.27" y="12.18">800 290 9000 </tspan></text></svg>