<svg xmlns="http://www.w3.org/2000/svg" viewBox="0 0 292.46 122.27"><defs><style>.cls-1{font-size:17px;stroke:#fff;stroke-miterlimit:10;font-family:MyriadPro-Regular, Myriad Pro;}.cls-1,.cls-8{fill:#fff;}.cls-2{letter-spacing:0.01em;}.cls-3{letter-spacing:-0.01em;}.cls-4{letter-spacing:-0.01em;}.cls-5,.cls-6{fill:#000f9f;}.cls-5{fill-rule:evenodd;}.cls-7{fill:#e58b16;}.cls-9{fill:#5c5b5f;}</style></defs><g id="Capa_2" data-name="Capa 2"><g id="Capa_1-2" data-name="Capa 1"><text class="cls-1" transform="translate(26.62 66.12)"><tspan class="cls-2">S</tspan><tspan x="8.48" y="0">olicita tu c</tspan><tspan class="cls-3" x="81.04" y="0">r</tspan><tspan x="86.43" y="0">edi</tspan><tspan class="cls-4" x="108.51" y="0">t</tspan><tspan x="114.03" y="0">o</tspan></text><path class="cls-5" d="M250.34,1.81h-4.89L231.6,34.09h4.58l3.86-9h14.77l3.81,9H264ZM247.4,21.74h-6l6-13.9,6,13.9Z"/><polygon class="cls-5" points="218.84 34.09 205.72 1.81 210.66 1.81 221.42 28.22 231.82 1.81 236.19 1.81 223.53 34.09 218.84 34.09"/><path class="cls-5" d="M196,19a11.44,11.44,0,0,0,5.2-3.66,8.61,8.61,0,0,0,1.86-5.45,7.18,7.18,0,0,0-2.68-6c-1.8-1.33-4.38-2.06-7.72-2.06H182.1V34.09H187V20.45h4.64l.82,1.18,9.11,12.46h6.08Zm-3.55-2.32a16.83,16.83,0,0,1-3.86.36H187V5.26h3.14c.83,0,1.65,0,2.32.11,3.66.46,5.51,2.11,5.51,4.89a5.81,5.81,0,0,1-2.42,5A8.43,8.43,0,0,1,192.45,16.64Z"/><polygon class="cls-5" points="155.9 34.09 155.9 1.81 175.41 1.81 175.41 5.26 160.89 5.26 160.89 15.61 173.09 15.61 173.09 18.96 160.89 18.96 160.89 30.64 176.44 30.64 176.44 34.09 155.9 34.09"/><path class="cls-5" d="M127.79,33.47V28.94c3.91,1.7,7.16,2.53,9.68,2.53A7.1,7.1,0,0,0,142.15,30,4.5,4.5,0,0,0,144,26.32a4.83,4.83,0,0,0-1.19-3.24,15.46,15.46,0,0,0-4.27-2.94l-2.42-1.29a22,22,0,0,1-6.28-4.42A7,7,0,0,1,128,9.59a7.58,7.58,0,0,1,2.93-6.13A11.13,11.13,0,0,1,138.34,1a31.78,31.78,0,0,1,8.5,1.24V6.45a27,27,0,0,0-8.24-2,6.61,6.61,0,0,0-4.22,1.29,3.78,3.78,0,0,0-1.7,3.14,4,4,0,0,0,1.24,2.88,21.23,21.23,0,0,0,4.48,3L140.92,16a22.32,22.32,0,0,1,6.28,4.48,7.34,7.34,0,0,1,1.8,5.1,8,8,0,0,1-3.34,6.74c-2.22,1.7-5.2,2.52-8.86,2.52A37.54,37.54,0,0,1,127.79,33.47Z"/><path class="cls-5" d="M262.28,2.23h.1a4.11,4.11,0,0,1,1,.1.88.88,0,0,1,.52.41,1.06,1.06,0,0,1,.2.67,1.06,1.06,0,0,1-.31.82,1.27,1.27,0,0,1-.82.42,2.41,2.41,0,0,1,.46.36c.1.15.26.36.47.72l.56.82h-1.08l-.62-.93a3.52,3.52,0,0,0-.46-.67V4a1.53,1.53,0,0,0,.57-.05.27.27,0,0,0,.25-.16.65.65,0,0,0,0-.31c0-.15,0-.31-.1-.36s-.15-.15-.31-.2h-.46Zm-1.75,4.32V2.23h1.75V3h-.88V4h.88V5h0A.42.42,0,0,0,262,4.8a1,1,0,0,0-.41,0h-.21v1.8Z"/><path class="cls-6" d="M262,9.14A4.57,4.57,0,1,1,262,0a4.57,4.57,0,0,1,0,9.14Zm0-8.09a3.52,3.52,0,1,0,3.49,3.49A3.52,3.52,0,0,0,262,1.05Z"/><polygon class="cls-5" points="91.65 34.09 91.65 1.81 96.9 1.81 115.8 26.73 115.8 1.81 120.38 1.81 120.38 34.09 115.18 34.09 96.23 9.18 96.23 34.09 91.65 34.09"/><path class="cls-5" d="M83.74,5.62C80.55,2.59,76.28,1,71,1h0c-5.31,0-9.58,1.55-12.77,4.58S53.37,12.83,53.37,18s1.6,9.21,4.79,12.3,7.46,4.58,12.77,4.58h0c5.3,0,9.57-1.54,12.76-4.58s4.79-7.2,4.79-12.3S86.94,8.71,83.74,5.62Zm-4,22.24A11,11,0,0,1,71,31.47h0a11,11,0,0,1-8.76-3.61C60.06,25.49,59,22.15,59,17.93s1-7.57,3.14-9.94a11.15,11.15,0,0,1,8.76-3.55h0A11.14,11.14,0,0,1,79.73,8c2.11,2.37,3.14,5.72,3.14,9.94S81.84,25.49,79.73,27.86Z"/><path class="cls-5" d="M50.58,32.39a22.45,22.45,0,0,1-10.45,2.47c-5,0-8.91-1.44-11.64-4.37S24.43,23.39,24.43,18,25.82,8.4,28.6,5.47,35.29,1,40.38,1A45.16,45.16,0,0,1,50.53,2.43V6.76C46.1,5.21,42.7,4.44,40.28,4.44A9.84,9.84,0,0,0,32.15,8c-1.91,2.37-2.88,5.72-2.88,10q0,6.18,3.08,9.73a10.52,10.52,0,0,0,8.39,3.55,20.67,20.67,0,0,0,9.84-2.83Z"/><circle class="cls-7" cx="107.31" cy="66.7" r="22.88"/><path class="cls-7" d="M154.73,61h-4.94a9.12,9.12,0,0,0-2.06-4.64q-1.62-1.84-5.17-1.85-4.86,0-6.94,4.74a18.79,18.79,0,0,0-1.36,7.6,14.29,14.29,0,0,0,1.92,7.65,7.45,7.45,0,0,0,11,1.17,10.56,10.56,0,0,0,2.56-5.29h4.94c-.57,4-2,6.94-4.24,8.79a13.2,13.2,0,0,1-8.66,2.78,11.57,11.57,0,0,1-9.46-4.33,16.61,16.61,0,0,1-3.53-10.83q0-8,3.87-12.39a12.48,12.48,0,0,1,9.85-4.43,13.13,13.13,0,0,1,8.31,2.48Q154.08,54.91,154.73,61Z"/><path class="cls-7" d="M160.82,42.37H166v8.44h4.83V55H166V74.69A2.13,2.13,0,0,0,167,76.81a4.48,4.48,0,0,0,2,.31l.79,0c.28,0,.61,0,1,0v4a10.67,10.67,0,0,1-1.82.37,16.37,16.37,0,0,1-2.05.11c-2.37,0-4-.6-4.82-1.82A8.05,8.05,0,0,1,160.82,75V55h-4.09V50.81h4.09Z"/><path class="cls-7" d="M175.87,39.58H181v5.76h-5.17Zm0,11.37H181V81h-5.17Z"/><path class="cls-7" d="M191.2,50.81l8.07,24.62,8.44-24.62h5.56L201.87,81h-5.42L185.3,50.81Z"/><path class="cls-7" d="M233.82,62.72a2.78,2.78,0,0,0,2.35-1.46,4.58,4.58,0,0,0,.34-1.95,4.14,4.14,0,0,0-1.85-3.77,10,10,0,0,0-5.3-1.17q-4,0-5.64,2.14A7.1,7.1,0,0,0,222.5,60h-4.74c.1-3.72,1.3-6.32,3.63-7.77a14.87,14.87,0,0,1,8.09-2.19,16.43,16.43,0,0,1,8.65,2,6.89,6.89,0,0,1,3.32,6.32V75.85a2.19,2.19,0,0,0,.32,1.27,1.57,1.57,0,0,0,1.37.48,7.05,7.05,0,0,0,.76,0c.28,0,.58-.07.9-.13v3.76a16,16,0,0,1-1.8.42,12.83,12.83,0,0,1-1.7.08,4.18,4.18,0,0,1-3.81-1.86,7.28,7.28,0,0,1-.87-2.79,12.91,12.91,0,0,1-4.46,3.52,13.79,13.79,0,0,1-6.41,1.5,9.54,9.54,0,0,1-6.87-2.55,8.51,8.51,0,0,1-2.67-6.4,8.23,8.23,0,0,1,2.62-6.52,12.54,12.54,0,0,1,6.89-2.85Zm-6.88,15a11.55,11.55,0,0,0,5.19-1.24,7,7,0,0,0,4.23-6.75V65.66a8.72,8.72,0,0,1-2.4,1,20.17,20.17,0,0,1-2.87.56l-3.08.4a11.79,11.79,0,0,0-4.15,1.15A4.52,4.52,0,0,0,221.52,73a4.16,4.16,0,0,0,1.61,3.47A5.94,5.94,0,0,0,226.94,77.74Z"/><path class="cls-8" d="M111.3,62.7a2.75,2.75,0,0,0,2.34-1.46,4.48,4.48,0,0,0,.34-2,4.14,4.14,0,0,0-1.84-3.78,9.83,9.83,0,0,0-5.29-1.18q-4,0-5.63,2.16A7.1,7.1,0,0,0,100,60H95.27q.14-5.6,3.62-7.8A14.84,14.84,0,0,1,107,50a16.46,16.46,0,0,1,8.65,2,6.91,6.91,0,0,1,3.3,6.33V75.81a2.16,2.16,0,0,0,.33,1.26,1.55,1.55,0,0,0,1.36.48,7.36,7.36,0,0,0,.77,0l.9-.12v3.75a13.69,13.69,0,0,1-1.81.42,12.38,12.38,0,0,1-1.69.09A4.17,4.17,0,0,1,115,79.78a7,7,0,0,1-.88-2.79,13,13,0,0,1-4.46,3.53,13.84,13.84,0,0,1-6.4,1.49,9.55,9.55,0,0,1-6.88-2.55,8.46,8.46,0,0,1-2.67-6.38,8.25,8.25,0,0,1,2.63-6.52,12.46,12.46,0,0,1,6.89-2.84ZM100.6,76.43a6,6,0,0,0,3.81,1.26,11.71,11.71,0,0,0,5.2-1.23,7,7,0,0,0,4.23-6.74V65.63a8.47,8.47,0,0,1-2.39,1,19.28,19.28,0,0,1-2.88.57l-3.07.39a11.89,11.89,0,0,0-4.15,1.16A4.49,4.49,0,0,0,99,73,4.19,4.19,0,0,0,100.6,76.43Z"/><path class="cls-7" d="M79,46.3H65.14V82.69H60V46.3H46.13V41.42H79Z"/><rect class="cls-7" x="69.36" y="62.06" width="11.85" height="4.64"/><path class="cls-9" d="M13.38,104.23a6.31,6.31,0,0,0-3.72-1.09,6.65,6.65,0,0,0-3.14.69,6.1,6.1,0,0,0-2.15,1.85,7.79,7.79,0,0,0-1.24,2.65,11.71,11.71,0,0,0-.41,3.1,13.16,13.16,0,0,0,.41,3.31,7.8,7.8,0,0,0,1.24,2.72,6.18,6.18,0,0,0,2.17,1.85,6.72,6.72,0,0,0,3.15.69,6.22,6.22,0,0,0,2.4-.44,5.31,5.31,0,0,0,1.8-1.24,5.61,5.61,0,0,0,1.2-1.88,8.06,8.06,0,0,0,.51-2.35h2.73a9.35,9.35,0,0,1-2.67,6,8.66,8.66,0,0,1-6.2,2.15,9.91,9.91,0,0,1-4.15-.82,8.32,8.32,0,0,1-3-2.25,9.76,9.76,0,0,1-1.76-3.39A14.46,14.46,0,0,1,0,111.63a13.74,13.74,0,0,1,.63-4.21A10.17,10.17,0,0,1,2.48,104a8.54,8.54,0,0,1,3-2.31,9.86,9.86,0,0,1,4.17-.85,10.74,10.74,0,0,1,3,.43,8.18,8.18,0,0,1,2.56,1.27,7.13,7.13,0,0,1,1.86,2.07,7.78,7.78,0,0,1,1,2.89H15.4A5.05,5.05,0,0,0,13.38,104.23Z"/><path class="cls-9" d="M23.52,107v3.13h.05a6.61,6.61,0,0,1,2.18-2.67,5.49,5.49,0,0,1,3.27-.8v2.58a6.84,6.84,0,0,0-2.49.4,4,4,0,0,0-1.67,1.17,4.92,4.92,0,0,0-.91,1.88,10.26,10.26,0,0,0-.29,2.54v6.6H21.22V107Z"/><path class="cls-9" d="M41.35,120.86a6.7,6.7,0,0,1-4.18,1.26,7.68,7.68,0,0,1-3.09-.57,6,6,0,0,1-2.19-1.61,6.8,6.8,0,0,1-1.33-2.46,11.46,11.46,0,0,1-.5-3.13,9,9,0,0,1,.51-3.1A7.48,7.48,0,0,1,32,108.82a6.53,6.53,0,0,1,2.21-1.61,6.76,6.76,0,0,1,2.79-.57,6.15,6.15,0,0,1,3.29.81,6.49,6.49,0,0,1,2.09,2.08,8.09,8.09,0,0,1,1.09,2.76,11.73,11.73,0,0,1,.24,2.84H32.64a5.57,5.57,0,0,0,.23,1.84,4,4,0,0,0,.83,1.55,4.13,4.13,0,0,0,1.46,1.08,5,5,0,0,0,2.09.4,4.2,4.2,0,0,0,2.54-.72,3.44,3.44,0,0,0,1.31-2.18h2.41A5.94,5.94,0,0,1,41.35,120.86Zm-.58-9.52a4.14,4.14,0,0,0-.89-1.33,4.27,4.27,0,0,0-1.32-.89,4.2,4.2,0,0,0-1.68-.33,4.27,4.27,0,0,0-1.71.33,4,4,0,0,0-1.3.9,4.41,4.41,0,0,0-.86,1.33,4.91,4.91,0,0,0-.37,1.62h8.51A4.79,4.79,0,0,0,40.77,111.34Zm-3-11.62L35,104.37h1.83l4-4.65Z"/><path class="cls-9" d="M57.07,121.81v-2H57a3.61,3.61,0,0,1-1.89,1.78,7.3,7.3,0,0,1-2.84.54,6.7,6.7,0,0,1-3-.63,6.18,6.18,0,0,1-2.12-1.69,7.32,7.32,0,0,1-1.27-2.47,10,10,0,0,1-.43-3,10.32,10.32,0,0,1,.41-3,7,7,0,0,1,1.26-2.45,6.07,6.07,0,0,1,2.13-1.67,6.75,6.75,0,0,1,3-.61,6.87,6.87,0,0,1,1.24.11,6.6,6.6,0,0,1,1.32.39,5.68,5.68,0,0,1,1.24.71A3.77,3.77,0,0,1,57,109h.06v-7.63h2.44v20.48Zm-8.76-5.27a5.55,5.55,0,0,0,.83,1.77,4.06,4.06,0,0,0,1.43,1.23,4.35,4.35,0,0,0,2.06.46,4.12,4.12,0,0,0,2.09-.49,4.17,4.17,0,0,0,1.4-1.27,5.23,5.23,0,0,0,.79-1.8,8.53,8.53,0,0,0,0-4.14,5.16,5.16,0,0,0-.82-1.79,4.11,4.11,0,0,0-1.45-1.25,4.58,4.58,0,0,0-2.15-.47,4.22,4.22,0,0,0-2.09.48,3.92,3.92,0,0,0-1.38,1.3,5.54,5.54,0,0,0-.74,1.83,9.37,9.37,0,0,0-.23,2.12A7.57,7.57,0,0,0,48.31,116.54Z"/><path class="cls-9" d="M63.41,104.31v-3h2.44v3ZM65.85,107v14.83H63.41V107Z"/><path class="cls-9" d="M76,107v2.15H73v9.21a2.66,2.66,0,0,0,.07.69.7.7,0,0,0,.27.4,1.27,1.27,0,0,0,.56.18,7.63,7.63,0,0,0,.93,0H76v2.15H74.1a9.31,9.31,0,0,1-1.62-.13,2.43,2.43,0,0,1-1.09-.48,2,2,0,0,1-.61-1,5.45,5.45,0,0,1-.2-1.66v-9.44H68.05V107h2.53v-4.44H73V107Z"/><path class="cls-9" d="M78.32,111.35a7.07,7.07,0,0,1,1.38-2.46A6.39,6.39,0,0,1,82,107.24a8.33,8.33,0,0,1,6.21,0,6.44,6.44,0,0,1,2.25,1.65,6.91,6.91,0,0,1,1.38,2.46,9.81,9.81,0,0,1,.46,3.06,9.63,9.63,0,0,1-.46,3,6.87,6.87,0,0,1-1.38,2.45,6.27,6.27,0,0,1-2.25,1.63,8.47,8.47,0,0,1-6.21,0,6.22,6.22,0,0,1-2.26-1.63,7,7,0,0,1-1.38-2.45,9.63,9.63,0,0,1-.46-3A9.81,9.81,0,0,1,78.32,111.35Zm2.48,5.45a5,5,0,0,0,1,1.75,4.25,4.25,0,0,0,1.48,1.08,4.51,4.51,0,0,0,3.58,0,4.25,4.25,0,0,0,1.48-1.08,5,5,0,0,0,1-1.75,8.15,8.15,0,0,0,0-4.79,5.27,5.27,0,0,0-1-1.76,4.16,4.16,0,0,0-1.48-1.09,4.51,4.51,0,0,0-3.58,0,4.16,4.16,0,0,0-1.48,1.09,5.27,5.27,0,0,0-1,1.76,8.15,8.15,0,0,0,0,4.79Z"/><path class="cls-9" d="M113.75,104.13a5.78,5.78,0,0,0-3.48-1,7.88,7.88,0,0,0-1.69.17,4.52,4.52,0,0,0-1.48.57,3,3,0,0,0-1,1.08,3.31,3.31,0,0,0-.39,1.68,2.13,2.13,0,0,0,.56,1.53,4.17,4.17,0,0,0,1.49,1,12,12,0,0,0,2.11.62c.78.16,1.58.34,2.39.53s1.61.41,2.4.67a8.16,8.16,0,0,1,2.11,1,5.05,5.05,0,0,1,1.49,1.66,5.18,5.18,0,0,1,.56,2.53,5.09,5.09,0,0,1-.74,2.79,6,6,0,0,1-1.87,1.9,8.39,8.39,0,0,1-2.57,1.06,12.49,12.49,0,0,1-2.83.33,12.26,12.26,0,0,1-3.25-.43,8.27,8.27,0,0,1-2.7-1.31,6.19,6.19,0,0,1-1.83-2.24,7.15,7.15,0,0,1-.68-3.22h2.59a4.55,4.55,0,0,0,.5,2.22,4.44,4.44,0,0,0,1.32,1.53,5.37,5.37,0,0,0,1.9.89,8.88,8.88,0,0,0,2.24.29,10.61,10.61,0,0,0,1.85-.17,5.57,5.57,0,0,0,1.68-.59,3.26,3.26,0,0,0,1.2-1.13,3.33,3.33,0,0,0,.46-1.84,2.6,2.6,0,0,0-.56-1.72,4,4,0,0,0-1.49-1.07,10.45,10.45,0,0,0-2.11-.68l-2.39-.53q-1.22-.27-2.4-.63a8.4,8.4,0,0,1-2.1-1,4.19,4.19,0,0,1-2.05-3.85,5.39,5.39,0,0,1,.63-2.68,5.57,5.57,0,0,1,1.67-1.87,7.61,7.61,0,0,1,2.38-1.09,10.51,10.51,0,0,1,2.74-.36,10.93,10.93,0,0,1,2.93.38,6.45,6.45,0,0,1,2.36,1.17,5.7,5.7,0,0,1,1.61,2,7.34,7.34,0,0,1,.65,2.91h-2.59A4.24,4.24,0,0,0,113.75,104.13Z"/><path class="cls-9" d="M121.34,111.35a6.76,6.76,0,0,1,1.38-2.46,6.39,6.39,0,0,1,2.26-1.65,8.33,8.33,0,0,1,6.21,0,6.44,6.44,0,0,1,2.25,1.65,7.07,7.07,0,0,1,1.38,2.46,10.11,10.11,0,0,1,.46,3.06,9.93,9.93,0,0,1-.46,3,7,7,0,0,1-1.38,2.45,6.27,6.27,0,0,1-2.25,1.63,8.47,8.47,0,0,1-6.21,0,6.22,6.22,0,0,1-2.26-1.63,6.72,6.72,0,0,1-1.38-2.45,9.63,9.63,0,0,1-.46-3A9.81,9.81,0,0,1,121.34,111.35Zm2.48,5.45a5,5,0,0,0,1,1.75,4.25,4.25,0,0,0,1.48,1.08,4.39,4.39,0,0,0,5.06-1.08,5,5,0,0,0,1-1.75,8.15,8.15,0,0,0,0-4.79,5.27,5.27,0,0,0-1-1.76,4.25,4.25,0,0,0-1.48-1.09,4.51,4.51,0,0,0-3.58,0,4.16,4.16,0,0,0-1.48,1.09,5.27,5.27,0,0,0-1,1.76,8.15,8.15,0,0,0,0,4.79Z"/><path class="cls-9" d="M140.73,101.33v20.48h-2.44V101.33Z"/><path class="cls-9" d="M144.65,104.31v-3h2.44v3Zm2.44,2.67v14.83h-2.44V107Z"/><path class="cls-9" d="M161.69,121.81v-2h-.06a3.61,3.61,0,0,1-1.89,1.78,7.3,7.3,0,0,1-2.84.54,6.7,6.7,0,0,1-3-.63,6.09,6.09,0,0,1-2.12-1.69,7.53,7.53,0,0,1-1.28-2.47,10.66,10.66,0,0,1,0-6,7,7,0,0,1,1.26-2.45,6.13,6.13,0,0,1,2.12-1.67,6.76,6.76,0,0,1,3-.61,7,7,0,0,1,1.24.11,6.71,6.71,0,0,1,1.31.39,5.75,5.75,0,0,1,1.25.71,4.07,4.07,0,0,1,1,1.11h.06v-7.63h2.44v20.48Zm-8.76-5.27a5.55,5.55,0,0,0,.83,1.77,4.06,4.06,0,0,0,1.43,1.23,4.33,4.33,0,0,0,2.05.46,4,4,0,0,0,3.5-1.76,5.23,5.23,0,0,0,.79-1.8,8.53,8.53,0,0,0,0-4.14,5.35,5.35,0,0,0-.82-1.79,4.19,4.19,0,0,0-1.45-1.25,4.58,4.58,0,0,0-2.15-.47,4.22,4.22,0,0,0-2.09.48,3.83,3.83,0,0,0-1.38,1.3,5.78,5.78,0,0,0-.75,1.83,10,10,0,0,0-.23,2.12A7.58,7.58,0,0,0,152.93,116.54Z"/><path class="cls-9" d="M181,121.75a3.45,3.45,0,0,1-1.75.37,2.09,2.09,0,0,1-1.51-.53,2.3,2.3,0,0,1-.56-1.73,5.79,5.79,0,0,1-2.33,1.73,7.62,7.62,0,0,1-2.89.53,7.33,7.33,0,0,1-1.9-.23,4.44,4.44,0,0,1-1.57-.71,3.46,3.46,0,0,1-1-1.28,5,5,0,0,1,0-4,3.79,3.79,0,0,1,1.13-1.31,5.56,5.56,0,0,1,1.61-.76c.6-.17,1.22-.31,1.85-.43s1.3-.23,1.91-.3a9.25,9.25,0,0,0,1.59-.29,2.59,2.59,0,0,0,1.09-.54,1.33,1.33,0,0,0,.4-1,2.46,2.46,0,0,0-.3-1.29,2,2,0,0,0-.78-.74,3,3,0,0,0-1.06-.35,9.17,9.17,0,0,0-1.16-.08,5.18,5.18,0,0,0-2.58.58,2.52,2.52,0,0,0-1.12,2.23h-2.44a5.27,5.27,0,0,1,.58-2.33,4.3,4.3,0,0,1,1.37-1.53,6,6,0,0,1,2-.85,10.42,10.42,0,0,1,2.36-.25,13.36,13.36,0,0,1,2,.14,5,5,0,0,1,1.79.59,3.34,3.34,0,0,1,1.29,1.24,3.94,3.94,0,0,1,.49,2.09v7.61a5.54,5.54,0,0,0,.1,1.26c.07.27.29.4.67.4a3.31,3.31,0,0,0,.75-.11Zm-4-7.6a3.15,3.15,0,0,1-1.2.5c-.5.1-1,.19-1.57.26s-1.09.14-1.65.23a5.9,5.9,0,0,0-1.49.41,2.65,2.65,0,0,0-1.07.81,2.24,2.24,0,0,0-.42,1.44,1.93,1.93,0,0,0,.25,1,2,2,0,0,0,.63.67,2.71,2.71,0,0,0,.9.37,5.44,5.44,0,0,0,1.09.11,5.74,5.74,0,0,0,2.06-.33,4.16,4.16,0,0,0,1.41-.82,3.36,3.36,0,0,0,.8-1.09,2.75,2.75,0,0,0,.26-1.1Z"/><path class="cls-9" d="M185.49,107v3.13h.06a6.54,6.54,0,0,1,2.18-2.67,5.49,5.49,0,0,1,3.27-.8v2.58a6.86,6.86,0,0,0-2.5.4,4,4,0,0,0-1.66,1.17,4.94,4.94,0,0,0-.92,1.88,10.28,10.28,0,0,0-.28,2.54v6.6H183.2V107Z"/><path class="cls-9" d="M193,104.31v-3h2.43v3Zm2.43,2.67v14.83H193V107Z"/><path class="cls-9" d="M198.86,111.35a6.89,6.89,0,0,1,1.37-2.46,6.43,6.43,0,0,1,2.27-1.65,8.33,8.33,0,0,1,6.21,0,6.44,6.44,0,0,1,2.25,1.65,7.07,7.07,0,0,1,1.38,2.46,10.11,10.11,0,0,1,.45,3.06,9.93,9.93,0,0,1-.45,3A7,7,0,0,1,211,119.9a6.27,6.27,0,0,1-2.25,1.63,8.47,8.47,0,0,1-6.21,0,6.26,6.26,0,0,1-2.27-1.63,6.85,6.85,0,0,1-1.37-2.45,9.63,9.63,0,0,1-.46-3A9.81,9.81,0,0,1,198.86,111.35Zm2.48,5.45a5,5,0,0,0,1,1.75,4.31,4.31,0,0,0,1.47,1.08,4.54,4.54,0,0,0,3.59,0,4.31,4.31,0,0,0,1.47-1.08,4.88,4.88,0,0,0,1-1.75,8.15,8.15,0,0,0,0-4.79,5.11,5.11,0,0,0-1-1.76,4.21,4.21,0,0,0-1.47-1.09,4.54,4.54,0,0,0-3.59,0,4.21,4.21,0,0,0-1.47,1.09,5.27,5.27,0,0,0-1,1.76,8.15,8.15,0,0,0,0,4.79Z"/><path class="cls-9" d="M227.82,101.33l6.45,17.21,6.49-17.21h3.72v20.48H241.9v-17h-.05l-6.4,17h-2.32l-6.4-17h-.06v17h-2.58V101.33Z"/><path class="cls-9" d="M248.76,104.31v-3h2.43v3Zm2.43,2.67v14.83h-2.43V107Z"/><path class="cls-9" d="M253.8,107h3.13l3.56,5.19,3.7-5.19h2.92l-5.1,6.83,5.73,8h-3.12l-4.13-6.14-4.13,6.14h-3L259,114Z"/><path class="cls-9" d="M276.17,107v2.15h-2.95v9.21a2.66,2.66,0,0,0,.07.69.76.76,0,0,0,.27.4,1.32,1.32,0,0,0,.56.18,7.63,7.63,0,0,0,.93,0h1.12v2.15h-1.86a9.31,9.31,0,0,1-1.62-.13,2.43,2.43,0,0,1-1.09-.48,2,2,0,0,1-.62-1,5.78,5.78,0,0,1-.2-1.66v-9.44h-2.52V107h2.52v-4.44h2.44V107Z"/><path class="cls-9" d="M278.52,111.35a7.07,7.07,0,0,1,1.38-2.46,6.43,6.43,0,0,1,2.27-1.65,8.33,8.33,0,0,1,6.21,0,6.63,6.63,0,0,1,2.25,1.65,6.89,6.89,0,0,1,1.37,2.46,9.81,9.81,0,0,1,.46,3.06,9.63,9.63,0,0,1-.46,3,6.85,6.85,0,0,1-1.37,2.45,6.45,6.45,0,0,1-2.25,1.63,8.47,8.47,0,0,1-6.21,0,6.26,6.26,0,0,1-2.27-1.63,7,7,0,0,1-1.38-2.45,9.93,9.93,0,0,1-.45-3A10.11,10.11,0,0,1,278.52,111.35ZM281,116.8a4.87,4.87,0,0,0,1,1.75,4.45,4.45,0,0,0,1.48,1.08,4.54,4.54,0,0,0,3.59,0,4.31,4.31,0,0,0,1.47-1.08,5,5,0,0,0,1-1.75,8.15,8.15,0,0,0,0-4.79,5.27,5.27,0,0,0-1-1.76,4.21,4.21,0,0,0-1.47-1.09,4.54,4.54,0,0,0-3.59,0,4.34,4.34,0,0,0-1.48,1.09,5.09,5.09,0,0,0-1,1.76,8.15,8.15,0,0,0,0,4.79Z"/></g></g></svg>