<svg xmlns="http://www.w3.org/2000/svg" viewBox="0 0 303.29 118"><defs><style>.cls-1,.cls-2{fill:#000f9f;}.cls-1{fill-rule:evenodd;}.cls-3{fill:#de6c49;}.cls-4{fill:#5c5b5f;}</style></defs><g id="Capa_2" data-name="Capa 2"><g id="Capa_1-2" data-name="Capa 1"><path class="cls-1" d="M247.66,41.25h-4.79L229.3,72.87h4.49l3.78-8.78H252l3.73,8.78H261Zm-2.88,19.51h-5.85l5.85-13.61,5.85,13.61Z"/><polygon class="cls-1" points="216.81 72.87 203.95 41.25 208.79 41.25 219.33 67.12 229.52 41.25 233.8 41.25 221.4 72.87 216.81 72.87"/><path class="cls-1" d="M194.43,58a11.3,11.3,0,0,0,5.1-3.58,8.45,8.45,0,0,0,1.81-5.34,7,7,0,0,0-2.62-5.85c-1.76-1.32-4.29-2-7.56-2H180.82V72.87h4.79V59.5h4.54l.8,1.16,8.93,12.21h6ZM191,55.77a16.65,16.65,0,0,1-3.78.35h-1.56V44.63h3.07c.81,0,1.62,0,2.27.1,3.59.45,5.4,2.07,5.4,4.79A5.71,5.71,0,0,1,194,54.46,8.25,8.25,0,0,1,191,55.77Z"/><polygon class="cls-1" points="155.15 72.87 155.15 41.25 174.26 41.25 174.26 44.63 160.04 44.63 160.04 54.76 171.99 54.76 171.99 58.04 160.04 58.04 160.04 69.49 175.27 69.49 175.27 72.87 155.15 72.87"/><path class="cls-1" d="M127.62,72.26V67.82a24.93,24.93,0,0,0,9.48,2.47,6.94,6.94,0,0,0,4.59-1.41,4.39,4.39,0,0,0,1.76-3.63,4.69,4.69,0,0,0-1.16-3.17,15.27,15.27,0,0,0-4.18-2.88l-2.37-1.26a21.52,21.52,0,0,1-6.15-4.34,6.84,6.84,0,0,1-1.82-4.74,7.45,7.45,0,0,1,2.87-6A10.94,10.94,0,0,1,138,40.49a31.64,31.64,0,0,1,8.32,1.21v4.09a26.56,26.56,0,0,0-8.07-2,6.5,6.5,0,0,0-4.14,1.26,3.71,3.71,0,0,0-1.66,3.08A3.88,3.88,0,0,0,133.62,51,20.67,20.67,0,0,0,138,53.91l2.47,1.26a21.79,21.79,0,0,1,6.15,4.38,7.23,7.23,0,0,1,1.76,5,7.81,7.81,0,0,1-3.27,6.6c-2.17,1.67-5.1,2.47-8.68,2.47A36.8,36.8,0,0,1,127.62,72.26Z"/><path class="cls-1" d="M259.35,41.65h.11a3.88,3.88,0,0,1,1,.1.8.8,0,0,1,.51.41,1,1,0,0,1,.2.65,1.08,1.08,0,0,1-.3.81,1.25,1.25,0,0,1-.81.4,2.75,2.75,0,0,1,.45.35c.1.16.26.36.46.71l.55.81h-1.06l-.6-.91a3.23,3.23,0,0,0-.46-.66v-.9a1.44,1.44,0,0,0,.56-.05.27.27,0,0,0,.25-.16.63.63,0,0,0,0-.3c0-.15,0-.3-.1-.35a.46.46,0,0,0-.3-.2h-.46Zm-1.71,4.24V41.65h1.71v.71h-.85v1.06h.85v.9h0a.43.43,0,0,0-.25-.15,1,1,0,0,0-.4-.05h-.2v1.77Z"/><path class="cls-2" d="M259.05,48.42a4.48,4.48,0,1,1,0-9,4.48,4.48,0,0,1,0,9Zm0-7.92a3.45,3.45,0,1,0,3.42,3.42A3.45,3.45,0,0,0,259.05,40.5Z"/><polygon class="cls-1" points="92.22 72.87 92.22 41.25 97.36 41.25 115.87 65.66 115.87 41.25 120.36 41.25 120.36 72.87 115.26 72.87 96.71 48.46 96.71 72.87 92.22 72.87"/><path class="cls-1" d="M84.47,45c-3.12-3-7.31-4.49-12.5-4.49h0c-5.2,0-9.38,1.51-12.51,4.49S54.72,52,54.72,57.08s1.56,9,4.69,12.06,7.31,4.48,12.51,4.48h0c5.19,0,9.38-1.51,12.5-4.48s4.69-7.06,4.69-12.06S87.6,48,84.47,45ZM80.54,66.76A10.75,10.75,0,0,1,72,70.29h0c-3.64,0-6.51-1.15-8.58-3.53S60.27,61.17,60.27,57s1-7.41,3.07-9.73a10.92,10.92,0,0,1,8.58-3.48h0a10.91,10.91,0,0,1,8.57,3.48c2.07,2.32,3.07,5.6,3.07,9.73S82.61,64.44,80.54,66.76Z"/><path class="cls-1" d="M52,71.2a21.92,21.92,0,0,1-10.23,2.42c-4.89,0-8.73-1.41-11.4-4.28s-4-7-4-12.26,1.36-9.38,4.08-12.25S37,40.49,42,40.49a44.2,44.2,0,0,1,9.93,1.36v4.24c-4.33-1.51-7.66-2.27-10-2.27a9.67,9.67,0,0,0-8,3.48c-1.86,2.32-2.82,5.6-2.82,9.83q0,6.06,3,9.53a10.31,10.31,0,0,0,8.22,3.48A20.22,20.22,0,0,0,52,67.37Z"/><path class="cls-3" d="M5,0l8.58,22.87L22.14,0h5V27.21H23.67V4.57h-.08l-8.5,22.64H12L3.51,4.57H3.43V27.21H0V0Z"/><path class="cls-3" d="M43.94,27.21V24.09h-.07a6.66,6.66,0,0,1-2.63,2.68,7.81,7.81,0,0,1-3.78.86,9,9,0,0,1-3.24-.51,5.27,5.27,0,0,1-2.09-1.47A5.52,5.52,0,0,1,31,23.38a12.53,12.53,0,0,1-.32-2.91v-13h3.24V20.85A3.86,3.86,0,0,0,35,23.74a4,4,0,0,0,2.93,1.07,6.48,6.48,0,0,0,2.57-.46,4.68,4.68,0,0,0,1.81-1.29,5.49,5.49,0,0,0,1.09-2,7.92,7.92,0,0,0,.36-2.45V7.51H47v19.7Z"/><path class="cls-3" d="M52.12,33.52a4.83,4.83,0,0,1-3.45,1.2A8.47,8.47,0,0,1,47,34.57V31.78l.32.06.29,0h.68a1.59,1.59,0,0,0,1.45-.59,4.1,4.1,0,0,0,.38-2.11V7.51h3.24V29.69A5.05,5.05,0,0,1,52.12,33.52ZM50.15,4V0h3.24V4Z"/><path class="cls-3" d="M70.47,26a9,9,0,0,1-5.57,1.68,10.05,10.05,0,0,1-4.09-.76,8.05,8.05,0,0,1-2.92-2.14,8.9,8.9,0,0,1-1.77-3.27,15.55,15.55,0,0,1-.67-4.16,11.74,11.74,0,0,1,.69-4.11A9.7,9.7,0,0,1,58.06,10,8.77,8.77,0,0,1,61,7.81a9,9,0,0,1,3.71-.76,8,8,0,0,1,4.37,1.09,8.62,8.62,0,0,1,2.78,2.76,11,11,0,0,1,1.45,3.66,16.06,16.06,0,0,1,.32,3.77H58.88a8,8,0,0,0,.31,2.46,5.47,5.47,0,0,0,1.1,2.06,5.67,5.67,0,0,0,1.94,1.43,6.84,6.84,0,0,0,2.79.53,5.64,5.64,0,0,0,3.37-.95A4.6,4.6,0,0,0,70.12,21h3.21A7.9,7.9,0,0,1,70.47,26ZM69.69,13.3a5.51,5.51,0,0,0-1.19-1.77,5.54,5.54,0,0,0-4-1.62,5.54,5.54,0,0,0-2.27.44,5.17,5.17,0,0,0-1.73,1.2,5.85,5.85,0,0,0-1.14,1.77,6.69,6.69,0,0,0-.5,2.15H70.2A6.68,6.68,0,0,0,69.69,13.3Z"/><path class="cls-3" d="M78,7.51v4.15h.08A8.72,8.72,0,0,1,81,8.12a7.29,7.29,0,0,1,4.34-1.07v3.43A9.32,9.32,0,0,0,82,11a5.28,5.28,0,0,0-2.21,1.57,6.45,6.45,0,0,0-1.22,2.49,13.74,13.74,0,0,0-.38,3.38v8.76H75V7.51Z"/><path class="cls-2" d="M99.13,26a9,9,0,0,1-5.57,1.68,10.14,10.14,0,0,1-4.1-.76,8.1,8.1,0,0,1-2.91-2.14,8.9,8.9,0,0,1-1.77-3.27,15.55,15.55,0,0,1-.67-4.16,11.74,11.74,0,0,1,.69-4.11A9.7,9.7,0,0,1,86.72,10a8.67,8.67,0,0,1,2.94-2.14,9,9,0,0,1,3.71-.76,8,8,0,0,1,4.36,1.09,8.56,8.56,0,0,1,2.79,2.76A11,11,0,0,1,102,14.56a16.06,16.06,0,0,1,.32,3.77H87.54a7.66,7.66,0,0,0,.31,2.46A5.47,5.47,0,0,0,89,22.85a5.67,5.67,0,0,0,1.94,1.43,6.84,6.84,0,0,0,2.79.53,5.64,5.64,0,0,0,3.37-.95A4.6,4.6,0,0,0,98.78,21H102A7.85,7.85,0,0,1,99.13,26ZM98.34,13.3a5.33,5.33,0,0,0-1.18-1.77,5.54,5.54,0,0,0-4-1.62,5.54,5.54,0,0,0-2.27.44,5.17,5.17,0,0,0-1.73,1.2A5.85,5.85,0,0,0,88,13.32a6.69,6.69,0,0,0-.5,2.15H98.86A6.45,6.45,0,0,0,98.34,13.3Z"/><path class="cls-2" d="M106.21,22.81a3.47,3.47,0,0,0,1.2,1.18,5.62,5.62,0,0,0,1.68.63,9.43,9.43,0,0,0,1.93.19,13,13,0,0,0,1.6-.11,6.11,6.11,0,0,0,1.54-.42,2.87,2.87,0,0,0,1.16-.9,2.33,2.33,0,0,0,.46-1.5,2.17,2.17,0,0,0-1-1.91,8.33,8.33,0,0,0-2.38-1c-1-.26-2-.51-3.11-.72a16.12,16.12,0,0,1-3.11-.92,6.44,6.44,0,0,1-2.38-1.65,4.37,4.37,0,0,1-.95-3,4.66,4.66,0,0,1,.67-2.55,5.33,5.33,0,0,1,1.71-1.73,7.92,7.92,0,0,1,2.36-1,11.22,11.22,0,0,1,2.61-.32,15.6,15.6,0,0,1,3.09.29,7.2,7.2,0,0,1,2.5,1,5.12,5.12,0,0,1,1.73,1.9,7.18,7.18,0,0,1,.76,3h-3.24a3.28,3.28,0,0,0-.49-1.58,3.33,3.33,0,0,0-1.07-1,4.83,4.83,0,0,0-1.43-.55,7.64,7.64,0,0,0-1.58-.17,10.61,10.61,0,0,0-1.47.11,5.18,5.18,0,0,0-1.35.4,2.65,2.65,0,0,0-1,.77,1.92,1.92,0,0,0-.38,1.23,1.82,1.82,0,0,0,.59,1.39,4.6,4.6,0,0,0,1.5.92,14,14,0,0,0,2.06.61l2.29.51c.81.18,1.61.4,2.38.65a7.91,7.91,0,0,1,2.06,1,5,5,0,0,1,1.45,1.58,4.67,4.67,0,0,1,.55,2.37,5.54,5.54,0,0,1-.74,3,5.81,5.81,0,0,1-2,1.9,8.18,8.18,0,0,1-2.7,1,16.08,16.08,0,0,1-3,.28,13.78,13.78,0,0,1-3.13-.34,7.71,7.71,0,0,1-2.63-1.13,5.76,5.76,0,0,1-1.83-2.05,7.13,7.13,0,0,1-.76-3.11h3.24A3.66,3.66,0,0,0,106.21,22.81Z"/><path class="cls-3" d="M143.94,27.21V24.54h-.07a4.79,4.79,0,0,1-2.52,2.37,9.63,9.63,0,0,1-3.77.72,8.87,8.87,0,0,1-4-.84,8.22,8.22,0,0,1-2.82-2.25,9.79,9.79,0,0,1-1.7-3.27,13.56,13.56,0,0,1-.57-4,13.83,13.83,0,0,1,.55-4,9.34,9.34,0,0,1,1.68-3.26,8.12,8.12,0,0,1,2.82-2.21,8.89,8.89,0,0,1,3.94-.82,9.7,9.7,0,0,1,1.64.15,9,9,0,0,1,1.76.52,7.58,7.58,0,0,1,1.65,1,5.2,5.2,0,0,1,1.32,1.47h.07V0h3.24V27.21Zm-11.64-7a7.13,7.13,0,0,0,1.11,2.34,5.39,5.39,0,0,0,1.9,1.64,5.76,5.76,0,0,0,2.73.61,5.38,5.38,0,0,0,4.65-2.34,7.06,7.06,0,0,0,1-2.39,11.15,11.15,0,0,0,.33-2.7,11.73,11.73,0,0,0-.34-2.8,7,7,0,0,0-1.09-2.38,5.56,5.56,0,0,0-1.93-1.66,6,6,0,0,0-2.85-.63,5.51,5.51,0,0,0-2.79.65,5.07,5.07,0,0,0-1.82,1.71,7.6,7.6,0,0,0-1,2.44,13.24,13.24,0,0,0-.3,2.82A10.14,10.14,0,0,0,132.3,20.22Z"/><path class="cls-3" d="M164.22,26a9,9,0,0,1-5.57,1.68,10.05,10.05,0,0,1-4.09-.76,8.05,8.05,0,0,1-2.92-2.14,8.9,8.9,0,0,1-1.77-3.27,16,16,0,0,1-.67-4.16,11.74,11.74,0,0,1,.69-4.11A9.87,9.87,0,0,1,151.81,10a8.77,8.77,0,0,1,2.94-2.14,9.08,9.08,0,0,1,3.71-.76,8,8,0,0,1,4.37,1.09,8.62,8.62,0,0,1,2.78,2.76,11,11,0,0,1,1.45,3.66,16.06,16.06,0,0,1,.32,3.77H152.63a8,8,0,0,0,.31,2.46A5.35,5.35,0,0,0,156,24.28a6.76,6.76,0,0,0,2.78.53,5.62,5.62,0,0,0,3.37-.95,4.61,4.61,0,0,0,1.74-2.9h3.2A7.86,7.86,0,0,1,164.22,26Zm-.78-12.65a5.45,5.45,0,0,0-2.94-3,5.38,5.38,0,0,0-2.23-.44,5.49,5.49,0,0,0-2.26.44,5.11,5.11,0,0,0-1.74,1.2,5.85,5.85,0,0,0-1.14,1.77,6.69,6.69,0,0,0-.5,2.15H164A6.68,6.68,0,0,0,163.44,13.3Z"/><path class="cls-3" d="M190,0c2.75,0,4.82.7,6.23,2.11A8,8,0,0,1,198.33,8a8.11,8.11,0,0,1-2.12,6c-1.41,1.42-3.48,2.12-6.23,2.09h-8.31V27.21h-3.62V0Zm-1.22,13a6.47,6.47,0,0,0,4.52-1.25A4.81,4.81,0,0,0,194.71,8a4.73,4.73,0,0,0-1.43-3.71,6.61,6.61,0,0,0-4.52-1.28h-7.09V13Z"/><path class="cls-3" d="M217.76,27.14a4.65,4.65,0,0,1-2.32.49,2.79,2.79,0,0,1-2-.7,3.05,3.05,0,0,1-.74-2.31,7.76,7.76,0,0,1-3.11,2.31,10.27,10.27,0,0,1-3.83.7,10.38,10.38,0,0,1-2.53-.3,5.86,5.86,0,0,1-2.08-1,4.44,4.44,0,0,1-1.39-1.69,5.64,5.64,0,0,1-.52-2.54,5.77,5.77,0,0,1,.57-2.74,5.2,5.2,0,0,1,1.51-1.74,7,7,0,0,1,2.13-1c.8-.22,1.62-.42,2.46-.57s1.74-.31,2.54-.4a13.6,13.6,0,0,0,2.11-.38,3.46,3.46,0,0,0,1.45-.72,1.75,1.75,0,0,0,.53-1.39,3.22,3.22,0,0,0-.4-1.72,2.71,2.71,0,0,0-1-1A4.11,4.11,0,0,0,209.7,10a11.51,11.51,0,0,0-1.54-.11,6.88,6.88,0,0,0-3.43.78,3.34,3.34,0,0,0-1.49,3H200a6.89,6.89,0,0,1,.76-3.08,5.62,5.62,0,0,1,1.83-2,7.69,7.69,0,0,1,2.61-1.13,13.68,13.68,0,0,1,3.14-.34,18.07,18.07,0,0,1,2.65.19,7,7,0,0,1,2.38.78,4.69,4.69,0,0,1,1.72,1.65,5.32,5.32,0,0,1,.65,2.78V22.57a7.53,7.53,0,0,0,.13,1.67c.09.35.39.53.89.53a4,4,0,0,0,1-.15ZM212.51,17a4.11,4.11,0,0,1-1.61.66c-.66.14-1.35.25-2.07.34s-1.46.19-2.19.3a8.62,8.62,0,0,0-2,.55A3.61,3.61,0,0,0,203.23,20a3,3,0,0,0-.56,1.91,2.6,2.6,0,0,0,.33,1.35,2.65,2.65,0,0,0,.84.89,3.41,3.41,0,0,0,1.2.49,6.69,6.69,0,0,0,1.44.15,7.75,7.75,0,0,0,2.75-.43,5.93,5.93,0,0,0,1.87-1.1,4.54,4.54,0,0,0,1.06-1.44,3.65,3.65,0,0,0,.35-1.46Z"/><path class="cls-3" d="M222.3,0V27.21h-3.24V0Z"/><path class="cls-3" d="M242.88,27.14a4.7,4.7,0,0,1-2.33.49,2.8,2.8,0,0,1-2-.7,3.09,3.09,0,0,1-.74-2.31,7.69,7.69,0,0,1-3.11,2.31,10.23,10.23,0,0,1-3.83.7,10.38,10.38,0,0,1-2.53-.3,5.94,5.94,0,0,1-2.08-1,4.54,4.54,0,0,1-1.39-1.69,5.78,5.78,0,0,1-.51-2.54,5.77,5.77,0,0,1,.57-2.74,5.07,5.07,0,0,1,1.5-1.74,7.16,7.16,0,0,1,2.14-1c.8-.22,1.62-.42,2.46-.57s1.73-.31,2.53-.4a13.74,13.74,0,0,0,2.12-.38,3.36,3.36,0,0,0,1.44-.72,1.76,1.76,0,0,0,.54-1.39,3.32,3.32,0,0,0-.4-1.72,2.79,2.79,0,0,0-1-1,4.25,4.25,0,0,0-1.41-.46,11.63,11.63,0,0,0-1.54-.11,6.83,6.83,0,0,0-3.43.78,3.3,3.3,0,0,0-1.49,3h-3.24a6.89,6.89,0,0,1,.76-3.08,5.81,5.81,0,0,1,1.83-2,7.69,7.69,0,0,1,2.61-1.13,13.77,13.77,0,0,1,3.15-.34,17.94,17.94,0,0,1,2.64.19A7.15,7.15,0,0,1,238.5,8a4.59,4.59,0,0,1,1.71,1.65,5.32,5.32,0,0,1,.65,2.78V22.57a7.53,7.53,0,0,0,.13,1.67c.09.35.39.53.9.53a4,4,0,0,0,1-.15ZM237.62,17a4.13,4.13,0,0,1-1.6.66c-.66.14-1.35.25-2.08.34l-2.19.3a8.39,8.39,0,0,0-2,.55A3.64,3.64,0,0,0,228.34,20a3,3,0,0,0-.55,1.91,2.6,2.6,0,0,0,.32,1.35,2.86,2.86,0,0,0,.84.89,3.41,3.41,0,0,0,1.2.49,6.79,6.79,0,0,0,1.45.15,7.73,7.73,0,0,0,2.74-.43,5.82,5.82,0,0,0,1.87-1.1,4.57,4.57,0,0,0,1.07-1.44,3.63,3.63,0,0,0,.34-1.46Z"/><path class="cls-3" d="M247.34,0V10.18h.07a4.9,4.9,0,0,1,2.52-2.39,9.46,9.46,0,0,1,3.77-.74,8.84,8.84,0,0,1,4,.84,8,8,0,0,1,2.82,2.27,10,10,0,0,1,1.7,3.29,13.56,13.56,0,0,1,.57,4,13.83,13.83,0,0,1-.55,4,9.34,9.34,0,0,1-1.68,3.26,7.84,7.84,0,0,1-2.82,2.19,9.18,9.18,0,0,1-3.94.8,9.85,9.85,0,0,1-1.62-.15,8.66,8.66,0,0,1-1.77-.5,7,7,0,0,1-1.66-.93,5.2,5.2,0,0,1-1.32-1.47h-.07v2.63H244.1V0ZM259,14.5a7.21,7.21,0,0,0-1.1-2.34A5.51,5.51,0,0,0,256,10.52a5.76,5.76,0,0,0-2.73-.61,5.34,5.34,0,0,0-4.64,2.34,6.92,6.92,0,0,0-1,2.38,11.33,11.33,0,0,0,0,5.51,7,7,0,0,0,1.08,2.38,5.56,5.56,0,0,0,1.93,1.66,6,6,0,0,0,2.86.63,5.58,5.58,0,0,0,2.8-.65,5.21,5.21,0,0,0,1.81-1.71A7.82,7.82,0,0,0,259,20a13.24,13.24,0,0,0,.3-2.82A10.14,10.14,0,0,0,259,14.5Z"/><path class="cls-3" d="M267.61,7.51v4.15h.08a8.78,8.78,0,0,1,2.89-3.54,7.34,7.34,0,0,1,4.35-1.07v3.43a9.32,9.32,0,0,0-3.32.53,5.28,5.28,0,0,0-2.21,1.57,6.45,6.45,0,0,0-1.22,2.49,13.74,13.74,0,0,0-.38,3.38v8.76h-3.24V7.51Z"/><path class="cls-3" d="M292.92,27.14a4.72,4.72,0,0,1-2.33.49,2.79,2.79,0,0,1-2-.7,3.09,3.09,0,0,1-.74-2.31,7.76,7.76,0,0,1-3.11,2.31,10.23,10.23,0,0,1-3.83.7,10.38,10.38,0,0,1-2.53-.3,5.94,5.94,0,0,1-2.08-1,4.54,4.54,0,0,1-1.39-1.69,5.78,5.78,0,0,1-.51-2.54A5.77,5.77,0,0,1,275,19.4a5.07,5.07,0,0,1,1.5-1.74,7,7,0,0,1,2.14-1c.8-.22,1.62-.42,2.45-.57s1.74-.31,2.54-.4a13.6,13.6,0,0,0,2.11-.38,3.35,3.35,0,0,0,1.45-.72,1.76,1.76,0,0,0,.54-1.39,3.32,3.32,0,0,0-.4-1.72,2.79,2.79,0,0,0-1-1,4.25,4.25,0,0,0-1.41-.46,11.66,11.66,0,0,0-1.55-.11,6.88,6.88,0,0,0-3.43.78,3.31,3.31,0,0,0-1.48,3h-3.24a6.89,6.89,0,0,1,.76-3.08,5.81,5.81,0,0,1,1.83-2,7.69,7.69,0,0,1,2.61-1.13,13.74,13.74,0,0,1,3.14-.34,18,18,0,0,1,2.65.19,7,7,0,0,1,2.38.78,4.54,4.54,0,0,1,1.72,1.65,5.32,5.32,0,0,1,.65,2.78V22.57a7.53,7.53,0,0,0,.13,1.67c.09.35.39.53.9.53a4,4,0,0,0,1-.15ZM287.66,17a4.13,4.13,0,0,1-1.6.66c-.66.14-1.35.25-2.08.34l-2.19.3a8.39,8.39,0,0,0-2,.55A3.64,3.64,0,0,0,278.38,20a3,3,0,0,0-.55,1.91,2.6,2.6,0,0,0,.32,1.35,2.75,2.75,0,0,0,.84.89,3.41,3.41,0,0,0,1.2.49,6.79,6.79,0,0,0,1.45.15,7.73,7.73,0,0,0,2.74-.43,5.82,5.82,0,0,0,1.87-1.1,4.57,4.57,0,0,0,1.07-1.44,3.8,3.8,0,0,0,.34-1.46Z"/><path class="cls-4" d="M16,95.26a6.14,6.14,0,0,0-3.64-1.07,6.5,6.5,0,0,0-3.07.67,6.17,6.17,0,0,0-2.11,1.81A7.88,7.88,0,0,0,6,99.27a11.65,11.65,0,0,0-.39,3A13.1,13.1,0,0,0,6,105.55a7.65,7.65,0,0,0,1.22,2.66A6,6,0,0,0,9.29,110a6.71,6.71,0,0,0,3.09.67,6,6,0,0,0,2.35-.44,5.44,5.44,0,0,0,1.77-1.2,5.7,5.7,0,0,0,1.16-1.84,7.79,7.79,0,0,0,.51-2.31h2.66a9.08,9.08,0,0,1-2.61,5.9,8.42,8.42,0,0,1-6.06,2.11,9.69,9.69,0,0,1-4.07-.8,8,8,0,0,1-2.9-2.21,9.48,9.48,0,0,1-1.72-3.31,13.92,13.92,0,0,1-.58-4.1,13.4,13.4,0,0,1,.62-4.11A9.71,9.71,0,0,1,5.32,95a8.51,8.51,0,0,1,3-2.26,9.59,9.59,0,0,1,4.08-.83,10.37,10.37,0,0,1,3,.42,8.12,8.12,0,0,1,2.5,1.24,6.83,6.83,0,0,1,1.82,2,7.47,7.47,0,0,1,1,2.83H18A4.94,4.94,0,0,0,16,95.26Z"/><path class="cls-4" d="M25.92,98V101h0a6.39,6.39,0,0,1,2.14-2.61,5.43,5.43,0,0,1,3.2-.79v2.53a6.84,6.84,0,0,0-2.45.39,3.88,3.88,0,0,0-1.62,1.16,4.49,4.49,0,0,0-.9,1.83,9.87,9.87,0,0,0-.28,2.49v6.46H23.67V98Z"/><path class="cls-4" d="M43.38,111.54a6.54,6.54,0,0,1-4.1,1.24,7.57,7.57,0,0,1-3-.56,6,6,0,0,1-2.14-1.58,6.54,6.54,0,0,1-1.31-2.41,11.8,11.8,0,0,1-.49-3.06,8.93,8.93,0,0,1,.5-3,7.28,7.28,0,0,1,1.42-2.38,6.32,6.32,0,0,1,2.16-1.57,6.56,6.56,0,0,1,2.74-.57,6,6,0,0,1,3.22.8,6.55,6.55,0,0,1,2,2,7.94,7.94,0,0,1,1.06,2.7,11.25,11.25,0,0,1,.24,2.78H34.85a5.69,5.69,0,0,0,.22,1.81,4.16,4.16,0,0,0,.81,1.51,4.22,4.22,0,0,0,1.44,1.06,5,5,0,0,0,2,.39,4.09,4.09,0,0,0,2.48-.7,3.4,3.4,0,0,0,1.28-2.14h2.36A5.79,5.79,0,0,1,43.38,111.54Zm-.57-9.32a4.28,4.28,0,0,0-.87-1.31,4.36,4.36,0,0,0-1.3-.87A4.14,4.14,0,0,0,39,99.72a4.25,4.25,0,0,0-1.67.32,3.87,3.87,0,0,0-1.28.89,4.4,4.4,0,0,0-.84,1.3,4.73,4.73,0,0,0-.36,1.59h8.34A5.06,5.06,0,0,0,42.81,102.22Zm-3-11.37L37.15,95.4H39l3.95-4.55Z"/><path class="cls-4" d="M58.77,112.47v-2h-.06a3.46,3.46,0,0,1-1.85,1.74,7,7,0,0,1-2.78.54,6.55,6.55,0,0,1-2.93-.62,5.87,5.87,0,0,1-2.08-1.66,7.17,7.17,0,0,1-1.25-2.41,10,10,0,0,1-.42-2.92,10.25,10.25,0,0,1,.4-2.92A7,7,0,0,1,49,99.85a5.79,5.79,0,0,1,2.08-1.63,6.48,6.48,0,0,1,2.9-.61,6.61,6.61,0,0,1,1.21.12,5.73,5.73,0,0,1,1.29.38,5.14,5.14,0,0,1,1.22.7,3.73,3.73,0,0,1,1,1.08h.06V92.42h2.39v20Zm-8.58-5.15A5.26,5.26,0,0,0,51,109a3.91,3.91,0,0,0,1.4,1.21,4.26,4.26,0,0,0,2,.45,4.09,4.09,0,0,0,2-.48A4,4,0,0,0,57.84,109a5.15,5.15,0,0,0,.78-1.75,9,9,0,0,0,.23-2,8.24,8.24,0,0,0-.25-2.06,5,5,0,0,0-.8-1.75,4,4,0,0,0-1.42-1.23,4.4,4.4,0,0,0-2.1-.46,4.06,4.06,0,0,0-2.05.48,3.89,3.89,0,0,0-1.35,1.26,5.45,5.45,0,0,0-.73,1.8,9.54,9.54,0,0,0-.23,2.08A7.39,7.39,0,0,0,50.19,107.32Z"/><path class="cls-4" d="M65,95.34V92.42h2.38v2.92ZM67.36,98v14.52H65V98Z"/><path class="cls-4" d="M77.27,98v2.11H74.38v9a2.4,2.4,0,0,0,.07.67.76.76,0,0,0,.27.4,1.23,1.23,0,0,0,.55.18,7.46,7.46,0,0,0,.91,0h1.09v2.11H75.45a8.09,8.09,0,0,1-1.59-.13,2.3,2.3,0,0,1-1.06-.46,1.93,1.93,0,0,1-.61-1A5.52,5.52,0,0,1,72,109.3v-9.24H69.52V98H72V93.6h2.38V98Z"/><path class="cls-4" d="M79.58,102.23a6.92,6.92,0,0,1,1.34-2.41,6.51,6.51,0,0,1,2.22-1.62,8.13,8.13,0,0,1,6.08,0,6.43,6.43,0,0,1,3.55,4,9.7,9.7,0,0,1,.45,3,9.54,9.54,0,0,1-.45,3,6.57,6.57,0,0,1-1.34,2.4,6.26,6.26,0,0,1-2.21,1.6,8.26,8.26,0,0,1-6.08,0,6.21,6.21,0,0,1-2.22-1.6,6.87,6.87,0,0,1-1.34-2.4,9.54,9.54,0,0,1-.45-3A9.7,9.7,0,0,1,79.58,102.23ZM82,107.57a4.89,4.89,0,0,0,1,1.71,4.31,4.31,0,0,0,3.21,1.42,4.2,4.2,0,0,0,1.75-.37,4.15,4.15,0,0,0,1.45-1,5.06,5.06,0,0,0,1-1.71,8,8,0,0,0,0-4.69,5.26,5.26,0,0,0-1-1.73,4.21,4.21,0,0,0-1.45-1.07,4.46,4.46,0,0,0-3.51,0A4.31,4.31,0,0,0,83,101.15a5.07,5.07,0,0,0-1,1.73,7.82,7.82,0,0,0,0,4.69Z"/><path class="cls-4" d="M116.31,112.23a9.72,9.72,0,0,1-7.53-.14,9.06,9.06,0,0,1-3-2.23,9.68,9.68,0,0,1-1.89-3.23,11.3,11.3,0,0,1-.64-3.79,14.3,14.3,0,0,1,.6-4.17,10.14,10.14,0,0,1,1.8-3.47,8.7,8.7,0,0,1,3-2.37,9.22,9.22,0,0,1,4.17-.89,12.18,12.18,0,0,1,3.07.38,7.72,7.72,0,0,1,2.58,1.19,7,7,0,0,1,1.91,2.07,8.05,8.05,0,0,1,1.06,3h-2.67a5.3,5.3,0,0,0-.73-2,4.76,4.76,0,0,0-1.32-1.36,5.9,5.9,0,0,0-1.78-.81,8.61,8.61,0,0,0-2.12-.26,6.34,6.34,0,0,0-3.14.73,6.25,6.25,0,0,0-2.13,1.92,8.47,8.47,0,0,0-1.22,2.73,12.6,12.6,0,0,0-.39,3.13,10,10,0,0,0,.45,3,7.5,7.5,0,0,0,1.32,2.56,6.45,6.45,0,0,0,2.14,1.77,6.37,6.37,0,0,0,3,.66,7.14,7.14,0,0,0,2.78-.51,5.74,5.74,0,0,0,2-1.39,5.89,5.89,0,0,0,1.25-2.07,7,7,0,0,0,.37-2.57h-6.41v-2.25h8.79v10.56h-1.68l-.7-2.5A6.69,6.69,0,0,1,116.31,112.23Z"/><path class="cls-4" d="M127.31,98V101h.06a6.46,6.46,0,0,1,2.13-2.61,5.44,5.44,0,0,1,3.2-.79v2.53a6.82,6.82,0,0,0-2.44.39,3.91,3.91,0,0,0-1.63,1.16,4.76,4.76,0,0,0-.9,1.83,10.35,10.35,0,0,0-.28,2.49v6.46h-2.38V98Z"/><path class="cls-4" d="M144.27,112.47v-2.3h-.05a5,5,0,0,1-1.94,2,5.82,5.82,0,0,1-2.78.63,6.58,6.58,0,0,1-2.39-.38,3.77,3.77,0,0,1-1.54-1.08,4.17,4.17,0,0,1-.83-1.67,9,9,0,0,1-.24-2.15V98h2.39v9.83a2.88,2.88,0,0,0,.78,2.13,2.92,2.92,0,0,0,2.17.79,4.73,4.73,0,0,0,1.89-.34,3.52,3.52,0,0,0,1.34-1,4.26,4.26,0,0,0,.8-1.45,6.09,6.09,0,0,0,.26-1.81V98h2.39v14.52Z"/><path class="cls-4" d="M152.58,98v2h.06a3.57,3.57,0,0,1,1.85-1.76,7,7,0,0,1,2.78-.55,6.57,6.57,0,0,1,2.94.62,6.08,6.08,0,0,1,2.08,1.67,7.37,7.37,0,0,1,1.25,2.43,10,10,0,0,1,.42,2.92,10.25,10.25,0,0,1-.41,2.92,6.68,6.68,0,0,1-1.24,2.4,5.82,5.82,0,0,1-2.07,1.62,6.84,6.84,0,0,1-2.91.59,7.63,7.63,0,0,1-1.19-.11,6.93,6.93,0,0,1-1.31-.37,5.1,5.1,0,0,1-1.22-.69,3.88,3.88,0,0,1-1-1.08h-.06V118H150.2V98Zm8.58,5.15a5.25,5.25,0,0,0-.81-1.72,4,4,0,0,0-1.4-1.21,4.31,4.31,0,0,0-2-.45,4.06,4.06,0,0,0-2.05.48,4.14,4.14,0,0,0-1.38,1.25,5.33,5.33,0,0,0-.77,1.75,8.42,8.42,0,0,0-.24,2,8.24,8.24,0,0,0,.25,2.06,5.2,5.2,0,0,0,.8,1.75,4.13,4.13,0,0,0,1.42,1.23,4.54,4.54,0,0,0,2.11.46,4.05,4.05,0,0,0,2.06-.48,4,4,0,0,0,1.34-1.26,5.67,5.67,0,0,0,.73-1.8,9.47,9.47,0,0,0,.22-2.08A7.39,7.39,0,0,0,161.16,103.1Z"/><path class="cls-4" d="M179.63,112.41a3.35,3.35,0,0,1-1.72.37,2.08,2.08,0,0,1-1.47-.52,2.24,2.24,0,0,1-.55-1.7,5.69,5.69,0,0,1-2.29,1.7,7.68,7.68,0,0,1-2.82.52,7.6,7.6,0,0,1-1.87-.23,4.3,4.3,0,0,1-1.53-.7,3.31,3.31,0,0,1-1-1.25,4.24,4.24,0,0,1-.38-1.87,4.29,4.29,0,0,1,.42-2,3.72,3.72,0,0,1,1.11-1.28,5.29,5.29,0,0,1,1.57-.74,18.29,18.29,0,0,1,1.81-.42c.66-.13,1.28-.23,1.87-.3a8.93,8.93,0,0,0,1.56-.28,2.68,2.68,0,0,0,1.07-.53,1.31,1.31,0,0,0,.39-1,2.35,2.35,0,0,0-.3-1.26,2,2,0,0,0-.75-.73,3.18,3.18,0,0,0-1-.34,9,9,0,0,0-1.14-.08,5,5,0,0,0-2.53.58,2.43,2.43,0,0,0-1.09,2.17h-2.39a5.27,5.27,0,0,1,.56-2.27,4.37,4.37,0,0,1,1.35-1.51,5.53,5.53,0,0,1,1.92-.82,10.12,10.12,0,0,1,2.32-.26,14,14,0,0,1,1.95.14,5.29,5.29,0,0,1,1.76.58,3.35,3.35,0,0,1,1.26,1.22,3.85,3.85,0,0,1,.48,2v7.46a5.24,5.24,0,0,0,.1,1.23q.09.39.66.39a3.16,3.16,0,0,0,.73-.11ZM175.75,105a3,3,0,0,1-1.18.49c-.48.1-1,.19-1.53.25s-1.07.14-1.61.23a5.56,5.56,0,0,0-1.46.4,2.66,2.66,0,0,0-1.06.8,2.21,2.21,0,0,0-.4,1.41,2,2,0,0,0,.23,1,2.06,2.06,0,0,0,.62.66,2.73,2.73,0,0,0,.89.36,5.17,5.17,0,0,0,1.07.11,5.82,5.82,0,0,0,2-.32,4,4,0,0,0,1.37-.81,3.23,3.23,0,0,0,.79-1.06,2.64,2.64,0,0,0,.25-1.08Z"/><path class="cls-4" d="M184.37,92.42v20H182v-20Z"/><path class="cls-4" d="M206.32,95.16a5.65,5.65,0,0,0-3.42-1,7.58,7.58,0,0,0-1.65.17,4.34,4.34,0,0,0-1.45.56,2.91,2.91,0,0,0-1,1,3.29,3.29,0,0,0-.38,1.64,2.1,2.1,0,0,0,.55,1.51,4.14,4.14,0,0,0,1.46.94,12.92,12.92,0,0,0,2.06.6c.77.16,1.55.33,2.35.52s1.58.41,2.34.66a7.69,7.69,0,0,1,2.07,1,5.18,5.18,0,0,1,1.46,1.63,5.1,5.1,0,0,1,.54,2.47,5,5,0,0,1-.71,2.74,5.94,5.94,0,0,1-1.84,1.86,8.1,8.1,0,0,1-2.51,1,12,12,0,0,1-2.77.33,11.82,11.82,0,0,1-3.19-.42,7.91,7.91,0,0,1-2.64-1.28,6,6,0,0,1-1.79-2.19,7,7,0,0,1-.66-3.16h2.52a4.64,4.64,0,0,0,.49,2.18,4.59,4.59,0,0,0,1.3,1.5,5.5,5.5,0,0,0,1.86.87,8.49,8.49,0,0,0,2.19.28,10.28,10.28,0,0,0,1.82-.17A5.16,5.16,0,0,0,207,110a3.36,3.36,0,0,0,1.18-1.1,3.29,3.29,0,0,0,.45-1.8,2.58,2.58,0,0,0-.55-1.69,4,4,0,0,0-1.46-1,10.94,10.94,0,0,0-2.07-.66l-2.34-.52c-.8-.18-1.58-.38-2.34-.62a8.5,8.5,0,0,1-2.07-.92,4.52,4.52,0,0,1-1.46-1.49,4.44,4.44,0,0,1-.55-2.29,5.35,5.35,0,0,1,.62-2.63A5.51,5.51,0,0,1,198,93.36a7.48,7.48,0,0,1,2.34-1.07,10.84,10.84,0,0,1,5.54,0,6.39,6.39,0,0,1,2.32,1.15,5.48,5.48,0,0,1,1.57,2,7.13,7.13,0,0,1,.63,2.85h-2.53A4.16,4.16,0,0,0,206.32,95.16Z"/><path class="cls-4" d="M213.74,102.23a6.78,6.78,0,0,1,1.35-2.41,6.51,6.51,0,0,1,2.22-1.62,8.13,8.13,0,0,1,6.08,0,6.52,6.52,0,0,1,2.2,1.62,6.78,6.78,0,0,1,1.35,2.41,9.7,9.7,0,0,1,.45,3,9.54,9.54,0,0,1-.45,3,6.74,6.74,0,0,1-1.35,2.4,6.22,6.22,0,0,1-2.2,1.6,8.26,8.26,0,0,1-6.08,0,6.21,6.21,0,0,1-2.22-1.6,6.74,6.74,0,0,1-1.35-2.4,9.54,9.54,0,0,1-.45-3A9.7,9.7,0,0,1,213.74,102.23Zm2.43,5.34a5.06,5.06,0,0,0,1,1.71,4.06,4.06,0,0,0,1.45,1,4.16,4.16,0,0,0,1.75.37,4.24,4.24,0,0,0,1.76-.37,4.12,4.12,0,0,0,1.44-1,4.9,4.9,0,0,0,1-1.71,8,8,0,0,0,0-4.69,5.09,5.09,0,0,0-1-1.73,4.17,4.17,0,0,0-1.44-1.07,4.4,4.4,0,0,0-1.76-.36,4.32,4.32,0,0,0-1.75.36,4.12,4.12,0,0,0-1.45,1.07,5.26,5.26,0,0,0-1,1.73,8,8,0,0,0,0,4.69Z"/><path class="cls-4" d="M232.73,92.42v20h-2.39v-20Z"/><path class="cls-4" d="M236.57,95.34V92.42H239v2.92ZM239,98v14.52h-2.39V98Z"/><path class="cls-4" d="M253.25,112.47v-2h-.05a3.52,3.52,0,0,1-1.86,1.74,7,7,0,0,1-2.78.54,6.55,6.55,0,0,1-2.93-.62,5.87,5.87,0,0,1-2.08-1.66,7.17,7.17,0,0,1-1.25-2.41,10.48,10.48,0,0,1,0-5.84,6.82,6.82,0,0,1,1.23-2.4,5.88,5.88,0,0,1,2.08-1.63,6.5,6.5,0,0,1,2.91-.61,6.59,6.59,0,0,1,1.2.12,6,6,0,0,1,1.3.38,5.34,5.34,0,0,1,1.22.7,4,4,0,0,1,1,1.08h.05V92.42h2.39v20Zm-8.58-5.15a5.26,5.26,0,0,0,.82,1.72,3.91,3.91,0,0,0,1.4,1.21,4.26,4.26,0,0,0,2,.45,4.09,4.09,0,0,0,2-.48,4,4,0,0,0,1.37-1.25,5.15,5.15,0,0,0,.78-1.75,8.42,8.42,0,0,0,.24-2,8.25,8.25,0,0,0-.26-2.06,5,5,0,0,0-.8-1.75,4,4,0,0,0-1.42-1.23,4.4,4.4,0,0,0-2.1-.46,4.06,4.06,0,0,0-2,.48,3.89,3.89,0,0,0-1.35,1.26,5.45,5.45,0,0,0-.73,1.8,9.54,9.54,0,0,0-.22,2.08A7.8,7.8,0,0,0,244.67,107.32Z"/><path class="cls-4" d="M272.18,112.41a3.29,3.29,0,0,1-1.71.37,2.1,2.1,0,0,1-1.48-.52,2.28,2.28,0,0,1-.55-1.7,5.62,5.62,0,0,1-2.29,1.7,7.68,7.68,0,0,1-2.82.52,7.46,7.46,0,0,1-1.86-.23,4.3,4.3,0,0,1-1.53-.7,3.24,3.24,0,0,1-1-1.25,4.24,4.24,0,0,1-.38-1.87,4.29,4.29,0,0,1,.42-2,3.72,3.72,0,0,1,1.11-1.28,5.29,5.29,0,0,1,1.57-.74,18.29,18.29,0,0,1,1.81-.42c.66-.13,1.28-.23,1.87-.3a8.93,8.93,0,0,0,1.56-.28,2.62,2.62,0,0,0,1.07-.53,1.31,1.31,0,0,0,.39-1,2.45,2.45,0,0,0-.29-1.26,2,2,0,0,0-.76-.73,3.18,3.18,0,0,0-1-.34,8.86,8.86,0,0,0-1.14-.08,5,5,0,0,0-2.53.58,2.45,2.45,0,0,0-1.09,2.17h-2.39a5.27,5.27,0,0,1,.56-2.27A4.37,4.37,0,0,1,261,98.69a5.5,5.5,0,0,1,1.93-.82,10,10,0,0,1,2.31-.26,14,14,0,0,1,1.95.14,5.29,5.29,0,0,1,1.76.58,3.35,3.35,0,0,1,1.26,1.22,3.85,3.85,0,0,1,.48,2v7.46a5.24,5.24,0,0,0,.1,1.23q.09.39.66.39a3.16,3.16,0,0,0,.73-.11ZM268.3,105a3,3,0,0,1-1.18.49c-.48.1-1,.19-1.53.25s-1.07.14-1.61.23a5.67,5.67,0,0,0-1.46.4,2.63,2.63,0,0,0-1,.8,2.15,2.15,0,0,0-.41,1.41,1.91,1.91,0,0,0,.24,1,2,2,0,0,0,.61.66,2.73,2.73,0,0,0,.89.36,5.24,5.24,0,0,0,1.07.11,5.78,5.78,0,0,0,2-.32,4,4,0,0,0,1.37-.81,3.23,3.23,0,0,0,.79-1.06,2.64,2.64,0,0,0,.25-1.08Z"/><path class="cls-4" d="M276.56,98V101h.05a6.47,6.47,0,0,1,2.14-2.61,5.43,5.43,0,0,1,3.2-.79v2.53a6.79,6.79,0,0,0-2.44.39,3.85,3.85,0,0,0-1.63,1.16,4.76,4.76,0,0,0-.9,1.83,9.87,9.87,0,0,0-.28,2.49v6.46h-2.39V98Z"/><path class="cls-4" d="M283.89,95.34V92.42h2.38v2.92ZM286.27,98v14.52h-2.38V98Z"/><path class="cls-4" d="M289.64,102.23A6.78,6.78,0,0,1,291,99.82a6.51,6.51,0,0,1,2.22-1.62,8.13,8.13,0,0,1,6.08,0,6.52,6.52,0,0,1,2.2,1.62,6.78,6.78,0,0,1,1.35,2.41,9.7,9.7,0,0,1,.45,3,9.54,9.54,0,0,1-.45,3,6.74,6.74,0,0,1-1.35,2.4,6.22,6.22,0,0,1-2.2,1.6,8.26,8.26,0,0,1-6.08,0,6.21,6.21,0,0,1-2.22-1.6,6.74,6.74,0,0,1-1.35-2.4,9.54,9.54,0,0,1-.45-3A9.7,9.7,0,0,1,289.64,102.23Zm2.43,5.34a5.06,5.06,0,0,0,1,1.71,4.06,4.06,0,0,0,1.45,1,4.16,4.16,0,0,0,1.75.37,4.24,4.24,0,0,0,1.76-.37,4.12,4.12,0,0,0,1.44-1,4.9,4.9,0,0,0,1-1.71,8,8,0,0,0,0-4.69,5.09,5.09,0,0,0-1-1.73,4.17,4.17,0,0,0-1.44-1.07,4.4,4.4,0,0,0-1.76-.36,4.32,4.32,0,0,0-1.75.36,4.12,4.12,0,0,0-1.45,1.07,5.26,5.26,0,0,0-1,1.73,8,8,0,0,0,0,4.69Z"/></g></g></svg>