<svg xmlns="http://www.w3.org/2000/svg" viewBox="0 0 305.47 123.1"><defs><style>.cls-1,.cls-3{fill:#000f9f;}.cls-2{fill:#b4c83a;}.cls-3{fill-rule:evenodd;}.cls-4{fill:#5c5b5f;}</style></defs><g id="Capa_2" data-name="Capa 2"><g id="Capa_1-2" data-name="Capa 1"><path class="cls-1" d="M42.09,69a15.87,15.87,0,1,1-1.87-26.82v-18a32.38,32.38,0,0,0-7.41-.87,32.82,32.82,0,0,0,0,65.63,32.35,32.35,0,0,0,9.28-1.37Z"/><path class="cls-2" d="M46.9,23.36v39.2h0c0,7.56.14,15.13.1,22.7.56-.17,3.73-1.27,8.25-5.13a34.36,34.36,0,0,0,8.48-11.26,21.2,21.2,0,0,0,1.6-7.46V23.36Z"/><circle class="cls-2" cx="56.78" cy="10.32" r="10.32"/><path class="cls-3" d="M290.29,57.05H285.7l-13,30.29H277l3.63-8.41h13.86l3.58,8.41h5Zm-2.75,18.69h-5.61l5.61-13,5.6,13Z"/><polygon class="cls-3" points="260.74 87.33 248.42 57.05 253.06 57.05 263.16 81.83 272.91 57.05 277.02 57.05 265.14 87.33 260.74 87.33"/><path class="cls-3" d="M239.31,73.13a10.78,10.78,0,0,0,4.88-3.43,8.07,8.07,0,0,0,1.74-5.12,6.71,6.71,0,0,0-2.52-5.6,11.93,11.93,0,0,0-7.24-1.93h-9.9V87.34h4.58V74.53h4.35l.77,1.12,8.55,11.69h5.7ZM236,71a16,16,0,0,1-3.62.34h-1.5v-11h3c.77,0,1.55,0,2.17.1,3.43.44,5.17,2,5.17,4.59a5.45,5.45,0,0,1-2.27,4.73A8,8,0,0,1,236,71Z"/><polygon class="cls-3" points="201.68 87.33 201.68 57.05 219.99 57.05 219.99 60.28 206.36 60.28 206.36 69.99 217.81 69.99 217.81 73.13 206.36 73.13 206.36 84.1 220.95 84.1 220.95 87.33 201.68 87.33"/><path class="cls-3" d="M175.3,86.76V82.5a24,24,0,0,0,9.09,2.37,6.62,6.62,0,0,0,4.39-1.35A4.22,4.22,0,0,0,190.47,80a4.5,4.5,0,0,0-1.11-3,14.81,14.81,0,0,0-4-2.76L183.08,73a20.8,20.8,0,0,1-5.89-4.16,6.58,6.58,0,0,1-1.74-4.54,7.13,7.13,0,0,1,2.75-5.75,10.5,10.5,0,0,1,7-2.27,30.12,30.12,0,0,1,8,1.16V61.4a25.29,25.29,0,0,0-7.73-1.89,6.23,6.23,0,0,0-4,1.21,3.54,3.54,0,0,0-1.6,3,3.74,3.74,0,0,0,1.16,2.7,20.22,20.22,0,0,0,4.21,2.8l2.36,1.21a21.2,21.2,0,0,1,5.9,4.2,7,7,0,0,1,1.69,4.79,7.51,7.51,0,0,1-3.14,6.32,13.33,13.33,0,0,1-8.31,2.37A35.47,35.47,0,0,1,175.3,86.76Z"/><path class="cls-3" d="M301.49,57.43h.1a3.59,3.59,0,0,1,.92.1.77.77,0,0,1,.48.39.93.93,0,0,1,.2.63,1,1,0,0,1-.29.77,1.24,1.24,0,0,1-.78.39,2.52,2.52,0,0,1,.44.33c.09.15.24.34.43.68l.53.77h-1l-.58-.87a2.92,2.92,0,0,0-.44-.63v-.86a1.38,1.38,0,0,0,.54-.05.27.27,0,0,0,.24-.15.58.58,0,0,0,.05-.29c0-.14,0-.29-.1-.34a.49.49,0,0,0-.29-.19h-.44Zm-1.64,4.06V57.43h1.64v.68h-.82v1h.82V60h0a.41.41,0,0,0-.24-.14.88.88,0,0,0-.38-.05h-.2v1.69Z"/><path class="cls-1" d="M301.21,63.92a4.29,4.29,0,1,1,0-8.57,4.29,4.29,0,0,1,0,8.57Zm0-7.58a3.3,3.3,0,1,0,3.27,3.27A3.3,3.3,0,0,0,301.21,56.34Z"/><polygon class="cls-3" points="141.4 87.33 141.4 57.05 146.32 57.05 164.05 80.43 164.05 57.05 168.35 57.05 168.35 87.33 163.47 87.33 145.69 63.96 145.69 87.33 141.4 87.33"/><path class="cls-3" d="M134,60.62c-3-2.85-7-4.3-12-4.3h0c-5,0-9,1.45-12,4.3s-4.5,6.77-4.5,11.6,1.5,8.64,4.5,11.54,7,4.3,12,4.3h0c5,0,9-1.45,12-4.3s4.49-6.76,4.49-11.54S137,63.52,134,60.62Zm-3.77,20.87A10.34,10.34,0,0,1,122,84.87h0a10.32,10.32,0,0,1-8.21-3.38c-2-2.22-2.95-5.36-2.95-9.32s1-7.1,2.95-9.33A10.45,10.45,0,0,1,122,59.51h0a10.47,10.47,0,0,1,8.21,3.33c2,2.23,2.94,5.37,2.94,9.33S132.19,79.27,130.21,81.49Z"/><path class="cls-3" d="M102.85,85.74a21,21,0,0,1-9.8,2.32c-4.69,0-8.36-1.35-10.92-4.11s-3.81-6.66-3.81-11.73,1.3-9,3.91-11.74,6.28-4.16,11.06-4.16a42,42,0,0,1,9.52,1.31v4.06c-4.16-1.45-7.35-2.18-9.62-2.18a9.26,9.26,0,0,0-7.63,3.33c-1.79,2.23-2.7,5.37-2.7,9.42q0,5.8,2.89,9.13a9.88,9.88,0,0,0,7.88,3.34,19.38,19.38,0,0,0,9.22-2.66Z"/><path class="cls-2" d="M73.15,22.59H94.24v3.95H86V48.65H81.4V26.54H73.15Z"/><path class="cls-2" d="M108.07,48.65H104V46h-.08a5.68,5.68,0,0,1-2.28,2.28,6.19,6.19,0,0,1-3.08.86c-2.48,0-4.28-.61-5.38-1.84s-1.66-3.09-1.66-5.57v-12h4.16V41.35a5.06,5.06,0,0,0,1,3.5,3.42,3.42,0,0,0,2.66,1,5.19,5.19,0,0,0,2.19-.41,3.76,3.76,0,0,0,1.42-1.07,4.07,4.07,0,0,0,.79-1.63,8.79,8.79,0,0,0,.23-2V29.78h4.16Z"/><path class="cls-2" d="M119,29.78h3.94v2.78l.07.07a7,7,0,0,1,2.48-2.46,6.62,6.62,0,0,1,3.4-.9,7,7,0,0,1,4.89,1.61,6.15,6.15,0,0,1,1.79,4.82V48.65h-4.16V36.79a5.17,5.17,0,0,0-1-3.23,3.46,3.46,0,0,0-2.74-1,4.45,4.45,0,0,0-1.9.38A4,4,0,0,0,124.35,34a5,5,0,0,0-.91,1.59,5.59,5.59,0,0,0-.33,1.93V48.65H119Z"/><path class="cls-2" d="M141.32,40.29a7.16,7.16,0,0,0,.31,2.12,5,5,0,0,0,.93,1.79,4.35,4.35,0,0,0,1.57,1.22,5.2,5.2,0,0,0,2.26.46,5,5,0,0,0,2.94-.79A4.68,4.68,0,0,0,151,42.74h3.94a7.92,7.92,0,0,1-1.13,2.73,7.82,7.82,0,0,1-1.94,2,8.29,8.29,0,0,1-2.53,1.24,10.24,10.24,0,0,1-2.94.42,9.92,9.92,0,0,1-3.94-.73,8.19,8.19,0,0,1-2.9-2,8.68,8.68,0,0,1-1.79-3.14,12.84,12.84,0,0,1-.6-4,11.29,11.29,0,0,1,.64-3.81,9.66,9.66,0,0,1,1.82-3.17,9,9,0,0,1,10.66-2.05,8.68,8.68,0,0,1,2.93,2.47,9.85,9.85,0,0,1,1.7,3.52,10.82,10.82,0,0,1,.27,4.1Zm9.7-2.73a6.47,6.47,0,0,0-.42-1.9,5,5,0,0,0-.94-1.59A4.81,4.81,0,0,0,148.2,33a4.33,4.33,0,0,0-1.92-.42,4.94,4.94,0,0,0-2,.38A4.47,4.47,0,0,0,142.76,34a5,5,0,0,0-1,1.59,5.29,5.29,0,0,0-.42,2Z"/><path class="cls-2" d="M174,47.66q0,4.28-2.39,6.37t-6.88,2.1a14.79,14.79,0,0,1-2.87-.29,8.68,8.68,0,0,1-2.62-1,6.3,6.3,0,0,1-2-1.82,5.55,5.55,0,0,1-.95-2.78h4.16a3.36,3.36,0,0,0,.62,1.43,3.3,3.3,0,0,0,1,.86,4,4,0,0,0,1.33.4A12.59,12.59,0,0,0,165,53a4.89,4.89,0,0,0,3.69-1.24,5,5,0,0,0,1.17-3.58V45.33h-.08a6.46,6.46,0,0,1-5.65,3.32,8.53,8.53,0,0,1-3.85-.79,7.27,7.27,0,0,1-2.63-2.15,8.86,8.86,0,0,1-1.51-3.15,14.8,14.8,0,0,1-.48-3.84,11.11,11.11,0,0,1,.59-3.61,9,9,0,0,1,1.67-3,8,8,0,0,1,6.28-2.83,7.26,7.26,0,0,1,3.29.75,5.07,5.07,0,0,1,2.29,2.35h.08V29.78H174Zm-9.24-2.3a4.58,4.58,0,0,0,2.36-.56,4.7,4.7,0,0,0,1.57-1.5,6.52,6.52,0,0,0,.87-2.11,10.2,10.2,0,0,0,.28-2.39,9.55,9.55,0,0,0-.29-2.34,6.56,6.56,0,0,0-.9-2,4.28,4.28,0,0,0-1.57-1.38,4.91,4.91,0,0,0-2.32-.51,4.35,4.35,0,0,0-2.33.58,4.7,4.7,0,0,0-1.53,1.51,6.63,6.63,0,0,0-.84,2.12,11.2,11.2,0,0,0-.26,2.35,9.27,9.27,0,0,0,.29,2.29,6.39,6.39,0,0,0,.9,2,4.76,4.76,0,0,0,1.53,1.43A4.4,4.4,0,0,0,164.74,45.36Z"/><path class="cls-2" d="M185,49.16a10.2,10.2,0,0,1-4-.75,8.54,8.54,0,0,1-3-2.06,9,9,0,0,1-1.86-3.14,12.79,12.79,0,0,1,0-8A9,9,0,0,1,178,32.08,8.67,8.67,0,0,1,181,30,11.2,11.2,0,0,1,189,30a8.48,8.48,0,0,1,4.85,5.2,12.79,12.79,0,0,1,0,8A8.67,8.67,0,0,1,192,46.35a8.5,8.5,0,0,1-3,2.06A10.23,10.23,0,0,1,185,49.16Zm0-3.28a4.81,4.81,0,0,0,2.41-.59,5,5,0,0,0,1.67-1.53,6.63,6.63,0,0,0,1-2.14,9.34,9.34,0,0,0,.31-2.42,9.49,9.49,0,0,0-.31-2.41,6.63,6.63,0,0,0-1-2.14,5.06,5.06,0,0,0-1.67-1.51,4.8,4.8,0,0,0-2.41-.58,4.75,4.75,0,0,0-2.41.58,5.19,5.19,0,0,0-1.68,1.51,6.63,6.63,0,0,0-1,2.14,10,10,0,0,0-.31,2.41,9.79,9.79,0,0,0,.31,2.42,6.63,6.63,0,0,0,1,2.14,5.14,5.14,0,0,0,1.68,1.53A4.76,4.76,0,0,0,185,45.88Z"/><path class="cls-2" d="M208.9,36.1a3.91,3.91,0,0,0-1.41-2.65,4.54,4.54,0,0,0-2.9-.89,6.06,6.06,0,0,0-1.71.27,4,4,0,0,0-1.68,1,5.73,5.73,0,0,0-1.28,2.08,9.94,9.94,0,0,0-.51,3.49,10.29,10.29,0,0,0,.27,2.33,6.59,6.59,0,0,0,.88,2.08,4.77,4.77,0,0,0,1.55,1.48,4.38,4.38,0,0,0,2.3.57,4.19,4.19,0,0,0,3-1.13,5.33,5.33,0,0,0,1.48-3.18h4.16a9.14,9.14,0,0,1-2.79,5.64,8.53,8.53,0,0,1-5.86,1.95,9.62,9.62,0,0,1-3.92-.75,8.42,8.42,0,0,1-2.87-2,8.61,8.61,0,0,1-1.77-3.08,12.16,12.16,0,0,1-.6-3.87,13.21,13.21,0,0,1,.59-4,8.93,8.93,0,0,1,1.75-3.23,8.06,8.06,0,0,1,2.9-2.15,9.66,9.66,0,0,1,4.07-.79,11.41,11.41,0,0,1,3.12.42A8.17,8.17,0,0,1,210.3,31a6.61,6.61,0,0,1,1.88,2.12,7.23,7.23,0,0,1,.88,3Z"/><path class="cls-2" d="M214.74,22.59h4.16v3.95h-4.16Zm0,7.19h4.16V48.65h-4.16Z"/><path class="cls-2" d="M230.25,49.16a10.28,10.28,0,0,1-4-.75,8.59,8.59,0,0,1-3-2.06,9,9,0,0,1-1.86-3.14,12.79,12.79,0,0,1,0-8,9,9,0,0,1,1.86-3.14,8.73,8.73,0,0,1,3-2.06,11.23,11.23,0,0,1,8.07,0,8.48,8.48,0,0,1,4.85,5.2,12.79,12.79,0,0,1,0,8,8.67,8.67,0,0,1-1.86,3.14,8.5,8.5,0,0,1-3,2.06A10.23,10.23,0,0,1,230.25,49.16Zm0-3.28a4.81,4.81,0,0,0,2.41-.59,5,5,0,0,0,1.67-1.53,6.63,6.63,0,0,0,1-2.14,9.34,9.34,0,0,0,.31-2.42,9.49,9.49,0,0,0-.31-2.41,6.63,6.63,0,0,0-1-2.14,5.06,5.06,0,0,0-1.67-1.51,4.8,4.8,0,0,0-2.41-.58,4.75,4.75,0,0,0-2.41.58,5.19,5.19,0,0,0-1.68,1.51,6.63,6.63,0,0,0-1,2.14,10,10,0,0,0-.31,2.41,9.79,9.79,0,0,0,.31,2.42,6.63,6.63,0,0,0,1,2.14,5.14,5.14,0,0,0,1.68,1.53A4.76,4.76,0,0,0,230.25,45.88Z"/><path class="cls-2" d="M262.47,36.1a3.91,3.91,0,0,0-1.41-2.65,4.54,4.54,0,0,0-2.9-.89,6,6,0,0,0-1.71.27,4,4,0,0,0-1.68,1,5.73,5.73,0,0,0-1.28,2.08,9.94,9.94,0,0,0-.51,3.49,10.29,10.29,0,0,0,.27,2.33,6.59,6.59,0,0,0,.88,2.08,4.77,4.77,0,0,0,1.55,1.48,4.38,4.38,0,0,0,2.3.57,4.19,4.19,0,0,0,3-1.13,5.33,5.33,0,0,0,1.48-3.18h4.16a9.14,9.14,0,0,1-2.79,5.64A8.55,8.55,0,0,1,258,49.16a9.62,9.62,0,0,1-3.92-.75,8.32,8.32,0,0,1-2.87-2,8.61,8.61,0,0,1-1.77-3.08,12.16,12.16,0,0,1-.6-3.87,13.21,13.21,0,0,1,.58-4,9.1,9.1,0,0,1,1.76-3.23,8.06,8.06,0,0,1,2.9-2.15,9.64,9.64,0,0,1,4.06-.79,11.43,11.43,0,0,1,3.13.42A8.17,8.17,0,0,1,263.87,31a6.73,6.73,0,0,1,1.88,2.12,7.23,7.23,0,0,1,.88,3Z"/><path class="cls-2" d="M276.85,49.16a10.28,10.28,0,0,1-4-.75,8.59,8.59,0,0,1-3-2.06A9,9,0,0,1,268,43.21a12.79,12.79,0,0,1,0-8,9,9,0,0,1,1.86-3.14,8.73,8.73,0,0,1,3-2.06,11.23,11.23,0,0,1,8.07,0,8.73,8.73,0,0,1,3,2.06,8.82,8.82,0,0,1,1.86,3.14,12.79,12.79,0,0,1,0,8,8.82,8.82,0,0,1-1.86,3.14,8.59,8.59,0,0,1-3,2.06A10.27,10.27,0,0,1,276.85,49.16Zm0-3.28a4.74,4.74,0,0,0,2.4-.59,5.14,5.14,0,0,0,1.68-1.53,6.63,6.63,0,0,0,1-2.14,9.34,9.34,0,0,0,.31-2.42,9.49,9.49,0,0,0-.31-2.41,6.63,6.63,0,0,0-1-2.14,5.19,5.19,0,0,0-1.68-1.51,5.28,5.28,0,0,0-4.81,0,5.19,5.19,0,0,0-1.68,1.51,6.63,6.63,0,0,0-1,2.14,9.49,9.49,0,0,0-.31,2.41,9.34,9.34,0,0,0,.31,2.42,6.63,6.63,0,0,0,1,2.14,5.14,5.14,0,0,0,1.68,1.53A4.76,4.76,0,0,0,276.85,45.88Z"/><path class="cls-2" d="M288,29.78H292v2.78l.08.07a6.88,6.88,0,0,1,2.48-2.46,6.56,6.56,0,0,1,3.39-.9,7,7,0,0,1,4.89,1.61,6.15,6.15,0,0,1,1.79,4.82V48.65h-4.16V36.79a5.17,5.17,0,0,0-.95-3.23,3.44,3.44,0,0,0-2.74-1,4.4,4.4,0,0,0-1.89.38A4.08,4.08,0,0,0,293.41,34a5,5,0,0,0-.91,1.59,5.59,5.59,0,0,0-.33,1.93V48.65H288Z"/><path class="cls-4" d="M93.61,106.19a6,6,0,0,0-3.48-1,6.15,6.15,0,0,0-2.95.65,5.61,5.61,0,0,0-2,1.73A7.42,7.42,0,0,0,84,110a10.73,10.73,0,0,0-.38,2.9,12.1,12.1,0,0,0,.38,3.11,7.46,7.46,0,0,0,1.17,2.55,5.65,5.65,0,0,0,2,1.73,6.37,6.37,0,0,0,3,.65,5.68,5.68,0,0,0,2.25-.42,5.12,5.12,0,0,0,1.69-1.15,5.35,5.35,0,0,0,1.12-1.76,7.26,7.26,0,0,0,.48-2.21h2.56a8.82,8.82,0,0,1-2.5,5.65,8.13,8.13,0,0,1-5.81,2,9.26,9.26,0,0,1-3.9-.76,7.69,7.69,0,0,1-2.77-2.11,8.91,8.91,0,0,1-1.65-3.18,13.41,13.41,0,0,1-.56-3.92,12.65,12.65,0,0,1,.6-3.94A9.37,9.37,0,0,1,83.39,106a8,8,0,0,1,2.85-2.17,9.16,9.16,0,0,1,3.91-.79,9.77,9.77,0,0,1,2.85.4,7.49,7.49,0,0,1,2.4,1.19,6.63,6.63,0,0,1,1.74,1.94,7.18,7.18,0,0,1,.92,2.71H95.5A4.73,4.73,0,0,0,93.61,106.19Z"/><path class="cls-4" d="M103.11,108.77v2.93h.06a6.12,6.12,0,0,1,2-2.5,5.16,5.16,0,0,1,3.06-.75v2.42a6.42,6.42,0,0,0-2.33.38,3.57,3.57,0,0,0-1.56,1.1,4.33,4.33,0,0,0-.86,1.76,9.45,9.45,0,0,0-.27,2.38v6.18H101v-13.9Z"/><path class="cls-4" d="M119.84,121.79a6.37,6.37,0,0,1-3.93,1.18,7.13,7.13,0,0,1-2.89-.54,5.78,5.78,0,0,1-2.06-1.5,6.56,6.56,0,0,1-1.25-2.32,11.16,11.16,0,0,1-.47-2.93,8.17,8.17,0,0,1,.49-2.9,7,7,0,0,1,1.35-2.29,6.22,6.22,0,0,1,4.7-2,5.68,5.68,0,0,1,3.07.77,6.12,6.12,0,0,1,2,2,7.66,7.66,0,0,1,1,2.58,11.27,11.27,0,0,1,.23,2.66H111.66a5.44,5.44,0,0,0,.22,1.73,3.85,3.85,0,0,0,.78,1.45,3.71,3.71,0,0,0,1.37,1,4.73,4.73,0,0,0,2,.38,3.94,3.94,0,0,0,2.38-.67,3.22,3.22,0,0,0,1.22-2h2.26A5.55,5.55,0,0,1,119.84,121.79Zm-.56-8.93a3.85,3.85,0,0,0-.83-1.25,3.94,3.94,0,0,0-2.81-1.14,3.94,3.94,0,0,0-1.6.31,3.6,3.6,0,0,0-1.22.84,4.2,4.2,0,0,0-.81,1.25,4.82,4.82,0,0,0-.35,1.52h8A4.64,4.64,0,0,0,119.28,112.86ZM116.45,102l-2.58,4.36h1.72l3.79-4.36Z"/><path class="cls-4" d="M134.57,122.67v-1.88h0a3.38,3.38,0,0,1-1.78,1.67,6.78,6.78,0,0,1-2.66.51,6.32,6.32,0,0,1-2.81-.59,5.89,5.89,0,0,1-2-1.59,6.86,6.86,0,0,1-1.2-2.31,9.48,9.48,0,0,1-.4-2.8,9.75,9.75,0,0,1,.39-2.79,6.51,6.51,0,0,1,1.18-2.3,5.67,5.67,0,0,1,2-1.56,6.29,6.29,0,0,1,2.79-.58,7,7,0,0,1,1.15.11,5.8,5.8,0,0,1,1.24.36,5.27,5.27,0,0,1,1.17.67,3.88,3.88,0,0,1,.93,1h0v-7.15h2.28v19.19Zm-8.21-4.93a5,5,0,0,0,.78,1.65,3.68,3.68,0,0,0,1.34,1.16,4.06,4.06,0,0,0,1.92.43,3.81,3.81,0,0,0,3.28-1.65,5.1,5.1,0,0,0,.74-1.68,8.25,8.25,0,0,0,.23-1.91,8.13,8.13,0,0,0-.24-2,4.8,4.8,0,0,0-.77-1.68,4,4,0,0,0-1.36-1.17,4.15,4.15,0,0,0-2-.44,4,4,0,0,0-2,.45,3.84,3.84,0,0,0-1.29,1.21,5.6,5.6,0,0,0-.7,1.72,9.4,9.4,0,0,0-.21,2A7.14,7.14,0,0,0,126.36,117.74Z"/><path class="cls-4" d="M140.51,106.27v-2.79h2.29v2.79Zm2.29,2.5v13.9h-2.29v-13.9Z"/><path class="cls-4" d="M152.29,108.77v2h-2.77v8.63a2.87,2.87,0,0,0,.06.65.72.72,0,0,0,.26.37,1.18,1.18,0,0,0,.53.18c.22,0,.51,0,.87,0h1v2h-1.75a8.28,8.28,0,0,1-1.52-.12,2.28,2.28,0,0,1-1-.44,2,2,0,0,1-.58-.92,5.42,5.42,0,0,1-.19-1.56v-8.84h-2.36v-2h2.36v-4.16h2.29v4.16Z"/><path class="cls-4" d="M154.49,112.87a6.61,6.61,0,0,1,1.29-2.31,6.2,6.2,0,0,1,2.13-1.55,7.84,7.84,0,0,1,5.82,0,6.32,6.32,0,0,1,2.11,1.55,6.61,6.61,0,0,1,1.29,2.31,9.48,9.48,0,0,1,.43,2.87,9.35,9.35,0,0,1-.43,2.85,6.61,6.61,0,0,1-1.29,2.29,6,6,0,0,1-2.11,1.54,8,8,0,0,1-5.82,0,5.93,5.93,0,0,1-2.13-1.54,6.61,6.61,0,0,1-1.29-2.29,9.05,9.05,0,0,1-.43-2.85A9.18,9.18,0,0,1,154.49,112.87Zm2.33,5.11a4.65,4.65,0,0,0,.92,1.64,4,4,0,0,0,1.39,1,4.21,4.21,0,0,0,3.36,0,3.91,3.91,0,0,0,1.38-1,4.51,4.51,0,0,0,.93-1.64,7.58,7.58,0,0,0,0-4.49,4.73,4.73,0,0,0-.93-1.65,3.82,3.82,0,0,0-1.38-1,4.21,4.21,0,0,0-3.36,0,3.94,3.94,0,0,0-1.39,1,4.88,4.88,0,0,0-.92,1.65,7.58,7.58,0,0,0,0,4.49Z"/><path class="cls-4" d="M180.76,103.48v19.19h-2.55V103.48Z"/><path class="cls-4" d="M186.84,108.77V111h0a4.81,4.81,0,0,1,4.52-2.53,6,6,0,0,1,2.28.38,3.68,3.68,0,0,1,2.27,2.64,8.28,8.28,0,0,1,.23,2.06v9.14h-2.28v-9.41a2.72,2.72,0,0,0-.76-2,2.8,2.8,0,0,0-2.07-.75,4.57,4.57,0,0,0-1.81.32,3.4,3.4,0,0,0-1.28.91,4,4,0,0,0-.76,1.39,5.6,5.6,0,0,0-.26,1.73v7.85h-2.28v-13.9Z"/><path class="cls-4" d="M209.77,122.67v-1.88h-.05a3.38,3.38,0,0,1-1.78,1.67,6.75,6.75,0,0,1-2.66.51,6.32,6.32,0,0,1-2.81-.59,5.89,5.89,0,0,1-2-1.59,6.86,6.86,0,0,1-1.2-2.31,10.09,10.09,0,0,1,0-5.59,6.68,6.68,0,0,1,1.18-2.3,5.67,5.67,0,0,1,2-1.56,6.29,6.29,0,0,1,2.79-.58,6.86,6.86,0,0,1,1.15.11,5.64,5.64,0,0,1,1.24.36,5.27,5.27,0,0,1,1.17.67,3.72,3.72,0,0,1,.93,1h.05v-7.15h2.29v19.19Zm-8.21-4.93a5,5,0,0,0,.78,1.65,3.76,3.76,0,0,0,1.34,1.16,4.06,4.06,0,0,0,1.92.43,3.77,3.77,0,0,0,3.28-1.65,5.1,5.1,0,0,0,.74-1.68,7.74,7.74,0,0,0,.23-1.91,8.13,8.13,0,0,0-.24-2,4.8,4.8,0,0,0-.77-1.68,4,4,0,0,0-1.35-1.17,4.22,4.22,0,0,0-2-.44,4,4,0,0,0-2,.45,3.66,3.66,0,0,0-1.29,1.21,5.15,5.15,0,0,0-.7,1.72,8.8,8.8,0,0,0-.22,2A7.14,7.14,0,0,0,201.56,117.74Z"/><path class="cls-4" d="M215.71,106.27v-2.79H218v2.79Zm2.29,2.5v13.9h-2.29v-13.9Z"/><path class="cls-4" d="M225.36,122.67l-5.16-13.9h2.56l3.9,11.59h.05l3.79-11.59h2.39l-5.08,13.9Z"/><path class="cls-4" d="M235.12,106.27v-2.79h2.29v2.79Zm2.29,2.5v13.9h-2.29v-13.9Z"/><path class="cls-4" d="M251.1,122.67v-1.88H251a3.36,3.36,0,0,1-1.77,1.67,6.82,6.82,0,0,1-2.66.51,6.29,6.29,0,0,1-2.81-.59,5.79,5.79,0,0,1-2-1.59,6.86,6.86,0,0,1-1.2-2.31,9.48,9.48,0,0,1-.4-2.8,9.75,9.75,0,0,1,.39-2.79,6.51,6.51,0,0,1,1.18-2.3,5.58,5.58,0,0,1,2-1.56,6.25,6.25,0,0,1,2.78-.58,7,7,0,0,1,1.16.11,5.72,5.72,0,0,1,1.23.36,4.86,4.86,0,0,1,1.17.67,3.72,3.72,0,0,1,.93,1h.06v-7.15h2.28v19.19Zm-8.22-4.93a5,5,0,0,0,.78,1.65,3.8,3.8,0,0,0,1.35,1.16,4,4,0,0,0,1.92.43,3.81,3.81,0,0,0,3.28-1.65,5.31,5.31,0,0,0,.74-1.68,8.25,8.25,0,0,0,.23-1.91,7.68,7.68,0,0,0-.25-2,4.78,4.78,0,0,0-.76-1.68,4,4,0,0,0-1.36-1.17,4.22,4.22,0,0,0-2-.44,4,4,0,0,0-2,.45,3.66,3.66,0,0,0-1.29,1.21,5.37,5.37,0,0,0-.7,1.72,9.4,9.4,0,0,0-.21,2A7.13,7.13,0,0,0,242.88,117.74Z"/><path class="cls-4" d="M266.26,122.67v-2.2h-.05a4.7,4.7,0,0,1-1.86,1.89,5.47,5.47,0,0,1-2.66.61,6.29,6.29,0,0,1-2.29-.36,3.74,3.74,0,0,1-1.48-1,3.94,3.94,0,0,1-.79-1.6,8.71,8.71,0,0,1-.23-2.06v-9.14h2.29v9.41A2.59,2.59,0,0,0,262,121a4.81,4.81,0,0,0,1.82-.32,3.38,3.38,0,0,0,1.27-.92,3.88,3.88,0,0,0,.77-1.38,5.67,5.67,0,0,0,.25-1.74v-7.85h2.29v13.9Z"/><path class="cls-4" d="M284.17,122.62a3.28,3.28,0,0,1-1.64.35,2,2,0,0,1-1.42-.5,2.16,2.16,0,0,1-.52-1.63,5.43,5.43,0,0,1-2.19,1.63,7.28,7.28,0,0,1-2.7.5,6.91,6.91,0,0,1-1.79-.22,4,4,0,0,1-1.47-.67,3.15,3.15,0,0,1-1-1.2,4,4,0,0,1-.36-1.78,4.08,4.08,0,0,1,.4-1.94,3.59,3.59,0,0,1,1.06-1.22,4.77,4.77,0,0,1,1.51-.71,16.15,16.15,0,0,1,1.73-.41c.63-.12,1.23-.22,1.79-.28a9.08,9.08,0,0,0,1.49-.27,2.62,2.62,0,0,0,1-.51,1.24,1.24,0,0,0,.37-1,2.26,2.26,0,0,0-.28-1.21,1.88,1.88,0,0,0-.73-.7,2.81,2.81,0,0,0-1-.32,6.75,6.75,0,0,0-1.09-.08A4.81,4.81,0,0,0,275,111a2.36,2.36,0,0,0-1.05,2.08h-2.28a4.9,4.9,0,0,1,.53-2.18,4.27,4.27,0,0,1,1.29-1.44,5.6,5.6,0,0,1,1.85-.79,9.79,9.79,0,0,1,2.21-.24,12.86,12.86,0,0,1,1.87.13,5,5,0,0,1,1.68.55,3.16,3.16,0,0,1,1.21,1.17,3.69,3.69,0,0,1,.46,2v7.14a4.87,4.87,0,0,0,.1,1.18c.06.25.27.37.63.37a2.5,2.5,0,0,0,.7-.11Zm-3.71-7.13a2.86,2.86,0,0,1-1.13.47q-.7.15-1.47.24l-1.55.22a5.65,5.65,0,0,0-1.39.39,2.42,2.42,0,0,0-1,.76,2.13,2.13,0,0,0-.39,1.35,1.78,1.78,0,0,0,.23,1,1.88,1.88,0,0,0,.59.63,2.62,2.62,0,0,0,.85.35,4.77,4.77,0,0,0,1,.1,5.51,5.51,0,0,0,1.93-.3,4.19,4.19,0,0,0,1.32-.78,3,3,0,0,0,.75-1,2.43,2.43,0,0,0,.25-1Z"/><path class="cls-4" d="M288.71,103.48v19.19h-2.29V103.48Z"/></g></g></svg>