<svg id="Capa_1" data-name="Capa 1" xmlns="http://www.w3.org/2000/svg" viewBox="0 0 470.47 339.04"><defs><style>.cls-1,.cls-11{fill:#fff;}.cls-2{fill:#afafaf;}.cls-3{fill:#2a778c;opacity:0.1;}.cls-3,.cls-38{isolation:isolate;}.cls-4{fill:#ababab;}.cls-5{fill:#90918c;}.cls-6{fill:#110d0d;}.cls-7{fill:#c18b76;}.cls-10,.cls-8{fill:#d29a80;}.cls-9{fill:#bd6c66;}.cls-10,.cls-11,.cls-12,.cls-13,.cls-14,.cls-15,.cls-17,.cls-30,.cls-37,.cls-38{stroke:#1d1d1b;}.cls-10,.cls-11,.cls-12,.cls-13,.cls-14,.cls-15,.cls-17,.cls-30,.cls-37,.cls-38,.cls-45,.cls-46,.cls-47{stroke-miterlimit:10;}.cls-10,.cls-13{stroke-width:0.41px;}.cls-11,.cls-37{stroke-width:0.47px;}.cls-12{fill:#f7f0ed;stroke-width:0.46px;}.cls-13{fill:#331104;}.cls-14,.cls-15{fill:#f4f4f4;}.cls-14{stroke-width:0.21px;}.cls-15{stroke-width:0.12px;}.cls-16{fill:#1d1213;}.cls-17,.cls-30{fill:none;}.cls-17{stroke-width:0.18px;}.cls-18{fill:#17191e;}.cls-19,.cls-47,.cls-50{fill:#b6c931;}.cls-20{fill:#0a1660;}.cls-21{fill:#99e4f7;}.cls-22{fill:#68bedb;}.cls-23{fill:#e5e5e3;}.cls-24{fill:#3b3a3c;}.cls-25{fill:#525653;}.cls-26{fill:#96a3a3;}.cls-27{fill:#475151;}.cls-28{fill:#7a888d;}.cls-29{fill:#55514e;}.cls-30,.cls-38{stroke-width:1.46px;}.cls-31{fill:#868684;}.cls-32{fill:#8d8888;}.cls-33{fill:#506167;}.cls-34{fill:#7a93a1;}.cls-35{fill:#747a77;}.cls-36{fill:#36322f;}.cls-37{fill:#1d1d1b;}.cls-38{fill:#2e51a0;opacity:0.2;}.cls-39{fill:#d4d3cc;}.cls-40{fill:#bab9b6;}.cls-41{fill:#f2f5fc;}.cls-42{fill:#cab195;}.cls-43{fill:#b89c7f;}.cls-44{fill:#e4dad2;}.cls-45,.cls-46,.cls-48,.cls-49{fill:#000f9f;}.cls-45,.cls-46,.cls-47{stroke:#fff;}.cls-45,.cls-47,.cls-48,.cls-50{fill-rule:evenodd;}</style></defs><rect class="cls-1" width="470.47" height="339.04"/><rect class="cls-1" x="2.75" y="2.52" width="464.99" height="333.99"/><g id="Capa_2" data-name="Capa 2"><g id="Capa_1-2" data-name="Capa 1-2"><rect class="cls-2" x="193.58" y="2.57" width="11.85" height="333.94"/><path class="cls-3" d="M200.8,336.47H69.71C56.42,322.36,3.64,263,2.75,171.82c-.87-94,54.11-155.59,67-169.25H200.8Z"/><path class="cls-4" d="M396.36,2.57H344.81q2.9,167,5.78,334H397.4Q396.88,169.54,396.36,2.57Z"/><path class="cls-5" d="M403.09,2.57q.53,167,1,334h63.61q-1.31-167-2.56-333.95Z"/><path class="cls-6" d="M370.91,59.18c1-1.14,3.4-3.82,7.09-4.08a10.39,10.39,0,0,1,7,2.59,13.94,13.94,0,0,1,4.4,5.91,14.08,14.08,0,0,1-.76,11.14,13.13,13.13,0,0,0-3,14.47c2.4,5.48,8.05,7.18,8.9,7.39-7.25,4.47-12,3.75-13.94,3.25C366.73,96.23,362.94,68.09,370.91,59.18Z"/><path class="cls-7" d="M330,109.58a37.06,37.06,0,0,0,1.29-5.08,41.92,41.92,0,0,0,.36-11.94l34.19-13.85c3.95-1.5,5.54-1.14,6.21-.39,2.11,2.35-1.92,11.59-6.44,12-1.93.19-2.52-1.31-4.06-.92-3.18.81-4.57,8.12-4.29,13.36a107.56,107.56,0,0,0,1.8,11.3c.19,1.14.32,1.8.42,2.2a16.49,16.49,0,0,1,.67,3c-.27.1-1.83-7.14-7.1-10.62a14,14,0,0,0-7.34-2.15"/><path class="cls-8" d="M339.77,41.1c-2.67,0-12,.26-18.78,6.89-5.77,5.54-6.91,12.81-7.8,17.92a41.91,41.91,0,0,0-.53,8.37A53.5,53.5,0,0,0,320,96.18c4.12,6.9,6.85,8.32,7.9,8.87a13.38,13.38,0,0,0,4.7,1.09A45.7,45.7,0,0,0,349,99.74a44.2,44.2,0,0,0,16.52-19.35S372.73,47,339.77,41.1Z"/><path class="cls-8" d="M330.81,70.25s-.69,6.2,4.94,9c0,0,10.07,2,10.75-5.29V70.23s-1-3.7-6.52-3C340,67.25,330.73,68.18,330.81,70.25Z"/><path class="cls-9" d="M331.65,87.78a19.74,19.74,0,0,1,2.76-.4,18.39,18.39,0,0,1,6.51.73c-2.62,3.69-6.55,5.54-10.3,4.86a9.66,9.66,0,0,1-5.2-3,6.84,6.84,0,0,1,2.8-2A6.35,6.35,0,0,1,331.65,87.78Z"/><path class="cls-10" d="M331.67,69.51s-.45,7.25-2.74,9a1.64,1.64,0,0,0-.36,2.29v0a1.52,1.52,0,0,0,1.72-.26,2.16,2.16,0,0,0,2.9.72,2,2,0,0,0,.7-.64,1.06,1.06,0,0,1,1.84.75"/><path class="cls-11" d="M350.07,69.43c-9.88-4.93-10.87.8-10.87.8,4.16,4.83,10.87-.8,11-1"/><path class="cls-12" d="M327.91,71.36c-.17-.21-6.12-6.33-9.88-1.07,0,0,.86,6.18,9.68.86"/><ellipse class="cls-13" cx="321.95" cy="70.22" rx="1.96" ry="1.97"/><ellipse class="cls-13" cx="342.81" cy="69.5" rx="1.96" ry="1.97"/><ellipse class="cls-14" cx="321.2" cy="69.85" rx="0.65" ry="0.66"/><ellipse class="cls-14" cx="341.5" cy="69.18" rx="0.65" ry="0.66"/><circle class="cls-15" cx="342.81" cy="69.85" r="0.38"/><circle class="cls-15" cx="322.96" cy="70.5" r="0.38"/><path class="cls-6" d="M312.32,69.51c1.61.54,4.75-19.83,18.61-25.44,7-2.85,14.42-.92,19.39,1,0,0,15.32,2.77,15.33,34.85,0,0,6.92-2.08,7.8-5.11.18-1,3.63-21.24-10.44-33.43A31.73,31.73,0,0,0,344.71,34c-3.35.09-15.43.8-24.22,10.28C311,54.54,311,69,312.32,69.51Z"/><path class="cls-16" d="M340.14,60.48c-.74.63-1.77,2-1.45,2.46.45.73,3.17-.58,6.09-1.07a18.69,18.69,0,0,1,10.58,1.54C353.74,62.46,344.21,57.09,340.14,60.48Z"/><path class="cls-16" d="M327,61.36c.82.52,2,1.7,1.75,2.26-.35.77-3.21-.18-6.16-.31a18.82,18.82,0,0,0-10.3,2.87C313.8,65,322.59,58.5,327,61.36Z"/><path class="cls-17" d="M366.15,81s10.22-4.57,0,5.54"/><path class="cls-8" d="M373.38,117.31a54.36,54.36,0,0,1,23.72,7c3.75,2.2,13.4,8.47,25.33,33.06a192.7,192.7,0,0,1,15.81,47.6c.07,6.9-.17,14.4-.85,22.39a240,240,0,0,1-3.95,27.34q-1.5,12.55-3,25.14l-16.71-8.47A29.44,29.44,0,0,0,417,259.92a28.62,28.62,0,0,0-.46-7.39c-2.13-12.31-3.17-24-3.39-26.79a82.08,82.08,0,0,1,.86-19.49,100,100,0,0,1-19.4-47.48l-63.15-15a84.28,84.28,0,0,0-20.68,16.47c-4.29,4.71-6.2,7.89-9.71,12.62a142,142,0,0,1-23.39,24.5l-20.26,11.09s-9.8-.6-16.47,1.21l-10.64-2.62s10.64-11.41,16.48-9.41l26.44-25c18.34-14.38,26.08-27.16,29.72-36.37,1.59-4,4.39-12.41,12.38-16.68,5.41-3,11.24-2.88,15.29-2.4a8.7,8.7,0,0,0,4.32-2.89,8.3,8.3,0,0,0,1.82-4.74c2-1.18,9.07-5,17.17-3.38,2.42.49,5.85,1.17,8.31,3.87,1.64,1.85,1.65,3.19,3.36,4.74C367.86,116.92,371,117.31,373.38,117.31Z"/><path class="cls-18" d="M311.83,118.06c2.34-.79,3.05-.52,8.4-1.63,5.58-1.17,6.6-1.85,7.14-1.26,1.93,2-10,11.93-7.44,18,1.36,3.24,6.47,4.47,12,4.93a154.56,154.56,0,0,0,16.33,2.15c1.87.15,3.7.24,5.49.33a11.1,11.1,0,0,0,6.06-1c1.06-.55,3.95-2.27,7.7-13.42,1.1-3.25,1.91-6.12,2.45-8.41,18.48,1.45,34.36,13.19,40.52,30a2.7,2.7,0,0,1-1.42,1.84c-1.39.44-2.64-1.37-3.86-.93-1.06.42-.69,2-1.92,2.78a3.85,3.85,0,0,1-3.22,0c.05.8,0,1.84-.69,2.24-1.06.69-2.83-.68-3.6,0-.61.56.16,1.77-.46,2.25s-1.86-.62-2.66-.15c-1,.59,0,2.82-1.1,3.46-.66.41-1.3-.31-2,.08s-.66,1.5-1,3.69c-.18,1.32-.54,2.61-.78,3.94-.4,2-.77,3.7-1,4.51a57,57,0,0,1-2.22,7.38,61.75,61.75,0,0,0-2,46.37c1.71,3.89,3.32,7.93,4.8,12.15,12.85,37.43,8.52,73.09,1.57,99.05h-89.6a462.25,462.25,0,0,1-3.25-127.16c1.33-11.74,3.07-23,5.13-33.72,1.6-19.39,1-25.09-.1-25.85a5.5,5.5,0,0,1-1.78-1.54c-.76-1.05-.56-1.71-1.25-2.11s-1.54.23-2.51-.15c-.56-.2-1.15-.76-1.56-2.09a2.18,2.18,0,0,1-2.86,1,2,2,0,0,1-1.2-2c1.58-3.69,5.93-12.93,13.45-19.53A23.14,23.14,0,0,1,311.83,118.06Z"/><path class="cls-19" d="M366.27,115a7.81,7.81,0,0,0,2.3,1.5,8.68,8.68,0,0,0,2.36.64q-6.69,23.7-13.43,47.43v23.64c.5,2.4,4.53,21.19,15,32.43,2.66,2.86,7.27,7.81,15,10.23a31.55,31.55,0,0,0,4.17,1c-.61,4.45-1.18,9-1.67,13.74-.37,3.49-.7,6.91-1,10.29-.38,4.92-.58,8.5-.61,8.93-.31,5.34-2.89,21.25-11,60.43a112.83,112.83,0,0,1-79.07-21.67c-.51-27,.16-45.95.87-58.25.87-15,1.26-20.14,1.26-20.14,1.76-23.64,2.88-24.73,2.19-32.76-1.31-14.62-5.5-15.76-4.07-25.55,1.46-10.15,10.42-21.84,11.18-22.81a315.64,315.64,0,0,0,19.46-28.14l4.75-.78L309.27,153.9a3.94,3.94,0,0,0-.42,2.77c1.81,7,28.38,6.53,43.76,5.73Z"/><path class="cls-20" d="M385,232.72s-6.58-15.43,1.14-13.22c0,0,18.26,12.49.07,13.19C385.83,232.71,385.43,232.72,385,232.72Z"/><path class="cls-20" d="M394.26,238.53c3.77,7.82-9.26-5.81-9.26-5.81l11.36,3.2Z"/><path class="cls-21" d="M132.33,292.93l227.84-11a10.26,10.26,0,0,1,5.85,1.85c3.72,2.77,3.51,7.62,3.45,9.5-.22,7.58.65,22.73,2,43.22H174.93a122.67,122.67,0,0,1-25.61-20.32A107.35,107.35,0,0,1,132.33,292.93Z"/><path class="cls-22" d="M367.21,283.6l-96.38-46.76L144,239.18a72.11,72.11,0,0,0-11.53,26.45,67.13,67.13,0,0,0,0,27.3Z"/><path class="cls-23" d="M229.08,192.13s-38.8,8.12,6.73,10.84c0,0,6.92.19,16.26.24,17.61.1,44-.28,49.84-3.28,0,0,9.8-3-8.55-7.83Z"/><polygon class="cls-24" points="253.07 208.2 266.43 208.2 266.43 202.84 253.07 202.82 253.07 208.2"/><polygon class="cls-25" points="242.14 211.67 242.6 223.13 237.13 223.13 236.35 210.77 242.14 211.67"/><path class="cls-26" d="M251,211.8c-1.92-.59-9.06-.13-9.06-.13l.46,11.45h8.65Z"/><polygon class="cls-27" points="253.96 238.99 247.24 238.04 248.17 226.47 250.59 226.47 249.74 207.09 272.27 208.02 253.96 238.99"/><polygon class="cls-28" points="257.84 208.41 272.39 207.66 273.54 218.92 274.73 230.73 275.83 230.73 275.83 238.6 254.86 238.6 254.86 232.75 255.81 232.3 257.84 208.41"/><polygon class="cls-29" points="349.1 266.87 349.1 270.44 327.87 271.64 329 268.74 349.1 266.87"/><path class="cls-30" d="M353.79,71.57a6.32,6.32,0,0,1-1.09,2.26,6.22,6.22,0,0,1-4.15,2,28.83,28.83,0,0,1-5.08.38c-3-.07-4-.58-4.4-.76a6.76,6.76,0,0,1-3.55-6.29l-4.37.17c0,.85-.24,3.77-2.48,5.25a8.26,8.26,0,0,1-3.34.93,15.85,15.85,0,0,1-6.92-.15,6.68,6.68,0,0,1-3.19-1.44,5.85,5.85,0,0,1-1.74-3.4,7.07,7.07,0,0,1,.47-4.06,17.78,17.78,0,0,1,6.2-2c1.74-.2,6.14-.71,8.65,1.28a4.9,4.9,0,0,0,2,1.13,12.13,12.13,0,0,0,2.89.11,7.69,7.69,0,0,0,2.14-.14,5.06,5.06,0,0,0,1.61-.8c2.28-1.61,7-1.76,8.29-1.8a24.74,24.74,0,0,1,4.94.35,22.54,22.54,0,0,1,12.18,6.14,20.16,20.16,0,0,1,4.8,7.88l-1.28.71V77.91a12.31,12.31,0,0,0-.24-1.91,6.58,6.58,0,0,0-1.86-2.84c-.84-.92-1.92-2.08-3.31-3.36-.29-.23-.69-.53-1.16-.86a14.45,14.45,0,0,0-1.26-.83,10.15,10.15,0,0,0-1.72-.92,8.11,8.11,0,0,0-2.07-.49A16.55,16.55,0,0,1,353.79,71.57Z"/><path class="cls-8" d="M427.42,240.53A194.27,194.27,0,0,1,426,260.85c-.67,5.24-1,6.47-1.59,12.07-.47,4.75-.59,7.88-1.43,13.19-.42,2.67-.86,4.85-1.17,6.28v9.68l-3.46,3.5a7.87,7.87,0,0,1-.27,3.94,6.59,6.59,0,0,1-1.85,2.95,6.69,6.69,0,0,1-2.88,1.55l-4.48,7L406.69,326s-1,7.78-4.21,4.2c0,0-.88-.53-1.22-2.55s0-.23,0-.23-2.71,1.18-3.05-5.79a31.87,31.87,0,0,1,5.1-10s3.1-8.87,4.22-9.32c0,0-3.73-17.25-6.82-15.94,0,0-.79-1.07-5.1,1.14l-5.68,4.24s-5.15,2.87-7.51-1.37c0,0,1.13-2.12,5.25-4.8,0,0,5.25-4.77,7.4-5.47a17.07,17.07,0,0,1,13-10.32s1,.45,2.4-7.12l-1.37-21.95S420.23,234.23,427.42,240.53Z"/><path class="cls-31" d="M249.9,210.18l-13.55.58,5.31.93h8Z"/><path class="cls-31" d="M268.29,217.13l67.15,24.32.56-.93L272.9,217.6Z"/><path class="cls-29" d="M268.29,217.13l67.15,24.08-1,2.08c-4.4-1.62-11.06-4.06-19.23-7L294.8,228.8c-6.51-2.39-15.81-5.84-27.32-10.17Z"/><path class="cls-32" d="M271.83,243.27s28.94,13.56,33.95,22L284.2,266l-42.07-17.74s-3.44-4-.77-4.92h31.73"/><path class="cls-33" d="M242.4,272.7l35.93,13.8q1.26-10.94,2.5-21.89L240.6,243.74l-7,26.17Z"/><path class="cls-34" d="M279.11,286.5l27.38-2.65s2-18.72-2-20-23.62.73-23.62.73-6.1,12.06-2.5,21.89"/><path class="cls-31" d="M253,237.54l76.75,31.52,20.09-1.84L275.36,237.3Z"/><path class="cls-29" d="M247.23,235.26l82.48,33.54c-.39,1-.78,2-1.16,2.9q-23.73-8.86-47.49-17.83-16.94-6.41-33.83-12.88Z"/><path class="cls-27" d="M247.23,240.92a4.25,4.25,0,0,1,.37,1.32,4.7,4.7,0,0,1-.37,2.48l8.9,1.05.43-1.31Z"/><polygon class="cls-29" points="283.89 220.53 287.12 221.13 287.12 225.81 284.25 225.34 284.25 223.17 283.65 223.17 283.89 220.53"/><polygon class="cls-31" points="289.57 221.25 289.57 223.89 288.38 223.89 288.38 225.81 287.12 225.81 287.12 221.13 289.57 221.25"/><polygon class="cls-24" points="283.89 220.53 287.85 220.53 289.57 221.25 286.74 221.25 283.89 220.53"/><polygon class="cls-29" points="277.01 218.62 280.25 219.21 280.25 223.9 277.37 223.43 277.37 221.25 276.78 221.25 277.01 218.62"/><polygon class="cls-31" points="282.7 219.34 282.7 221.98 281.51 221.98 281.51 223.9 280.25 223.9 280.25 219.21 282.7 219.34"/><polygon class="cls-24" points="277.01 218.62 280.97 218.62 282.7 219.34 279.86 219.34 277.01 218.62"/><path class="cls-31" d="M257.52,217.49l68.13,24.23.55-.92-63.11-22.92Z"/><path class="cls-29" d="M257.08,217.37l68.57,24.09-1,2.09q-19.83-6.81-40-14-14-5-27.8-10.11C256.92,218.74,257,218.05,257.08,217.37Z"/><path class="cls-35" d="M322.53,265.74s19.61,3,20.66,0S347.43,226,347.43,226l-21.74,1.85Z"/><path class="cls-36" d="M329.06,251.28s9.8,1.51,10.33,0,2.11-19.83,2.11-19.83l-10.87.91Z"/><path class="cls-37" d="M346.1,67.67l1.2-.42-.34.51,2.06-.57-.64.92,2.2-.78-1.16,1.29,2.26-.68-1.46,1.33Z"/><path class="cls-37" d="M322,68.09l-1.5-.45c.15.14.28.3.42.45l-2.12-.32a1.21,1.21,0,0,1,.38.43,1.25,1.25,0,0,1,.1.27,6.13,6.13,0,0,1-.86-.11,8.6,8.6,0,0,1-1.14-.27l1.1,1-2.15-.2L318,70.13A6.48,6.48,0,0,1,319.31,69,6.4,6.4,0,0,1,322,68.09Z"/><path class="cls-38" d="M353.79,71.64a6.36,6.36,0,0,1-1.09,2.25,6.16,6.16,0,0,1-4.15,2,28.83,28.83,0,0,1-5.08.38,10.05,10.05,0,0,1-4.4-.75,6.92,6.92,0,0,1-2.3-2,6.7,6.7,0,0,1-1.29-4.32l-4.36.17c0,.83-.25,3.76-2.49,5.24a8.26,8.26,0,0,1-3.34.93,16.26,16.26,0,0,1-6.91-.14,6.64,6.64,0,0,1-3.2-1.45,5.87,5.87,0,0,1-1.7-3.46,7,7,0,0,1,.47-4,17.63,17.63,0,0,1,6.17-2c1.74-.2,6.14-.7,8.65,1.27a5.17,5.17,0,0,0,1.93,1.14,12.13,12.13,0,0,0,2.89.1,8.55,8.55,0,0,0,2.14-.12,5.3,5.3,0,0,0,1.61-.81c2.28-1.62,7-1.77,8.29-1.8a26.48,26.48,0,0,1,4.95.35,22.44,22.44,0,0,1,12.17,6.14,20.3,20.3,0,0,1,4.81,7.88l-1.29.71V78a12.31,12.31,0,0,0-.24-1.91,6.36,6.36,0,0,0-1.85-2.84c-.84-.92-1.93-2.08-3.32-3.36-.29-.23-.69-.53-1.16-.87s-.73-.51-1.26-.82a11,11,0,0,0-1.72-.93,7.72,7.72,0,0,0-2.07-.49A16.38,16.38,0,0,1,353.79,71.64Z"/><path class="cls-39" d="M236.72,199.54a10.2,10.2,0,0,1-6.92-9.41,9.85,9.85,0,0,1,3.53-7.06c.21-.19.37-.31.45-.37A116.81,116.81,0,0,1,283,180.82a12.32,12.32,0,0,1,1.28.59,9.34,9.34,0,0,1,4.62,12.4,3.59,3.59,0,0,1-.17.34,9.68,9.68,0,0,1-4.22,4.18q-16.65.55-33.6.92Q243.77,199.43,236.72,199.54Z"/><path class="cls-40" d="M238.61,181.55a118.36,118.36,0,0,1,12.58-2,123.67,123.67,0,0,1,18.66-.37s1.69.07,11.86,1.46a7.92,7.92,0,0,1,2,.5c1.12.43,2.71,1.31,2.69,1.69-.13,2.2-53,2.51-53.09.2C233.27,182.62,234.86,182.15,238.61,181.55Z"/><path class="cls-41" d="M239.68,184.86c-.4,1.52,12.28,4.36,12.21,7.88,0,1.69-3,3.8-14,6.13q5.58.42,11.55.56a212.07,212.07,0,0,0,34.8-2.11c-8.3.88-14.31-2.37-14.66-5.19s4.61-7.18,12.61-8.31a121.37,121.37,0,0,1-18,.92c-5.93-.12-11.79,0-17.67-.28C243,184.33,239.89,184.12,239.68,184.86Z"/><path class="cls-39" d="M240.22,184a10.18,10.18,0,0,1-6.92-9.41,9.83,9.83,0,0,1,3.54-7.06l.44-.37a117,117,0,0,1,49.27-1.85,9.78,9.78,0,0,1,1.28.57,9.36,9.36,0,0,1,4.64,12.4c-.06.11-.11.23-.17.34a9.68,9.68,0,0,1-4.24,4.18q-16.63.58-33.6.93Q247.29,183.86,240.22,184Z"/><path class="cls-40" d="M242.13,166a114.18,114.18,0,0,1,12.6-2,123.78,123.78,0,0,1,18.67-.39s1.68.07,11.86,1.46a9.06,9.06,0,0,1,1.92.51c1.11.43,2.7,1.3,2.68,1.7-.12,2.2-53,2.5-53.08.19C236.81,167.08,238.4,166.58,242.13,166Z"/><path class="cls-41" d="M243.21,169.29c-.4,1.54,12.29,4.36,12.21,7.88,0,1.67-3,3.79-14,6.12q5.59.44,11.55.56a213.26,213.26,0,0,0,34.8-2c-8.31.92-14.32-2.37-14.66-5.2s4.6-7.18,12.61-8.32a122.66,122.66,0,0,1-18,1c-5.93-.14-11.79,0-17.67-.3C246.5,168.77,243.42,168.55,243.21,169.29Z"/><path class="cls-39" d="M188.9,290.06a10.21,10.21,0,0,1-6.92-9.4,10,10,0,0,1,3.53-7.06l.47-.37a117.24,117.24,0,0,1,49.22-1.78,12.09,12.09,0,0,1,1.27.58,9.34,9.34,0,0,1,4.61,12.41,2.59,2.59,0,0,1-.14.29,9.7,9.7,0,0,1-4.24,4.19q-16.65.57-33.66.93C198.35,289.92,193.63,290,188.9,290.06Z"/><path class="cls-40" d="M190.78,272.1a114,114,0,0,1,12.59-2,122.53,122.53,0,0,1,18.67-.37s1.68.06,11.86,1.46a8,8,0,0,1,2,.5c1.11.42,2.71,1.3,2.69,1.69-.12,2.2-53,2.51-53.11.2C185.41,273.2,187.05,272.7,190.78,272.1Z"/><path class="cls-41" d="M191.87,275.39c-.42,1.54,12.27,4.37,12.2,7.89,0,1.68-3,3.79-14,6.12q5.57.42,11.53.56a214.48,214.48,0,0,0,34.81-2.1c-8.3.87-14.32-2.37-14.66-5.21s4.61-7.17,12.61-8.31a122.73,122.73,0,0,1-18,1c-5.93-.13-11.78,0-17.66-.29C195.16,274.88,192.07,274.67,191.87,275.39Z"/><path class="cls-39" d="M195.2,273.74a10.22,10.22,0,0,1-7-9.41,9.9,9.9,0,0,1,3.54-7.06l.45-.38a117.15,117.15,0,0,1,49.27-1.8,9.48,9.48,0,0,1,6.35,11.82c0,.1-.07.2-.1.31a9.66,9.66,0,0,1-4.74,5.37q-16.63.56-33.6.92Z"/><path class="cls-40" d="M197.07,255.76a116.25,116.25,0,0,1,31.27-2.34s1.68.07,11.86,1.44a8.42,8.42,0,0,1,2,.52c1.11.43,2.7,1.31,2.68,1.69-.12,2.19-53,2.5-53.09.2C191.76,256.86,193.35,256.37,197.07,255.76Z"/><path class="cls-41" d="M198.16,259.07c-.41,1.53,12.28,4.36,12.22,7.88,0,1.69-3,3.79-14,6.13q5.58.42,11.55.56a214.43,214.43,0,0,0,34.8-2.11c-8.31.88-14.31-2.37-14.66-5.19s4.61-7.18,12.61-8.31a121.28,121.28,0,0,1-18,1c-5.93-.12-11.79,0-17.67-.27C201.45,258.54,198.37,258.35,198.16,259.07Z"/><path class="cls-42" d="M138.91,290.41a10.22,10.22,0,0,1-7-9.4,9.9,9.9,0,0,1,3.54-7.06l.46-.38a117,117,0,0,1,49.26-1.85,10,10,0,0,1,5.9,12.95l-.15.39a9.82,9.82,0,0,1-4.22,4.17q-16.66.56-33.66.92Q146,290.32,138.91,290.41Z"/><path class="cls-43" d="M140.79,272.44a118.36,118.36,0,0,1,12.58-2,123.81,123.81,0,0,1,18.67-.39s1.69.07,11.86,1.46a9.6,9.6,0,0,1,2,.51c1.1.44,2.69,1.31,2.68,1.7-.12,2.2-53,2.5-53.1.2C135.42,273.54,137.06,273.05,140.79,272.44Z"/><path class="cls-44" d="M141.89,275.75c-.43,1.54,12.26,4.35,12.19,7.88,0,1.67-3,3.79-14,6.12q5.56.44,11.53.56a213.42,213.42,0,0,0,34.82-2.11c-8.31.87-14.32-2.37-14.67-5.2s4.61-7.18,12.6-8.32a119.81,119.81,0,0,1-18,1c-5.93-.13-11.79,0-17.67-.28C145.17,275.23,142.1,275,141.89,275.75Z"/><path class="cls-42" d="M135.54,273.74a10.22,10.22,0,0,1-6.92-9.41,9.85,9.85,0,0,1,3.53-7.06,5.45,5.45,0,0,1,.46-.38,117.15,117.15,0,0,1,49.27-1.8,11.22,11.22,0,0,1,1.27.58,9.36,9.36,0,0,1,.24,16.92q-16.65.56-33.61.92Z"/><path class="cls-43" d="M137.43,255.76a118.36,118.36,0,0,1,12.58-2,121.1,121.1,0,0,1,18.66-.37s1.69.07,11.86,1.44a9,9,0,0,1,2,.52c1.11.43,2.69,1.31,2.68,1.69-.13,2.19-53,2.5-53.1.2C132.09,256.86,133.68,256.37,137.43,255.76Z"/><path class="cls-44" d="M138.52,259.07c-.42,1.53,12.26,4.36,12.19,7.88,0,1.69-3,3.79-14,6.13q5.56.42,11.53.56a213.18,213.18,0,0,0,34.8-2.11c-8.29.88-14.31-2.37-14.66-5.19S173,259.16,181,258a121.35,121.35,0,0,1-18,1c-5.88-.12-11.8,0-17.68-.27C141.8,258.54,138.71,258.35,138.52,259.07Z"/><path class="cls-42" d="M140.23,256.77a10.19,10.19,0,0,1-6.91-9.4,9.84,9.84,0,0,1,3.52-7.07c.21-.18.37-.3.46-.37a117.2,117.2,0,0,1,49.28-1.8,9.7,9.7,0,0,1,1.27.58,9.34,9.34,0,0,1,.24,16.91q-16.67.57-33.6.93Q147.3,256.67,140.23,256.77Z"/><path class="cls-43" d="M142.15,238.81a111.69,111.69,0,0,1,12.59-2,122.4,122.4,0,0,1,18.66-.38s1.69.06,11.86,1.46a9.68,9.68,0,0,1,1.92.5c1.12.44,2.71,1.31,2.69,1.7-.13,2.19-53,2.5-53.09.19C136.81,239.93,138.4,239.41,142.15,238.81Z"/><path class="cls-44" d="M143.22,242.11c-.42,1.53,12.27,4.36,12.21,7.88,0,1.68-3,3.79-14,6.13,3.72.27,7.57.47,11.54.56a213.18,213.18,0,0,0,34.8-2.11c-8.3.88-14.32-2.37-14.66-5.2s4.61-7.17,12.62-8.31a121.37,121.37,0,0,1-18,.92c-5.93-.13-11.79,0-17.67-.29C146.51,241.59,143.43,241.37,143.22,242.11Z"/><path class="cls-39" d="M185.52,256.77a10.2,10.2,0,0,1-6.92-9.4,9.87,9.87,0,0,1,3.54-7.07c.21-.18.38-.3.46-.37a117.1,117.1,0,0,1,49.26-1.8,9.83,9.83,0,0,1,1.28.58,9.33,9.33,0,0,1,4.64,12.38c-.05.13-.11.25-.17.37a9.71,9.71,0,0,1-4.23,4.16q-16.65.57-33.61.93Q192.58,256.67,185.52,256.77Z"/><path class="cls-40" d="M187.41,238.81a115.86,115.86,0,0,1,12.58-2,122.53,122.53,0,0,1,18.67-.38s1.68.06,11.86,1.46a9,9,0,0,1,2,.5c1.1.44,2.69,1.31,2.67,1.7-.11,2.19-53,2.5-53.09.19C182.08,239.93,183.67,239.41,187.41,238.81Z"/><path class="cls-41" d="M188.56,242.11c-.43,1.53,12.26,4.36,12.19,7.88,0,1.68-3,3.79-14,6.13,3.7.27,7.55.47,11.53.56a213.19,213.19,0,0,0,34.71-2.1c-8.29.88-14.3-2.37-14.65-5.2s4.61-7.17,12.61-8.31a121.31,121.31,0,0,1-18,.92c-5.93-.13-11.79,0-17.67-.29C191.78,241.59,188.7,241.37,188.56,242.11Z"/><path class="cls-39" d="M196.54,239.93a10.21,10.21,0,0,1-6.92-9.41,9.85,9.85,0,0,1,3.53-7.06,5.55,5.55,0,0,1,.46-.37,117.13,117.13,0,0,1,49.23-1.88c.43.17.86.36,1.27.57a9.35,9.35,0,0,1,4.63,12.41c-.06.12-.11.24-.17.35a9.77,9.77,0,0,1-4.22,4.17q-16.66.57-33.61.92Z"/><path class="cls-40" d="M198.44,221.88a118.36,118.36,0,0,1,12.58-2,122,122,0,0,1,18.63-.35s1.69.07,11.86,1.46a8.48,8.48,0,0,1,2,.51c1.1.42,2.7,1.3,2.68,1.68-.13,2.2-53,2.51-53.1.2C193.11,223,194.68,222.48,198.44,221.88Z"/><path class="cls-41" d="M199.51,225.15c-.41,1.54,12.27,4.36,12.2,7.88,0,1.68-3,3.8-14,6.12,3.7.28,7.56.48,11.53.56a214.11,214.11,0,0,0,34.78-2.09c-8.29.91-14.31-2.38-14.66-5.21S234,225.23,242,224.1a121.09,121.09,0,0,1-18,1c-5.93-.13-11.79,0-17.67-.29C202.8,224.66,199.71,224.45,199.51,225.15Z"/><path class="cls-39" d="M185.59,223.86a10.17,10.17,0,0,1-6.92-9.39,9.89,9.89,0,0,1,3.53-7.08,3.94,3.94,0,0,1,.45-.36,117,117,0,0,1,49.27-1.85,11.37,11.37,0,0,1,1.28.58,10,10,0,0,1,5.22,6.27,9.85,9.85,0,0,1-4.94,10.65q-16.66.57-33.61.93Q192.66,223.76,185.59,223.86Z"/><path class="cls-40" d="M187.5,205.9a115.88,115.88,0,0,1,12.58-2,123.67,123.67,0,0,1,18.66-.37s1.69.07,11.86,1.46a9,9,0,0,1,2,.5c1.1.43,2.69,1.31,2.67,1.71-.12,2.18-53,2.5-53.09.18C182.16,207,183.75,206.5,187.5,205.9Z"/><path class="cls-41" d="M188.56,209.2c-.42,1.53,12.26,4.36,12.19,7.88,0,1.67-3,3.78-14,6.11q5.57.42,11.53.57a215.42,215.42,0,0,0,34.8-2.1c-8.29.91-14.31-2.38-14.66-5.2s4.62-7.19,12.61-8.32a120,120,0,0,1-18,.93c-5.93-.12-11.79,0-17.68-.28C191.87,208.67,188.78,208.48,188.56,209.2Z"/><path class="cls-20" d="M372.67,57.55a12.5,12.5,0,0,1,.71,3.09,12.08,12.08,0,0,1-.11,3.12,5,5,0,0,0,.69-4.15A4.69,4.69,0,0,0,372.67,57.55Z"/><path class="cls-45" d="M341.52,173.46l-.45-.07h-.31L337.88,178l.72.09.79-1.29,1.17.15,1.18.15.42,1.44.85.11Zm-.88,2.95-1-.12,1.23-2,.66,2.24Z"/><polygon class="cls-45" points="335.04 177.63 333.63 172.45 334.41 172.55 335.56 176.78 337.77 172.97 338.46 173.07 335.78 177.72 335.04 177.63"/><path class="cls-45" d="M331.21,174.81a2,2,0,0,0,.9-.46,1.29,1.29,0,0,0,.41-.8,1,1,0,0,0-.3-.92,2,2,0,0,0-1.18-.46h0l-1.63-.21-.69,4.92.77.1.3-2.08.73.09.1.2,1.19,2.08,1,.12Zm-.51-.43a3.21,3.21,0,0,1-.62,0h-.25l.25-1.79.48.06.37.07c.58.14.84.43.78.85a1,1,0,0,1-.49.71A1.3,1.3,0,0,1,330.7,174.38Z"/><polygon class="cls-45" points="324.53 176.3 325.23 171.39 328.31 171.77 328.24 172.3 325.94 172.02 325.72 173.58 327.66 173.83 327.59 174.34 325.65 174.09 325.4 175.87 327.87 176.18 327.79 176.72 324.53 176.3"/><path class="cls-45" d="M320.1,175.64l.09-.69a4.06,4.06,0,0,0,1.49.58,1.15,1.15,0,0,0,.77-.12.75.75,0,0,0,.25-1v0a2.63,2.63,0,0,0-.61-.54l-.35-.24a3.18,3.18,0,0,1-.91-.8,1.07,1.07,0,0,1-.19-.77,1.11,1.11,0,0,1,.59-.87,1.71,1.71,0,0,1,1.23-.23,5.52,5.52,0,0,1,1.32.37l-.09.63a4.29,4.29,0,0,0-1.25-.47,1.06,1.06,0,0,0-.7.11.57.57,0,0,0-.34.45.6.6,0,0,0,.14.46,3,3,0,0,0,.64.54l.38.25a3.89,3.89,0,0,1,.91.81,1.12,1.12,0,0,1,.16.8,1.2,1.2,0,0,1-.67.93,2.42,2.42,0,0,1-1.45.21A6.7,6.7,0,0,1,320.1,175.64Z"/><path class="cls-45" d="M343.41,173.75h.15l.07.07a.13.13,0,0,1,0,.12.27.27,0,0,1-.06.12h-.14l.06.06a.47.47,0,0,1,.07.12l.06.13h-.17l-.08-.16a.24.24,0,0,0-.06-.11v-.17h.14a.09.09,0,0,0,0-.07h-.13Zm-.37.63.09-.66h.28v.11h-.11V174h.11v.14h-.1v.27Z"/><path class="cls-46" d="M343.22,174.81a.73.73,0,0,1-.64-.79.74.74,0,0,1,.82-.61.71.71,0,0,1,.63.78h0A.74.74,0,0,1,343.22,174.81Zm.16-1.25a.57.57,0,0,0-.63.47.55.55,0,0,0,.48.61.57.57,0,0,0,.63-.47A.55.55,0,0,0,343.38,173.56Z"/><polygon class="cls-45" points="314.35 175 315.05 170.1 315.87 170.21 318.34 174.37 318.87 170.58 319.59 170.68 318.91 175.58 318.09 175.49 315.61 171.31 315.08 175.1 314.35 175"/><path class="cls-45" d="M313,170.42a2.93,2.93,0,0,0-1.92-.91h0A2.87,2.87,0,0,0,309,170a2.68,2.68,0,0,0-.53,3.74,3,3,0,0,0,1.93.93h0a3,3,0,0,0,2.12-.45,2.74,2.74,0,0,0,.51-3.76Zm-1.1,3.31a1.77,1.77,0,0,1-1.45.38h0a1.85,1.85,0,0,1-1.33-.73,2.58,2.58,0,0,1,.43-3A1.82,1.82,0,0,1,311,170h0a1.84,1.84,0,0,1,1.32.72,2.56,2.56,0,0,1-.42,3Z"/><path class="cls-45" d="M306.77,173.79a4,4,0,0,1-1.71.16,2.42,2.42,0,0,1-1.75-.92,3.14,3.14,0,0,1,.54-3.81,2.55,2.55,0,0,1,2-.43,7,7,0,0,1,1.57.42l-.07.65a5.27,5.27,0,0,0-1.59-.55,1.64,1.64,0,0,0-1.36.36,2.3,2.3,0,0,0-.66,1.48,2.27,2.27,0,0,0,.27,1.55,1.76,1.76,0,0,0,1.26.7,3.32,3.32,0,0,0,1.62-.23Z"/><path class="cls-47" d="M300.78,169.51a1,1,0,0,1,.93,1,.28.28,0,0,1,0,.09,1.05,1.05,0,0,1-1.18.87,1,1,0,0,1-.93-1,.28.28,0,0,1,0-.09h0A1.05,1.05,0,0,1,300.78,169.51Z"/><path class="cls-47" d="M299.45,169.68a2.78,2.78,0,0,0-1.76,2.37,3.45,3.45,0,0,0,1.81,3.23,2.85,2.85,0,0,0,.18-3.55C299.33,171,299,170.38,299.45,169.68Z"/><path class="cls-45" d="M300.06,165.91a1.26,1.26,0,0,1,1.13,1.38v0a1.29,1.29,0,0,1-1.45,1.07,1.25,1.25,0,0,1-1.13-1.38v0h0a1.27,1.27,0,0,1,1.44-1.07Z"/><path class="cls-45" d="M297.75,173.85a3.48,3.48,0,0,1-.43-2,2.93,2.93,0,0,1,1.59-2.38c-.55-1.33-1.17-2.41,0-3.7a4.86,4.86,0,0,0-2.51,6.41,4.81,4.81,0,0,0,1.63,2A2.48,2.48,0,0,1,297.75,173.85Z"/><path class="cls-48" d="M341.39,173.38l-.46,0h-.32L337.73,178l.72.09.8-1.28,1.17.14,1.17.15.42,1.44.86.11Zm-.89,3-1-.12,1.22-2,.67,2.23Z"/><polygon class="cls-48" points="334.9 177.5 333.49 172.33 334.28 172.43 335.43 176.67 337.63 172.86 338.32 172.94 335.64 177.6 334.9 177.5"/><path class="cls-48" d="M331.08,174.69a2,2,0,0,0,.9-.46,1.21,1.21,0,0,0,.4-.79,1,1,0,0,0-.3-.93,2.09,2.09,0,0,0-1.17-.47h0l-1.63-.21-.69,4.93.79.09.28-2.07.73.08.11.21,1.14,2,1,.13Zm-.5-.39a3.21,3.21,0,0,1-.62,0h-.25l.25-1.78.49.07.37,0c.57.15.83.43.78.86a1,1,0,0,1-.49.72A1.37,1.37,0,0,1,330.58,174.3Z"/><polygon class="cls-48" points="324.4 176.17 325.09 171.27 328.17 171.66 328.1 172.19 325.8 171.89 325.59 173.47 327.52 173.71 327.45 174.22 325.52 173.98 325.26 175.75 327.74 176.07 327.67 176.6 324.4 176.17"/><path class="cls-48" d="M320,175.52l.09-.69a4.27,4.27,0,0,0,1.49.59,1.25,1.25,0,0,0,.78-.14.65.65,0,0,0,.35-.52.68.68,0,0,0-.11-.52,2.27,2.27,0,0,0-.62-.53l-.35-.24a3.36,3.36,0,0,1-.91-.81,1.06,1.06,0,0,1-.19-.77,1.14,1.14,0,0,1,.59-.88,1.91,1.91,0,0,1,1.24-.21,5.4,5.4,0,0,1,1.31.35l-.09.64a4.29,4.29,0,0,0-1.25-.47,1.06,1.06,0,0,0-.7.12.57.57,0,0,0-.3.76v0a.38.38,0,0,0,.09.13,3.05,3.05,0,0,0,.64.55l.38.25a4.09,4.09,0,0,1,.91.8,1.07,1.07,0,0,1,.16.82,1.19,1.19,0,0,1-.67.92,2.42,2.42,0,0,1-1.45.21A6.74,6.74,0,0,1,320,175.52Z"/><path class="cls-48" d="M343.27,173.64h.15a.08.08,0,0,1,.08.07.17.17,0,0,1,0,.1.21.21,0,0,1-.07.13h-.14l.07.07.06.12.07.13h-.18l-.08-.14a.22.22,0,0,0-.05-.11v-.08h.13v-.11h-.12Zm-.36.61.09-.65h.27v.11h-.19v.22h.14v.14h-.07v.27Z"/><path class="cls-49" d="M343.08,174.69a.71.71,0,0,1-.63-.78h0a.74.74,0,0,1,.82-.61.72.72,0,0,1,.63.79A.75.75,0,0,1,343.08,174.69Zm.16-1.23a.55.55,0,0,0-.63.46.57.57,0,0,0,1.12.15h0a.54.54,0,0,0-.47-.61Z"/><polygon class="cls-48" points="314.22 174.89 314.91 169.98 315.74 170.09 318.21 174.25 318.73 170.46 319.45 170.55 318.78 175.47 317.95 175.37 315.47 171.19 314.96 174.98 314.22 174.89"/><path class="cls-48" d="M312.88,170.31a2.9,2.9,0,0,0-2-.92h0a2.91,2.91,0,0,0-2.11.44,2.5,2.5,0,0,0-1,1.78,2.45,2.45,0,0,0,.5,2,3,3,0,0,0,1.92.93h0a3.07,3.07,0,0,0,2.13-.44,2.72,2.72,0,0,0,.51-3.76Zm-1.1,3.31a1.79,1.79,0,0,1-1.46.37h0a1.8,1.8,0,0,1-1.31-.72,2.55,2.55,0,0,1,.41-3,1.86,1.86,0,0,1,1.46-.37h0a1.79,1.79,0,0,1,1.33.71,2.61,2.61,0,0,1-.42,3Z"/><path class="cls-48" d="M306.63,173.66a3.67,3.67,0,0,1-1.71.17,2.47,2.47,0,0,1-1.72-.89,3.07,3.07,0,0,1,.61-3.82,2.54,2.54,0,0,1,1.91-.43,6.66,6.66,0,0,1,1.59.42l-.09.65a5.3,5.3,0,0,0-1.58-.55,1.66,1.66,0,0,0-1.37.37,2.4,2.4,0,0,0-.66,1.47,2.22,2.22,0,0,0,.28,1.55,1.7,1.7,0,0,0,1.26.71,3.53,3.53,0,0,0,1.61-.23Z"/><path class="cls-50" d="M300.66,169.38a1,1,0,0,1,.95,1,.34.34,0,0,1,0,.1,1,1,0,0,1-1.15.91h-.06a1,1,0,0,1-.9-1.08s0-.06,0-.09A1.06,1.06,0,0,1,300.66,169.38Z"/><path class="cls-50" d="M299.31,169.54a2.81,2.81,0,0,0-1.76,2.38,3.38,3.38,0,0,0,1.81,3.21,2.82,2.82,0,0,0,.18-3.55C299.19,170.9,298.86,170.25,299.31,169.54Z"/><path class="cls-48" d="M299.92,165.79a1.25,1.25,0,1,1-.32,2.47,1.25,1.25,0,0,1-1.12-1.39h0A1.29,1.29,0,0,1,299.92,165.79Z"/><path class="cls-48" d="M297.62,173.74a3.38,3.38,0,0,1-.43-2,3,3,0,0,1,.6-1.58,3,3,0,0,1,1-.82c-.57-1.32-1.19-2.4,0-3.7a4.86,4.86,0,0,0-.9,8.42A2.88,2.88,0,0,1,297.62,173.74Z"/></g></g></svg>