<svg xmlns="http://www.w3.org/2000/svg" viewBox="0 0 386.2 314.77"><defs><style>.cls-1{fill:#ebf2fb;}.cls-2{fill:#2c2513;}.cls-3{fill:#131508;}.cls-4{fill:#594d35;}.cls-5{fill:#f6d4bb;}.cls-11,.cls-5,.cls-6,.cls-9{stroke:#1d1d1b;stroke-miterlimit:10;}.cls-5,.cls-6,.cls-9{stroke-width:0.42px;}.cls-6{fill:#b67756;}.cls-7{fill:#7bab00;}.cls-8{fill:#abd450;}.cls-9{fill:#3e4c9c;}.cls-10{fill:#7cba3e;opacity:0.2;}.cls-11{fill:#343e7e;stroke-width:0.47px;}</style></defs><g id="Capa_2" data-name="Capa 2"><g id="Capa_1-2" data-name="Capa 1"><path class="cls-1" d="M385.66,265.64s-37.52,74-206.86,40.38c0,0-109.13,24.66-147.76-34.15-15.49-23.58-13.21-57-13.21-57-.12-3.74-.07-6.85,0-9,0,0-57.5-121.45,34-152.06,0,0-10.24-48.13,48.25-53.81H386.2Z"/><path class="cls-2" d="M144.59,155.35a208.69,208.69,0,0,1,52.27-13.85c65.4-8.37,104.47,18.9,111.87,25.07,3.22,2.69,8.74,7.29,9.38,14.08.62,6.57-4,9.19-3.27,16.71s6,12.67,6.86,13.47c7.21,6.82,13.53,2.95,18.82,9.1,4.68,5.43,5.08,14.63,1.57,20.17a13.07,13.07,0,0,1-5.12,4.65c-19.39,9.59-137.58,27.31-137.58,27.31l-66.75-89.68Z"/><path class="cls-3" d="M108.08,270.1c.44-.17,76-21.3,76-21.3q-1.35-33.26-2.71-66.52c-7.06-8.36-11.31-9.22-13.84-8.6-5.06,1.23-5.21,8.81-11.41,10.47-4.36,1.17-6.26-2-12-1.68-5.94.38-10,4.24-12.23,6.11-18,15.37-50.13,14.29-46.21,26.56a146,146,0,0,1,5.12,21.43c.6,3.78,1,6.89,1.24,8.94"/><path class="cls-4" d="M109.37,271.05S138.7,243.43,155,256.4l14.36-7.52S256,247.08,258,260c0,0,29.8-25.77,45.38-11.18l34.34-4.47S256,334.08,109.37,271.05Z"/><path class="cls-5" d="M294.14,38.78s-41.89,53.11-62.46,67.32l-20.38,23s-15.9,9.64-32,36.52c0,0-3.56,22-8.61,31a115.43,115.43,0,0,1-5,13.52A117.42,117.42,0,0,1,158,224.86s-9.73,9.53,5.61,13.27a13.54,13.54,0,0,0,4.6-.38,15.32,15.32,0,0,0,8.74-6.53,29.62,29.62,0,0,0,2.87-4.69c1.87-3.84,1.91-6.12,3.36-9.9a37.06,37.06,0,0,1,3.87-7.17c2.34-3.81,5.39-10.07,8.16-20.7,1.63-1.11,2.64-1.49,3-1.15.6.51-.13,2.58-2.17,6.23a33.71,33.71,0,0,0-5.32,7.67,34.12,34.12,0,0,0-3.54,13c-1.5,2.16-3,4.47-4.49,6.92a129.1,129.1,0,0,0-9.53,19.26c-.64,1.09-6.4,11.11-5.3,16.89a6.12,6.12,0,0,0,1.65,3.45,6.75,6.75,0,0,0,4.94,1.64l5.19-1.64,23.08-32.22,1.89-2.64,18.23-25.44s-16.46,26.56-17,26.74A221.51,221.51,0,0,1,193.4,246.3c-4.38,5.94-8.76,11.25-13,16a7,7,0,0,0,10.72,7.6,21,21,0,0,0,7.3-2.76c2.07-1.28,4.52-4,9.34-9.39,1.76-2,2.66-3,3.74-4.3,2.27-2.79,4-5.26,5.24-7.11a105.3,105.3,0,0,0,10.85-16.46c.41-.81,1.77-3.49,3.92-7.67,1.63-3.14,3-5.71,3.87-7.41a121.11,121.11,0,0,1-32.35,51.43,14.47,14.47,0,0,0,4.13.91c2.74.11,6.81-.45,12.14-3.16,0,0,8.23-14.4,11-11l.75-.93c2.93-3.68,13.51-17.43,15-25.81,0,0-12.72,26.74-14.21,26.74s7.66,2.43,8,7.67c0,0,6-1.38,6.73-.6l-.75-.78s13-39.6,12.91-40.14a40.23,40.23,0,0,0,.37-21.7l-.56-31.74s22.63-28.85,29.17-29.6L337.72,81.6S311.16,41.21,294.14,38.78Z"/><path class="cls-6" d="M99.15,235.64q-.2-11.13-.37-22.25l8.6-10.85,5.61-2.62,6.73-3-12-7.11L88.86,200.11c-.62,2.62-1.24,5.23-1.87,7.85l-.93,13.84Z"/><path class="cls-5" d="M105.13,61.67s4.68-9.72,11.32-10.1c0,0,46.84-13.27,57.5-4.67L159,96.64l-12.9,40.21a62.59,62.59,0,0,0-.13,24.81,25.89,25.89,0,0,1-1.44,8.15,26.42,26.42,0,0,1-6.34,10q1.51,7.13,3,14.23a37.73,37.73,0,0,1,7.36,31c-1.08,4.61-3.19,5.62-3.76,5.84-3.76,1.52-10.37-2.71-15-11.76l-16.08-27.31s-12.72-16.27-19.63.75c0,0-1.13,10.29-3.37,9.35,0,0,2.06,7.86,0,13.84a12.38,12.38,0,0,1,2.48,7,12.1,12.1,0,0,1-1.11,5.44c10.32,7.77,15.28,16.21,13,20.67-.49.94-1.58,2.27-4.45,3.14a35.33,35.33,0,0,1-4.36-1.69c-15.35-7.11-22-23.14-24.75-31.47a62.93,62.93,0,0,0,30.86,35.91c9.35,3.12,14.49,8.69,13.65,12.52-.15.66-.76,2.61-4.49,4.31l-15-6.55L81.25,253.67A27,27,0,0,1,70.93,240a25.11,25.11,0,0,1-1.15-7.44,148.39,148.39,0,0,1-1.1-42.07,10,10,0,0,1-1.58-3.21c-1.58-5.57,2.46-10.59,3.06-11.31L95.4,149s7.48-6.74,6.18-22.44C101.58,126.57,107.93,67.28,105.13,61.67Z"/><path class="cls-7" d="M109.47,194.56c-.53,5-6.89,10.43-13.1,9-4.87-1.1-8.64-6.15-8.44-12.15a30.2,30.2,0,0,1,4.49-16.58,16.36,16.36,0,0,1,9.78,2.56C107.47,180.9,110.22,187.53,109.47,194.56Z"/><path class="cls-7" d="M114.36,192.94a34.47,34.47,0,0,1,2.8-22.61,9.88,9.88,0,0,1,16.23-2.58,19,19,0,0,0-11,4.19c-7.56,6.27-6.7,16.27-6.61,17.2"/><path class="cls-7" d="M137.11,208.52s11.48,15.27,19.58,17.92l9.07-16.3s0-9.28-18.74-13.59c0,0-16.83-2-21.32,2.35s12,7.06,12,7.06Z"/><path class="cls-8" d="M126.64,203.75a28.2,28.2,0,0,1,3.37,1.41c2.7,1.33,3.54,2.27,5,2.05s2.33-1.54,2.69-1.25-.5,1.3-.56,2.56c-.09,2.16,2.18,3.55,5.52,6.62a63.49,63.49,0,0,1,4.72,4.86c2.09-11.93-.19-15.93-2.38-17.46-3.17-2.21-7.66,1.13-15.9-3-6.95-3.48-9.84,8.09-10.61,12.12-.16.83-.24,1.34-.24,1.34Z"/><path class="cls-8" d="M118.22,213l-4.11.94s-3.18,7.66-9.54,4.11c0,0-5.79-1.87-1.31-5.05,0,0,4.87-5.61,8.79-1.12l4.87.19s.91-2.62-7-18.52c0,0-9.62-19.26-17.47-18.7,0,0,10.84-1.31,13.84-7.11,0,0,6.54,20.95,7.29,23.19s.93.94.93.94A42.72,42.72,0,0,1,120,172.43a18,18,0,0,1,6.61-3.74c2.74-.84,6.57-1.23,7.11-.06a2.38,2.38,0,0,1-.07,1.37,3.1,3.1,0,0,1-.86,1.4,31.92,31.92,0,0,0-3.06,3.15c-.53.61-1,1.22-1.44,1.81-.74,1.31-1.49,2.61-2.24,3.92-.48,1-1.18,2.4-2.06,4.12a38.74,38.74,0,0,1-3,5.42c-2,2.63-3.75,3.22-4.86,4.3C114.15,196.09,113.26,200.83,118.22,213Z"/><path class="cls-7" d="M114.11,214c-9.88,1-12.22,1.81-12.21,2.38,0,.35.87,1,1.36,1.25a4.26,4.26,0,0,0,1.31.48,5.39,5.39,0,0,0,3.49,1.06,5.25,5.25,0,0,0,2.29-.78A9.29,9.29,0,0,0,114.11,214Z"/><path class="cls-7" d="M116.72,213.35c.65,3,1.29,6,1.94,9a1.23,1.23,0,0,1,.87-.06c.63.22.65,1,1.37,1.25.29.1.34,0,.63.12a1.78,1.78,0,0,1,.87.94c-1.83-8.13-3.42-12.15-4.74-12.07a.77.77,0,0,0-.35.12A2,2,0,0,0,116.72,213.35Z"/><path class="cls-8" d="M117.16,213.76c.65,2.67,1.29,5.35,1.93,8l1.25.56-2.13-7.59Z"/><path class="cls-9" d="M105.69,63.09a7.68,7.68,0,0,1,.19-2.06c3.47-14.75,52.32-14.77,66.2-14.59q-.54,4.14-1.1,8.27s13.05,5.13,11.5-12.32V11.47L98.77,22.69,96.34,61.4c0,3.61,2.9,6.06,5.4,5.75A5.08,5.08,0,0,0,105.69,63.09Z"/><path class="cls-10" d="M182.48,21.2,99,22.93c0,.48,0,1-.05,1.46h83.52Z"/><path class="cls-10" d="M182.24,30.71l-83.92-.16v-.64l83.93,0Z"/><path class="cls-10" d="M182.48,39.9l-84.59-.19L98.17,37l84.31.28Z"/><path class="cls-10" d="M159.09,46.11l2.15.1-.33-31.56-1.78.19Z"/><path class="cls-10" d="M150.67,46.54l2.11,0-.33-30.76-1.69.23Z"/><path class="cls-10" d="M136.55,47.61l3-.23V17.46l-2.61.51Z"/><path class="cls-10" d="M122.29,50.09l2.76-.66q0-15-.07-30l-2.22.14Q122.52,34.85,122.29,50.09Z"/><path class="cls-10" d="M111.63,54.11l2.71-1.36.24-32-3,.43Z"/><path class="cls-10" d="M167.27,46.14l2.2.07V13.53l-1.5.23Q167.63,29.95,167.27,46.14Z"/><path class="cls-10" d="M176.25,55.09l1.68-.51-.24-42.22-2.15.33Q175.9,33.89,176.25,55.09Z"/><path class="cls-10" d="M102.7,66.45a3.76,3.76,0,0,0,1.08-.6,3.91,3.91,0,0,0,.93-1.08q.39-21.31.79-42.64l-2.47.19Z"/><path class="cls-10" d="M117.85,51.52l-20.6-.17.28-2.71,23.28.49,7.3-.16q-2.7.49-5.65,1.24C120.85,50.63,119.31,51.07,117.85,51.52Z"/><path class="cls-10" d="M105.54,62.1l-9-.29.16-2.59,9.41.28a5.11,5.11,0,0,0-.59,1.81A4.33,4.33,0,0,0,105.54,62.1Z"/><path class="cls-10" d="M181.88,49.69l-10-.44c.12-.89.24-1.78.35-2.67l10,.49C182.13,48,182,48.82,181.88,49.69Z"/><path class="cls-11" d="M268.4,57.21l7.2,4,7.82-8.55S269.56,51.27,268.4,57.21Z"/><path class="cls-9" d="M273.46,56.23a7.5,7.5,0,0,1,1.44-1.48c12-9.25,49.91,21.56,60.56,30.47l-6.08,5.72s6.88,12.21,16.7-2.3l19.52-24-72-44.12L267.27,49c-2.28,2.8-1.58,6.53.56,7.87A5.1,5.1,0,0,0,273.46,56.23Z"/><path class="cls-10" d="M359.46,72.2,293.62,20.86l-1,1.1,64.78,52.71Z"/><path class="cls-10" d="M353.27,79.43l-65-53.09.4-.49,65.14,52.93Z"/><path class="cls-10" d="M347.66,86.7,282.15,33.17l1.93-1.93,65.23,53.43Z"/><path class="cls-10" d="M325.58,76.76l1.61,1.43,19.67-24.68-1.5-1Z"/><path class="cls-10" d="M318.79,71.78l1.66,1.29L339.61,49l-1.45-.88Q328.47,59.94,318.79,71.78Z"/><path class="cls-10" d="M307.16,63.7l2.47,1.71L328.51,42.2l-2.35-1.26Z"/><path class="cls-10" d="M294.53,56.62l2.56,1.24Q306.51,46.21,316,34.57l-1.82-1.3Q304.34,45,294.53,56.62Z"/><path class="cls-10" d="M283.72,53l3,.66Q296.86,41.34,307.05,29l-2.55-1.54Z"/><path class="cls-10" d="M331.91,81.94l1.67,1.44L354.2,58l-1.31-.76Q342.41,69.61,331.91,81.94Z"/><path class="cls-10" d="M333.23,94.55l1.63.67,26.46-32.9-1.87-1.1Z"/><path class="cls-10" d="M269,57a3.93,3.93,0,0,0,2.62,0l27.52-32.58-2-1.42Z"/><path class="cls-10" d="M290.18,54.93,274.31,41.8l1.93-1.93L294,55l5.76,4.47c-1.6-.87-3.32-1.74-5.16-2.59Q292.31,55.78,290.18,54.93Z"/><path class="cls-10" d="M274,55.37l-6.76-5.88,1.76-1.9,7.12,6.15a5.17,5.17,0,0,0-1.6,1A4.53,4.53,0,0,0,274,55.37Z"/><path class="cls-10" d="M341,93.92l-7.45-6.63,2-1.84L343,92.13Z"/><path class="cls-7" d="M287.88,192.51c-.53,5-6.89,10.44-13.11,9-4.86-1.1-8.63-6.15-8.44-12.15a30.76,30.76,0,0,1,.63-6.91,30.4,30.4,0,0,1,3.86-9.67,16.45,16.45,0,0,1,9.79,2.55C285.87,178.85,288.62,185.49,287.88,192.51Z"/><path class="cls-7" d="M292.76,190.89a34.43,34.43,0,0,1,2.8-22.6,9.87,9.87,0,0,1,16.23-2.58,18.83,18.83,0,0,0-11,4.19c-7.57,6.27-6.71,16.26-6.62,17.19"/><path class="cls-7" d="M315.52,206.48S327,221.75,335.09,224.4c.56.2,5.08,1.79,8.5-.61,3.72-2.6,4.87-9,1.32-14.53a19.79,19.79,0,0,0-3.1-6.34c-5.46-7.33-14.43-8.25-16.38-8.41,0,0-16.83-2-21.32,2.35s12,7,12,7Z"/><path class="cls-8" d="M305,201.71a27.85,27.85,0,0,1,3.37,1.4c2.7,1.34,3.54,2.28,5,2.06s2.33-1.54,2.7-1.26-.51,1.3-.56,2.57c-.1,2.15,2.17,3.55,5.51,6.62a61.21,61.21,0,0,1,4.72,4.85c2.1-11.92-.19-15.92-2.38-17.46-3.16-2.21-7.66,1.13-15.9-3-7-3.47-9.83,8.1-10.61,12.13-.16.83-.23,1.34-.23,1.34Z"/><path class="cls-8" d="M296.63,211l-4.12.93s-3.18,7.67-9.54,4.12c0,0-5.79-1.87-1.3-5.05,0,0,4.86-5.61,8.79-1.12l4.86.18s.91-2.62-7-18.51c0,0-9.62-19.26-17.47-18.7,0,0,10.85-1.31,13.84-7.11,0,0,6.54,20.95,7.29,23.19s.94.93.94.93a42.14,42.14,0,0,1,1.37-9.22,42.76,42.76,0,0,1,4.17-10.22,18.16,18.16,0,0,1,6.61-3.75c2.75-.83,6.57-1.23,7.11-.06a2.47,2.47,0,0,1-.06,1.37,3.24,3.24,0,0,1-.87,1.41,31.75,31.75,0,0,0-3.06,3.14c-.52.62-1,1.22-1.43,1.81l-2.25,3.93c-.48,1-1.18,2.4-2.06,4.11a40.17,40.17,0,0,1-3,5.43c-1.94,2.63-3.75,3.22-4.86,4.3C292.55,194.05,291.66,198.79,296.63,211Z"/><path class="cls-7" d="M292.51,211.9c-9.88,1-12.21,1.81-12.21,2.39,0,.35.88,1,1.36,1.24A4.61,4.61,0,0,0,283,216a5.4,5.4,0,0,0,3.5,1.06,5.07,5.07,0,0,0,2.28-.79A9.24,9.24,0,0,0,292.51,211.9Z"/></g></g></svg>