<svg xmlns="http://www.w3.org/2000/svg" viewBox="0 0 483.66 361.62"><defs><style>.cls-1{fill:#afafaf;}.cls-2{fill:#2a778c;opacity:0.1;}.cls-3{fill:#ababab;}.cls-4{fill:#90918c;}.cls-5{fill:#110d0d;}.cls-6{fill:#c18b76;}.cls-7,.cls-9{fill:#d29a80;}.cls-8{fill:#bd6c66;}.cls-10,.cls-11,.cls-12,.cls-13,.cls-14,.cls-16,.cls-29,.cls-36,.cls-37,.cls-9{stroke:#1d1d1b;}.cls-10,.cls-11,.cls-12,.cls-13,.cls-14,.cls-16,.cls-29,.cls-36,.cls-37,.cls-44,.cls-45,.cls-46,.cls-9{stroke-miterlimit:10;}.cls-12,.cls-9{stroke-width:0.41px;}.cls-10{fill:#fff;}.cls-10,.cls-36{stroke-width:0.47px;}.cls-11{fill:#f7f0ed;stroke-width:0.46px;}.cls-12{fill:#331104;}.cls-13,.cls-14{fill:#f4f4f4;}.cls-13{stroke-width:0.21px;}.cls-14{stroke-width:0.12px;}.cls-15{fill:#1d1213;}.cls-16,.cls-29{fill:none;}.cls-16{stroke-width:0.18px;}.cls-17{fill:#17191e;}.cls-18,.cls-46,.cls-49{fill:#b6c931;}.cls-19{fill:#0a1660;}.cls-20{fill:#99e4f7;}.cls-21{fill:#68bedb;}.cls-22{fill:#e5e5e3;}.cls-23{fill:#3b3a3c;}.cls-24{fill:#525653;}.cls-25{fill:#96a3a3;}.cls-26{fill:#475151;}.cls-27{fill:#7a888d;}.cls-28{fill:#55514e;}.cls-29,.cls-37{stroke-width:1.46px;}.cls-30{fill:#868684;}.cls-31{fill:#8d8888;}.cls-32{fill:#506167;}.cls-33{fill:#7a93a1;}.cls-34{fill:#747a77;}.cls-35{fill:#36322f;}.cls-36{fill:#1d1d1b;}.cls-37{fill:#2e51a0;opacity:0.2;}.cls-38{fill:#d4d3cc;}.cls-39{fill:#bab9b6;}.cls-40{fill:#f2f5fc;}.cls-41{fill:#cab195;}.cls-42{fill:#b89c7f;}.cls-43{fill:#e4dad2;}.cls-44,.cls-45,.cls-47,.cls-48{fill:#000f9f;}.cls-44,.cls-45,.cls-46{stroke:#fff;}.cls-44,.cls-46,.cls-47,.cls-49{fill-rule:evenodd;}</style></defs><g id="Capa_2" data-name="Capa 2"><g id="Capa_1-2" data-name="Capa 1"><rect class="cls-1" x="198.49" y="0.05" width="12.33" height="361.58"/><path class="cls-2" d="M206,361.62H69.64C55.82,346.31.92,282,0,183.31-.92,81.51,56.28,14.85,69.64.05H206Z"/><path class="cls-3" d="M409.41.05H355.8q3,180.78,6,361.57H410.5Q409.95,180.84,409.41.05Z"/><path class="cls-4" d="M416.41.05q.54,180.78,1.09,361.57h66.16Q482.32,180.81,481,0Z"/><path class="cls-5" d="M382.94,61.35c1.06-1.23,3.54-4.14,7.38-4.41a10.47,10.47,0,0,1,7.28,2.75,15.06,15.06,0,0,1,4.58,6.45,15.8,15.8,0,0,1-.8,12.06,14.65,14.65,0,0,0-3.14,15.62c2.5,5.93,8.37,7.78,9.22,8-7.54,4.84-12.49,4.06-14.5,3.52C378.59,101.47,374.65,71,382.94,61.35Z"/><path class="cls-6" d="M340.36,115.92a43,43,0,0,0,1.35-5.5,47.31,47.31,0,0,0,.37-12.93l35.56-15c4.09-1.62,5.76-1.23,6.46-.41,2.19,2.54-2,12.54-6.7,13-2,.2-2.62-1.42-4.23-1-3.3.88-4.75,8.8-4.46,14.47.1,2.1.69,5.48,1.87,12.24.21,1.22.34,1.94.45,2.37a20,20,0,0,1,.7,3.16c-.29.12-1.91-7.72-7.4-11.5a14.15,14.15,0,0,0-7.63-2.32"/><path class="cls-7" d="M350.55,41.77c-2.78,0-12.45.29-19.57,7.42-6,6-7.24,13.89-8.12,19.41a46.5,46.5,0,0,0-.54,9.06,61.26,61.26,0,0,0,1.4,8.14A60.31,60.31,0,0,0,330,101.42c4.28,7.52,7.12,9,8.25,9.54a13.5,13.5,0,0,0,4.88,1.19,46.53,46.53,0,0,0,17-6.94,47.45,47.45,0,0,0,17.16-20.89S384.84,48.12,350.55,41.77Z"/><path class="cls-7" d="M341.23,73.33s-.72,6.72,5.12,9.71c0,0,10.48,2.11,11.19-5.73v-4s-1.07-4-6.79-3.24C350.75,70.09,341.15,71.09,341.23,73.33Z"/><path class="cls-8" d="M342.11,92.32a19.11,19.11,0,0,1,2.86-.44,18.66,18.66,0,0,1,6.78.79c-2.72,4-6.82,6-10.71,5.27a10,10,0,0,1-5.41-3.29,7.19,7.19,0,0,1,2.91-2.09A6.37,6.37,0,0,1,342.11,92.32Z"/><path class="cls-9" d="M342.13,72.49s-.47,7.85-2.85,9.71a1.82,1.82,0,0,0-.36,2.5,1.52,1.52,0,0,0,1.79-.28,2.2,2.2,0,0,0,3.74.09,1.2,1.2,0,0,1,1.55-.09,1.28,1.28,0,0,1,.36.9"/><path class="cls-10" d="M361.27,72.45C351,67.14,350,73.31,350,73.31c4.33,5.24,11.27-.86,11.47-1.07"/><path class="cls-11" d="M338.19,74.54c-.18-.23-6.37-6.85-10.24-1.17,0,0,.89,6.7,10.06.94"/><ellipse class="cls-12" cx="332.02" cy="73.3" rx="2.04" ry="2.13"/><ellipse class="cls-12" cx="353.71" cy="72.52" rx="2.04" ry="2.13"/><ellipse class="cls-13" cx="331.24" cy="72.9" rx="0.68" ry="0.71"/><ellipse class="cls-13" cx="352.36" cy="72.18" rx="0.68" ry="0.71"/><ellipse class="cls-14" cx="353.71" cy="72.9" rx="0.39" ry="0.4"/><ellipse class="cls-14" cx="333.07" cy="73.61" rx="0.39" ry="0.4"/><path class="cls-5" d="M322,72.49c1.67.58,4.94-21.47,19.36-27.54,7.33-3.09,15-1,20.17,1.12,0,0,15.93,3,15.94,37.74,0,0,7.16-2.26,8.11-5.54.2-1.08,3.79-23-10.85-36.19a32.25,32.25,0,0,0-19-8c-3.49.09-16.06.86-25.2,11.12C320.62,56.33,320.6,72,322,72.49Z"/><path class="cls-15" d="M350.94,62.76c-.77.68-1.84,2.09-1.51,2.66.47.79,3.3-.63,6.34-1.16a18.7,18.7,0,0,1,11,1.67C365.08,64.9,355.17,59.09,350.94,62.76Z"/><path class="cls-15" d="M337.31,63.71c.85.57,2.08,1.84,1.82,2.44-.37.85-3.35-.19-6.42-.33A19,19,0,0,0,322,68.93C323.54,67.67,332.68,60.62,337.31,63.71Z"/><path class="cls-16" d="M378,84.92s10.63-4.94,0,6"/><path class="cls-7" d="M385.49,124.29a54.67,54.67,0,0,1,24.65,7.54c3.91,2.37,13.94,9.17,26.35,35.79a214.31,214.31,0,0,1,16.43,51.54c.07,7.48-.17,15.59-.88,24.24A268.21,268.21,0,0,1,447.93,273q-1.55,13.61-3.08,27.22l-17.38-9.17a32.93,32.93,0,0,0,3.36-12.35,32.49,32.49,0,0,0-.48-8c-2.22-13.33-3.31-26-3.53-29a93.44,93.44,0,0,1,.89-21.11,110.84,110.84,0,0,1-20.18-51.41l-65.68-16.2a88.42,88.42,0,0,0-21.52,17.83c-4.46,5.1-6.44,8.57-10.09,13.66A151.61,151.61,0,0,1,285.91,211l-21.07,12s-10.2-.65-17.14,1.31l-11.06-2.83s11.06-12.36,17.14-10.19l27.5-27.07c19.08-15.57,27.13-29.41,30.91-39.38,1.66-4.36,4.56-13.43,12.88-18.06,5.63-3.15,11.69-3.11,15.91-2.6a9.1,9.1,0,0,0,4.49-3.13,9.22,9.22,0,0,0,1.89-5.13c2.1-1.28,9.44-5.42,17.86-3.66,2.52.53,6.08,1.27,8.64,4.19,1.71,2,1.72,3.45,3.5,5.14C379.77,123.87,383.07,124.29,385.49,124.29Z"/><path class="cls-17" d="M321.49,125.1c2.44-.85,3.17-.56,8.74-1.77,5.8-1.27,6.86-2,7.43-1.36,2,2.21-10.42,12.92-7.75,19.47,1.42,3.49,6.74,4.83,12.5,5.27a154.74,154.74,0,0,0,17,2.33c1.94.16,3.84.27,5.7.36a11.1,11.1,0,0,0,6.31-1.13c1.11-.59,4.07-2.45,8-14.53,1.16-3.52,2-6.62,2.55-9.1a48.91,48.91,0,0,1,42.17,32.48,2.88,2.88,0,0,1-1.49,2c-1.43.48-2.74-1.48-4-1-1.1.46-.72,2.21-2,3a3.82,3.82,0,0,1-3.35,0c.05.87,0,2-.72,2.43-1.1.74-2.94-.74-3.74,0-.64.6.16,1.92-.49,2.44s-1.93-.67-2.76-.16c-1,.64,0,3.05-1.14,3.74-.69.44-1.36-.34-2.11.09s-.68,1.62-1,4c-.18,1.43-.55,2.82-.81,4.23-.41,2.12-.8,4-1,4.88a64.37,64.37,0,0,1-2.31,8,69.39,69.39,0,0,0-2.11,50.33q2.68,6.3,5,13.15c13.38,40.53,8.86,79.14,1.63,107.25H308.54a520.92,520.92,0,0,1-3.38-137.69c1.39-12.7,3.2-24.87,5.33-36.5,1.67-21,1.05-27.17-.1-28a5.69,5.69,0,0,1-1.85-1.66c-.79-1.14-.59-1.85-1.3-2.28s-1.6.24-2.61-.16c-.58-.23-1.2-.83-1.62-2.28a2.23,2.23,0,0,1-4.23-1.14c1.65-4,6.21-14,14-21.15A24,24,0,0,1,321.49,125.1Z"/><path class="cls-18" d="M378.12,121.81a8.21,8.21,0,0,0,2.39,1.62,8.41,8.41,0,0,0,2.45.69Q376,149.8,369,175.48v25.63c.51,2.59,4.71,22.95,15.61,35.12,2.76,3.09,7.56,8.45,15.62,11.07a31.67,31.67,0,0,0,4.34,1.07c-.64,4.82-1.23,9.78-1.74,14.88q-.57,5.65-1,11.14c-.4,5.31-.61,9.21-.64,9.68-.32,5.78-3,23-11.41,65.42a112.91,112.91,0,0,1-33.28-1.32,115.47,115.47,0,0,1-49-22.18c-.53-29.21.17-49.74.91-63.07.9-16.25,1.3-21.8,1.3-21.8,1.84-25.63,3-26.78,2.28-35.47-1.36-15.83-5.71-17.06-4.23-27.66,1.52-11,10.84-23.65,11.63-24.71a338.92,338.92,0,0,0,20.24-30.47l4.94-.84-25.75,41.95a4.41,4.41,0,0,0-.44,3c1.88,7.61,29.52,7.07,45.52,6.2Z"/><path class="cls-19" d="M397.6,249.25s-6.85-16.7,1.18-14.31c0,0,19,13.52.08,14.28Q398.26,249.25,397.6,249.25Z"/><path class="cls-19" d="M407.23,255.54c3.92,8.47-9.63-6.29-9.63-6.29l11.81,3.47Z"/><path class="cls-20" d="M134.78,314.44l237-11.91a10.48,10.48,0,0,1,6.08,2c3.87,3,3.65,8.26,3.59,10.3-.24,8.2.67,24.6,2.09,46.79H179.09a129,129,0,0,1-26.64-22A116.31,116.31,0,0,1,134.78,314.44Z"/><path class="cls-21" d="M379.1,304.34,278.84,253.71l-131.92,2.54a79.76,79.76,0,0,0-12,28.64,75.51,75.51,0,0,0,0,29.55Z"/><path class="cls-22" d="M235.39,205.3s-40.35,8.79,7,11.77c0,0,7.17.2,16.92.26,18.32.11,45.75-.3,51.84-3.56,0,0,10.2-3.27-8.89-8.47Z"/><polygon class="cls-23" points="260.38 222.7 274.26 222.7 274.26 216.9 260.38 216.88 260.38 222.7"/><polygon class="cls-24" points="249 226.46 249.48 238.86 243.79 238.86 242.98 225.48 249 226.46"/><path class="cls-25" d="M258.22,226.6c-2-.63-9.43-.14-9.43-.14l.48,12.4h9Z"/><polygon class="cls-26" points="261.3 256.03 254.31 255.01 255.28 242.49 257.8 242.49 256.91 221.5 280.34 222.51 261.3 256.03"/><polygon class="cls-27" points="265.33 222.92 280.46 222.11 281.67 234.31 282.9 247.09 284.04 247.09 284.04 255.62 262.24 255.62 262.24 249.28 263.22 248.79 265.33 222.92"/><polygon class="cls-28" points="360.26 286.23 360.26 290.09 338.18 291.39 339.35 288.25 360.26 286.23"/><path class="cls-29" d="M365.13,74.76A6.9,6.9,0,0,1,364,77.21a6.3,6.3,0,0,1-4.31,2.11,28.48,28.48,0,0,1-5.29.41c-3.07-.07-4.2-.62-4.57-.82a7.07,7.07,0,0,1-2.4-2.1,7.37,7.37,0,0,1-1.33-4.67l-4.55.18c0,.91-.26,4.08-2.58,5.68a8,8,0,0,1-3.47,1,15.8,15.8,0,0,1-7.18-.15A6.81,6.81,0,0,1,325,77.29a6.46,6.46,0,0,1-1.79-3.75,8,8,0,0,1,.48-4.39A17.71,17.71,0,0,1,330.15,67c1.81-.23,6.38-.77,9,1.38a5.11,5.11,0,0,0,2,1.22c.43.13.59.1,3,.11a7.59,7.59,0,0,0,2.23-.14,5,5,0,0,0,1.68-.87c2.37-1.74,7.31-1.91,8.62-1.95a25.06,25.06,0,0,1,5.13.38,23.11,23.11,0,0,1,12.67,6.65,22.2,22.2,0,0,1,5,8.55l-1.34.77c0-.36,0-.86,0-1.47a14.48,14.48,0,0,0-.25-2.07,7,7,0,0,0-1.93-3.07c-.87-1-2-2.25-3.44-3.64-.31-.25-.72-.57-1.22-.94-.35-.25-.76-.55-1.3-.89a10.83,10.83,0,0,0-1.79-1,8,8,0,0,0-2.16-.53A18.22,18.22,0,0,1,365.13,74.76Z"/><path class="cls-7" d="M441.73,257.71a218.19,218.19,0,0,1-1.5,22c-.68,5.68-1.07,7-1.65,13.07-.48,5.14-.61,8.57-1.48,14.28-.44,2.89-.9,5.25-1.22,6.8v10.48l-3.6,3.79a8.81,8.81,0,0,1-.28,4.25,7.26,7.26,0,0,1-1.92,3.2,7,7,0,0,1-3,1.68l-4.66,7.6-2.25,5.36s-1.07,8.42-4.38,4.54c0,0-.92-.56-1.28-2.75s0-.26,0-.26-2.81,1.28-3.16-6.27a34.82,34.82,0,0,1,5.3-10.82s3.22-9.64,4.39-10.1c0,0-3.88-18.67-7.09-17.25,0,0-.82-1.17-5.31,1.23l-5.91,4.59s-5.36,3.11-7.81-1.48c0,0,1.17-2.3,5.46-5.2,0,0,5.46-5.16,7.7-5.92,0,0,3.27-9.49,13.47-11.17,0,0,1,.49,2.5-7.72l-1.43-23.76S434.25,250.88,441.73,257.71Z"/><path class="cls-30" d="M257.08,224.85l-14.1.63,5.52,1h8.34Z"/><path class="cls-30" d="M276.2,232.37l69.85,26.33.58-1L281,232.88Z"/><path class="cls-28" d="M276.2,232.37l69.85,26.07-1,2.26c-4.58-1.75-11.51-4.4-20-7.62L303.78,245c-6.77-2.58-16.49-6.32-28.43-11C275.63,233.46,275.92,232.92,276.2,232.37Z"/><path class="cls-31" d="M279.89,260.67s30.1,14.69,35.31,23.78l-22.45.79L249,266s-3.58-4.39-.81-5.37h33"/><path class="cls-32" d="M249.27,292.54l37.37,14.94q1.31-11.85,2.6-23.7L247.4,261.19l-7.29,28.33Z"/><path class="cls-33" d="M287.45,307.48l28.48-2.87s2.11-20.3-2.12-21.62-24.57.79-24.57.79-6.34,13.06-2.6,23.7"/><path class="cls-30" d="M260.25,254.47l79.84,34.16,20.9-2-77.43-32.39Z"/><path class="cls-28" d="M254.3,252l85.79,36.32c-.41,1.05-.81,2.09-1.21,3.14q-24.72-9.59-49.4-19.31-17.61-6.93-35.18-13.94Z"/><path class="cls-26" d="M254.3,258.16a4.84,4.84,0,0,1,.38,1.43,5.31,5.31,0,0,1-.38,2.68l9.25,1.14L264,262Z"/><polygon class="cls-28" points="292.43 236.06 295.79 236.7 295.79 241.77 292.8 241.26 292.8 238.91 292.18 238.91 292.43 236.06"/><polygon class="cls-30" points="298.34 236.84 298.34 239.69 297.1 239.69 297.1 241.77 295.79 241.77 295.79 236.7 298.34 236.84"/><polygon class="cls-23" points="292.43 236.06 296.54 236.06 298.34 236.84 295.39 236.84 292.43 236.06"/><polygon class="cls-28" points="285.28 233.99 288.64 234.63 288.64 239.7 285.65 239.19 285.65 236.84 285.03 236.84 285.28 233.99"/><polygon class="cls-30" points="291.19 234.77 291.19 237.62 289.95 237.62 289.95 239.7 288.64 239.7 288.64 234.63 291.19 234.77"/><polygon class="cls-23" points="285.28 233.99 289.39 233.99 291.19 234.77 288.24 234.77 285.28 233.99"/><path class="cls-30" d="M265,232.76,335.87,259l.57-1-65.65-24.81Z"/><path class="cls-28" d="M264.54,232.63l71.33,26.08-1,2.26q-20.62-7.35-41.64-15.17-14.59-5.45-28.92-10.94C264.37,234.11,264.45,233.37,264.54,232.63Z"/><path class="cls-34" d="M332.62,285s20.39,3.26,21.49,0,4.41-43,4.41-43l-22.6,2Z"/><path class="cls-35" d="M339.41,269.35s10.2,1.63,10.75,0,2.2-21.48,2.2-21.48l-11.3,1Z"/><path class="cls-36" d="M357.14,70.55l1.25-.46-.36.55,2.15-.62-.67,1,2.28-.85-1.2,1.4,2.36-.74-1.53,1.45Z"/><path class="cls-36" d="M332,71l-1.56-.5c.15.16.29.33.43.49l-2.2-.34a1.26,1.26,0,0,1,.39.46,1.24,1.24,0,0,1,.11.3c-.28,0-.58-.07-.9-.12a10.2,10.2,0,0,1-1.18-.29l1.14,1.14L326,71.91l1.84,1.29a6.65,6.65,0,0,1,1.38-1.2A6.52,6.52,0,0,1,332,71Z"/><path class="cls-37" d="M365.13,74.84A6.85,6.85,0,0,1,364,77.28a6.32,6.32,0,0,1-4.31,2.12,27.5,27.5,0,0,1-5.29.4c-3.07-.06-4.2-.61-4.57-.81a7.17,7.17,0,0,1-2.4-2.1,7.39,7.39,0,0,1-1.33-4.67l-4.55.18c0,.9-.26,4.08-2.58,5.68a8.29,8.29,0,0,1-3.47,1,16.09,16.09,0,0,1-7.18-.15A6.74,6.74,0,0,1,325,77.36a6.42,6.42,0,0,1-1.79-3.74,8,8,0,0,1,.48-4.39,17.77,17.77,0,0,1,6.43-2.12c1.81-.22,6.38-.76,9,1.38a5.11,5.11,0,0,0,2,1.22c.43.13.59.11,3,.11a7.37,7.37,0,0,0,2.23-.13,5.17,5.17,0,0,0,1.68-.87c2.37-1.75,7.31-1.92,8.62-1.95a25.06,25.06,0,0,1,5.13.38,23,23,0,0,1,12.67,6.65,22.18,22.18,0,0,1,5,8.54l-1.34.77c0-.35,0-.86,0-1.46a14.48,14.48,0,0,0-.25-2.07c-.21-.94-.68-1.63-1.93-3.07-.87-1-2-2.26-3.44-3.64-.31-.25-.72-.58-1.22-.94-.35-.26-.76-.56-1.3-.9a11.55,11.55,0,0,0-1.79-1,7.6,7.6,0,0,0-2.16-.53A18.29,18.29,0,0,1,365.13,74.84Z"/><path class="cls-38" d="M243.36,213.3a11,11,0,0,1-7.24-10.18,10.84,10.84,0,0,1,3.67-7.65c.22-.2.39-.33.48-.4a117,117,0,0,1,51.25-2,11.9,11.9,0,0,1,1.32.63,10.3,10.3,0,0,1,.25,18.32q-17.32.62-35,1Q250.69,213.21,243.36,213.3Z"/><path class="cls-39" d="M245.32,193.85a117.56,117.56,0,0,1,13.09-2.15,124.06,124.06,0,0,1,19.41-.4s1.76.07,12.35,1.58a8.51,8.51,0,0,1,2.06.54c1.16.47,2.81,1.42,2.79,1.84-.13,2.38-55.12,2.71-55.23.21C239.77,195,241.43,194.5,245.32,193.85Z"/><path class="cls-40" d="M246.45,197.43c-.43,1.65,12.76,4.72,12.69,8.54,0,1.82-3.09,4.1-14.53,6.63q5.79.45,12,.61a213.51,213.51,0,0,0,36.2-2.28c-8.63.95-14.89-2.57-15.25-5.63s4.8-7.77,13.12-9a122.14,122.14,0,0,1-18.7,1c-6.12-.13-12.26,0-18.38-.3C249.87,196.86,246.66,196.63,246.45,197.43Z"/><path class="cls-38" d="M247,196.44a11,11,0,0,1-7.24-10.18,10.84,10.84,0,0,1,3.68-7.65c.22-.2.38-.33.47-.4a117.24,117.24,0,0,1,51.25-2,9.6,9.6,0,0,1,1.32.62,10.29,10.29,0,0,1,.25,18.32q-17.31.63-35,1Q254.36,196.34,247,196.44Z"/><path class="cls-39" d="M249,177a115.28,115.28,0,0,1,13.09-2.14,123.14,123.14,0,0,1,19.42-.41s1.75.07,12.35,1.58a8.67,8.67,0,0,1,2,.55c1.16.46,2.81,1.41,2.79,1.83-.12,2.38-55.11,2.71-55.22.21C243.45,178.18,245.11,177.64,249,177Z"/><path class="cls-40" d="M250.12,180.57c-.43,1.66,12.77,4.72,12.69,8.54,0,1.82-3.08,4.11-14.53,6.63q5.81.47,12,.61a213.44,213.44,0,0,0,36.2-2.28c-8.63,1-14.88-2.56-15.24-5.63s4.79-7.77,13.11-9a122.26,122.26,0,0,1-18.69,1.05c-6.13-.14-12.26,0-18.38-.31C253.54,180,250.33,179.77,250.12,180.57Z"/><path class="cls-38" d="M193.62,311.34a11,11,0,0,1-7.24-10.18,10.88,10.88,0,0,1,3.67-7.65l.48-.4a117.24,117.24,0,0,1,51.25-1.95,9.6,9.6,0,0,1,1.32.62,10.29,10.29,0,0,1,.25,18.32q-17.31.63-35,1Q201,311.24,193.62,311.34Z"/><path class="cls-39" d="M195.58,291.89a114.93,114.93,0,0,1,13.09-2.14,123.13,123.13,0,0,1,19.42-.41s1.75.07,12.35,1.58a8.79,8.79,0,0,1,2.05.55c1.16.46,2.81,1.41,2.79,1.83-.12,2.38-55.12,2.71-55.23.21C190,293.08,191.7,292.54,195.58,291.89Z"/><path class="cls-40" d="M196.71,295.47c-.43,1.66,12.77,4.72,12.69,8.54,0,1.82-3.08,4.11-14.53,6.63q5.79.47,12,.61a213.51,213.51,0,0,0,36.2-2.28c-8.63.95-14.89-2.56-15.24-5.63s4.79-7.77,13.11-9a122.26,122.26,0,0,1-18.69,1.05c-6.13-.14-12.26,0-18.38-.31C200.13,294.9,196.92,294.67,196.71,295.47Z"/><path class="cls-38" d="M200.17,293.66a11,11,0,0,1-7.24-10.18,10.84,10.84,0,0,1,3.68-7.65l.47-.41a117.24,117.24,0,0,1,51.25-1.95,10.36,10.36,0,0,1,1.57,18.95q-17.31.61-35,1Q207.51,293.55,200.17,293.66Z"/><path class="cls-39" d="M202.13,274.2a120.37,120.37,0,0,1,13.09-2.14,123,123,0,0,1,19.42-.4s1.75.07,12.35,1.57a8.7,8.7,0,0,1,2.06.55c1.15.47,2.8,1.42,2.78,1.84-.12,2.37-55.11,2.71-55.22.21C196.59,275.39,198.25,274.86,202.13,274.2Z"/><path class="cls-40" d="M203.26,277.78c-.43,1.66,12.77,4.72,12.7,8.55,0,1.82-3.09,4.1-14.53,6.63q5.79.45,12,.61a214.48,214.48,0,0,0,36.2-2.28c-8.63.94-14.88-2.57-15.24-5.63s4.79-7.77,13.11-9a121,121,0,0,1-18.69,1.05c-6.13-.13-12.26,0-18.38-.3C206.68,277.21,203.47,277,203.26,277.78Z"/><path class="cls-41" d="M141.62,311.71a11,11,0,0,1-7.24-10.17,10.88,10.88,0,0,1,3.68-7.65l.47-.41a117.24,117.24,0,0,1,51.25-2,9.38,9.38,0,0,1,1.33.63,10.3,10.3,0,0,1,.25,18.32q-17.33.61-35,1Q149,311.61,141.62,311.71Z"/><path class="cls-42" d="M143.58,292.26a118,118,0,0,1,13.09-2.14,123.14,123.14,0,0,1,19.42-.41s1.75.07,12.35,1.58a8.7,8.7,0,0,1,2.06.55c1.15.47,2.8,1.42,2.78,1.84-.12,2.37-55.11,2.7-55.22.21C138,293.45,139.7,292.92,143.58,292.26Z"/><path class="cls-43" d="M144.72,295.84c-.44,1.66,12.76,4.72,12.69,8.54,0,1.82-3.09,4.11-14.53,6.63q5.79.47,12,.61a213.63,213.63,0,0,0,36.21-2.27c-8.64.94-14.89-2.57-15.25-5.63s4.79-7.77,13.11-9a122.26,122.26,0,0,1-18.69,1.05c-6.13-.14-12.26,0-18.38-.3C148.13,295.27,144.93,295,144.72,295.84Z"/><path class="cls-41" d="M138.12,293.66a11,11,0,0,1-7.24-10.18,10.84,10.84,0,0,1,3.67-7.65c.22-.2.39-.34.48-.41a117.22,117.22,0,0,1,51.25-1.95,11.9,11.9,0,0,1,1.32.63,10.7,10.7,0,0,1,5.43,6.79,10.81,10.81,0,0,1-5.18,11.53q-17.32.61-35,1Q145.45,293.55,138.12,293.66Z"/><path class="cls-42" d="M140.08,274.2a119.59,119.59,0,0,1,13.09-2.14,122.84,122.84,0,0,1,19.41-.4s1.76.07,12.35,1.57a8.7,8.7,0,0,1,2.06.55c1.16.47,2.81,1.42,2.79,1.84-.13,2.37-55.12,2.71-55.23.21C134.53,275.39,136.19,274.86,140.08,274.2Z"/><path class="cls-43" d="M141.21,277.78c-.43,1.66,12.76,4.72,12.69,8.55,0,1.82-3.09,4.1-14.53,6.63q5.79.45,12,.61a214.55,214.55,0,0,0,36.2-2.28c-8.63.94-14.89-2.57-15.25-5.63s4.8-7.77,13.12-9a121.16,121.16,0,0,1-18.7,1.05c-6.12-.13-12.26,0-18.38-.3C144.63,277.21,141.42,277,141.21,277.78Z"/><path class="cls-41" d="M143,275.29a11,11,0,0,1-7.24-10.18,10.84,10.84,0,0,1,3.67-7.65c.22-.2.39-.33.48-.4a117.22,117.22,0,0,1,51.25-1.95,11,11,0,0,1,1.32.62,10.67,10.67,0,0,1,5.43,6.8,10.8,10.8,0,0,1-5.18,11.52q-17.33.63-35,1Q150.35,275.19,143,275.29Z"/><path class="cls-42" d="M145,255.84a114.93,114.93,0,0,1,13.09-2.14,123,123,0,0,1,19.41-.41s1.76.07,12.36,1.58a8.79,8.79,0,0,1,2,.55c1.16.46,2.81,1.41,2.79,1.83-.13,2.38-55.12,2.71-55.23.21C139.43,257,141.09,256.49,145,255.84Z"/><path class="cls-43" d="M146.11,259.42c-.43,1.66,12.76,4.72,12.69,8.54,0,1.82-3.09,4.11-14.53,6.63,3.86.3,7.87.52,12,.61a213.51,213.51,0,0,0,36.2-2.28c-8.63.95-14.89-2.56-15.25-5.63s4.8-7.77,13.12-9a122.32,122.32,0,0,1-18.7,1c-6.12-.14-12.26,0-18.38-.31C149.53,258.85,146.32,258.62,146.11,259.42Z"/><path class="cls-38" d="M190.11,275.29a11,11,0,0,1-7.24-10.18,10.84,10.84,0,0,1,3.68-7.65c.22-.2.39-.33.47-.4a117.24,117.24,0,0,1,51.25-1.95,10.06,10.06,0,0,1,1.33.62,10.3,10.3,0,0,1,.25,18.32q-17.32.63-35,1Q197.45,275.19,190.11,275.29Z"/><path class="cls-39" d="M192.07,255.84a115.64,115.64,0,0,1,13.09-2.14,123.14,123.14,0,0,1,19.42-.41s1.75.07,12.35,1.58a8.7,8.7,0,0,1,2.06.55c1.15.46,2.8,1.41,2.78,1.83-.12,2.38-55.11,2.71-55.22.21C186.53,257,188.19,256.49,192.07,255.84Z"/><path class="cls-40" d="M193.21,259.42c-.44,1.66,12.76,4.72,12.69,8.54,0,1.82-3.09,4.11-14.53,6.63,3.86.3,7.86.52,12,.61a213.37,213.37,0,0,0,36.2-2.28c-8.63.95-14.88-2.56-15.24-5.63s4.79-7.77,13.11-9a122.26,122.26,0,0,1-18.69,1c-6.13-.14-12.26,0-18.38-.31C196.62,258.85,193.42,258.62,193.21,259.42Z"/><path class="cls-38" d="M201.57,257a11,11,0,0,1-7.24-10.18,10.84,10.84,0,0,1,3.67-7.65c.22-.2.39-.33.48-.4a117.22,117.22,0,0,1,51.25-2,11,11,0,0,1,1.32.62,10.3,10.3,0,0,1,.25,18.32q-17.33.63-35,1Q208.9,256.87,201.57,257Z"/><path class="cls-39" d="M203.53,237.52a114.93,114.93,0,0,1,13.09-2.14A123,123,0,0,1,236,235s1.76.07,12.35,1.58a8.7,8.7,0,0,1,2.06.55c1.16.46,2.81,1.41,2.79,1.83-.13,2.38-55.12,2.71-55.23.21C198,238.71,199.64,238.17,203.53,237.52Z"/><path class="cls-40" d="M204.66,241.1c-.43,1.66,12.76,4.72,12.69,8.54,0,1.82-3.09,4.11-14.53,6.63,3.86.3,7.87.52,12,.61A213.51,213.51,0,0,0,251,254.6c-8.63,1-14.89-2.57-15.25-5.63s4.8-7.77,13.12-9A122.44,122.44,0,0,1,230.2,241c-6.12-.14-12.26,0-18.38-.31C208.08,240.53,204.87,240.3,204.66,241.1Z"/><path class="cls-38" d="M190.2,239.66A11,11,0,0,1,183,229.48a10.84,10.84,0,0,1,3.67-7.65,5.08,5.08,0,0,1,.48-.4,117,117,0,0,1,51.25-2,11.9,11.9,0,0,1,1.32.63,10.7,10.7,0,0,1,5.43,6.79,10.81,10.81,0,0,1-5.18,11.53q-17.33.62-35,1Q197.53,239.55,190.2,239.66Z"/><path class="cls-39" d="M192.16,220.21a117.56,117.56,0,0,1,13.09-2.15,122.84,122.84,0,0,1,19.41-.4s1.76.07,12.35,1.57a8.7,8.7,0,0,1,2.06.55c1.16.47,2.81,1.42,2.79,1.84-.13,2.37-55.12,2.71-55.23.21C186.61,221.39,188.27,220.86,192.16,220.21Z"/><path class="cls-40" d="M193.29,223.78c-.43,1.66,12.76,4.72,12.69,8.55,0,1.82-3.09,4.1-14.53,6.63q5.79.45,12,.61a214.55,214.55,0,0,0,36.2-2.28c-8.63,1-14.89-2.57-15.25-5.63s4.8-7.77,13.12-9a121.16,121.16,0,0,1-18.7,1c-6.12-.13-12.26,0-18.38-.3C196.71,223.21,193.5,223,193.29,223.78Z"/><path class="cls-19" d="M384.77,59.58a13.64,13.64,0,0,1,.75,3.34,13.22,13.22,0,0,1-.11,3.38,5.6,5.6,0,0,0,.72-4.5A5.16,5.16,0,0,0,384.77,59.58Z"/><path class="cls-44" d="M352.38,185.08l-.48-.07-.33,0-3,5,.75.1.83-1.39,1.22.16,1.22.16.43,1.56.89.11Zm-.92,3.22-1-.13,1.28-2.16.69,2.42Z"/><polygon class="cls-44" points="345.63 189.6 344.17 183.99 344.98 184.1 346.18 188.69 348.47 184.56 349.19 184.66 346.4 189.7 345.63 189.6"/><path class="cls-44" d="M341.65,186.54a2,2,0,0,0,.94-.49,1.41,1.41,0,0,0,.42-.86,1.17,1.17,0,0,0-.31-1,2.09,2.09,0,0,0-1.23-.51h0l-1.7-.22-.71,5.32.81.11.3-2.25.76.1.11.21,1.23,2.25,1,.13Zm-.53-.46a2.47,2.47,0,0,1-.65,0l-.26,0,.26-1.94.51.07.38.07q.9.24.81.93a1,1,0,0,1-.51.77A1.43,1.43,0,0,1,341.12,186.08Z"/><polygon class="cls-44" points="334.71 188.16 335.42 182.84 338.63 183.26 338.56 183.83 336.16 183.52 335.94 185.22 337.95 185.49 337.88 186.04 335.87 185.77 335.61 187.7 338.18 188.04 338.1 188.61 334.71 188.16"/><path class="cls-44" d="M330.09,187.45l.1-.75a4.33,4.33,0,0,0,1.54.63,1.18,1.18,0,0,0,.81-.14.75.75,0,0,0,.37-.57.78.78,0,0,0-.12-.56,2.72,2.72,0,0,0-.64-.58l-.37-.26a3.53,3.53,0,0,1-.94-.87,1.18,1.18,0,0,1-.2-.84,1.25,1.25,0,0,1,.62-.94,1.81,1.81,0,0,1,1.28-.24,5.37,5.37,0,0,1,1.37.39l-.09.69a4.54,4.54,0,0,0-1.31-.51,1.11,1.11,0,0,0-.73.12.6.6,0,0,0-.34.48.62.62,0,0,0,.14.5,3.31,3.31,0,0,0,.67.59l.39.27a3.7,3.7,0,0,1,.94.87,1.21,1.21,0,0,1,.18.88,1.33,1.33,0,0,1-.7,1,2.36,2.36,0,0,1-1.51.22A6.33,6.33,0,0,1,330.09,187.45Z"/><path class="cls-44" d="M354.34,185.4h0l.15,0s.07.05.08.08a.17.17,0,0,1,0,.12.19.19,0,0,1-.07.13.2.2,0,0,1-.14,0l.06.07a.46.46,0,0,1,.07.13l.07.14-.18,0-.08-.17a.64.64,0,0,0-.06-.12l0-.15h.09l.05,0a.11.11,0,0,0,0-.05.08.08,0,0,0,0-.07l-.05,0h-.08Zm-.38.68.09-.71.29,0,0,.12h0l-.11,0,0,.18.11,0h0l0,.15h0l0,0h-.1l0,.3Z"/><path class="cls-45" d="M354.14,186.54a.76.76,0,1,1,.85-.66A.77.77,0,0,1,354.14,186.54Zm.17-1.34a.58.58,0,1,0-.15,1.16.58.58,0,0,0,.65-.5A.59.59,0,0,0,354.31,185.2Z"/><polygon class="cls-44" points="324.12 186.76 324.83 181.44 325.69 181.56 328.26 186.07 328.81 181.97 329.56 182.07 328.86 187.39 328 187.28 325.42 182.76 324.88 186.86 324.12 186.76"/><path class="cls-44" d="M322.72,181.8a3,3,0,0,0-2-1h0a3,3,0,0,0-2.2.48,3,3,0,0,0-.54,4.06,3,3,0,0,0,2,1h0a3,3,0,0,0,2.21-.48,3.05,3.05,0,0,0,.53-4.07Zm-1.14,3.58a1.81,1.81,0,0,1-1.52.41h0a1.84,1.84,0,0,1-1.37-.79,2.43,2.43,0,0,1-.3-1.7,2.38,2.38,0,0,1,.74-1.57,1.84,1.84,0,0,1,1.52-.4h0a1.84,1.84,0,0,1,1.37.78,2.88,2.88,0,0,1-.43,3.27Z"/><path class="cls-44" d="M316.23,185.44a3.81,3.81,0,0,1-1.78.18,2.49,2.49,0,0,1-1.82-1,3.49,3.49,0,0,1,.56-4.12,2.58,2.58,0,0,1,2-.47,7.31,7.31,0,0,1,1.64.45l-.09.71a5.57,5.57,0,0,0-1.64-.6,1.65,1.65,0,0,0-1.42.4,2.56,2.56,0,0,0-.69,1.6,2.44,2.44,0,0,0,.29,1.67,1.74,1.74,0,0,0,1.31.76,3.37,3.37,0,0,0,1.68-.25Z"/><path class="cls-46" d="M310,180.8a1.1,1.1,0,1,1-1.23.95A1.11,1.11,0,0,1,310,180.8Z"/><path class="cls-46" d="M308.61,181a3,3,0,0,0-1.83,2.56,3.73,3.73,0,0,0,1.88,3.49,3.15,3.15,0,0,0,.19-3.84C308.49,182.45,308.15,181.75,308.61,181Z"/><path class="cls-44" d="M309.25,176.91a1.35,1.35,0,1,1-1.51,1.16A1.34,1.34,0,0,1,309.25,176.91Z"/><path class="cls-44" d="M306.84,185.51a3.91,3.91,0,0,1-.44-2.11,3.26,3.26,0,0,1,.63-1.7,3.09,3.09,0,0,1,1-.89c-.58-1.44-1.23-2.6,0-4-3.61,1.51-4.13,6.79-.93,9.11A4.1,4.1,0,0,1,306.84,185.51Z"/><path class="cls-47" d="M352.24,185l-.48-.06-.33,0-3,5,.75.1.83-1.39,1.22.16,1.22.16.43,1.56.89.12Zm-.92,3.22-1-.13,1.28-2.16.69,2.42Z"/><polygon class="cls-47" points="345.49 189.47 344.02 183.87 344.84 183.97 346.04 188.56 348.33 184.44 349.05 184.53 346.26 189.57 345.49 189.47"/><path class="cls-47" d="M341.51,186.41a1.89,1.89,0,0,0,.94-.49,1.38,1.38,0,0,0,.42-.86,1.18,1.18,0,0,0-.31-1,2.12,2.12,0,0,0-1.22-.51h0l-1.7-.23-.71,5.32.81.11.3-2.25.76.1.11.22L342.1,189l1,.13ZM341,186a2.92,2.92,0,0,1-.65,0l-.26,0,.26-1.93.51.07a3.38,3.38,0,0,1,.38.06q.9.24.81.93a1,1,0,0,1-.51.78A1.43,1.43,0,0,1,341,186Z"/><polygon class="cls-47" points="334.57 188.03 335.28 182.71 338.49 183.14 338.42 183.71 336.02 183.39 335.8 185.1 337.81 185.36 337.74 185.91 335.73 185.65 335.47 187.57 338.04 187.91 337.96 188.48 334.57 188.03"/><path class="cls-47" d="M330,187.32l.1-.75a4.15,4.15,0,0,0,1.54.63,1.18,1.18,0,0,0,.81-.14.72.72,0,0,0,.37-.57.78.78,0,0,0-.12-.56,2.52,2.52,0,0,0-.64-.57l-.37-.27a3.53,3.53,0,0,1-.94-.87,1.17,1.17,0,0,1-.2-.83,1.25,1.25,0,0,1,.62-.95,1.86,1.86,0,0,1,1.28-.24,5.37,5.37,0,0,1,1.37.39l-.09.69a4.54,4.54,0,0,0-1.31-.51,1.11,1.11,0,0,0-.73.12.64.64,0,0,0-.2,1,3,3,0,0,0,.67.59l.39.27a3.89,3.89,0,0,1,.94.87,1.21,1.21,0,0,1,.18.88,1.33,1.33,0,0,1-.7,1,2.36,2.36,0,0,1-1.51.23A7,7,0,0,1,330,187.32Z"/><path class="cls-47" d="M354.2,185.28h0l.15,0s.07,0,.08.08a.15.15,0,0,1,0,.11.19.19,0,0,1-.07.13.2.2,0,0,1-.14.05l.07.07.06.13.07.15-.18,0-.08-.16a.42.42,0,0,0-.06-.12l0-.15h.09l.05,0,0-.05s0,0,0-.06a.1.1,0,0,0-.05,0h-.08Zm-.38.67.09-.71.29,0,0,.12H354l0,.18h.14l0,.15h0s0,0,0,0l-.07,0h0l0,.3Z"/><path class="cls-48" d="M354,186.41a.76.76,0,1,1,.85-.66A.77.77,0,0,1,354,186.41Zm.17-1.33a.59.59,0,0,0-.66.5.6.6,0,0,0,.51.66.58.58,0,0,0,.65-.51A.58.58,0,0,0,354.17,185.08Z"/><polygon class="cls-47" points="323.98 186.64 324.69 181.32 325.55 181.43 328.12 185.95 328.67 181.84 329.42 181.94 328.72 187.26 327.86 187.15 325.28 182.63 324.74 186.74 323.98 186.64"/><path class="cls-47" d="M322.58,181.68a2.93,2.93,0,0,0-2-1h0a3,3,0,0,0-2.2.48,2.71,2.71,0,0,0-1.06,1.93,2.74,2.74,0,0,0,.52,2.14,3,3,0,0,0,2,1h0a3,3,0,0,0,2.21-.48,3,3,0,0,0,.53-4.06Zm-1.14,3.58a1.84,1.84,0,0,1-1.52.4h0a1.86,1.86,0,0,1-1.37-.78,2.47,2.47,0,0,1-.3-1.71,2.38,2.38,0,0,1,.74-1.57,1.87,1.87,0,0,1,1.52-.4h0a1.83,1.83,0,0,1,1.37.77,2.89,2.89,0,0,1-.43,3.28Z"/><path class="cls-47" d="M316.09,185.31a3.8,3.8,0,0,1-1.78.18,2.52,2.52,0,0,1-1.82-1,2.92,2.92,0,0,1-.4-2.15,3,3,0,0,1,1-2,2.58,2.58,0,0,1,2-.47,7.17,7.17,0,0,1,1.64.45l-.09.71a5.57,5.57,0,0,0-1.64-.6,1.63,1.63,0,0,0-1.42.41,2.56,2.56,0,0,0-.69,1.59,2.41,2.41,0,0,0,.29,1.67,1.75,1.75,0,0,0,1.31.77,3.61,3.61,0,0,0,1.68-.25Z"/><path class="cls-49" d="M309.88,180.67a1.1,1.1,0,1,1-.29,2.18,1.1,1.1,0,0,1,.29-2.18Z"/><path class="cls-49" d="M308.47,180.85a3,3,0,0,0-1.83,2.57,3.71,3.71,0,0,0,1.88,3.48,3.15,3.15,0,0,0,.19-3.84C308.35,182.32,308,181.62,308.47,180.85Z"/><path class="cls-47" d="M309.11,176.78a1.37,1.37,0,0,1,1.17,1.52,1.35,1.35,0,1,1-1.17-1.52Z"/><path class="cls-47" d="M306.71,185.39a3.83,3.83,0,0,1-.45-2.11,3.26,3.26,0,0,1,.63-1.71,3.2,3.2,0,0,1,1-.89c-.58-1.43-1.23-2.6,0-4-3.61,1.5-4.13,6.78-.93,9.11A3.45,3.45,0,0,1,306.71,185.39Z"/></g></g></svg>