<svg xmlns="http://www.w3.org/2000/svg" viewBox="0 0 370.32 282.93"><defs><style>.cls-1{fill:#ebf2fb;}.cls-17,.cls-2{fill:#0d6c7c;}.cls-3,.cls-6{fill:#ffa512;}.cls-4,.cls-8{fill:#99cf16;}.cls-5{fill:#cce0fb;}.cls-6,.cls-7,.cls-8{font-size:14.57px;}.cls-18,.cls-6,.cls-7,.cls-8{font-family:Roboto-Italic, Roboto Italic;font-style:italic;}.cls-16,.cls-7{fill:#19abb2;}.cls-9{fill:#000f9f;}.cls-10{fill:#0b7f7f;}.cls-11,.cls-15{fill:#a7c05d;}.cls-12{fill:#809632;}.cls-13{fill:#6e7f25;}.cls-14{fill:#4e7735;}.cls-15{font-size:24.48px;font-family:MyriadPro-Regular, Myriad Pro;}.cls-17{font-size:51.86px;font-family:BookmanOldStyle, Bookman Old Style;}.cls-18{font-size:106.76px;fill:#1e3e8e;}.cls-19{fill:#caa074;}.cls-20,.cls-23,.cls-24,.cls-26,.cls-27,.cls-29,.cls-31,.cls-33,.cls-36,.cls-37,.cls-41,.cls-43,.cls-44,.cls-45{fill:none;}.cls-20,.cls-23,.cls-24,.cls-26,.cls-27,.cls-29,.cls-31,.cls-33,.cls-36,.cls-37,.cls-43,.cls-44,.cls-45{stroke:#1d1d1b;}.cls-20,.cls-24,.cls-27,.cls-29,.cls-31,.cls-33,.cls-36,.cls-37,.cls-43,.cls-44,.cls-45{stroke-miterlimit:10;}.cls-20{stroke-width:0.14px;}.cls-21{fill:#040000;}.cls-22{fill:#2d2377;}.cls-23{stroke-width:0.61px;}.cls-24{stroke-width:0.64px;}.cls-25{fill:#00983f;}.cls-26,.cls-27{stroke-width:0.64px;}.cls-28{fill:#80ba27;}.cls-29{stroke-width:0.64px;}.cls-30{fill:#1d1d1b;}.cls-31{stroke-width:0.21px;}.cls-32{fill:#b1ca0f;}.cls-33{stroke-width:0.61px;}.cls-34{fill:#fff;}.cls-35{fill:#191613;}.cls-36{stroke-width:0.04px;}.cls-37{stroke-width:0.01px;}.cls-38{fill:#8d3329;}.cls-39{fill:#e15510;}.cls-40{fill:#ffcb00;}.cls-41{stroke:#fff;stroke-width:0.34px;}.cls-42{fill:#f6a500;}.cls-43{stroke-width:0.64px;}.cls-44{stroke-width:0.64px;}.cls-45{stroke-width:0.64px;}</style></defs><g id="Capa_2" data-name="Capa 2"><g id="Capa_1-2" data-name="Capa 1"><path class="cls-1" d="M1,67.91S101.91-72.52,216.51,50.5c0,0,179.66-3.87,134.32,107.24,0,0,79.95,138.66-84,110.77L0,250.11Q.51,159,1,67.91Z"/><rect class="cls-2" x="90.85" y="119.11" width="62.92" height="4"/><rect class="cls-2" x="87.01" y="128.61" width="62.92" height="4"/><path class="cls-3" d="M298.27,167.62c0-3.8,0-7.6,0-11.4s0-7.42.16-11.12c.09-2,.62-4.21,2.94-4.2s2.73,2.17,2.76,4.22c0,2.45,0,4.9,0,8,3-1.06,4.37-3.37,6-5.11,2.56-2.67,5.32-4.79,8.94-5.37,6.32-1,11.69,1.61,14.86,7.28a15.65,15.65,0,0,1-1.37,17.76C329,172,324.94,176,321.07,180.11c-7.63,8.13-15.23,16.29-22.92,24.35-5.84,6.12-11,6.19-16.86,0q-16.67-17.5-33.12-35.24c-4.3-4.61-6.12-10-4-16.44,3.48-10.32,14.74-13.79,22.82-7,2.55,2.16,4.8,4.71,8.16,8.05v-6.75q0-28.08.05-56.17a16.72,16.72,0,0,1,.3-4.72c.3-1,1.62-2.32,2.32-2.22a4.89,4.89,0,0,1,2.82,2.3c.48.76.28,2,.28,3.1q0,37.36,0,74.73c0,1.16-.21,2.32-.42,4.41-3.6-3.77-6.63-7-9.68-10.11-2.5-2.59-4.81-5.44-7.58-7.66-5.46-4.39-12.75-1.48-14,5.36-.63,3.46.73,6.23,2.9,8.61q5.55,6.09,11.19,12.08,10.56,11.26,21.16,22.48c4.17,4.42,5.89,4.55,9.94.29,10.63-11.18,21.18-22.45,31.76-33.69a19.71,19.71,0,0,0,1.68-2c2.93-4.06,2.86-9.41-.15-12.57a8.2,8.2,0,0,0-12.13-.25c-4.45,4.25-8.55,8.89-12.82,13.34-1.14,1.19-2.34,2.31-3.51,3.46Z"/><path class="cls-4" d="M329.49,135.26c-7,0-12.85-5.89-13-13.24s5.78-14,12.82-14.18,13.35,6.5,13.25,13.71C342.45,129.45,336.94,135.24,329.49,135.26Zm-7-14.23a7.25,7.25,0,0,0,6.38,8c4.07.36,7.23-2.31,7.71-6.5a7.52,7.52,0,0,0-6.61-8.35C326.22,113.83,322.88,116.91,322.5,121Z"/><path class="cls-4" d="M314.13,86.13c0,7.69-5.89,13.93-13,13.76s-12.8-6.3-12.9-13.51,6.14-14.11,12.92-14.13C308.3,72.22,314.15,78.49,314.13,86.13ZM301.4,93.41a6.86,6.86,0,0,0,6.93-7.22c0-4.37-3.17-7.79-7.16-7.75-3.59,0-7,3.61-7,7.45C294.11,90.32,297.13,93.46,301.4,93.41Z"/><path class="cls-4" d="M336.62,90.2c-.82,1-1.88,2.59-3.14,3.94q-13.67,14.64-27.39,29.21c-1.18,1.25-2.29,2.56-3.53,3.73-2.42,2.31-4.53,2.75-5.59,1.11-1.5-2.31,0-3.91,1.44-5.46,7.26-7.72,14.5-15.48,21.78-23.19q5.1-5.42,10.33-10.7a9,9,0,0,1,2.8-2.11C334.93,86.08,336.78,87.74,336.62,90.2Z"/><path class="cls-5" d="M203.56,214.19l-.83-5.74A43.94,43.94,0,0,1,207.65,198a41.35,41.35,0,0,1,11.18-11.58,76.14,76.14,0,0,0-2.4,9c-.63,3.11-1.71,8.43-.55,9,.43.22,1.08-.29,1.57-.78.42-1.73,1.07-4.47,1.85-7.86,1.53-6.71,1.67-7.76,2.51-8.91,1-1.33,3.94-4.28,13.78-2.59q-2.22,7.34-4.43,14.69l8.93-14a13.74,13.74,0,0,1,12.69,6.8,13,13,0,0,1-1.53,15.6l-16.58-2,14.11,5.92A16.2,16.2,0,0,1,236.27,220c-8.38.85-14.41-5.05-15.09-5.74a1.57,1.57,0,0,0-.7,1.23q.11,2.82,14.68,6.53a17.94,17.94,0,0,1-12.53,5.29,21.69,21.69,0,0,1-13.66-5Q206.27,218.26,203.56,214.19Z"/><path class="cls-5" d="M112.78,148.22l-11.35,5.53a95.69,95.69,0,0,1-24.94-3.25A90.34,90.34,0,0,1,45.08,135a167.26,167.26,0,0,0,20.25-1c6.86-.76,18.59-2,19-4.83.18-1.06-1.31-2.05-2.65-2.75-3.86.29-10,.75-17.52,1.39-14.92,1.26-17.2,1.68-20.14.71-3.37-1.12-11.47-5.34-14.51-26.84l33.38-.57L28,91.91c-4.15-10.12-1.88-22.31,5.69-30.8C42.24,51.48,56.05,48.39,67,53.92l6.93,35.66Q75.37,73,76.83,56.41c1.88.28,18.88,3.17,26.29,20.18,7.32,16.81-.91,33.2-1.89,35.08a3.4,3.4,0,0,0,3,.62q5.79-2.07,3.81-34.74A39.1,39.1,0,0,1,127.33,100c5,14.93,0,28.36-1.25,31.62Z"/><text class="cls-6" transform="translate(94.6 46.35) scale(1.27 1)">%</text><text class="cls-7" transform="translate(305.3 255.65) scale(1.27 1)">%</text><text class="cls-8" transform="translate(209.86 13.36) scale(1.27 1)">%</text><path class="cls-9" d="M23.71,87.28c-.15-.42-.31-.84-.47-1.27s-.31-.82-.44-1.24c-.08-.23-.11-.5.15-.59s.39.13.48.35.21.55.33.89a1.71,1.71,0,0,0,.46-.82,2,2,0,0,1,.77-1,1.64,1.64,0,0,1,2,.19,1.89,1.89,0,0,1,.59,2c-.23.63-.51,1.24-.77,1.86-.51,1.23-1,2.45-1.54,3.67a1.19,1.19,0,0,1-1.87.7c-1.72-.83-3.44-1.69-5.15-2.54a1.87,1.87,0,0,1-1.13-1.67,1.67,1.67,0,0,1,2.25-1.72c.38.13.73.32,1.24.55-.12-.34-.2-.54-.28-.75Q19.13,82.84,18,79.71a2.21,2.21,0,0,1-.16-.54c0-.12.09-.32.17-.34a.57.57,0,0,1,.41.14c.08.06.11.21.16.33q1.55,4.15,3.11,8.32c0,.13.07.26.13.5l-1.49-.72c-.39-.18-.77-.4-1.17-.54A1,1,0,0,0,17.79,88a1.15,1.15,0,0,0,.68.84l1.75.88,3.29,1.62c.65.32.84.26,1.12-.38l2.13-5.07a2.49,2.49,0,0,0,.11-.29,1.2,1.2,0,0,0-.54-1.39,1,1,0,0,0-1.36.48c-.32.65-.59,1.34-.88,2-.07.18-.16.36-.24.54Z"/><path class="cls-10" d="M343.81,200.8l-.3-1.32c-.09-.43-.19-.86-.27-1.29,0-.23,0-.5.23-.56s.38.18.43.41.13.57.21.93a1.85,1.85,0,0,0,.57-.75,1.86,1.86,0,0,1,.89-.86,1.62,1.62,0,0,1,1.91.46,1.86,1.86,0,0,1,.31,2.09c-.31.6-.67,1.17-1,1.75-.67,1.14-1.34,2.28-2,3.42a1.2,1.2,0,0,1-2,.44c-1.59-1.06-3.17-2.14-4.75-3.22a1.82,1.82,0,0,1-.89-1.8,1.66,1.66,0,0,1,2.46-1.4c.35.18.68.42,1.16.72l-.18-.79c-.49-2.17-1-4.34-1.46-6.51a2.11,2.11,0,0,1-.09-.55c0-.12.13-.31.21-.32a.58.58,0,0,1,.39.19.66.66,0,0,1,.11.35q1,4.34,2,8.66c0,.14,0,.28.06.53l-1.38-.92a8.94,8.94,0,0,0-1.08-.69,1,1,0,0,0-1.48,1,1.13,1.13,0,0,0,.56.93l1.61,1.1,3,2.06c.6.4.8.37,1.16-.23q1.41-2.36,2.8-4.73c.05-.09.1-.18.14-.27a1.18,1.18,0,0,0-.34-1.46,1,1,0,0,0-1.41.29c-.41.61-.76,1.26-1.14,1.88-.1.17-.21.33-.32.5Z"/><rect class="cls-11" x="9.4" y="190.13" width="124.2" height="62.2"/><path class="cls-12" d="M133.44,182.57q.09,3.78.16,7.56H2L1.78,183Z"/><path class="cls-13" d="M9.4,190.13l-7.6-6.4L2,247l7.44,5.38Z"/><rect class="cls-14" x="19.1" y="196.97" width="114.51" height="6.4"/><rect class="cls-14" x="19.1" y="242.53" width="114.51" height="6.4"/><rect class="cls-14" x="13.16" y="203.39" width="18.27" height="6.4" transform="translate(228.9 184.3) rotate(90)"/><rect class="cls-14" x="13.16" y="233.39" width="18.27" height="6.4" transform="translate(258.9 214.3) rotate(90)"/><circle class="cls-14" cx="22.1" cy="221.6" r="3"/><ellipse class="cls-14" cx="96.87" cy="222.64" rx="17.13" ry="16.65"/><text class="cls-15" transform="translate(91 231.32)">$</text><path class="cls-16" d="M75.07,182.8V106.75l5.12-8,9.3,8,7.8-8,9.3,8.45,4.93-8.45,8.89,7.56,6.22-7.56,7.55,7.56L144.34,97l4.51,8,8.89-8v40.89l44.44,2s9.58-1.58,10.13,13.53v78.22l-6.57,6.22-9.33-12-4,9.78-8-12.44-4.89,14.66-5.9-13.33-3,13.33-6.71-12.44s-11.88,11.14-7.54,26.8a28.68,28.68,0,0,0,.91,2.76c6.67,17.11-22.66,33.57-27.55,0L131,183.5Z"/><path class="cls-10" d="M101.7,183.5c.44-2.72,0-24.82,0-24.82s0-18.35,16-18.35a15.77,15.77,0,0,1,10.66,12.89L131,183.5Z"/><path class="cls-10" d="M148.2,274.46h75.55s12.89.12,13.78-18.78V231.45l-8.44,10.44-6.67-10.44-5.78,10.44-4.33-10.25-6.57,6.22-9.33-12-4,9.78-8-12.44-4.89,14.66-5.9-13.33-3,13.33-6.71-12.44a28.15,28.15,0,0,0-5.24,7.22,31.27,31.27,0,0,0-3,16.19c.47,7.77,3.09,9,2.31,13.62C157.29,266.52,154.41,270.6,148.2,274.46Z"/><text class="cls-17" transform="translate(151.77 208.49)">%</text><text class="cls-18" transform="translate(118.35 134.41)">4.5</text><path class="cls-19" d="M45.73,276.08a18,18,0,0,0,.46-5.63h0c1.3-1.18,1.3-1.18,6,.78h0a3.43,3.43,0,0,1,4.74,1.89c.88,1.44.88,1.44,4.39,3.46h0L60.51,278c-.42.77-2.48,1.36-4.58,1.33l-7.9-.15a1.56,1.56,0,0,1-1-.4L45.28,277h0l.45-.95Z"/><path class="cls-20" d="M45.73,276.08a18,18,0,0,0,.46-5.63h0c1.3-1.18,1.3-1.18,6,.78h0a3.43,3.43,0,0,1,4.74,1.89c.88,1.44.88,1.44,4.39,3.46h0L60.51,278c-.42.77-2.48,1.36-4.58,1.33l-7.9-.15a1.56,1.56,0,0,1-1-.4L45.28,277h0l.45-.95Z"/><path class="cls-21" d="M57.31,272.9l1.37,1.34s-2.77,2.07-2.83,3.78c0,.46.16.45.31.44,4.38-.18,4.66-1.93,4.66-1.93s0-.33.93-.17a7.36,7.36,0,0,1,3.47,1.89,5.53,5.53,0,0,1,.34,2.5s.24,1.63-5.37,1.86a12.25,12.25,0,0,1-3.24-.44H52.56a7.14,7.14,0,0,1-7.24-.54,43.48,43.48,0,0,1-.22-5.17s.26-.85.65.18S48.6,278,48.6,278a18.3,18.3,0,0,0,3.51.53c1-.08,1.1-.7,1.1-.7a11.31,11.31,0,0,0,.76-2c.68-2,3.34-2.92,3.34-2.92Z"/><path class="cls-19" d="M41.73,276.08a17.77,17.77,0,0,1-.45-5.63h0c-1.31-1.18-1.31-1.18-6,.78h0a3.44,3.44,0,0,0-4.75,1.89c-.88,1.44-.88,1.44-4.39,3.46h0L27,278c.43.77,2.48,1.36,4.58,1.33l7.9-.15a1.61,1.61,0,0,0,1-.4L42.18,277h0l-.45-.95Z"/><path class="cls-20" d="M41.73,276.08a17.77,17.77,0,0,1-.45-5.63h0c-1.31-1.18-1.31-1.18-6,.78h0a3.44,3.44,0,0,0-4.75,1.89c-.88,1.44-.88,1.44-4.39,3.46h0L27,278c.43.77,2.48,1.36,4.58,1.33l7.9-.15a1.61,1.61,0,0,0,1-.4L42.18,277h0l-.45-.95Z"/><path class="cls-21" d="M30.15,272.9l-1.37,1.34s2.77,2.07,2.83,3.78c0,.46-.16.45-.31.44-4.38-.18-4.65-1.93-4.65-1.93s0-.33-.94-.17a7.36,7.36,0,0,0-3.47,1.89,5.53,5.53,0,0,0-.34,2.5s-.24,1.63,5.37,1.86a12.25,12.25,0,0,0,3.24-.44H34.9a6.53,6.53,0,0,0,2.33.69,6.44,6.44,0,0,0,4.91-1.23,43.48,43.48,0,0,0,.22-5.17s-.26-.85-.65.18-2.85,1.4-2.85,1.4a18.3,18.3,0,0,1-3.5.53c-1-.08-1.11-.7-1.11-.7a11.31,11.31,0,0,1-.76-2c-.68-2-3.34-2.92-3.34-2.92Z"/><path class="cls-22" d="M30.65,202.56s-5.8,7.07-5.8,22.74v45.94s4.56-1.08,5.8,0,3.21-1.34,4.82,0,4.5-2.35,6.73-1,2.22-2.77,5.9-.72,3.4-1.29,5.32.77,1.3-2.3,4-.51,4-2.57,4.7-1,3.27-59.36-6.16-66.16-25.29,0-25.29,0Z"/><path class="cls-23" d="M30.65,202.56s-5.8,7.07-5.8,22.74v45.94s4.56-1.08,5.8,0,3.21-1.34,4.82,0,4.5-2.35,6.73-1,2.22-2.77,5.9-.72,3.4-1.29,5.32.77,1.3-2.3,4-.51,4-2.57,4.7-1,3.27-59.36-6.16-66.16-25.29,0-25.29,0Z"/><path class="cls-19" d="M56.8,176.51a4.35,4.35,0,0,0,2.28,5.71L79.42,191a4.34,4.34,0,0,0,5.71-2.28l0-.05a4.35,4.35,0,0,0-2.28-5.72l-20.34-8.74a4.36,4.36,0,0,0-5.72,2.28l0,.06Z"/><path class="cls-24" d="M56.8,176.51a4.35,4.35,0,0,0,2.28,5.71L79.42,191a4.34,4.34,0,0,0,5.71-2.28l0-.05a4.35,4.35,0,0,0-2.28-5.72l-20.34-8.74a4.36,4.36,0,0,0-5.72,2.28l0,.06Z"/><path class="cls-25" d="M37.84,169.62s-8.22,0-8.22,8.22c0,0-3.79-.49-3.79,4.18s3.79,12.32,3.79,12.32.3,8.32,3,8H54.35s2.78.41,2.78-7.81c0,0,4.5-8,4.5-12s-5.78-4.73-5.78-4.73,0-8.22-8.22-8.22Z"/><path class="cls-26" d="M37.84,169.62s-8.22,0-8.22,8.22c0,0-3.79-.49-3.79,4.18s3.79,12.32,3.79,12.32.3,8.32,3,8H54.35s2.78.41,2.78-7.81c0,0,4.5-8,4.5-12s-5.78-4.73-5.78-4.73,0-8.22-8.22-8.22Z"/><polygon class="cls-19" points="39.72 162.57 39.69 166.11 29.65 168.43 43.23 170.27 56.41 167.97 46.84 166.15 46.84 162.6 39.72 162.57 39.72 162.57"/><polygon class="cls-27" points="39.72 162.57 39.69 166.11 29.65 168.43 43.23 170.27 56.41 167.97 46.84 166.15 46.84 162.6 39.72 162.57 39.72 162.57"/><path class="cls-28" d="M33.91,167.3S18,165.69,25,181c1.13,2.48,1.3,6.14,19.17,6.35,15.32.17,24.13-9.49,22.76-12.42-4-8.53-15.36-8-15.36-8l4.88,1-13.21,2.44-13.51-1.92,4.16-1.13Z"/><path class="cls-26" d="M33.91,167.3S18,165.69,25,181c1.13,2.48,1.3,6.14,19.17,6.35,15.32.17,24.13-9.49,22.76-12.42-4-8.53-15.36-8-15.36-8l4.88,1-13.21,2.44-13.51-1.92,4.16-1.13Z"/><path class="cls-19" d="M80.4,191.26S84.54,192.74,86,189l8.29-21.31s-6.72-6.9-8.16-3.18L79,182.62"/><path class="cls-29" d="M80.4,191.26S84.54,192.74,86,189l8.29-21.31s-6.72-6.9-8.16-3.18L79,182.62"/><path class="cls-30" d="M58.57,152s2.14,1.38,2.65.32a4,4,0,0,0,0-2.56s1.65-2.14,1.71-2.9c.27-3.73-3.15-2.26-3.15-1.74A34,34,0,0,1,58.57,152Z"/><path class="cls-19" d="M62.32,147.21c.42-1.48-.14-2.22-1.06-2.22a2.19,2.19,0,0,0-1.53,1.8c.55.71,0,1.87,0,1.87a4,4,0,0,0-.67,2.11c.69.61.92,1.3,1.22,1.3s.28-2.41.54-2.53a6.94,6.94,0,0,0,1.5-2.33Z"/><path class="cls-31" d="M62.32,147.11c.42-1.48-.14-2.23-1.06-2.23a2.21,2.21,0,0,0-1.53,1.81c.55.71,0,1.87,0,1.87a4,4,0,0,0-.67,2.11c.69.61.92,1.3,1.22,1.3s.28-2.42.54-2.53a6.94,6.94,0,0,0,1.5-2.33Z"/><path class="cls-32" d="M60,151.92,58.87,153s-.08.61.48.37a4.18,4.18,0,0,0,.55-.59l.46-.66-.39-.24Z"/><path class="cls-30" d="M27.46,152s-2.14,1.38-2.66.32a4,4,0,0,1,0-2.56s-1.65-2.14-1.71-2.9c-.27-3.73,3.15-2.26,3.15-1.74A33.58,33.58,0,0,0,27.46,152Z"/><path class="cls-19" d="M23.23,147.21c-.43-1.48.14-2.22,1.06-2.22a2.22,2.22,0,0,1,1.53,1.8c-.56.71,0,1.87,0,1.87a4,4,0,0,1,.67,2.11c-.7.61-.93,1.3-1.23,1.3s-.27-2.41-.54-2.53a6.74,6.74,0,0,1-1.49-2.33Z"/><path class="cls-31" d="M23.23,147.11c-.43-1.48.14-2.23,1.06-2.23a2.24,2.24,0,0,1,1.53,1.81c-.56.71,0,1.87,0,1.87a4,4,0,0,1,.67,2.11c-.7.61-.93,1.3-1.23,1.3s-.27-2.42-.54-2.53a6.74,6.74,0,0,1-1.49-2.33Z"/><path class="cls-32" d="M25.92,151.92,27,153s.08.61-.49.37a5.31,5.31,0,0,1-.55-.59l-.45-.66.39-.24Z"/><path class="cls-19" d="M59.32,133.71v2.9s-1,19.59-2.14,21.06-11,7.7-14.33,7.7-10.4-4.25-13.82-7.7c-1.06-1.07-1.82-21.06-1.82-21.06v-2.9s.4-13.43,15.64-12.64,16.47,12.64,16.47,12.64Z"/><path class="cls-33" d="M59.32,133.47v2.9s-1,19.59-2.17,21.06-11.16,7.7-14.54,7.7-10.56-4.25-14-7.7c-1.08-1.07-1.86-21.06-1.86-21.06v-2.9s.42-13.43,15.89-12.64,16.71,12.64,16.71,12.64Z"/><path class="cls-21" d="M46.43,144.24a4.73,4.73,0,0,1,3.19-2.07,7.81,7.81,0,0,1,3-.13,7.69,7.69,0,0,0,2,.45.62.62,0,0,0,.72-.75,1.52,1.52,0,0,1,.06,1.13c.24.29.73-.76.73-.76s.11,1.07-.48,1.23c.39.26,1-.58,1-.58s0,.8-.43,1c.35.26.7-.06.84-.3.14.62-.69.93-.69.93a9.78,9.78,0,0,1-1.17.09,3.68,3.68,0,0,1-2.05,1.69,12.57,12.57,0,0,1-3.47.08,7.77,7.77,0,0,1-3.25-1.2s-.16-.17.1-.76Z"/><path class="cls-34" d="M47,144.64c-.21-.59,1.38-1.61,2-1.92a7.62,7.62,0,0,1,3.31-.19c.62.16,2.54.57,2.55,1.42s-1.75,1.7-2.21,1.88a9.85,9.85,0,0,1-3.26.08c-.54-.18-2.23-.68-2.43-1.27Z"/><path class="cls-21" d="M49.06,144.31a1.91,1.91,0,1,0,1.83-2,1.91,1.91,0,0,0-1.83,2Z"/><path class="cls-35" d="M49.41,144.29a1.56,1.56,0,1,0,1.5-1.6,1.56,1.56,0,0,0-1.5,1.6Z"/><path class="cls-36" d="M49.41,144.29a1.56,1.56,0,1,0,1.5-1.6,1.56,1.56,0,0,0-1.5,1.6Z"/><path class="cls-34" d="M50.77,143.45a.47.47,0,0,0,.49.44.47.47,0,1,0-.49-.44Z"/><path class="cls-37" d="M50.77,143.45a.47.47,0,0,0,.49.44.47.47,0,1,0-.49-.44Z"/><path class="cls-21" d="M39.05,144.24a4.77,4.77,0,0,0-3.2-2.07,7.76,7.76,0,0,0-3-.13,7.87,7.87,0,0,1-2,.45.61.61,0,0,1-.71-.75,1.47,1.47,0,0,0-.06,1.13c-.25.29-.74-.76-.74-.76s-.11,1.07.49,1.23c-.39.26-1-.58-1-.58s.05.8.42,1c-.35.26-.69-.06-.83-.3-.14.62.68.93.68.93a9.78,9.78,0,0,0,1.17.09,3.68,3.68,0,0,0,2.05,1.69,12.64,12.64,0,0,0,3.48.08,7.77,7.77,0,0,0,3.24-1.2s.16-.17-.09-.76Z"/><path class="cls-34" d="M38.46,144.64c.2-.59-1.39-1.61-2.05-1.92a7.61,7.61,0,0,0-3.31-.19c-.61.16-2.53.57-2.54,1.42s1.74,1.7,2.2,1.88a9.86,9.86,0,0,0,3.26.08c.55-.18,2.23-.68,2.44-1.27Z"/><path class="cls-21" d="M36.42,144.31a1.92,1.92,0,1,1-1.84-2,1.92,1.92,0,0,1,1.84,2Z"/><path class="cls-35" d="M36.06,144.29a1.56,1.56,0,1,1-1.49-1.6,1.54,1.54,0,0,1,1.49,1.6Z"/><path class="cls-36" d="M36.06,144.29a1.56,1.56,0,1,1-1.49-1.6,1.54,1.54,0,0,1,1.49,1.6Z"/><path class="cls-34" d="M34.7,143.45a.47.47,0,1,1-.45-.49.47.47,0,0,1,.45.49Z"/><path class="cls-37" d="M34.7,143.45a.47.47,0,1,1-.45-.49.47.47,0,0,1,.45.49Z"/><path class="cls-21" d="M44.38,145.12l.12,3.35s.09,1.08.53.93,0-.86,0-.84l-.08-3.46-.55,0Z"/><path class="cls-21" d="M40.89,151.27a6.28,6.28,0,0,0,.75.95c.41.46,1.32.52,2.55.42.43,0,1-.9,1.13-1.42s.66-.36.4.23c-.4,1-1,1.58-1.5,1.56a17.73,17.73,0,0,1-2.46-.06s-1.19-1-1.34-1.5c-.1-.27.24-.43.47-.18Z"/><path class="cls-30" d="M47,141.28s6.42-1,7.8-.31,2.87,1.73,2.87,1.73.58,0,.23-.81-3.56-2.74-3.56-2.74-7.11.91-7.23,1.22-.92.6-.11.91Z"/><path class="cls-30" d="M38.12,141.28s-6.48-1-7.86-.31-2.89,1.73-2.89,1.73-.58,0-.24-.81,3.59-2.74,3.59-2.74,7.17.91,7.29,1.22.92.6.11.91Z"/><path class="cls-38" d="M35.26,156.14s5.72.54,6.27.13,1.5.41,2.86-.13c.21-.09,4.18.58,5.72.06.81-.27-4.16,2.46-5.11,2.59a32.91,32.91,0,0,1-4.15-.13s-4.63-2-5.59-2.52Z"/><path class="cls-31" d="M35.26,156.14s5.72.54,6.27.13,1.5.41,2.86-.13c.21-.09,4.18.58,5.72.06.81-.27-4.16,2.46-5.11,2.59a32.91,32.91,0,0,1-4.15-.13s-4.63-2-5.59-2.52Z"/><path class="cls-30" d="M48.81,131.62l2.82-8.54S43,112.54,29,124.82c-6.58,5.79-4.85,12.88-3.65,13.75s17.4,2,23.47-6.95Z"/><path class="cls-30" d="M48.81,130.46l2.42-7.76s9.59-2.37,11.08,9.26c1,7.7-.58,10.62-1.26,10.62s-7.3-4.62-12.24-12.12Z"/><path class="cls-19" d="M86.27,165.36a10.32,10.32,0,0,1-1.52-6.08c.42-3.06.62-5.1.81-6.31S88,155.41,87.22,157s1.79-6,2.64-6,1.84.67,1.54,1.5,1.78.15,2.41,1,1.24,0,2.44,1.22c.66.69.85.19,1.54,1.22a4.18,4.18,0,0,1,.29,2.76s1.69,4.88-4.37,9.36"/><path class="cls-24" d="M86.27,165.36a10.32,10.32,0,0,1-1.52-6.08c.42-3.06.62-5.1.81-6.31S88,155.41,87.22,157s1.79-6,2.64-6,1.84.67,1.54,1.5,1.78.15,2.41,1,1.24,0,2.44,1.22c.66.69.85.19,1.54,1.22a4.18,4.18,0,0,1,.29,2.76s1.69,4.88-4.37,9.36"/><path class="cls-39" d="M89,164.78a25.1,25.1,0,1,0-25.09-25.1A25.1,25.1,0,0,0,89,164.78Z"/><path class="cls-40" d="M91,164.78a25.1,25.1,0,1,0-25.09-25.1A25.1,25.1,0,0,0,91,164.78Z"/><path class="cls-41" d="M90.82,161a21.34,21.34,0,1,0-21.34-21.34A21.33,21.33,0,0,0,90.82,161Z"/><path class="cls-42" d="M90.91,157.25a17.57,17.57,0,1,0-17.57-17.57,17.57,17.57,0,0,0,17.57,17.57Z"/><path class="cls-39" d="M86.21,153.33H88.7l.61-2.84c4.79-.19,7.47-1.7,8.66-7.16,1.69-8-8.31-5.72-7.38-10.12a2,2,0,0,1,1.85-1.76c1.09,0,1.31.86,1.09,1.85l-.2.93h6c.77-3.58.42-6.58-5.14-6.81l.54-2.46H92.25l-.54,2.46c-4,.23-6.62,2.53-7.61,7.1-.89,4.28,1.63,5.33,3.29,6.26,1,.51,2.08,1,2.85,1.43s1.21.77.89,2.21c-.22,1.08-.8,2-2,2s-1.41-.83-1.15-1.91l.22-1.15H82l-.13.67c-1,4.47,1,6.19,4.92,6.42l-.61,2.84Z"/><path class="cls-19" d="M28,177.51a4.36,4.36,0,0,0,3.36,5.16L53,187.27a4.35,4.35,0,0,0,5.16-3.35v0a4.35,4.35,0,0,0-3.35-5.16L33.18,174.1A4.35,4.35,0,0,0,28,177.45l0,.06Z"/><path class="cls-43" d="M27.27,177.51a4.35,4.35,0,0,0,3.35,5.16l21.65,4.6a4.35,4.35,0,0,0,5.16-3.35l0,0a4.35,4.35,0,0,0-3.35-5.16L32.44,174.1a4.35,4.35,0,0,0-5.16,3.35v.06Z"/><path class="cls-19" d="M50.14,184.65s6.62,1.77,7.68.75l17.25-15s-2.73-9.23-5.74-6.61L54.6,176.47"/><path class="cls-44" d="M48.29,186.24S54.91,188,56,187l17.26-15s-2.74-9.22-5.75-6.61L52.75,178.06"/><path class="cls-19" d="M67.71,166.1A10.27,10.27,0,0,1,69.19,160c1.8-2.52,2.93-4.22,3.65-5.21s1,3.29-.42,4.38,4.38-4.47,5.14-4.1,1.32,1.45.67,2,1.5,1,1.65,2,1.11.55,1.59,2.21c.27.92.66.57.8,1.8a4.13,4.13,0,0,1-1,2.57S80.46,170.85,73,172"/><path class="cls-45" d="M67.71,166.1A10.27,10.27,0,0,1,69.19,160c1.8-2.52,2.93-4.22,3.65-5.21s1,3.29-.42,4.38,4.38-4.47,5.14-4.1,1.32,1.45.67,2,1.5,1,1.65,2,1.11.55,1.59,2.21c.27.92.66.57.8,1.8a4.13,4.13,0,0,1-1,2.57S80.46,170.85,73,172"/><path class="cls-30" d="M28.09,137s-.74,18.28,1.55,19.59-2.32,11.47,3.54,12.83-7.25,1.87-5.39-5.48-4.38-26.57-1.95-27.37"/><path class="cls-30" d="M58.61,136.54s.73,18.28-1.55,19.59S59.38,167.6,53.52,169s7.25,1.86,5.39-5.49,4.38-26.57,2-27.37"/></g></g></svg>