<svg id="Capa_1" data-name="Capa 1" xmlns="http://www.w3.org/2000/svg" viewBox="0 0 90 90"><defs><style>.cls-1{fill:#fff;}.cls-2{fill:#000f9f;}</style></defs><rect class="cls-1" width="90" height="90"/><path class="cls-2" d="M74.56,42.86c0,16.73-13.07,30.28-29.19,30.28S16.2,59.59,16.2,42.86,29.26,12.59,45.37,12.59,74.56,26.15,74.56,42.86m-27.18-.61a5.8,5.8,0,1,0,5.79-6,5.92,5.92,0,0,0-5.79,6m-1.49-4.06a16.53,16.53,0,0,0-7.82,15.27A20.36,20.36,0,0,0,50.35,71.09c5.39-10,1.65-15.87-1.65-21-2.41-3.77-4.71-7.36-2.81-11.86M39.3,23a7.16,7.16,0,1,0,14.31,0A7.16,7.16,0,1,0,39.3,23m.48,41.15A21.78,21.78,0,0,1,36,53a18.54,18.54,0,0,1,2.14-9.76A17.13,17.13,0,0,1,43,37.65c-4.06-7.38-8.24-13.28-3-21.71C22.06,26.73,23,55.83,41.39,66.2a20,20,0,0,1-1.61-2.06M77.59,23.27c-3.36-5.25-5.43-7.92-12.36-13-6.74-4.92-14.76-6.46-24.1-5.54-8.21.82-16.27,5.54-20.75,9.65C13.7,20.54,10.3,29.92,10.3,29.92a22.75,22.75,0,0,0-6,4.44c-2.9,3-5,10.92-1.53,16.94s11.64,7.29,11.64,7.29l-.24-28.67a35.83,35.83,0,0,1,7.72-12C27.71,12.27,36,9.51,43,8.71s14.57,1.86,20.32,5.39c8.56,5.27,12,15.84,12,15.84V56.67a26,26,0,0,1-2.68,6.81c-1.83,3-4.53,6.75-12,10.93-6.91,3.85-10.44,3.8-10.44,3.8a5.7,5.7,0,0,0-2.86-2.54c-2.29-1.11-7.14-.16-7.14-.16-3,1.56-4.3,4.34-3.51,6.33,1.27,3.16,5.2,3.8,8.56,3.64s5.34-3.64,5.34-3.64a4.15,4.15,0,0,0,1.68-.16c4.82-1.31,8.77-2.1,16.67-7.91A28.81,28.81,0,0,0,79.75,57.28,18.92,18.92,0,0,0,85,54.11C88.84,51,89.71,42.67,88.48,38.4s-7.25-8.32-7.25-8.32a45.17,45.17,0,0,0-3.64-6.81"/></svg>