<svg xmlns="http://www.w3.org/2000/svg" viewBox="0 0 50.19 48.42"><defs><style>.cls-1{fill:#000f9f;}</style></defs><g id="Capa_2" data-name="Capa 2"><g id="Capa_1-2" data-name="Capa 1"><path class="cls-1" d="M25.09,48.42C11.26,48.42,0,37.56,0,24.21S11.26,0,25.09,0s25.1,10.86,25.1,24.21S38.93,48.42,25.09,48.42Zm0-45.81C12.75,2.61,2.7,12.3,2.7,24.21S12.75,45.82,25.09,45.82s22.4-9.69,22.4-21.61S37.44,2.61,25.09,2.61Z"/><path class="cls-1" d="M39.28,26.06v9a.41.41,0,0,1-.42.4H34a.4.4,0,0,1-.41-.4V26.69c0-2.21-.82-3.73-2.88-3.73a3.09,3.09,0,0,0-2.91,2,3.59,3.59,0,0,0-.19,1.33v8.8a.41.41,0,0,1-.42.4H22.38a.41.41,0,0,1-.42-.4C22,32.86,22,22,22,19.44a.4.4,0,0,1,.42-.41h4.82a.41.41,0,0,1,.42.4v1.93l0,.06h0v-.06a5.68,5.68,0,0,1,5.12-2.72c3.73,0,6.53,2.36,6.53,7.42ZM13.56,35.5H18.4a.41.41,0,0,0,.42-.4V19.43a.41.41,0,0,0-.42-.4H13.56a.41.41,0,0,0-.42.4V35.1A.41.41,0,0,0,13.56,35.5Z"/><ellipse class="cls-1" cx="15.81" cy="14" rx="3.04" ry="2.93"/></g></g></svg>