<svg xmlns="http://www.w3.org/2000/svg" viewBox="0 0 210.98 51.45"><defs><style>.cls-1,.cls-2{fill:#000f9f;}.cls-1,.cls-3{fill-rule:evenodd;}.cls-3{fill:#aec908;}</style></defs><g id="Capa_2" data-name="Capa 2"><g id="Capa_1-2" data-name="Capa 1"><path class="cls-1" d="M200,13.72h-3.34l-9.43,22h3.12l2.63-6.12H203l2.59,6.12h3.65Zm-2,13.6h-4.07L198,17.83,202,27.32Z"/><polygon class="cls-1" points="174.95 35.76 166 13.72 169.37 13.72 176.7 31.75 183.79 13.72 186.77 13.72 178.14 35.76 174.95 35.76"/><path class="cls-1" d="M157.17,25.42a7.82,7.82,0,0,0,3.54-2.49A5.91,5.91,0,0,0,162,19.21a4.9,4.9,0,0,0-1.82-4.08,8.64,8.64,0,0,0-5.26-1.41H147.7v22H151V26.44h3.15l.57.81,6.2,8.51h4.14Zm-2.42-1.58a11.34,11.34,0,0,1-2.63.25H151v-8h2.14c.56,0,1.12,0,1.58.07,2.49.31,3.75,1.44,3.75,3.34a4,4,0,0,1-1.65,3.44A5.78,5.78,0,0,1,154.75,23.84Z"/><polygon class="cls-1" points="129.84 35.76 129.84 13.72 143.14 13.72 143.14 16.08 133.25 16.08 133.25 23.14 141.56 23.14 141.56 25.43 133.25 25.43 133.25 33.4 143.84 33.4 143.84 35.76 129.84 35.76"/><path class="cls-1" d="M110.69,35.34v-3.1a17.42,17.42,0,0,0,6.6,1.72,4.81,4.81,0,0,0,3.19-1,3.06,3.06,0,0,0,1.23-2.53,3.27,3.27,0,0,0-.81-2.21,10.76,10.76,0,0,0-2.91-2l-1.65-.88a15.07,15.07,0,0,1-4.28-3A4.81,4.81,0,0,1,110.8,19a5.15,5.15,0,0,1,2-4.18,7.52,7.52,0,0,1,5.08-1.65,21.78,21.78,0,0,1,5.79.84v2.85a18.24,18.24,0,0,0-5.61-1.38,4.57,4.57,0,0,0-2.88.88A2.6,2.6,0,0,0,114,18.54a2.71,2.71,0,0,0,.85,2,13.86,13.86,0,0,0,3,2l1.72.88a15.24,15.24,0,0,1,4.28,3.06A5,5,0,0,1,125.14,30a5.44,5.44,0,0,1-2.28,4.6,9.66,9.66,0,0,1-6,1.72A25.79,25.79,0,0,1,110.69,35.34Z"/><path class="cls-1" d="M208.09,14h.07a3,3,0,0,1,.67.07.57.57,0,0,1,.35.29.67.67,0,0,1,.14.45.73.73,0,0,1-.21.56.91.91,0,0,1-.56.29,2.16,2.16,0,0,1,.31.24c.07.11.18.25.32.49l.39.57h-.74l-.42-.64a2.31,2.31,0,0,0-.32-.45v-.64a1.18,1.18,0,0,0,.39,0,.18.18,0,0,0,.17-.11.39.39,0,0,0,0-.21c0-.1,0-.21-.07-.24a.33.33,0,0,0-.21-.14h-.32Zm-1.19,3V14h1.19v.5h-.59v.73h.59v.64h0a.26.26,0,0,0-.17-.11.8.8,0,0,0-.28,0h-.14V17Z"/><path class="cls-2" d="M207.88,18.72a3.12,3.12,0,1,1,3.1-3.13A3.14,3.14,0,0,1,207.88,18.72Zm0-5.52a2.4,2.4,0,1,0,2.38,2.39A2.4,2.4,0,0,0,207.88,13.2Z"/><polygon class="cls-1" points="86.07 35.76 86.07 13.72 89.65 13.72 102.52 30.73 102.52 13.72 105.64 13.72 105.64 35.76 102.1 35.76 89.19 18.75 89.19 35.76 86.07 35.76"/><path class="cls-1" d="M77.72,16.32A12.1,12.1,0,0,0,69,13.2h0a12.14,12.14,0,0,0-8.7,3.12A11.23,11.23,0,0,0,57,24.76a11.2,11.2,0,0,0,3.26,8.4A12.14,12.14,0,0,0,69,36.28h0a12.1,12.1,0,0,0,8.69-3.12A11.17,11.17,0,0,0,81,24.76,11.2,11.2,0,0,0,77.72,16.32ZM75,31.5A7.47,7.47,0,0,1,69,34h0a7.47,7.47,0,0,1-6-2.46,9.87,9.87,0,0,1-2.14-6.78A9.88,9.88,0,0,1,63,17.94a7.58,7.58,0,0,1,6-2.43h0a7.58,7.58,0,0,1,6,2.43,9.88,9.88,0,0,1,2.14,6.78A9.87,9.87,0,0,1,75,31.5Z"/><path class="cls-1" d="M53.28,34.6a15.37,15.37,0,0,1-7.12,1.68c-3.4,0-6.07-1-7.93-3s-2.77-4.85-2.77-8.54.95-6.54,2.84-8.54,4.56-3,8-3a30.41,30.41,0,0,1,6.91.94v3a22.87,22.87,0,0,0-7-1.59,6.71,6.71,0,0,0-5.54,2.43,10.68,10.68,0,0,0-2,6.85,9.79,9.79,0,0,0,2.1,6.64,7.16,7.16,0,0,0,5.72,2.43,14.11,14.11,0,0,0,6.7-1.93Z"/><path class="cls-1" d="M40.12,45.6a1.84,1.84,0,0,1-1.36-.53,2,2,0,0,1-.49-1.44,2.2,2.2,0,0,1,.49-1.48,1.83,1.83,0,0,1,1.36-.52,2,2,0,0,1,.43,0,1.55,1.55,0,0,1,.35.07,1.32,1.32,0,0,1,.28.11,1.94,1.94,0,0,1,.24.1v.92h-.1a.66.66,0,0,0-.18-.14,1.16,1.16,0,0,0-.24-.18.67.67,0,0,0-.28-.14.92.92,0,0,0-.32-.07,1.18,1.18,0,0,0-.39.07,1.45,1.45,0,0,0-.35.24,1,1,0,0,0-.21.39,1.54,1.54,0,0,0-.1.6,1.57,1.57,0,0,0,.1.6,1.25,1.25,0,0,0,.25.38.71.71,0,0,0,.31.21,1.34,1.34,0,0,0,.39.07,1,1,0,0,0,.35-.07,1.22,1.22,0,0,0,.28-.14,1.35,1.35,0,0,0,.25-.17c.07,0,.1-.11.17-.14h.07v.91l-.24.11-.28.1a1.15,1.15,0,0,1-.35.07A1.33,1.33,0,0,1,40.12,45.6Z"/><path class="cls-1" d="M45.46,43.63a1.91,1.91,0,0,1-.5,1.44,1.73,1.73,0,0,1-1.36.53v-.71h0a.92.92,0,0,0,.32-.07,2.78,2.78,0,0,0,.28-.24,1.25,1.25,0,0,0,.17-.39,2.29,2.29,0,0,0,.07-.6A2.19,2.19,0,0,0,44.4,43a1,1,0,0,0-.17-.39A2.78,2.78,0,0,0,44,42.4a.92.92,0,0,0-.32-.07h0v-.7a1.73,1.73,0,0,1,1.36.52A2,2,0,0,1,45.46,43.63Zm-1.86,2h0a1.75,1.75,0,0,1-1.34-.53,1.94,1.94,0,0,1-.49-1.44,2,2,0,0,1,.49-1.48,1.74,1.74,0,0,1,1.34-.52h0v.7a.92.92,0,0,0-.32.07.77.77,0,0,0-.28.24.83.83,0,0,0-.17.39,2.29,2.29,0,0,0-.07.6,2.19,2.19,0,0,0,.07.56.94.94,0,0,0,.17.39,2.78,2.78,0,0,0,.28.24.92.92,0,0,0,.32.07Z"/><polygon class="cls-1" points="49.31 45.53 48.37 45.53 46.89 42.86 46.89 45.53 46.02 45.53 46.02 41.7 47.21 41.7 48.44 43.88 48.44 41.7 49.31 41.7 49.31 45.53"/><path class="cls-1" d="M51.24,45.6a6.12,6.12,0,0,1-.77-.07l-.59-.21V44.4H50a2.84,2.84,0,0,0,.63.35,1.57,1.57,0,0,0,.7.14h.21a1.72,1.72,0,0,0,.21-.07.53.53,0,0,0,.17-.14.22.22,0,0,0,.07-.17.26.26,0,0,0-.14-.25.63.63,0,0,0-.24-.14l-.42-.1a.94.94,0,0,1-.42-.11,1.51,1.51,0,0,1-.63-.42A1.07,1.07,0,0,1,50.33,42a1.8,1.8,0,0,1,1.16-.35,3.91,3.91,0,0,1,.67.07,2.54,2.54,0,0,1,.59.17v.88h-.07a1.71,1.71,0,0,0-.52-.28,1.38,1.38,0,0,0-.64-.14h-.21a1.72,1.72,0,0,0-.21.07.53.53,0,0,0-.17.14.23.23,0,0,0-.07.18A.31.31,0,0,0,51,43a1.17,1.17,0,0,0,.42.14,1.15,1.15,0,0,0,.35.07,2,2,0,0,1,.39.14,1,1,0,0,1,.6.39.86.86,0,0,1,.21.63,1.14,1.14,0,0,1-.46.92A1.91,1.91,0,0,1,51.24,45.6Z"/><path class="cls-1" d="M55,45.6a1.74,1.74,0,0,1-1.19-.35,1.42,1.42,0,0,1-.42-1.09V41.7h.94v2.39a.88.88,0,0,0,.18.59c.07.14.25.18.49.18a.52.52,0,0,0,.46-.18.86.86,0,0,0,.17-.59V41.7h.95v2.46a1.43,1.43,0,0,1-.39,1.05A1.57,1.57,0,0,1,55,45.6Z"/><polygon class="cls-1" points="59.84 45.53 57.28 45.53 57.28 41.7 58.22 41.7 58.22 44.79 59.84 44.79 59.84 45.53"/><polygon class="cls-1" points="61.03 45.53 61.03 42.43 59.87 42.43 59.87 41.7 63.1 41.7 63.1 42.43 61.98 42.43 61.98 45.53 61.03 45.53"/><path class="cls-1" d="M67,43.63a2,2,0,0,1-.52,1.44,1.75,1.75,0,0,1-1.34.53v-.71h0a.92.92,0,0,0,.32-.07,1.08,1.08,0,0,0,.28-.24,1.25,1.25,0,0,0,.17-.39,1.47,1.47,0,0,0,.07-.6A1.36,1.36,0,0,0,65.9,43a1,1,0,0,0-.17-.39,1.08,1.08,0,0,0-.28-.24.92.92,0,0,0-.32-.07h0v-.7a1.74,1.74,0,0,1,1.34.52A2,2,0,0,1,67,43.63Zm-1.86,2h0a1.77,1.77,0,0,1-1.37-.53,2.12,2.12,0,0,1-.49-1.44,2.18,2.18,0,0,1,.49-1.48,1.76,1.76,0,0,1,1.37-.52h0v.7a.62.62,0,0,0-.31.07.43.43,0,0,0-.28.24,1.51,1.51,0,0,0-.21.39,2.29,2.29,0,0,0-.07.6,2.19,2.19,0,0,0,.07.56,1,1,0,0,0,.21.39.94.94,0,0,0,.28.24.87.87,0,0,0,.31.07Z"/><path class="cls-1" d="M71.06,45.53H69.9L69,44.37v-.95h.07l.24-.11a.53.53,0,0,0,.14-.17.53.53,0,0,0,0-.28.55.55,0,0,0,0-.25.3.3,0,0,0-.17-.14,1.72,1.72,0,0,0-.21-.07H69v-.7h0a2.87,2.87,0,0,1,.56,0,1.92,1.92,0,0,1,.46.18.92.92,0,0,1,.31.31,1.19,1.19,0,0,1,.11.53,1.09,1.09,0,0,1-.18.7,1.35,1.35,0,0,1-.52.46Zm-2-1.16-.18-.25H68.5v1.41h-1V41.7H69v.7H68.5v1H69Z"/><polygon class="cls-1" points="71.34 45.53 71.34 41.7 73.94 41.7 73.94 42.43 72.32 42.43 72.32 43.1 73.8 43.1 73.8 43.84 72.32 43.84 72.32 44.79 73.94 44.79 73.94 45.53 71.34 45.53"/><path class="cls-1" d="M75.76,45.6a5.49,5.49,0,0,1-.77-.07l-.6-.21V44.4h.07a2.3,2.3,0,0,0,.63.35,1.58,1.58,0,0,0,.67.14H76a1.09,1.09,0,0,0,.25-.07.27.27,0,0,0,.14-.14c.07,0,.07-.1.07-.17a.33.33,0,0,0-.11-.25.63.63,0,0,0-.24-.14l-.43-.1a.77.77,0,0,1-.42-.11,1.2,1.2,0,0,1-.63-.42A1.06,1.06,0,0,1,74.85,42,1.78,1.78,0,0,1,76,41.63a4,4,0,0,1,.66.07,2.79,2.79,0,0,1,.6.17v.88H77.2a1.77,1.77,0,0,0-.53-.28,1.31,1.31,0,0,0-.63-.14h-.25s-.1,0-.21.07a.61.61,0,0,0-.14.14.27.27,0,0,0-.07.18.32.32,0,0,0,.11.24,1.17,1.17,0,0,0,.42.14,1.15,1.15,0,0,0,.35.07,2,2,0,0,1,.39.14,1,1,0,0,1,.59.39.85.85,0,0,1,.18.63,1.11,1.11,0,0,1-.42.92A1.93,1.93,0,0,1,75.76,45.6Z"/><path class="cls-1" d="M82.84,43.63a2.11,2.11,0,0,1-.21.95,1.72,1.72,0,0,1-.59.63,1.6,1.6,0,0,1-.67.25.58.58,0,0,1-.24,0v-.74a.48.48,0,0,0,.28-.1,1,1,0,0,0,.35-.39,1.78,1.78,0,0,0,.1-.67,1.74,1.74,0,0,0-.1-.63,1.3,1.3,0,0,0-.42-.42.44.44,0,0,0-.21-.07v-.74a.45.45,0,0,1,.24,0A1.46,1.46,0,0,1,82,42a1.5,1.5,0,0,1,.59.63A2.19,2.19,0,0,1,82.84,43.63Zm-1.71,1.86a2,2,0,0,1-.5,0H79.44V41.7h1.19a2.58,2.58,0,0,1,.5,0v.74a.35.35,0,0,0-.18,0c-.17,0-.32,0-.53,0h0v2.42h0c.21,0,.39,0,.53,0a.26.26,0,0,0,.18,0Z"/><polygon class="cls-1" points="83.41 45.53 83.41 41.7 86 41.7 86 42.43 84.39 42.43 84.39 43.1 85.86 43.1 85.86 43.84 84.39 43.84 84.39 44.79 86 44.79 86 45.53 83.41 45.53"/><path class="cls-1" d="M89.37,45.6a5.49,5.49,0,0,1-.77-.07L88,45.32V44.4h.1a1.93,1.93,0,0,0,.63.35,1.58,1.58,0,0,0,.67.14h.21c.1,0,.17,0,.21-.07a.3.3,0,0,0,.17-.14c.07,0,.07-.1.07-.17a.32.32,0,0,0-.1-.25.82.82,0,0,0-.28-.14c-.11,0-.25-.07-.42-.1a.74.74,0,0,1-.39-.11,1.2,1.2,0,0,1-.63-.42,1,1,0,0,1-.21-.67.94.94,0,0,1,.46-.84,1.67,1.67,0,0,1,1.12-.35,4.26,4.26,0,0,1,.7.07,2.79,2.79,0,0,1,.6.17v.88h-.11a1.54,1.54,0,0,0-.49-.28,1.31,1.31,0,0,0-.63-.14H89.4a1.72,1.72,0,0,0-.21.07.61.61,0,0,0-.14.14.27.27,0,0,0-.07.18.32.32,0,0,0,.11.24,1.22,1.22,0,0,0,.38.14,1.54,1.54,0,0,0,.39.07c.1,0,.24.07.39.14a1.16,1.16,0,0,1,.59.39,1,1,0,0,1,.18.63,1,1,0,0,1-.46.92A1.81,1.81,0,0,1,89.37,45.6Z"/><polygon class="cls-1" points="91.51 45.53 91.51 41.7 94.1 41.7 94.1 42.43 92.45 42.43 92.45 43.1 93.96 43.1 93.96 43.84 92.45 43.84 92.45 44.79 94.1 44.79 94.1 45.53 91.51 45.53"/><path class="cls-1" d="M98.28,45.53H97.12l-.91-1.16v-.95h.1l.25-.11c0-.07.1-.1.14-.17s0-.14,0-.28a.59.59,0,0,0-.07-.25.23.23,0,0,0-.17-.14,1.72,1.72,0,0,0-.21-.07h-.07v-.7h.07a3.32,3.32,0,0,1,.56,0,2.53,2.53,0,0,1,.42.18,1,1,0,0,1,.32.31.89.89,0,0,1,.14.53,1.1,1.1,0,0,1-.21.7,1.05,1.05,0,0,1-.53.46Zm-2.07-1.16L96,44.12h-.35v1.41h-1V41.7h1.48v.7h-.53v1h.53Z"/><polygon class="cls-1" points="101.75 41.7 100.42 45.53 99.43 45.53 98.1 41.7 99.12 41.7 99.96 44.3 100.77 41.7 101.75 41.7"/><polygon class="cls-1" points="103.99 45.53 101.96 45.53 101.96 44.86 102.49 44.86 102.49 42.36 101.96 42.36 101.96 41.7 103.99 41.7 103.99 42.36 103.47 42.36 103.47 44.86 103.99 44.86 103.99 45.53"/><path class="cls-1" d="M106.27,45.6a1.84,1.84,0,0,1-1.36-.53,2,2,0,0,1-.5-1.44,2.2,2.2,0,0,1,.5-1.48,1.83,1.83,0,0,1,1.36-.52,1.8,1.8,0,0,1,.42,0,1.53,1.53,0,0,1,.36.07,1.32,1.32,0,0,1,.28.11,1.94,1.94,0,0,1,.24.1v.92h-.1a.66.66,0,0,0-.18-.14c-.07-.08-.14-.11-.21-.18a1,1,0,0,0-.32-.14.87.87,0,0,0-.31-.07,1.18,1.18,0,0,0-.39.07,3.14,3.14,0,0,0-.35.24,1,1,0,0,0-.21.39,1.54,1.54,0,0,0-.1.6,1.57,1.57,0,0,0,.1.6,1.25,1.25,0,0,0,.25.38.71.71,0,0,0,.31.21,1.34,1.34,0,0,0,.39.07,1.15,1.15,0,0,0,.35-.07,1.22,1.22,0,0,0,.28-.14,1.35,1.35,0,0,0,.25-.17c.07,0,.1-.11.17-.14h.07v.91l-.24.11-.28.1a4.06,4.06,0,0,1-.78.11Z"/><polygon class="cls-1" points="110.03 45.53 107.99 45.53 107.99 44.86 108.52 44.86 108.52 42.36 107.99 42.36 107.99 41.7 110.03 41.7 110.03 42.36 109.5 42.36 109.5 44.86 110.03 44.86 110.03 45.53"/><path class="cls-1" d="M114.17,43.63a2,2,0,0,1-.53,1.44,1.72,1.72,0,0,1-1.33.53v-.71h0a.87.87,0,0,0,.31-.07.94.94,0,0,0,.28-.24,1.55,1.55,0,0,0,.18-.39,1.47,1.47,0,0,0,.07-.6,1.36,1.36,0,0,0-.07-.56,1.18,1.18,0,0,0-.18-.39.94.94,0,0,0-.28-.24.87.87,0,0,0-.31-.07h0v-.7a1.72,1.72,0,0,1,1.33.52A2,2,0,0,1,114.17,43.63Zm-1.86,2h0a1.74,1.74,0,0,1-1.37-.53,2.07,2.07,0,0,1-.49-1.44,2.13,2.13,0,0,1,.49-1.48,1.74,1.74,0,0,1,1.37-.52h0v.7a.76.76,0,0,0-.32.07.46.46,0,0,0-.28.24,1.51,1.51,0,0,0-.21.39,2.29,2.29,0,0,0-.07.6,2.19,2.19,0,0,0,.07.56,1,1,0,0,0,.21.39,1.08,1.08,0,0,0,.28.24.92.92,0,0,0,.32.07Z"/><path class="cls-1" d="M115.88,45.6a6.12,6.12,0,0,1-.77-.07l-.59-.21V44.4h.07a2.84,2.84,0,0,0,.63.35,1.57,1.57,0,0,0,.7.14h.21a1.72,1.72,0,0,0,.21-.07.55.55,0,0,0,.18-.14.27.27,0,0,0,.07-.17.28.28,0,0,0-.14-.25.68.68,0,0,0-.25-.14l-.42-.1a.94.94,0,0,1-.42-.11,1.51,1.51,0,0,1-.63-.42A1.07,1.07,0,0,1,115,42a1.8,1.8,0,0,1,1.16-.35,3.81,3.81,0,0,1,.67.07,2.54,2.54,0,0,1,.59.17v.88h-.07a1.71,1.71,0,0,0-.52-.28,1.35,1.35,0,0,0-.64-.14H116a1.72,1.72,0,0,0-.21.07.53.53,0,0,0-.17.14.23.23,0,0,0-.07.18.31.31,0,0,0,.1.24,1.17,1.17,0,0,0,.42.14,1.15,1.15,0,0,0,.35.07,1.82,1.82,0,0,1,.39.14,1,1,0,0,1,.6.39.86.86,0,0,1,.21.63,1.14,1.14,0,0,1-.46.92A1.91,1.91,0,0,1,115.88,45.6Z"/><polygon class="cls-1" points="122.76 41.7 121.46 45.53 120.44 45.53 119.15 41.7 120.13 41.7 120.97 44.3 121.81 41.7 122.76 41.7"/><path class="cls-1" d="M124.51,41.7H125l1.3,3.83h-1l-.24-.78h-.6v-.7h.39l-.39-1.26h0Zm-1.79,3.83L124,41.7h.52v1.09l-.38,1.26h.38v.7h-.59l-.25.78Z"/><path class="cls-1" d="M130.26,45.53h-1.19l-.88-1.16v-.95h.11l.21-.11a.53.53,0,0,0,.14-.17.53.53,0,0,0,0-.28.55.55,0,0,0,0-.25.3.3,0,0,0-.17-.14,1.72,1.72,0,0,0-.21-.07h-.08v-.7h.08a2.64,2.64,0,0,1,.52,0,1.92,1.92,0,0,1,.46.18.92.92,0,0,1,.31.31,1.18,1.18,0,0,1,.14.53,1.1,1.1,0,0,1-.21.7,1.35,1.35,0,0,1-.52.46Zm-2.07-1.16-.17-.25h-.35v1.41h-1V41.7h1.47v.7h-.52v1h.52Z"/><polygon class="cls-1" points="132.44 45.53 130.37 45.53 130.37 44.86 130.93 44.86 130.93 42.36 130.37 42.36 130.37 41.7 132.44 41.7 132.44 42.36 131.88 42.36 131.88 44.86 132.44 44.86 132.44 45.53"/><path class="cls-1" d="M136.54,43.63a2.07,2.07,0,0,1-.49,1.44,1.8,1.8,0,0,1-1.37.53v-.71h0a1,1,0,0,0,.35-.07.82.82,0,0,0,.25-.24.88.88,0,0,0,.21-.39,2.29,2.29,0,0,0,.07-.6,2.19,2.19,0,0,0-.07-.56,1.2,1.2,0,0,0-.21-.39,1.08,1.08,0,0,0-.28-.24.76.76,0,0,0-.32-.07h0v-.7a1.79,1.79,0,0,1,1.37.52A2.13,2.13,0,0,1,136.54,43.63Zm-1.86,2h0a1.72,1.72,0,0,1-1.33-.53,2,2,0,0,1-.53-1.44,2,2,0,0,1,.53-1.48,1.72,1.72,0,0,1,1.33-.52h0v.7a.87.87,0,0,0-.31.07.51.51,0,0,0-.28.24,1,1,0,0,0-.18.39,1.47,1.47,0,0,0-.07.6,1.36,1.36,0,0,0,.07.56,1.09,1.09,0,0,0,.18.39.94.94,0,0,0,.28.24.87.87,0,0,0,.31.07Z"/><path class="cls-1" d="M138.3,45.6a5.1,5.1,0,0,1-.78-.07l-.63-.21V44.4H137a1.75,1.75,0,0,0,.63.35,1.47,1.47,0,0,0,.67.14h.21c.1,0,.17,0,.21-.07a.3.3,0,0,0,.17-.14.22.22,0,0,0,.07-.17.32.32,0,0,0-.1-.25.82.82,0,0,0-.28-.14c-.14,0-.25-.07-.42-.1a.74.74,0,0,1-.39-.11,1.43,1.43,0,0,1-.67-.42,1.33,1.33,0,0,1-.17-.67,1,1,0,0,1,.45-.84,1.65,1.65,0,0,1,1.13-.35,4.26,4.26,0,0,1,.7.07,2.54,2.54,0,0,1,.59.17v.88h-.1a2.15,2.15,0,0,0-.49-.28,1.31,1.31,0,0,0-.63-.14h-.25a1.72,1.72,0,0,0-.21.07.27.27,0,0,0-.14.14c-.07,0-.07.1-.07.18A.32.32,0,0,0,138,43a1.22,1.22,0,0,0,.38.14,1.34,1.34,0,0,0,.39.07,3.79,3.79,0,0,1,.38.14,1.15,1.15,0,0,1,.6.39,1.08,1.08,0,0,1,.17.63,1.06,1.06,0,0,1-.45.92A1.81,1.81,0,0,1,138.3,45.6Z"/><path class="cls-1" d="M143.14,45.6a6.28,6.28,0,0,1-.78-.07l-.59-.21V44.4h.07a2.84,2.84,0,0,0,.63.35,1.62,1.62,0,0,0,.7.14h.21a1.72,1.72,0,0,0,.21-.07.55.55,0,0,0,.18-.14.27.27,0,0,0,.07-.17.28.28,0,0,0-.14-.25.61.61,0,0,0-.25-.14L143,44a.94.94,0,0,1-.42-.11,1.51,1.51,0,0,1-.63-.42,1.07,1.07,0,0,1,.24-1.51,1.82,1.82,0,0,1,1.16-.35,3.81,3.81,0,0,1,.67.07,2.54,2.54,0,0,1,.59.17v.88h-.07a1.71,1.71,0,0,0-.52-.28,1.31,1.31,0,0,0-.63-.14h-.21a1.72,1.72,0,0,0-.21.07.55.55,0,0,0-.18.14.27.27,0,0,0-.07.18.32.32,0,0,0,.11.24,1.17,1.17,0,0,0,.42.14,1,1,0,0,0,.35.07,2,2,0,0,1,.38.14,1,1,0,0,1,.6.39.86.86,0,0,1,.21.63,1.14,1.14,0,0,1-.46.92A1.9,1.9,0,0,1,143.14,45.6Z"/><rect class="cls-2" x="145.28" y="44.51" width="0.91" height="1.02"/><path class="cls-1" d="M148.33,41.7h.52l1.3,3.83h-1l-.25-.78h-.59v-.7h.38l-.38-1.26h0Zm-1.79,3.83,1.26-3.83h.53v1.09l-.39,1.26h.39v.7h-.6l-.24.78Z"/><rect class="cls-2" x="150.5" y="44.51" width="0.91" height="1.02"/><path class="cls-1" d="M157.13,43.63a2.12,2.12,0,0,1-.24.95,1.52,1.52,0,0,1-.6.63,1.49,1.49,0,0,1-.63.25.84.84,0,0,1-.25,0v-.74a.38.38,0,0,0,.25-.1.75.75,0,0,0,.35-.39,1.58,1.58,0,0,0,0-1.3,1.13,1.13,0,0,0-.39-.42.44.44,0,0,0-.21-.07v-.74a.64.64,0,0,1,.25,0,1.61,1.61,0,0,1,.66.24,1.4,1.4,0,0,1,.57.63A1.86,1.86,0,0,1,157.13,43.63Zm-1.72,1.86a2.28,2.28,0,0,1-.52,0h-1.2V41.7h1.2a3,3,0,0,1,.52,0v.74a.39.39,0,0,0-.21,0c-.14,0-.31,0-.52,0h0v2.42h0c.21,0,.42,0,.56,0a.33.33,0,0,0,.17,0Z"/><polygon class="cls-1" points="157.69 45.53 157.69 41.7 160.25 41.7 160.25 42.43 158.64 42.43 158.64 43.1 160.15 43.1 160.15 43.84 158.64 43.84 158.64 44.79 160.25 44.79 160.25 45.53 157.69 45.53"/><path class="cls-1" d="M164.11,45.6a1.76,1.76,0,0,1-1.37-.53,1.91,1.91,0,0,1-.52-1.44,2.07,2.07,0,0,1,.52-1.48,1.75,1.75,0,0,1,1.37-.52,1.58,1.58,0,0,1,.39,0,1.21,1.21,0,0,1,.35.07.63.63,0,0,1,.28.11l.28.1v.92h-.11c-.07,0-.1-.11-.17-.14a1,1,0,0,0-.25-.18.82.82,0,0,0-.28-.14,1,1,0,0,0-.35-.07,1.4,1.4,0,0,0-.39.07,2.16,2.16,0,0,0-.31.24.88.88,0,0,0-.25.39,1.57,1.57,0,0,0-.07.6,1.6,1.6,0,0,0,.07.6,1.25,1.25,0,0,0,.25.38.64.64,0,0,0,.35.21,1.15,1.15,0,0,0,.35.07,1.34,1.34,0,0,0,.39-.07,1.46,1.46,0,0,0,.28-.14c.07-.07.14-.1.21-.17a.9.9,0,0,0,.17-.14h.11v.91l-.25.11-.31.1a.92.92,0,0,1-.32.07A1.24,1.24,0,0,1,164.11,45.6Z"/><rect class="cls-2" x="165.93" y="44.51" width="0.91" height="1.02"/><polygon class="cls-1" points="170.77 41.7 169.48 45.53 168.46 45.53 167.16 41.7 168.14 41.7 168.99 44.3 169.83 41.7 170.77 41.7"/><rect class="cls-2" x="171.13" y="44.51" width="0.88" height="1.02"/><path class="cls-1" d="M175.47,45.6a5.08,5.08,0,0,1-.77-.07l-.63-.21V44.4h.07a2.38,2.38,0,0,0,.67.35,1.43,1.43,0,0,0,.66.14h.21c.07,0,.18,0,.22-.07a.3.3,0,0,0,.17-.14.22.22,0,0,0,.07-.17.32.32,0,0,0-.1-.25.78.78,0,0,0-.29-.14l-.42-.1a.94.94,0,0,1-.42-.11,1.51,1.51,0,0,1-.63-.42,1,1,0,0,1-.17-.67,1,1,0,0,1,.45-.84,1.64,1.64,0,0,1,1.12-.35,3.71,3.71,0,0,1,.67.07,2.9,2.9,0,0,1,.63.17v.88h-.1a1.77,1.77,0,0,0-.53-.28,1.31,1.31,0,0,0-.63-.14h-.21a1.72,1.72,0,0,0-.21.07.55.55,0,0,0-.18.14s0,.1,0,.18a.31.31,0,0,0,.1.24,1,1,0,0,0,.39.14,1.28,1.28,0,0,0,.39.07,2,2,0,0,1,.35.14.9.9,0,0,1,.59.39.86.86,0,0,1,.21.63,1.06,1.06,0,0,1-.45.92A1.83,1.83,0,0,1,175.47,45.6Z"/><path class="cls-1" d="M181.09,43.63a2.08,2.08,0,0,1-.5,1.44,1.84,1.84,0,0,1-1.36.53v-.71h0a1.15,1.15,0,0,0,.35-.07.91.91,0,0,0,.24-.24,1.33,1.33,0,0,0,.21-.39,2.29,2.29,0,0,0,.07-.6A2.19,2.19,0,0,0,180,43a1,1,0,0,0-.21-.39.94.94,0,0,0-.28-.24.87.87,0,0,0-.31-.07h0v-.7a1.83,1.83,0,0,1,1.36.52A2.13,2.13,0,0,1,181.09,43.63Zm-1.86,2a1.86,1.86,0,0,1-1.37-.53,2.07,2.07,0,0,1-.49-1.44,2.13,2.13,0,0,1,.49-1.48,1.85,1.85,0,0,1,1.37-.52v.7a.92.92,0,0,0-.32.07.59.59,0,0,0-.28.24.83.83,0,0,0-.17.39,1.47,1.47,0,0,0-.07.6,1.36,1.36,0,0,0,.07.56.94.94,0,0,0,.17.39,1.08,1.08,0,0,0,.28.24.92.92,0,0,0,.32.07Z"/><polygon class="cls-1" points="184.21 42.43 182.59 42.43 182.59 43.14 184.07 43.14 184.07 43.88 182.59 43.88 182.59 45.53 181.65 45.53 181.65 41.7 184.21 41.7 184.21 42.43"/><path class="cls-1" d="M188.17,43.63a1.94,1.94,0,0,1-.49,1.44,1.76,1.76,0,0,1-1.37.53v-.71h0a.87.87,0,0,0,.31-.07.94.94,0,0,0,.46-.63,2.82,2.82,0,0,0,.07-.6,2.75,2.75,0,0,0-.07-.56,1.18,1.18,0,0,0-.18-.39,1.55,1.55,0,0,0-.28-.24.87.87,0,0,0-.31-.07h0v-.7a1.75,1.75,0,0,1,1.37.52A2,2,0,0,1,188.17,43.63Zm-1.86,2a1.72,1.72,0,0,1-1.33-.53,1.94,1.94,0,0,1-.49-1.44,2,2,0,0,1,.49-1.48,1.72,1.72,0,0,1,1.33-.52v.7a.87.87,0,0,0-.31.07.7.7,0,0,0-.28.24,1,1,0,0,0-.18.39,2.82,2.82,0,0,0-.07.6,2.75,2.75,0,0,0,.07.56,1.09,1.09,0,0,0,.18.39,1.55,1.55,0,0,0,.28.24.87.87,0,0,0,.31.07Z"/><polygon class="cls-1" points="192.66 45.53 191.68 45.53 191.68 43 191.01 44.61 190.34 44.61 189.64 43 189.64 45.53 188.73 45.53 188.73 41.7 189.85 41.7 190.7 43.59 191.54 41.7 192.66 41.7 192.66 45.53"/><polygon class="cls-1" points="194.97 45.53 194.97 41.7 197.57 41.7 197.57 42.43 195.92 42.43 195.92 43.1 197.43 43.1 197.43 43.84 195.92 43.84 195.92 44.79 197.57 44.79 197.57 45.53 194.97 45.53"/><rect class="cls-2" x="198.17" y="44.51" width="0.91" height="1.02"/><polygon class="cls-1" points="203.11 45.53 202.2 45.53 200.73 42.86 200.73 45.53 199.85 45.53 199.85 41.7 201.01 41.7 202.24 43.88 202.24 41.7 203.11 41.7 203.11 45.53"/><rect class="cls-2" x="203.85" y="44.51" width="0.91" height="1.02"/><path class="cls-1" d="M209.07,45.53h-1.19L207,44.37v-.95h.1c.07,0,.18-.07.21-.11a.53.53,0,0,0,.14-.17.5.5,0,0,0,.07-.28.59.59,0,0,0-.07-.25.3.3,0,0,0-.17-.14,1.72,1.72,0,0,0-.21-.07H207v-.7h.07a2.64,2.64,0,0,1,.52,0,1.92,1.92,0,0,1,.46.18.92.92,0,0,1,.31.31.83.83,0,0,1,.14.53,1.1,1.1,0,0,1-.21.7,1.35,1.35,0,0,1-.52.46ZM207,44.37l-.18-.25h-.35v1.41h-.95V41.7H207v.7h-.53v1H207Z"/><rect class="cls-2" x="209.32" y="44.51" width="0.91" height="1.02"/><path class="cls-3" d="M24.3,18.81a5.64,5.64,0,1,1-5.6,5.65A5.65,5.65,0,0,1,24.3,18.81Z"/><path class="cls-3" d="M17.24,20.67A15.32,15.32,0,0,0,9.67,35a19.07,19.07,0,0,0,11.9,16.49C26.8,42.07,23.18,36.6,20,31.77,17.64,28.24,15.42,24.88,17.24,20.67Z"/><path class="cls-1" d="M18.79,0a7,7,0,1,1-6.92,6.93A7,7,0,0,1,18.79,0Z"/><path class="cls-1" d="M12.33,45.45A19.94,19.94,0,0,1,8.63,35a16.93,16.93,0,0,1,2.08-9.13,16.54,16.54,0,0,1,4.68-5.23c-3.92-6.9-8-12.42-2.85-20.31-17.39,10.1-16.46,37.35,1.35,47A19.35,19.35,0,0,1,12.33,45.45Z"/></g></g></svg>