<svg xmlns="http://www.w3.org/2000/svg" viewBox="0 0 50.27 48.51"><defs><style>.cls-1{fill:#000f9f;}.cls-2{fill:#fff;fill-rule:evenodd;}</style></defs><g id="Capa_2" data-name="Capa 2"><g id="Capa_1-2" data-name="Capa 1"><path class="cls-1" d="M25.14,48.51C11.28,48.51,0,37.63,0,24.25S11.28,0,25.14,0,50.27,10.88,50.27,24.25,39,48.51,25.14,48.51Z"/><path class="cls-2" d="M26.32,8.47A14.92,14.92,0,0,0,11.15,23.11,14.11,14.11,0,0,0,13.57,31l-2.3,4.9a1.24,1.24,0,0,0,.19,1.36,1.36,1.36,0,0,0,1,.45,1.34,1.34,0,0,0,.35,0L19.17,36a15.56,15.56,0,0,0,7.15,1.73c8.37,0,15.18-6.57,15.18-14.64S34.69,8.47,26.32,8.47Zm0,26.72A12.92,12.92,0,0,1,20,33.55a1.31,1.31,0,0,0-1-.13l-4.15,1.1,1.44-3.07a1.23,1.23,0,0,0-.13-1.28,11.69,11.69,0,0,1-2.36-7.06A12.32,12.32,0,0,1,26.32,11,12.33,12.33,0,0,1,38.85,23.11,12.33,12.33,0,0,1,26.32,35.19Z"/><path class="cls-2" d="M32.16,25.3A2.65,2.65,0,0,0,30,24.82c-.58.23-.95,1.09-1.32,1.54a.56.56,0,0,1-.71.15,9.94,9.94,0,0,1-5-4.13.58.58,0,0,1,.08-.81,3.28,3.28,0,0,0,.91-1.42,3.07,3.07,0,0,0-.41-1.69,4,4,0,0,0-1.29-1.87,1.81,1.81,0,0,0-1.91.27,3.92,3.92,0,0,0-1.23,3.92A7.54,7.54,0,0,0,20,22.87a16.63,16.63,0,0,0,1,1.44,14.88,14.88,0,0,0,4.25,3.8,13.27,13.27,0,0,0,2.65,1.22A6,6,0,0,0,31,29.8a3.74,3.74,0,0,0,2.8-2,1.64,1.64,0,0,0,.13-1C33.74,26.06,32.75,25.64,32.16,25.3Z"/></g></g></svg>